<?xml version="1.0" encoding="utf-8"?>
<!-- Generator: Adobe Illustrator 16.0.0, SVG Export Plug-In . SVG Version: 6.00 Build 0)  -->
<!DOCTYPE svg PUBLIC "-//W3C//DTD SVG 1.1//EN" "http://www.w3.org/Graphics/SVG/1.1/DTD/svg11.dtd">
<svg version="1.1" id="Layer_1" xmlns="http://www.w3.org/2000/svg" xmlns:xlink="http://www.w3.org/1999/xlink" x="0px" y="0px"
	 width="3001.527px" height="2815.516px" viewBox="276.437 0 3001.527 2815.516"
	 enable-background="new 276.437 0 3001.527 2815.516" xml:space="preserve">
<g id="Layer_2">
	<path fill="#F7E6B5" d="M1691.378,233.028c647.439,0,1172.289,524.85,1172.289,1172.29s-524.85,1172.3-1172.289,1172.3
		c-647.44,0-1172.301-524.851-1172.301-1172.3C519.077,757.878,1043.937,233.028,1691.378,233.028z"/>
</g>
<g id="Layer_3">
	<path fill="#0E0E0E" d="M727.602,2119.347c0,15.313-29.503,35.644-29.503,35.644c-18.772,2.681-8.046,2.681-21.454-13.412
		c-13.41-16.091-26.82-21.456-24.486-32.184c2.334-10.729,21.804-16.093,45.94-21.455
		C722.238,2082.573,727.602,2104.031,727.602,2119.347z"/>
	<path fill="none" stroke="#000000" stroke-width="12" stroke-linecap="round" stroke-linejoin="round" stroke-miterlimit="10" d="
		M727.602,2119.347c0-15.314-5.364-36.772-29.503-31.407c-24.138,5.362-43.606,10.728-45.94,21.455s11.077,16.093,24.486,32.185
		c13.408,16.093,2.682,16.093,21.454,13.412C698.099,2154.99,727.602,2134.658,727.602,2119.347z"/>
</g>
<g id="Layer_4_2_">
	<path fill="#F8F8FF" d="M2022.173,2598.677L2022.173,2598.677C1032.8,2881.282,470.947,2038.074,470.947,2038.074
		s134.291-181.604,163.792-235.244c5.028-9.132,12.592-25.143,21.778-45.579c-1.463,3.341-16.454,41.113,19.35,115.301
		c11.828,24.484,32.519,59.713,59.42,98.398c-1.127,4.563-1.945,9.146-2.334,13.745c-2.012,24.138-0.296,20.115,21.818,44.857
		c11.315,12.672,19.696,9.396,25.813,1.891c54.271,67.345,122.11,134.097,191.186,166.522c7.654,3.593,15.502,7.024,23.467,10.283
		c-0.321,7.498,1.824,17.688,14.855,20.947c21.457,5.363,122.475,37.546,141.247,40.229c9.228,1.313,17.165-1.904,23.48-6.167
		c5.445,2.092,11.772,3.579,17.729,4.074c-1.486,15.783,1.248,38.043,1.248,38.043c-61.108-7.159-118.102,38.365-128.521,103.696
		c-10.688,66.943,31.593,129.338,94.405,139.372c62.823,10.018,122.404-36.129,133.093-103.082
		c9.427-59.085-22.396-114.628-73.19-133.736l4.306-47.754c31.097,4.053,58.521,6.548,79.438,8.113
		c1.918,3.476,4.772,6.088,8.931,7.282c18.774,5.363,39.332,8.045,58.105-2.683c0.066-0.043,0.12-0.065,0.188-0.121
		c43.207,2.277,95.25-1.045,147.441-49.002c32.572-29.931,74.88-70.414,114.882-109.182c5.699-0.417,11.452-0.938,17.231-1.543
		c47.498-4.975,96.656-15.997,125.527-23.186c15.853-3.954,25.601-6.744,25.601-6.744c13.354,32.73,37.092,81.186,78.823,152.725
		c112.642,193.103,156.896,422.408,156.896,422.408L2022.173,2598.677z M1709.189,2184.49c5.362-16.093-60.546-59.003-74.532,10.729
		c-3.487,17.433,24.46,33.887,18.21,42.909c-18.586,26.82-9.387,39.509,2.682,40.971c0,0,30.251-11.469,36.583-19.514
		c6.329-8.047,3.646-21.457,3.646-34.863C1695.779,2211.311,1703.825,2200.583,1709.189,2184.49z M1474.971,2567.126
		c42.912-32.184-2.682-40.229-13.408-40.229c-10.729,0-8.047-13.407-18.773-8.045c-10.729,5.365-83.141,77.778-83.141,77.778
		s20.812,23.265,45.593,0C1471.648,2534.273,1432.061,2599.309,1474.971,2567.126z M1020.822,2429.447
		c5.364-8.045,26.817-64.367-5.364-75.096c-32.184-10.729-56.322-8.045-75.095,0c-18.774,8.048-8.046,40.23-8.046,53.641
		c0,13.412-21.456,34.865-34.865,48.275s-53.641,75.094,21.456,64.366c0,0,64.368-42.911,69.729-59.001
		C994.002,2445.54,1015.458,2437.495,1020.822,2429.447z M698.099,2154.99c0,0,29.501-20.331,29.501-35.644
		c0-15.314-5.362-36.772-29.501-31.407c-24.138,5.362-43.606,10.729-45.94,21.455s11.077,16.093,24.484,32.184
		C690.053,2157.669,679.327,2157.669,698.099,2154.99z"/>
	<path fill="none" stroke="#000000" stroke-width="12" stroke-linecap="round" stroke-linejoin="round" stroke-miterlimit="10" d="
		M656.515,1757.251c-9.186,20.438-16.75,36.447-21.776,45.579c-29.501,53.643-129.958,198.414-129.958,198.414"/>
	<path fill="#0E0E0E" d="M1015.458,2354.352c32.183,10.728,10.729,67.051,5.364,75.096c-5.364,8.048-26.82,16.093-32.186,32.188
		c-5.362,16.09-69.729,59.001-69.729,59.001c-75.096,10.728-34.865-50.956-21.456-64.366s34.865-34.865,34.865-48.274
		s-10.729-45.594,8.046-53.642C959.135,2346.307,983.275,2343.624,1015.458,2354.352z"/>
	<path fill="none" stroke="#000000" stroke-width="12" stroke-linecap="round" stroke-linejoin="round" stroke-miterlimit="10" d="
		M1015.458,2354.352c-32.184-10.728-56.322-8.045-75.095,0c-18.774,8.048-8.046,40.229-8.046,53.642
		c0,13.41-21.456,34.864-34.865,48.274s-53.641,75.094,21.456,64.366c0,0,64.368-42.911,69.729-59.001
		c5.364-16.093,26.82-24.138,32.186-32.188C1026.186,2421.402,1047.64,2365.079,1015.458,2354.352z"/>
	<path fill="#0E0E0E" d="M1461.563,2526.896c10.728,0,56.319,8.048,13.407,40.23c-42.91,32.183-3.323-32.854-69.729,29.502
		c-24.781,23.266-45.594,0-45.594,0s72.413-72.412,83.142-77.777C1453.518,2513.488,1450.835,2526.896,1461.563,2526.896z"/>
	<path fill="none" stroke="#000000" stroke-width="12" stroke-linecap="round" stroke-linejoin="round" stroke-miterlimit="10" d="
		M1461.563,2526.896c10.728,0,56.319,8.048,13.407,40.23c-42.91,32.183-3.323-32.854-69.729,29.502
		c-24.781,23.266-45.594,0-45.594,0s72.413-72.412,83.142-77.777C1453.518,2513.488,1450.835,2526.896,1461.563,2526.896z"/>
	<path fill="none" stroke="#000000" stroke-width="12" stroke-linecap="round" stroke-linejoin="round" stroke-miterlimit="10" d="
		M2036.953,2661.946c0,0-44.254-229.308-156.896-422.409c-41.729-71.539-65.467-119.99-78.821-152.724
		c-22.689-55.625-15.383-65.937-15.383-67.196c0-2.013,5.566-11.306,11.828-16.228"/>
</g>
<path fill="#070707" d="M3060.817,1294.048l40.63,113.71l-40.63,113.71l21.58,118.81l-58.76,105.5l1.63,120.74l-75.431,94.29
	l-18.399,119.351l-89.98,80.529l-37.8,114.681l-101.979,64.67l-56.07,106.939l-111.19,47.11l-72.83,96.31l-117.409,28.21
	l-87.71,83.011l-120.46,8.42l-100.24,67.319l-120.19-11.659l-109.99,49.81l-116.649-31.25l-116.64,31.25l-110-49.81l-120.19,11.659
	l-100.24-67.319l-120.46-8.42l-87.7-83.011l-117.41-28.21l-72.84-96.319l-111.18-47.101l-56.08-106.95l-101.98-64.659l-37.8-114.69
	l-89.98-80.53l-18.4-119.34l-75.43-94.29l1.63-120.74l-58.75-105.5l21.58-118.81l-40.63-113.71l40.63-113.71l-21.58-118.82
	l58.76-105.49l-1.64-120.74l75.44-94.3l18.39-119.34l89.98-80.53l37.8-114.68l101.98-64.67l56.08-106.94l111.19-47.11l72.83-96.31
	l117.41-28.22l87.7-83l120.46-8.42l100.24-67.33l120.19,11.67l110-49.82l116.64,31.25l116.649-31.25l109.99,49.82l120.2-11.66
	l100.24,67.32l120.46,8.42l87.7,83.01l117.409,28.21l72.83,96.31l111.19,47.11l56.08,106.94l101.97,64.67l37.811,114.69
	l89.979,80.52l18.39,119.35l75.44,94.29l-1.64,120.74l58.76,105.49L3060.817,1294.048z M2999.437,1405.328
	c0-722.43-585.64-1308.06-1308.06-1308.06S383.317,682.908,383.317,1405.328s585.64,1308.05,1308.061,1308.05
	S2999.437,2127.748,2999.437,1405.328z"/>
<path fill="#FFFFFF" d="M1691.378,97.268c722.42,0,1308.06,585.63,1308.06,1308.06c0,722.42-585.64,1308.05-1308.06,1308.05
	s-1308.061-585.63-1308.061-1308.05S968.957,97.268,1691.378,97.268z M2909.057,1407.758c0-673.85-546.271-1220.12-1220.12-1220.12
	s-1220.11,546.27-1220.11,1220.12s546.26,1220.11,1220.11,1220.11S2909.057,2081.608,2909.057,1407.758z"/>
<path fill="#070707" d="M1688.937,187.638c673.85,0,1220.12,546.27,1220.12,1220.12s-546.271,1220.11-1220.12,1220.11
	s-1220.11-546.261-1220.11-1220.11S1015.087,187.638,1688.937,187.638z M2863.667,1405.318
	c0-647.44-524.85-1172.29-1172.289-1172.29c-647.44,0-1172.301,524.85-1172.301,1172.29c0,647.45,524.86,1172.3,1172.301,1172.3
	C2338.817,2577.618,2863.667,2052.758,2863.667,1405.318z"/>
<path fill="#FA67AB" d="M1599.348,2119.29c10.688,0.201,21.979-0.188,33.525-1.004c-40.002,38.768-82.311,79.25-114.882,109.182
	c-52.191,47.956-104.235,51.279-147.441,49.001c18.706-11.304,36.031-116.585,38.701-129.955
	c2.333-11.681-3.46-27.425-22.704-33.939C1482.979,2120.218,1564.953,2118.647,1599.348,2119.29z"/>
<path fill="#FA67AB" d="M1347.217,2108.992c-16.653,2.132-20.489,10.729-24.229,20.087c-5.364,13.41,0,13.41-26.82,18.772
	c-26.82,5.364-29.501-24.136-26.82-29.476c1.488-2.963,3.957-11.783,0.752-19.482
	C1296.086,2103.079,1321.979,2106.378,1347.217,2108.992z"/>
<path fill="#FA67AB" d="M1271.13,2209.54c7.872,2.411,35.241,8.285,32.559,19.015c-2.092,8.354-7.105,31.206-0.36,43.436
	c-20.918-1.565-48.342-4.063-79.439-8.112c-3.889-0.493-7.845-1.031-11.854-1.582c0.401-0.551,0.737-1.152,0.993-1.799
	c5.363-13.408-0.898-38.107,16.253-52.472C1240.288,2198.811,1253.697,2204.177,1271.13,2209.54z"/>
<path fill="#F8F8FF" d="M1758.176,1995.425c0,0-11.667,11.572-30.358,29.999c-4.492-1.49-10.26-2.685-18.317-6.491
	c-21.146-9.989-32.492-6.088-43.22,12.688c-10.729,18.772-26.82,21.455-64.368,26.817c-37.547,5.365-18.773,24.138-10.729,31.354
	c5.646,5.055,32.372,16.276,47.82,22.541c-2.039,1.983-4.077,3.955-6.128,5.955c-11.546,0.815-22.837,1.205-33.525,1.004
	c-34.396-0.645-116.37,0.927-212.801-6.719c-2.856-0.979-6.007-1.742-9.479-2.266c-13.033-1.958-22.648-2.24-29.851-1.314
	c-25.237-2.613-51.132-5.913-77.12-10.099c-2.547-6.128-8.688-11.546-21.764-12.727c-4.305-0.391-9.348,0.535-14.832,2.388
	c0.671-13.224-1.85-17.394-6.168-20.275c-1.167-0.778-3.554-1.999-6.96-3.568c-0.12-52.459-1.837-58.225-13.599-65.274
	c-13.409-8.048-29.503-24.14-29.503-24.14c2.685-34.865-21.454-77.776-45.593-77.776c-24.138,0-56.32-13.41-75.095-42.912
	c-18.774-29.501-61.688-61.686-83.144-8.046c-21.455,53.641-83.112,58.748-83.112,58.748c-2.32-2.533-4.586-5.057-6.813-7.563
	c13.209-1.622,13.976-8.381,2.309-31.727c-11.937-23.885-36.904-21.727-44.213-20.519c-56.175-78.222-76.88-146.586-89.832-193.759
	c-17.636-64.142-5.138-104.557-1.128-114.979c0.056-0.146,0.107-0.28,0.176-0.413c0.294-0.727,0.604-1.437,0.896-2.146
	c0.027-0.079,0.055-0.121,0.055-0.121c22.166-52.646,40.067-94.66,45.675-104.942c16.091-29.504,152.856-280.709,160.902-294.119
	c8.047-13.41,35.646-52.606,35.646-52.606c3.339-2.493,5.954-4.801,7.711-6.853c9.333-10.9,17.473-24.204,22.998-37.588
	c0,0,11.305,5.352,27.396-26.832c16.094-32.187,8.047-52.301,24.14-92.528c16.092-40.229,28.161-56.321,28.161-72.413
	s-20.115-12.069-32.186-24.138c-12.069-12.069-40.229-24.14-96.551-16.094c-56.321,8.048-144.652-81.68-132.663-135.386h-0.014
	c12.322-18.586,24.229-34.195,39.251-49.71c0.054-0.067,0.119-0.135,0.174-0.202c1.006-1.019,1.999-2.023,3.018-3.044
	c9.896-9.185,41.854-32.143,81.746,7.751c48.276,48.275,61.688,53.641,77.777,59.003c16.092,5.364,48.274,5.364,80.459-32.184
	c32.184-37.547,53.639-64.367,80.459-77.777s29.501-37.547,32.184-67.049c2.684-29.502-5.188-46.801-5.188-46.801
	c45.338-5.283,79.426,17.246,98.723,24.956c20.115,8.046,189.079,16.092,189.079,16.092s-203.95,106.782-254.907,208.697
	c-50.958,101.915,40.23,166.281,67.049,174.326c26.82,8.048,9.054-5.362,52.81,29.503c43.742,34.863,73.244,34.863,108.108,32.184
	c34.865-2.681,32.186-5.364,83.143,10.728c50.958,16.095,144.827,61.688,187.736,77.778c42.912,16.09,124.27,87.605,134.997,95.652
	c10.729,8.045,24.475,50.9,118.007,37.548c18.774-2.684,42.911,26.816,93.869,29.501c50.958,2.682,32.185-10.729,64.367,0
	c32.184,10.728,26.819,8.77,42.911,0.362c16.092-8.408,32.185-0.362,40.229,2.317c8.045,2.685,16.094-21.455,88.504-32.183
	c72.414-10.729,123.785-0.428,225.5-155.771c15.649,15.518,32.33,40.579,104.504,73.581c93.867,42.91,139.461,75.096,179.69,91.188
	c14.857,5.938,65.228,24.701,124.857,47.471c-17.179,24.272-36.474,32.035-52.564,40.083c-16.093,8.045-45.595,10.729-72.413,50.958
	c-26.819,40.229,16.092,56.32,42.093,96.551c26.017,40.229,8.864,64.366,0.818,96.551c-8.046,32.186,2.682,32.186,13.409,61.686
	c-42.91-2.681-53.64-45.593-61.687-67.048c-8.046-21.456-88.505-72.414-112.644-88.506c-24.139-16.093-8.045,10.728-29.5,0
	c-21.457-10.729-26.82,18.772-50.959,5.364c-24.139-13.41-37.549-24.14-59.729-5.364c-22.193,18.772-26.096,59.003-7.322,104.596
	c18.775,45.596-2.682,83.141-18.559,101.916c-15.894,18.772-57.501,48.813-57.501,48.813
	c-44.509-13.388-91.241-28.872-134.798-46.093c-35.668-14.107-67.881-28.844-99.084-45.298
	c-27.679-14.592-54.578-30.537-82.392-48.584c-29.313-19.027-58.627-41.921-93.881-63.696
	c-15.382-9.521-31.903-18.813-50.062-27.477c-2.267-1.087-4.587-2.16-6.959-3.245c-1.584-0.728-3.192-1.45-4.813-2.16
	c-0.816-0.362-1.636-0.712-2.453-1.073c-0.831-0.359-1.647-0.723-2.494-1.071c-2.508-1.071-5.068-2.146-7.67-3.205
	c-1.729-0.712-3.487-1.422-5.258-2.118c-2.668-1.047-5.363-2.092-8.113-3.139c-0.871-0.335-1.743-0.657-2.628-0.992
	c-0.24-0.079-0.496-0.174-0.737-0.271c-1.647-0.602-3.299-1.219-4.978-1.81c-0.118-0.04-0.239-0.095-0.358-0.135
	c-1.758-0.631-3.528-1.263-5.313-1.876c-2.064-0.727-4.156-1.438-6.249-2.146c-1.638-0.549-3.286-1.1-4.948-1.636
	c-5.041-1.648-10.164-3.26-15.366-4.803c-1.006-0.293-2.013-0.604-3.03-0.886c-1.02-0.309-2.024-0.602-3.059-0.884
	c-3.365-0.979-6.772-1.918-10.191-2.814c0-0.016,0-0.016,0-0.016c-0.038-0.014-0.081-0.014-0.12-0.025
	c-0.188-0.054-0.389-0.107-0.591-0.146c-1.206-0.335-2.425-0.657-3.646-0.966c-0.296-0.081-0.591-0.147-0.886-0.228
	c-0.952-0.242-1.893-0.484-2.844-0.727c-3.219-0.816-6.438-1.596-9.668-2.345c-0.736-0.178-1.475-0.353-2.213-0.512
	c-3.5-0.807-7.014-1.584-10.526-2.31c-3.875-0.803-7.765-1.565-11.652-2.276c-2.012-0.377-4.036-0.726-6.049-1.072
	c-1.461-0.256-2.924-0.496-4.37-0.728c-0.55-0.092-1.113-0.187-1.678-0.269c-1.998-0.321-4.009-0.628-6.007-0.91
	c-0.026,0-0.04,0-0.056,0c-1.996-0.296-3.994-0.563-5.994-0.817c-1.486-0.188-2.962-0.377-4.438-0.552
	c-4.439-0.535-8.854-0.979-13.236-1.34c-0.065-0.014-0.146-0.014-0.228-0.014c-1.314-0.121-2.644-0.229-3.957-0.321
	c-1.702-0.121-3.394-0.229-5.067-0.324c-58.387-3.337-109.867,8.92-129.901,50.932c-13.248,27.732-12.793,68.433,8.437,126.162
	c0,0-13.41,43.812,230.647,285.188c71.088,70.306,143.178,133.801,213.084,188.392c27.327,21.364,54.322,41.344,80.807,59.852
	c22.102,15.462,43.852,29.891,65.133,43.205c111.771,70,210.48,109.521,280.171,108.179c0,0-171.646,78.675-393.351-25.937
	c-138.646-65.426-285.296-181.446-417.192-219.291c-2.535-0.726-5.058-1.422-7.577-2.093h-0.013
	C1784.338,1999.851,1771.169,1997.154,1758.176,1995.425z M1601.898,1663.235c18.772-13.408,5.362-42.911,0-59.001
	c-5.364-16.093-18.774-26.82-13.276-53.641c5.498-26.821-21.589-80.458-45.727-85.823c-24.14-5.365-37.55,13.41-48.275,37.548
	c-10.729,24.139,8.046,42.91,0,53.641c-8.046,10.728-29.501,37.548-29.501,37.548c-2.683,18.772,18.771,32.185,21.456,34.865
	c2.682,2.683,56.321,8.046,67.049,29.5C1564.349,1679.327,1583.124,1676.646,1601.898,1663.235z M1342.658,1859.972
	c50.958-18.772,40.229-67.048,29.501-77.778c-10.729-10.725-18.773,26.82-34.865,0c-16.091-26.815-26.82-16.09-59.003,5.365
	s-10.728,34.865,10.728,48.275c21.457,13.409,5.364,34.863,5.364,34.863C1310.473,1870.698,1291.701,1878.744,1342.658,1859.972z
	 M1331.032,1009.787c21.456-2.683,8.046-13.408,8.046-40.229s-2.683-18.773-10.729-10.729c-8.046,8.049-37.548,37.55-37.548,37.55
	C1293.484,1007.105,1309.577,1012.471,1331.032,1009.787z M1255.936,1095.557c13.408-18.773-16.093-37.547-16.093-37.547
	c-29.501,2.682-24.138,32.184-13.41,48.274C1237.163,1122.376,1242.527,1114.331,1255.936,1095.557z M1197.819,1337.819
	c2.682-10.728-26.819-34.865-37.548-5.362h-2.683c0,18.772-5.364,32.185,13.41,26.818
	C1189.773,1353.911,1195.135,1348.548,1197.819,1337.819z M1120.042,773.787c8.046,0,26.819-10.728,8.046-26.818
	c-18.772-16.091-24.138-13.41-29.502,0C1093.504,759.668,1111.996,773.787,1120.042,773.787z M952.874,1593.706
	c13.41-37.398-13.41-45.741-26.82-40.38c-13.41,5.365-24.138,56.323-24.138,56.323
	C909.963,1617.697,939.465,1631.107,952.874,1593.706z M845.594,1515.781c8.046-2.683,13.41-16.093,10.729-18.773
	c-2.684-2.684-10.729-5.362-10.729-5.362s-13.408-5.365-10.728,10.728C837.55,1518.463,837.55,1518.463,845.594,1515.781z
	 M829.504,1652.563c2.683-16.093-18.772-16.093-18.772-16.093c-10.729,2.683-16.093,8.046-16.093,13.41
	c0,5.361,0,21.456,16.093,26.818C826.823,1682.062,826.822,1668.653,829.504,1652.563z"/>
<path fill="#070707" d="M3238.032,1332.575c40.229,29.504,53.64,74.196-16.094,157.338c-14.065,16.775-26.832,33.98-39.639,51.036
	c-35.954-10.593-79.373-34.982-127.646-91.307c-48.277-56.321-8.047-93.869,21.455-118.007
	c29.271-23.95,104.986-26.98,106.179-27.021c0.015,0,0.015,0,0.015,0C3209.268,1316.443,3229.505,1326.314,3238.032,1332.575z"/>
<path fill="#0E0E0E" d="M3182.287,1304.615c-1.192,0.04-76.905,3.07-106.179,27.021c-29.502,24.138-69.732,61.686-21.455,118.007
	c48.273,56.322,91.693,80.714,127.646,91.307c-50.704,67.469-102.266,132.464-239.285,158.158l-62.166,11.371
	c0,0,24.498-54.324,27.181-73.098c2.682-18.774,16.092-37.549,5.362-67.052c-10.729-29.5-21.455-29.5-13.408-61.686
	c8.046-32.185,25.197-56.32-0.818-96.549c-26.001-40.23-68.912-56.323-42.093-96.553c26.816-40.229,56.319-42.913,72.413-50.958
	c16.093-8.048,35.388-15.811,52.563-40.083C3049.611,1250.308,3129.063,1281.27,3182.287,1304.615z"/>
<path fill="#666666" d="M2913.393,1570.331c10.729,29.505-2.684,48.275-5.363,67.053c-2.682,18.771-27.182,73.097-27.182,73.097
	l-104.114,19.028c0,0-18.773,5.361-56.321-5.363c-14.403-4.13-103.886-23.642-204.915-54.041c0,0,41.608-30.041,57.501-48.813
	c15.877-18.774,37.334-56.319,18.559-101.916c-18.771-45.594-14.871-85.82,7.322-104.597c22.18-18.771,35.59-8.046,59.729,5.364
	c24.138,13.41,29.501-16.093,50.958-5.364c21.455,10.729,5.361-16.093,29.501,0c24.138,16.093,104.597,67.052,112.643,88.506
	C2859.754,1524.739,2870.481,1567.651,2913.393,1570.331z M2808.797,1514.91c2.684,4.022,8.045-1.343,4.022-5.363
	C2812.819,1509.547,2806.115,1510.886,2808.797,1514.91z M2767.936,1541.701c-4.961,6.705,6.879,12.284,11.063,3.396
	C2779.001,1545.097,2772.899,1534.996,2767.936,1541.701z M2757.84,1590.005c2.684,4.021,8.046-1.342,4.022-5.362
	C2761.862,1584.642,2755.157,1585.981,2757.84,1590.005z M2757.209,1453.196c-4.961,6.705,6.88,12.284,11.063,3.396
	C2768.272,1456.592,2762.171,1446.49,2757.209,1453.196z M2714.298,1508.177c-4.962,6.705,6.879,12.284,11.063,3.395
	C2725.36,1511.571,2719.259,1501.472,2714.298,1508.177z M2684.259,1447.781c-5.767,7.775,7.992,14.254,12.848,3.94
	C2697.104,1451.722,2690.025,1439.989,2684.259,1447.781z M2670.675,1592.687c2.685,4.021,8.047-1.342,4.024-5.365
	C2674.699,1587.321,2667.994,1588.663,2670.675,1592.687z M2649.929,1543.042c-4.961,6.704,6.879,12.283,11.063,3.396
	C2660.993,1546.437,2654.893,1536.338,2649.929,1543.042z M2635.809,1484.065c2.683,4.025,8.047-1.34,4.021-5.362
	C2639.832,1478.702,2633.127,1480.042,2635.809,1484.065z M2632.926,1430.443c-5.753,7.775,7.993,14.252,12.847,3.928
	C2645.772,1434.37,2638.693,1422.649,2632.926,1430.443z"/>
<path fill="#0E0E0E" d="M2812.819,1509.547c4.021,4.021-1.342,9.388-4.022,5.363
	C2806.115,1510.886,2812.819,1509.547,2812.819,1509.547z"/>
<path fill="#0E0E0E" d="M2779.001,1545.097c-4.186,8.89-16.025,3.311-11.064-3.396
	C2772.899,1534.996,2779.001,1545.097,2779.001,1545.097z"/>
<path fill="#0E0E0E" d="M2761.862,1584.642c4.021,4.021-1.342,9.385-4.022,5.362
	C2755.157,1585.981,2761.862,1584.642,2761.862,1584.642z"/>
<path fill="#0E0E0E" d="M2768.272,1456.592c-4.186,8.89-16.024,3.311-11.063-3.396
	C2762.171,1446.49,2768.272,1456.592,2768.272,1456.592z"/>
<path fill="#C89E95" d="M2658.445,2083.66c-14.765-31.916-40.752-68.805-82.98-111.032c-23.923-23.924-45.78-45.82-65.788-66.084
	c-2.104-16.788-3.943-27.8-3.943-27.8l0.056-0.054c11.104,12.538,26.189,24.539,50.02,36.02
	c59.003,28.402,78.286-1.101,114.239,33.769c35.951,34.865,34.447,88.504,55.313,109.959c20.865,21.458,43.127,50.958,30.654,83.144
	c-12.47,32.185,3.621,59.004-23.199,67.05c-23.761,7.133-33.241,26.887-75.938,3.311
	C2674.632,2184.84,2685.815,2142.813,2658.445,2083.66z"/>
<path fill="#0E0E0E" d="M2725.36,1511.571c-4.186,8.892-16.024,3.313-11.063-3.395
	C2719.259,1501.472,2725.36,1511.571,2725.36,1511.571z"/>
<path fill="#0E0E0E" d="M2697.104,1451.722c-4.854,10.313-18.611,3.835-12.847-3.94
	C2690.025,1439.989,2697.104,1451.722,2697.104,1451.722z"/>
<path fill="#0E0E0E" d="M2674.699,1587.321c4.021,4.023-1.343,9.388-4.024,5.365
	C2667.994,1588.663,2674.699,1587.321,2674.699,1587.321z"/>
<path fill="#C89E95" d="M2658.445,2083.66c27.37,59.151,16.187,101.179-1.569,128.277c-2.441-2.292-5.886-4.21-9.896-5.872
	c-0.013,0-0.024-0.013-0.039-0.013c-0.67-0.417-1.342-0.859-2.013-1.287c-0.671-0.443-1.354-0.886-2.037-1.341
	c-1.382-0.914-2.789-1.866-4.237-2.845c-0.215-0.147-0.431-0.298-0.646-0.43c-9.226-15.074-42.71-46.396-62.543-61.578
	c-21.455-16.414-45.593-26.498-48.274-46.708c-1.006-7.563-10.243-19.377-23.388-32.476c1.263-0.564,1.931-0.955,1.931-0.955
	c10.14-20.287,11.133-58.826,9.176-95.034c21.964,16.291,42.079,31.982,57.876,45.875
	C2606.844,2039.246,2635.113,2062.997,2658.445,2083.66z"/>
<path fill="#C89E95" d="M2658.445,2083.66c-23.332-20.664-51.603-44.414-85.662-74.384c-15.798-13.893-35.912-29.584-57.876-45.875
	c-1.154-21.107-3.301-41.423-5.23-56.858c20.008,20.265,41.865,42.161,65.788,66.085
	C2617.693,2014.856,2643.682,2051.745,2658.445,2083.66z"/>
<path fill="#0E0E0E" d="M2656.876,2211.938c-3.111-1.715-6.41-3.658-9.896-5.872
	C2650.99,2207.729,2654.434,2209.646,2656.876,2211.938z"/>
<path fill="#0E0E0E" d="M2646.979,2206.066c3.484,2.214,6.783,4.157,9.896,5.872c-17.379,26.538-41.062,38.771-41.062,38.771
	c-69.689,1.343-168.4-38.18-280.172-108.18c1.232-0.279,38.89-8.742,52.084,0c13.408,8.895,32.185,14.258,37.549,11.574
	c5.363-2.682,13.408-2.682,21.456,10.729c8.046,13.409,13.409,10.729,45.593,21.455c32.184,10.729,24.138,5.362,32.184,10.729
	c8.048,5.364,34.866-2.685,45.596-5.365c10.728-2.681,24.138-2.681,37.548,2.685c8.194,3.271,21.094,5.687,32.115,9.16
	c2.521,0.791,4.936,1.636,7.175,2.562C2646.953,2206.054,2646.967,2206.066,2646.979,2206.066z"/>
<path fill="#0E0E0E" d="M2660.993,1546.437c-4.186,8.89-16.024,3.311-11.063-3.395
	C2654.889,1536.336,2660.993,1546.437,2660.993,1546.437z"/>
<path fill="#666666" d="M2644.927,2204.767c0.671,0.428,1.344,0.87,2.014,1.287c-2.239-0.926-4.652-1.77-7.177-2.563
	c-0.415-0.993-1.005-2.119-1.757-3.34c0.215,0.133,0.431,0.28,0.646,0.432c1.447,0.977,2.854,1.929,4.236,2.844
	C2643.574,2203.882,2644.257,2204.323,2644.927,2204.767z"/>
<path fill="#666666" d="M2642.891,2203.427c0.684,0.454,1.364,0.896,2.037,1.34
	C2644.257,2204.323,2643.574,2203.882,2642.891,2203.427z"/>
<path fill="#0E0E0E" d="M2639.832,1478.702c4.022,4.022-1.341,9.39-4.022,5.362
	C2633.127,1480.042,2639.832,1478.702,2639.832,1478.702z"/>
<path fill="#0E0E0E" d="M2645.772,1434.37c-4.854,10.324-18.602,3.85-12.849-3.928
	C2638.693,1422.649,2645.772,1434.37,2645.772,1434.37z"/>
<path fill="#666666" d="M2637.352,2199.71c-0.537-0.36-1.086-0.726-1.65-1.088
	C2636.253,2198.972,2636.801,2199.333,2637.352,2199.71z"/>
<path fill="#666666" d="M2633.313,2197.109c-0.654-0.403-1.342-0.818-2.023-1.234
	C2631.973,2196.278,2632.643,2196.692,2633.313,2197.109z"/>
<path fill="#666666" d="M2628.046,2193.971c-0.766-0.429-1.529-0.871-2.307-1.302
	C2626.516,2193.1,2627.28,2193.529,2628.046,2193.971z"/>
<path fill="#0E0E0E" d="M2557.71,1000.909c5.98,2.897,10.594,6.692,15.288,11.358c-101.715,155.342-153.087,145.041-225.5,155.77
	c-72.412,10.729-80.459,34.865-88.505,32.185c-8.045-2.684-24.138-10.729-40.229-2.319c-16.094,8.407-10.729,10.365-42.911-0.362
	c-32.187-10.729-13.409,2.684-64.367,0c-50.958-2.683-75.095-32.184-93.87-29.501c-93.533,13.354-107.278-29.503-118.006-37.548
	c-10.729-8.047-92.085-79.563-134.997-95.65c-42.912-16.094-136.78-61.688-187.738-77.778
	c-50.957-16.091-48.273-13.409-83.141-10.729c-34.866,2.683-64.367,2.684-108.11-32.184c-43.756-34.866-25.988-21.456-52.808-29.501
	c-26.82-8.045-118.006-72.413-67.049-174.328c50.958-101.915,254.907-208.697,254.907-208.697s122.027-56.319,178.351-48.273
	c56.321,8.045,128.735,0,229.31,40.229c100.573,40.229,108.619,56.321,217.238,76.438
	c108.62,20.115,172.987,132.757,189.078,181.033C2350.743,799.32,2448.582,948.249,2557.71,1000.909z M2268.822,922.249
	c0,0,11.987-72.938-15.032-126.349c-6.664-13.168-15.702-25.157-27.879-34.571c-59.004-45.594-150.189,40.229-150.189,40.229
	s2.707,50.716,83.448,93.265c2.843,1.502,5.632,2.923,8.354,4.292C2238.958,934.692,2268.822,922.249,2268.822,922.249z"/>
<path fill="#FFFFFF" d="M2514.907,1963.402c1.957,36.208,0.964,74.747-9.174,95.034c0,0-0.67,0.392-1.933,0.955
	c-19.979-19.917-48.959-42.781-71.715-58.146c13.128-15.894,30.187-38.396,45.754-64.703
	C2490.487,1945.54,2502.973,1954.565,2514.907,1963.402z"/>
<path fill="#FFFFFF" d="M2509.676,1906.545c1.933,15.436,4.076,35.75,5.23,56.856c-11.937-8.837-24.42-17.86-37.065-26.858
	c7.604-12.837,14.846-26.58,21.094-40.9C2502.449,1899.222,2506.028,1902.856,2509.676,1906.545z"/>
<path fill="#C89E95" d="M2505.787,1878.691l-0.054,0.054c-2.092,5.714-4.371,11.347-6.799,16.896
	c-57.048-58.011-98.359-102.37-129.646-142.922c0,0,3.875-4.653,9.038-11.118c43.851,32.748,77.228,61.164,88.976,78.143
	C2481.69,1840.527,2489.401,1860.186,2505.787,1878.691z"/>
<path fill="#FFFFFF" d="M2505.733,1878.744c0,0,1.838,11.012,3.943,27.801c-3.648-3.688-7.229-7.322-10.742-10.902
	C2501.362,1890.091,2503.643,1884.458,2505.733,1878.744z"/>
<path fill="#FFFFFF" d="M2432.088,2001.244c22.757,15.365,51.735,38.229,71.716,58.146c-9.278,4.221-50.729,18.812-93.883-33.138
	C2409.921,2026.255,2419.065,2017.001,2432.088,2001.244z"/>
<path fill="#C89E95" d="M2107.061,1584.642c-124.619-88.813-146.074-178.607-146.396-179.947c3.419,0.898,6.826,1.838,10.191,2.816
	c1.02,0.281,2.04,0.574,3.059,0.884c1.018,0.296,2.024,0.591,3.03,0.884c5.202,1.543,10.325,3.154,15.366,4.803
	c1.661,0.536,3.313,1.089,4.947,1.638c2.094,0.71,4.186,1.422,6.249,2.146c1.783,0.615,3.556,1.246,5.313,1.876
	c0.119,0.04,0.24,0.097,0.357,0.136c1.68,0.604,3.328,1.209,4.979,1.811c0.241,0.095,0.497,0.189,0.737,0.27
	c0.885,0.334,1.757,0.674,2.628,0.991c2.75,1.047,5.443,2.093,8.113,3.141c1.771,0.71,3.526,1.404,5.258,2.116
	c2.601,1.063,5.162,2.136,7.67,3.205c0.832,0.361,1.663,0.713,2.494,1.073c0.816,0.361,1.637,0.71,2.453,1.073
	c1.636,0.724,3.229,1.433,4.813,2.16c2.372,1.085,4.692,2.157,6.958,3.244c18.157,8.661,34.68,17.954,50.063,27.478
	c0,0,2.572,95.839,112.532,165.57c42.767,27.114,86.333,56.268,125.034,83.798c7.938,12.136,16.668,24.338,26.377,36.917
	c31.286,40.552,72.602,84.911,129.646,142.922c-6.248,14.32-13.488,28.065-21.094,40.9
	c-62.879-44.788-129.604-89.229-151.801-109.826c-34.863-32.386-139.461-134.796-182.373-177.708
	C2100.757,1606.097,2107.061,1584.642,2107.061,1584.642z"/>
<path fill="#C89E95" d="M2477.842,1936.542c-15.569,26.311-32.626,48.813-45.754,64.702c-2.348-1.582-4.614-3.086-6.813-4.49
	c-37.55-24.14-132.583-6.316-132.583-6.316c-6.344-9.924-19.068-38.366-38.178-45.527c-11.642-4.355-21.432-16.357-30.966-28.563
	c7.483-2.267,5.94-20.448,5.94-51.009c0-40.23-18.771-40.23-26.819-38.621c-8.046,1.606-59.004,24.085-59.004,24.085
	c-4.479-3.02-9.226-6.212-14.309-9.604c-25.275-16.855-27.396-22.128-31.028-34.008c5.51-3.126,4.344-15.905,8.396-24.998
	c5.979-13.407,15.485-24.138,8.85-42.603c-6.625-18.452-14.818-8.354-38.956-8.743c-16.99-0.269-36.649-0.161-46.786-0.066
	c-9.896-8.087-19.216-15.515-26.538-21.522c8.232,2.135,12.565-5.553,31.313-9.307c26.818-5.362,16.091-32.183,0-52.687
	c-16.092-20.52-16.092-35.817-26.82-46.548c-10.728-10.729-18.772,8.048-37.547,8.062c-18.773,0.011-18.773-16.104-42.911-14.671
	c-23.723,1.408-15.087,20.745-14.791,21.402c-8.718-8.88-16.375-18.092-23.104-27.479c13.073-7.322,27.167-38.271,5.712-65.092
	c-15.997-19.996-31.969-7.188-39.063,0.615c-9.534-26.889-13.704-51.507-15.852-69.168v-0.014c0.268-1.557,0.55-3.086,0.858-4.613
	c0.118-0.604,0.239-1.205,0.36-1.81c0.24-1.168,0.496-2.334,0.765-3.5c0.271-1.248,0.563-2.495,0.87-3.715
	c0.137-0.552,0.271-1.102,0.417-1.65c0.938-3.688,1.974-7.268,3.099-10.754c0.229-0.696,0.456-1.396,0.696-2.079
	c0.592-1.743,1.192-3.447,1.823-5.136c0.441-1.166,0.898-2.32,1.355-3.444c0.563-1.371,1.126-2.725,1.715-4.037
	c0.363-0.806,0.725-1.597,1.087-2.389c0-0.013,0.014-0.013,0.014-0.023c11.747-13.922,23.174-21.778,23.174-21.778
	c0.079,0,0.159,0,0.228,0.014c5.847,0.496,11.748,1.126,17.674,1.894c2,0.253,3.998,0.534,5.994,0.815c0.015,0,0.027,0,0.055,0
	c1.998,0.295,3.996,0.604,6.009,0.91c0.563,0.082,1.128,0.177,1.677,0.271c1.446,0.229,2.91,0.47,4.371,0.726
	c2.012,0.349,4.036,0.696,6.048,1.073c3.89,0.71,7.777,1.475,11.652,2.275c3.515,0.727,7.026,1.503,10.526,2.31
	c0.738,0.161,1.476,0.335,2.213,0.512c3.231,0.749,6.449,1.526,9.668,2.345c0.951,0.24,1.903,0.482,2.843,0.728
	c0.297,0.077,0.592,0.146,0.888,0.227c1.222,0.31,2.438,0.631,3.646,0.966c0.202,0.039,0.402,0.096,0.591,0.147
	c0.039,0.013,0.081,0.024,0.12,0.04c0.322,1.34,21.777,91.135,146.396,179.945c0,0-6.306,21.455,36.605,64.366
	c42.912,42.912,147.51,145.322,182.373,177.708C2348.236,1847.313,2414.962,1891.755,2477.842,1936.542z"/>
<path fill="#FFFFFF" d="M2382.364,1686.556c21.455,0,26.818,10.298,18.771,23.924c-4.8,8.126-15.192,21.576-22.81,31.122
	c-11.186-8.354-23.053-16.989-35.415-25.799c-9.093-13.896-17.14-27.679-24.379-41.813
	C2318.533,1673.989,2360.908,1686.556,2382.364,1686.556z"/>
<path fill="#C89E95" d="M2392.997,2068.925c-1.461,2.749-1.568,4.345-5.271-3.758c0,0-2.291,3.273-6.303,8.449
	c-3.767-2.562-7.549-5.188-11.345-7.885c-1.258-0.898-2.533-1.796-3.794-2.709c-1.273-0.91-2.547-1.836-3.809-2.762
	c-1.273-0.926-2.551-1.864-3.821-2.816c-2.468-1.822-4.938-3.675-7.416-5.564c-1.354-1.031-2.722-2.078-4.076-3.137
	c-1.287-0.993-2.575-2-3.851-3.006c-7.709-6.048-15.461-12.402-23.237-19.081c4.344,2.507,9.468,4.075,15.541,4.075
	C2363.08,2030.732,2392.997,2068.925,2392.997,2068.925z"/>
<path fill="#C2AF8C" d="M2370.079,2065.732c3.796,2.695,7.578,5.323,11.345,7.885c-5.686,7.335-14.855,18.506-25.88,29.528
	c-18.771,18.772-24.138,2.683-43.287-3.81c-18.935-6.424-41.29-0.135-41.745-0.014c-26.481-18.507-53.479-38.484-80.807-59.85
	c5.806-21.645,7.603-26.618-0.444-58.801c-8.045-32.185,2.685-42.913,0-61.688c-0.629-4.397-2.145-7.47-4.331-9.644l2.294-2.507
	c0.646,0.592,1.303,1.183,1.944,1.782c1.435,1.316,2.87,2.614,4.291,3.917c1.423,1.287,2.842,2.588,4.264,3.889
	c1.422,1.286,2.845,2.589,4.253,3.875c36.313,33.068,70.471,63.871,99.42,89.834c1.477,1.313,2.938,2.627,4.371,3.913
	c1.102,0.993,2.198,1.975,3.3,2.951c0.121,0.107,0.256,0.229,0.377,0.321c0.014,0.015,0.023,0.04,0.04,0.053
	c2.924,3.582,6.408,6.868,10.594,9.282c7.777,6.677,15.528,13.033,23.238,19.081c1.288,1.02,2.574,2.026,3.85,3.005
	c1.354,1.06,2.723,2.104,4.076,3.137c2.479,1.893,4.949,3.742,7.416,5.565c1.271,0.951,2.548,1.892,3.822,2.814
	c1.261,0.928,2.531,1.854,3.808,2.764C2367.559,2063.937,2368.821,2064.847,2370.079,2065.732z"/>
<path fill="#C89E95" d="M2378.327,1741.602c-5.163,6.465-9.038,11.118-9.038,11.118c-9.709-12.579-18.438-24.781-26.377-36.917
	C2355.276,1724.612,2367.143,1733.247,2378.327,1741.602z"/>
<path fill="#C2AF8C" d="M2366.285,2063.023c1.261,0.913,2.536,1.811,3.794,2.709
	C2368.821,2064.847,2367.559,2063.937,2366.285,2063.023z"/>
<path fill="#C2AF8C" d="M2358.655,2057.445c1.271,0.952,2.548,1.893,3.822,2.816
	C2361.203,2059.335,2359.927,2058.397,2358.655,2057.445z"/>
<path fill="#C2AF8C" d="M2351.239,2051.878c2.479,1.894,4.949,3.743,7.416,5.566
	C2356.188,2055.622,2353.718,2053.771,2351.239,2051.878z"/>
<path fill="#C2AF8C" d="M2343.313,2045.738c1.272,1.005,2.563,2.012,3.85,3.005
	C2345.887,2047.765,2344.602,2046.758,2343.313,2045.738z"/>
<path fill="#666666" d="M2318.533,1673.989c7.239,14.136,15.287,27.92,24.379,41.813c-38.701-27.53-82.271-56.685-125.034-83.798
	c-109.96-69.731-112.534-165.57-112.534-165.57c35.254,21.775,64.568,44.667,93.881,63.696
	c27.813,18.047,54.714,33.992,82.393,48.584C2292.061,1614.465,2303.622,1644.958,2318.533,1673.989z"/>
<path fill="#F3FFB0" d="M2314.762,2022.042c1.771,1.557,3.541,3.1,5.313,4.614c-4.187-2.414-7.67-5.7-10.595-9.282
	c0.871,0.78,1.742,1.559,2.629,2.321C2312.994,2020.487,2313.879,2021.264,2314.762,2022.042z"/>
<path fill="#F3FFB0" d="M2312.11,2019.696c0.884,0.791,1.769,1.567,2.652,2.348
	C2313.879,2021.264,2312.994,2020.487,2312.11,2019.696z"/>
<path fill="#F3FFB0" d="M2312.11,2019.696c-0.887-0.765-1.758-1.541-2.629-2.321c-0.017-0.013-0.026-0.037-0.04-0.053
	C2310.326,2018.114,2311.212,2018.917,2312.11,2019.696z"/>
<path fill="#666666" d="M2309.44,2017.322c-0.121-0.093-0.257-0.214-0.377-0.319c-1.101-0.979-2.197-1.959-3.299-2.951
	c-1.447-1.299-2.896-2.602-4.372-3.915c-28.948-25.962-63.105-56.766-99.419-89.833c-1.409-1.302-2.831-2.588-4.253-3.875
	c-1.422-1.302-2.841-2.603-4.264-3.89c-1.421-1.313-2.856-2.612-4.291-3.917c-0.645-0.602-1.302-1.19-1.944-1.781
	c-9.091-8.303-18.277-16.707-27.53-25.195l2.239-2.442c16.399,15.342,39.438,27.532,51.466,34.409
	c4.509,2.574,7.779,3.447,10.152,2.735c9.534,12.204,19.324,24.206,30.964,28.563c19.107,7.161,31.835,35.604,38.178,45.527
	c0.777,1.221,1.462,2.157,2.053,2.748C2297.774,1996.217,2301.663,2007.816,2309.44,2017.322z"/>
<path fill="#C2AF8C" d="M2301.393,2010.135c1.477,1.313,2.925,2.616,4.373,3.915
	C2304.332,2012.762,2302.87,2011.449,2301.393,2010.135z"/>
<path fill="#FFFFFF" d="M2253.79,795.901c0,0-128.775-18.935-86.252,103.202l-0.014,0.013c-2.725-1.368-5.515-2.789-8.354-4.292
	c-80.741-42.549-83.449-93.265-83.449-93.265s91.188-85.823,150.19-40.229C2238.088,770.743,2247.126,782.732,2253.79,795.901z"/>
<path fill="#FFFFFF" d="M2229.491,1865.338c0,30.561,1.543,48.741-5.94,51.009c-8.032-10.298-15.862-20.73-24.46-26.871
	c-15.81-11.292-31.62-22.584-55.423-38.674c0,0,50.958-22.479,59.004-24.085C2210.717,1825.106,2229.491,1825.106,2229.491,1865.338
	z"/>
<path fill="#FFFFFF" d="M2223.551,1916.346c-2.373,0.712-5.645-0.161-10.15-2.735c-12.027-6.877-35.066-19.068-51.468-34.409
	c-9.212-8.607-16.332-18.196-18.265-28.398c23.803,16.09,39.613,27.382,55.423,38.674
	C2207.686,1895.615,2215.518,1906.049,2223.551,1916.346z"/>
<path fill="#C2AF8C" d="M2201.974,1920.302c-1.407-1.287-2.829-2.588-4.253-3.875
	C2199.143,1917.715,2200.566,1919.001,2201.974,1920.302z"/>
<path fill="#C2AF8C" d="M2193.459,1912.538c-1.421-1.303-2.856-2.601-4.291-3.917
	C2190.602,1909.926,2192.038,1911.226,2193.459,1912.538z"/>
<path fill="#0E0E0E" d="M2189.26,1980.675c8.047,32.183,6.25,37.156,0.444,58.801c-69.906-54.591-141.996-118.086-213.084-188.392
	c-244.061-241.38-230.648-285.188-230.648-285.188c-21.229-57.73-21.684-98.43-8.436-126.162
	c0.777,1.622,60.332,124.484,86.977,144.908c12.338,9.467,24.677,15.702,34.397,20.717c11.425,5.916,19.243,10.137,19.243,15.934
	c0,10.728,40.229,34.863,40.229,40.229c0,5.362,2.684,18.772,5.364,26.818c2.683,8.047,28.241,3.97,36.917,27.464
	s14.041,42.013,35.496,48.839c21.455,6.84,37.548,28.295,42.912,52.433c5.361,24.14,21.455,26.818,37.547,32.186
	c16.092,5.36,45.594,26.819,48.273,34.864c2.683,8.045,5.363,16.094,24.14,18.771c14.375,2.053,28.752-0.604,35.896,6.449
	c2.188,2.174,3.702,5.243,4.331,9.644C2191.943,1937.761,2181.216,1948.49,2189.26,1980.675z"/>
<path fill="#C2AF8C" d="M2187.222,1906.84l-2.294,2.506c-7.146-7.054-21.521-4.396-35.896-6.449
	c-18.774-2.68-21.456-10.729-24.138-18.771c-2.684-8.046-32.186-29.505-48.275-34.865c-16.092-5.365-32.184-8.046-37.547-32.186
	c-5.364-24.138-21.457-45.593-42.912-52.433c-21.455-6.826-26.82-25.345-35.496-48.839s-34.234-19.417-36.917-27.464
	c-2.683-8.046-5.364-21.456-5.364-26.818c0-5.365-40.229-29.503-40.229-40.229c0-5.796-7.818-10.017-19.243-15.933
	c-22.813-45.419-30.722-80.553-30.829-131.591c-0.028-15.006,4.156-28.48,10.07-40.027c0.455,4.774,1.019,11.842,2.078,20.64v0.013
	c-0.016,0.082-0.026,0.175-0.039,0.254c-0.242,1.397-0.473,2.804-0.688,4.212c-0.023,0.161-0.054,0.322-0.064,0.47
	c-0.217,1.354-0.402,2.709-0.576,4.063c-0.056,0.39-0.107,0.765-0.148,1.168c-0.16,1.245-0.308,2.506-0.44,3.771
	c-0.015,0.117-0.026,0.254-0.039,0.387c-0.177,1.608-0.336,3.231-0.472,4.868c-0.146,1.689-0.27,3.393-0.39,5.097
	c-0.054,1.005-0.12,2.025-0.161,3.044c-0.039,0.646-0.065,1.287-0.093,1.931c-0.068,1.558-0.107,3.125-0.147,4.692
	c-0.041,1.636-0.055,3.272-0.055,4.909c0,32.977,7.014,66.404,22.475,91.389c0.392,0.615,0.791,1.262,1.234,1.933
	c0.188,0.278,0.376,0.551,0.577,0.845c0.496,0.738,1.032,1.516,1.608,2.305c0.375,0.525,0.764,1.063,1.166,1.611
	c8.182,11.09,22.101,26.818,40.271,45.915c0.402,0.428,0.819,0.855,1.234,1.287c15.837,16.602,34.821,35.696,55.959,56.44
	c0.979,0.952,1.957,1.917,2.948,2.885c14.857,14.55,30.736,29.862,47.322,45.701c2.43,2.316,4.869,4.64,7.322,6.972
	c4.385,4.173,8.823,8.383,13.304,12.632c2.802,2.656,5.604,5.299,8.421,7.968c7.04,6.638,14.174,13.355,21.376,20.103
	c2.868,2.709,5.767,5.402,8.662,8.111c1.302,1.221,2.615,2.439,3.929,3.673c4.077,3.823,8.166,7.632,12.26,11.438
	c7.723,7.201,15.502,14.415,23.291,21.646c1.973,1.82,3.941,3.656,5.927,5.481c6.853,6.343,13.72,12.688,20.572,19.002
	c2.937,2.709,5.887,5.418,8.821,8.114c4.707,4.331,9.413,8.646,14.096,12.939C2168.945,1890.133,2178.133,1898.537,2187.222,1906.84
	z"/>
<path fill="#666666" d="M2161.931,1879.2l-2.237,2.442c-4.683-4.292-9.39-8.609-14.096-12.94c-2.937-2.709-5.875-5.403-8.821-8.112
	c-6.854-6.316-13.722-12.66-20.572-19.002c-1.983-1.836-3.954-3.661-5.927-5.483c-7.789-7.229-15.568-14.443-23.291-21.646
	c-4.104-3.821-8.194-7.646-12.26-11.439c-1.313-1.231-2.628-2.453-3.929-3.672c-2.896-2.709-5.78-5.418-8.662-8.113
	c-7.202-6.745-14.336-13.464-21.376-20.101c-2.83-2.684-5.633-5.338-8.421-7.968c-4.479-4.249-8.919-8.459-13.304-12.634
	c-2.453-2.332-4.896-4.666-7.322-6.972c-16.586-15.837-32.465-31.151-47.323-45.701c-0.99-0.966-1.971-1.931-2.947-2.883
	c-21.138-20.746-40.122-39.841-55.959-56.442c-0.415-0.43-0.832-0.857-1.234-1.287c-18.17-19.097-32.089-34.823-40.271-45.914
	c-0.402-0.552-0.791-1.087-1.166-1.61c-0.576-0.789-1.112-1.566-1.608-2.306c-0.201-0.279-0.39-0.563-0.577-0.846
	c-0.443-0.67-0.845-1.313-1.234-1.931c-15.461-24.984-22.475-58.412-22.475-91.39c0-1.637,0.014-3.272,0.055-4.908
	c0.025-1.567,0.079-3.123,0.147-4.692c0.026-0.644,0.054-1.287,0.093-1.931c0.041-1.021,0.107-2.025,0.161-3.044
	c0.12-1.704,0.241-3.405,0.39-5.099c0.136-1.635,0.294-3.258,0.472-4.867c0.013-0.134,0.024-0.269,0.038-0.387
	c0.136-1.264,0.281-2.523,0.441-3.77c0.041-0.403,0.095-0.778,0.148-1.168c0.174-1.369,0.359-2.709,0.576-4.063
	c0.013-0.146,0.041-0.309,0.064-0.47c0.215-1.408,0.443-2.814,0.688-4.212c0.013-0.079,0.023-0.172,0.038-0.254
	c2.146,17.662,6.315,42.278,15.853,69.169c-2.428,2.67-3.809,4.745-3.809,4.745c2.843,26.056,24.097,67.051,37.156,59.729
	c6.73,9.387,14.39,18.599,23.105,27.479c-0.016,0.014,0,0.024,0.013,0.024c1.313,22.838,14.778,25.412,28.188,41.505
	c13.409,16.091,26.818,24.139,48.273,42.91c6.438,5.634,10.703,8.369,14.256,9.293c0.014,0,0.014,0,0.027,0.013
	c7.322,6.011,16.642,13.438,26.538,21.523c-4.267,0.027-6.854,0.066-6.854,0.066c2.684,18.385,40.229,59.394,61.687,72.804
	c6.92,4.313,11.051,5.026,13.666,3.54c3.633,11.88,5.753,17.148,31.026,34.008c5.084,3.391,9.83,6.584,14.311,9.603
	C2145.598,1861.005,2152.719,1870.593,2161.931,1879.2z"/>
<path fill="#C2AF8C" d="M2145.598,1868.702c-2.937-2.694-5.887-5.403-8.821-8.112
	C2139.723,1863.299,2142.663,1865.993,2145.598,1868.702z"/>
<path fill="#FFFFFF" d="M2115.575,1739.593c6.638,18.464-2.87,29.192-8.85,42.602c-4.054,9.094-2.888,21.872-8.396,24.998
	c-1.007-3.247-2.105-6.986-3.837-11.585c-5.779-15.409-37.372-42.552-64.661-64.823c10.137-0.097,29.796-0.2,46.786,0.064
	C2100.757,1731.238,2108.95,1721.139,2115.575,1739.593z"/>
<path fill="#C2AF8C" d="M2116.204,1841.588c-1.983-1.825-3.954-3.661-5.927-5.483
	C2112.25,1837.927,2114.219,1839.751,2116.204,1841.588z"/>
<path fill="#FFFFFF" d="M2098.331,1807.191c-2.615,1.487-6.746,0.775-13.666-3.54c-21.455-13.41-59.003-54.419-61.686-72.804
	c0,0,2.589-0.039,6.854-0.066c27.289,22.273,58.882,49.416,64.661,64.825C2096.223,1800.203,2097.324,1803.944,2098.331,1807.191z"
	/>
<path fill="#C2AF8C" d="M2074.727,1803.019c4.063,3.796,8.152,7.618,12.259,11.439
	C2082.893,1810.649,2078.804,1806.844,2074.727,1803.019z"/>
<path fill="#C2AF8C" d="M2062.136,1791.233c2.884,2.695,5.767,5.404,8.662,8.113
	C2067.902,1796.638,2065.006,1793.942,2062.136,1791.233z"/>
<path fill="#C2AF8C" d="M2040.76,1771.134c-2.815-2.669-5.618-5.313-8.421-7.969
	C2035.129,1765.796,2037.93,1768.45,2040.76,1771.134z"/>
<path fill="#FFFFFF" d="M2034.606,1647.266c16.091,20.504,26.818,47.324,0,52.687c-18.746,3.754-23.079,11.439-31.313,9.308
	c-0.016-0.015-0.016-0.015-0.026-0.015c-0.591-0.494-1.182-0.979-1.742-1.446c-26.819-22.152-14.831-32.238-64.367-70.429
	c-9.011-6.946-17.192-14.271-24.607-21.832c-0.013,0-0.024-0.014-0.013-0.025c-0.296-0.657-8.932-19.994,14.791-21.402
	c24.136-1.435,24.136,14.684,42.911,14.671c18.771-0.014,26.818-18.787,37.547-8.061
	C2018.513,1611.448,2018.513,1626.747,2034.606,1647.266z"/>
<path fill="#C2AF8C" d="M2011.715,1743.562c2.429,2.306,4.869,4.64,7.322,6.972
	C2016.584,1748.2,2014.143,1745.881,2011.715,1743.562z"/>
<path fill="#FFFFFF" d="M2001.524,1707.798c0.563,0.47,1.151,0.951,1.741,1.446c-3.553-0.924-7.816-3.659-14.256-9.293
	c-21.455-18.771-34.864-26.818-48.273-42.909c-13.408-16.094-26.873-18.668-28.188-41.506c7.415,7.563,15.598,14.887,24.607,21.832
	C1986.693,1675.559,1974.705,1685.645,2001.524,1707.798z"/>
<path fill="#C2AF8C" d="M1964.39,1697.86c-0.99-0.966-1.971-1.931-2.947-2.883C1962.421,1695.93,1963.399,1696.895,1964.39,1697.86z
	"/>
<path fill="#C89E95" d="M1959.953,1404.508c-1.206-0.335-2.425-0.657-3.646-0.968
	C1957.528,1403.85,1958.747,1404.173,1959.953,1404.508z"/>
<path fill="#C89E95" d="M1930.17,1397.426c-3.875-0.804-7.764-1.567-11.653-2.277
	C1922.406,1395.857,1926.295,1396.621,1930.17,1397.426z"/>
<path fill="#C89E95" d="M1918.515,1395.147c-2.011-0.377-4.034-0.725-6.048-1.073
	C1914.479,1394.408,1916.506,1394.771,1918.515,1395.147z"/>
<path fill="#C89E95" d="M1912.468,1394.073c-1.461-0.256-2.924-0.496-4.371-0.726
	C1909.559,1393.577,1911.008,1393.818,1912.468,1394.073z"/>
<path fill="#C89E95" d="M1906.421,1393.079c-2.011-0.309-4.009-0.613-6.007-0.91
	C1902.412,1392.451,1904.423,1392.76,1906.421,1393.079z"/>
<path fill="#C2AF8C" d="M1904.249,1637.247c0.402,0.43,0.819,0.857,1.234,1.287
	C1905.068,1638.105,1904.651,1637.677,1904.249,1637.247z"/>
<path fill="#C89E95" d="M1900.359,1392.171c-1.996-0.282-3.994-0.564-5.994-0.817
	C1896.365,1391.605,1898.363,1391.874,1900.359,1392.171z"/>
<path fill="#FFFFFF" d="M1895.143,1522.942c21.454,26.818,7.361,57.771-5.713,65.092c-15.367-21.39-25.975-43.623-33.35-64.475
	C1863.175,1515.756,1879.145,1502.946,1895.143,1522.942z"/>
<path fill="#FFFFFF" d="M1889.43,1588.033c-13.062,7.321-34.313-33.674-37.156-59.729c0,0,1.381-2.076,3.809-4.746
	C1863.457,1544.41,1874.063,1566.645,1889.43,1588.033z"/>
<path fill="#C89E95" d="M1894.365,1391.353c-5.927-0.766-11.827-1.396-17.674-1.892
	C1882.538,1389.943,1888.439,1390.573,1894.365,1391.353z"/>
<path fill="#F3FFB0" d="M1872.508,1389.126c1.314,0.096,2.644,0.199,3.957,0.32c0,0-11.426,7.858-23.173,21.779
	c0.496-1.075,1.021-2.136,1.542-3.167c0.523-1.045,1.062-2.076,1.609-3.097c0.549-1.007,1.112-1.997,1.676-2.979
	c0.536-0.911,1.073-1.81,1.623-2.696c0.04-0.066,0.08-0.118,0.121-0.188c0.295-0.469,0.589-0.938,0.896-1.395
	c2.093-3.221,4.33-6.197,6.68-8.906C1869.115,1388.898,1870.803,1389.006,1872.508,1389.126z"/>
<path fill="#C89E95" d="M1876.465,1389.447c-1.313-0.121-2.643-0.227-3.957-0.319
	C1873.822,1389.221,1875.149,1389.325,1876.465,1389.447z"/>
<path fill="#C2AF8C" d="M1867.439,1388.802c-2.35,2.709-4.587,5.687-6.68,8.906c-0.31,0.453-0.604,0.925-0.896,1.394
	c-0.041,0.067-0.081,0.119-0.121,0.188c-0.55,0.888-1.087,1.784-1.623,2.695c-0.576,0.98-1.127,1.974-1.676,2.979
	c-0.55,1.021-1.086,2.052-1.609,3.097c-0.521,1.031-1.046,2.092-1.542,3.167c0,0.012-0.014,0.012-0.014,0.024
	c-5.323,6.315-10.714,13.865-15.126,22.488c-5.914,11.546-10.101,25.021-10.07,40.026c0.107,51.038,8.02,86.172,30.829,131.591
	c-9.722-5.015-22.061-11.25-34.396-20.717c-26.646-20.424-86.198-143.286-86.978-144.908
	C1757.573,1397.722,1809.051,1385.466,1867.439,1388.802z"/>
<path fill="#FA67AB" d="M841.613,1845.505c-1.314,0.214-2.052,0.399-2.052,0.399c-46.265,4.022-74.426,54.313-82.471,72.413
	c-6.517,14.657-16.991,33.271-21.804,52.633c-26.901-38.688-47.592-73.914-59.42-98.398
	c-35.804-74.188-20.813-111.96-19.352-115.299c0.027-0.066,0.067-0.161,0.107-0.24c25.599-56.98,63.656-148.124,94.03-220.244
	c-4.01,10.421-16.507,50.836,1.126,114.979C764.734,1698.917,785.439,1767.281,841.613,1845.505z"/>
<path fill="#C2AF8C" d="M1863.977,1591.333c-0.401-0.552-0.791-1.087-1.166-1.61
	C1863.186,1590.246,1863.576,1590.781,1863.977,1591.333z"/>
<path fill="#666666" d="M1860.627,1586.572c0.188,0.28,0.376,0.564,0.577,0.846
	C1861.003,1587.122,1860.815,1586.853,1860.627,1586.572z"/>
<path fill="#C2AF8C" d="M1860.76,1397.708c-0.31,0.454-0.604,0.926-0.896,1.395
	C1860.158,1398.634,1860.452,1398.162,1860.76,1397.708z"/>
<path fill="#C2AF8C" d="M1859.742,1399.288c-0.55,0.889-1.087,1.785-1.623,2.696
	C1858.655,1401.073,1859.192,1400.177,1859.742,1399.288z"/>
<path fill="#C2AF8C" d="M1858.119,1401.985c-0.563,0.98-1.127,1.974-1.676,2.979
	C1856.992,1403.958,1857.543,1402.967,1858.119,1401.985z"/>
<path fill="#C2AF8C" d="M1856.443,1404.964c-0.552,1.021-1.087,2.052-1.609,3.097
	C1855.357,1407.015,1855.893,1405.983,1856.443,1404.964z"/>
<path fill="#C2AF8C" d="M1854.834,1408.06c-0.522,1.031-1.046,2.092-1.542,3.167
	C1853.788,1410.151,1854.311,1409.092,1854.834,1408.06z"/>
<path fill="#F3FFB0" d="M1853.278,1411.251c-0.362,0.791-0.726,1.582-1.087,2.389c-0.589,1.313-1.166,2.667-1.716,4.038
	c-0.457,1.124-0.913,2.276-1.354,3.442c-0.631,1.688-1.247,3.395-1.823,5.137c-0.242,0.685-0.47,1.384-0.697,2.078
	c-1.125,3.486-2.157,7.066-3.098,10.754c-0.146,0.538-0.282,1.102-0.417,1.65c-0.308,1.22-0.602,2.467-0.87,3.715
	c-0.269,1.152-0.522,2.318-0.765,3.5c-0.121,0.604-0.242,1.205-0.361,1.812c-0.31,1.525-0.592,3.057-0.857,4.612
	c-1.062-8.798-1.623-15.862-2.078-20.639C1842.564,1425.116,1847.955,1417.568,1853.278,1411.251z"/>
<path fill="#F3FFB0" d="M1852.191,1413.639c-0.589,1.313-1.152,2.667-1.716,4.038
	C1851.025,1416.306,1851.602,1414.951,1852.191,1413.639z"/>
<path fill="#F3FFB0" d="M1849.121,1421.12c-0.631,1.688-1.233,3.395-1.823,5.138
	C1847.874,1424.514,1848.49,1422.81,1849.121,1421.12z"/>
<path fill="#F3FFB0" d="M1847.298,1426.258c-0.242,0.684-0.47,1.383-0.697,2.078
	C1846.828,1427.64,1847.054,1426.94,1847.298,1426.258z"/>
<path fill="#C2AF8C" d="M1840.191,1454.645c-0.242,1.397-0.473,2.804-0.688,4.212
	C1839.719,1457.448,1839.949,1456.042,1840.191,1454.645z"/>
<path fill="#C2AF8C" d="M1839.439,1459.325c-0.216,1.354-0.402,2.693-0.576,4.063
	C1839.037,1462.034,1839.223,1460.68,1839.439,1459.325z"/>
<path fill="#C2AF8C" d="M1838.715,1464.557c-0.16,1.245-0.308,2.506-0.44,3.77
	C1838.407,1467.063,1838.553,1465.802,1838.715,1464.557z"/>
<path fill="#C2AF8C" d="M1838.233,1468.713c-0.178,1.608-0.336,3.231-0.472,4.866
	C1837.897,1471.945,1838.056,1470.322,1838.233,1468.713z"/>
<path fill="#C2AF8C" d="M1837.374,1478.677c-0.054,1.019-0.12,2.023-0.161,3.044
	C1837.254,1480.701,1837.32,1479.682,1837.374,1478.677z"/>
<path fill="#C2AF8C" d="M1837.12,1483.651c-0.068,1.569-0.122,3.125-0.147,4.692
	C1837.011,1486.776,1837.051,1485.206,1837.12,1483.651z"/>
<path fill="#C2AF8C" d="M1836.971,1488.344c-0.041,1.636-0.055,3.271-0.055,4.909
	C1836.918,1491.616,1836.93,1489.979,1836.971,1488.344z"/>
<path d="M1601.898,1604.234c5.362,16.09,18.772,45.593,0,59.001c-18.774,13.41-37.548,16.093-48.276-5.363
	c-10.729-21.454-64.367-26.817-67.049-29.5c-2.684-2.683-24.139-16.093-21.456-34.865c0,0,21.456-26.82,29.501-37.548
	c8.046-10.729-10.729-29.503,0-53.641c10.728-24.138,24.138-42.913,48.275-37.548c24.137,5.365,51.225,59.003,45.727,85.823
	C1583.122,1577.412,1596.534,1588.142,1601.898,1604.234z"/>
<path fill="#0E0E0E" d="M1372.16,1782.193c10.729,10.73,21.456,59.006-29.501,77.778c-50.958,18.771-32.184,10.728-48.275,10.728
	c0,0,16.092-21.455-5.363-34.865c-21.457-13.408-42.91-26.818-10.729-48.273c32.184-21.455,42.912-32.184,59.003-5.365
	C1353.385,1809.014,1361.43,1771.469,1372.16,1782.193z"/>
<path fill="#0E0E0E" d="M1339.078,969.559c0,26.819,13.41,37.547-8.046,40.229c-21.456,2.685-37.548-2.683-40.229-13.408
	c0,0,29.502-29.501,37.548-37.55C1336.395,950.784,1339.078,942.739,1339.078,969.559z"/>
<path fill="#0E0E0E" d="M1239.844,1058.01c0,0,29.501,18.771,16.093,37.547c-13.409,18.774-18.773,26.819-29.502,10.729
	C1215.707,1090.193,1210.343,1060.691,1239.844,1058.01z"/>
<path fill="#0E0E0E" d="M1232.872,460.573c0,0,7.872,17.299,5.189,46.801c-2.683,29.503-5.363,53.641-32.185,67.051
	s-48.274,40.229-80.459,77.775c-32.184,37.547-64.368,37.548-80.459,32.186c-16.091-5.363-29.501-10.729-77.776-59.003
	c-39.895-39.896-71.85-16.938-81.745-7.751c10.149-10.19,21.764-20.423,35.816-31.526
	c76.438-60.344,207.584-108.351,305.745-124.711C1228.983,461.057,1230.941,460.787,1232.872,460.573z"/>
<path fill="#0E0E0E" d="M1128.088,746.969c18.773,16.092,0,26.818-8.046,26.818s-26.538-14.12-21.456-26.818
	C1103.95,733.559,1109.313,730.877,1128.088,746.969z"/>
<path fill="#0E0E0E" d="M1024.711,1037.975c-5.522,13.384-13.665,26.688-22.998,37.588c-1.757,2.052-4.372,4.359-7.711,6.853
	c-42.657,31.971-205.291,96.873-253.781,85.678c-52.298-12.068-76.436-60.346-68.39-76.438
	c8.046-16.092-16.092-128.731,76.438-269.538c47.806-72.748,71.983-117.215,94.728-151.529h0.014
	c-11.987,53.706,76.342,143.432,132.663,135.386s84.482,4.021,96.551,16.092c12.069,12.069,32.186,8.046,32.186,24.138
	c0,16.094-12.069,32.186-28.161,72.413c-16.092,40.229-8.046,60.346-24.138,92.528
	C1036.014,1043.325,1024.711,1037.975,1024.711,1037.975z"/>
<path fill="#0E0E0E" d="M926.053,1553.326c13.41-5.361,40.229,2.979,26.82,40.38c-13.409,37.401-42.912,23.99-50.958,15.943
	C901.917,1609.65,912.642,1558.692,926.053,1553.326z"/>
<path fill="#0E0E0E" d="M856.324,1497.007c2.682,2.683-2.684,16.093-10.729,18.773c-8.045,2.683-8.045,2.683-10.728-13.41
	c-2.684-16.093,10.728-10.728,10.728-10.728S853.64,1494.323,856.324,1497.007z"/>
<path fill="#0E0E0E" d="M810.73,1636.47c0,0,21.456,0,18.772,16.093c-2.682,16.091-2.682,29.501-18.772,24.138
	c-16.092-5.363-16.093-21.457-16.093-26.818C794.637,1644.516,800.002,1639.152,810.73,1636.47z"/>
<path fill="none" stroke="#000000" stroke-width="12" stroke-linecap="round" stroke-linejoin="round" stroke-miterlimit="10" d="
	M1001.713,934.76c0,0,8.045,28.161,24.138,48.273c9.869,12.338,7.631,33.739-1.14,54.939c-5.524,13.384-13.665,26.688-22.998,37.588
	c-1.757,2.052-4.372,4.359-7.711,6.854c-42.657,31.969-205.291,96.873-253.781,85.676c-52.298-12.068-76.436-60.344-68.39-76.438
	c8.046-16.092-16.092-128.731,76.437-269.538c47.807-72.748,71.984-117.215,94.729-151.529
	c12.324-18.586,24.229-34.195,39.251-49.71"/>
<path fill="none" stroke="#000000" stroke-width="12" stroke-linecap="round" stroke-linejoin="round" stroke-miterlimit="10" d="
	M1024.711,1037.975c0,0,11.305,5.352,27.396-26.832c16.092-32.187,8.046-52.299,24.138-92.528
	c16.092-40.229,28.161-56.32,28.161-72.413c0-16.092-20.115-12.067-32.186-24.138c-12.067-12.069-40.229-24.138-96.551-16.092
	S831.018,724.29,843.007,670.585"/>
<path fill="none" stroke="#000000" stroke-width="12" stroke-linecap="round" stroke-linejoin="round" stroke-miterlimit="10" d="
	M882.245,620.877c0.054-0.068,0.12-0.137,0.174-0.202c0.389-0.442,1.408-1.569,3.02-3.044c9.896-9.187,41.852-32.145,81.744,7.751
	c48.276,48.273,61.688,53.64,77.777,59.003c16.092,5.362,48.275,5.362,80.459-32.186c32.186-37.547,53.639-64.367,80.459-77.775
	c26.82-13.41,29.501-37.548,32.184-67.051c2.684-29.502-5.188-46.801-5.188-46.801"/>
<path fill="none" stroke="#000000" stroke-width="12" stroke-linecap="round" stroke-linejoin="round" stroke-miterlimit="10" d="
	M1520.674,501.621c0,0-203.95,106.782-254.907,208.697s40.23,166.283,67.051,174.328c26.818,8.046,9.052-5.364,52.808,29.501
	c43.743,34.865,73.245,34.865,108.11,32.184c34.863-2.681,32.184-5.362,83.141,10.729c50.958,16.093,144.827,61.688,187.738,77.778
	c42.912,16.09,124.268,87.604,134.997,95.65c10.728,8.045,24.473,50.902,118.006,37.548c18.774-2.683,42.912,26.818,93.87,29.501
	c50.958,2.684,32.183-10.729,64.365,0c32.186,10.729,26.819,8.771,42.911,0.362c16.093-8.408,32.187-0.362,40.229,2.319
	c8.046,2.683,16.093-21.455,88.505-32.185c72.413-10.729,123.784-0.428,225.5-155.77"/>
<path fill="none" stroke="#000000" stroke-width="12" stroke-linecap="round" stroke-linejoin="round" stroke-miterlimit="10" d="
	M2913.393,1570.331c-42.91-2.681-53.641-45.593-61.687-67.048c-8.046-21.456-88.505-72.413-112.644-88.506s-8.047,10.729-29.502,0
	c-21.457-10.729-26.818,18.774-50.957,5.364s-37.549-24.138-59.729-5.364c-22.193,18.774-26.096,59.003-7.322,104.598
	c18.775,45.596-2.682,83.141-18.559,101.916c-15.894,18.771-57.501,48.813-57.501,48.813"/>
<path fill="none" stroke="#000000" stroke-width="12" stroke-linecap="round" stroke-linejoin="round" stroke-miterlimit="10" d="
	M2342.912,1715.803c-9.092-13.896-17.139-27.679-24.379-41.813c-14.911-29.031-26.471-59.523-36.918-95.272"/>
<path fill="none" stroke="#000000" stroke-width="12" stroke-linecap="round" stroke-linejoin="round" stroke-miterlimit="10" d="
	M2318.533,1673.989c0,0,42.375,12.566,63.831,12.566c21.455,0,26.818,10.298,18.771,23.924c-4.8,8.126-15.192,21.576-22.81,31.122"
	/>
<path fill="none" stroke="#000000" stroke-width="12" stroke-linecap="round" stroke-linejoin="round" stroke-miterlimit="10" d="
	M1294.383,1870.698c0,0,16.093-21.455-5.364-34.865c-21.454-13.408-42.909-26.818-10.728-48.273
	c32.184-21.455,42.912-32.184,59.003-5.365c16.092,26.82,24.139-10.725,34.865,0c10.729,10.73,21.456,59.006-29.501,77.778
	C1291.701,1878.744,1310.473,1870.698,1294.383,1870.698z"/>
<path fill="none" stroke="#000000" stroke-width="12" stroke-linecap="round" stroke-linejoin="round" stroke-miterlimit="10" d="
	M751.781,1534.086c22.166-52.646,40.066-94.66,45.674-104.944c16.091-29.503,152.858-280.709,160.904-294.119
	s35.644-52.605,35.644-52.605"/>
<path fill="none" stroke="#000000" stroke-width="12" stroke-linecap="round" stroke-linejoin="round" stroke-miterlimit="10" d="
	M750.829,1536.353c0.294-0.725,0.604-1.436,0.898-2.146"/>
<path fill="none" stroke="#000000" stroke-width="12" stroke-linecap="round" stroke-linejoin="round" stroke-miterlimit="10" d="
	M656.624,1757.012c25.599-56.98,63.656-148.124,94.03-220.244"/>
<path fill="none" stroke="#000000" stroke-width="12" stroke-linecap="round" stroke-linejoin="round" stroke-miterlimit="10" d="
	M841.613,1845.505c-56.173-78.224-76.878-146.588-89.832-193.761c-17.634-64.142-5.136-104.557-1.126-114.978
	c0.054-0.148,0.105-0.282,0.174-0.415c0.442-1.154,0.764-1.864,0.898-2.146c0.025-0.079,0.054-0.12,0.054-0.12"/>
<path fill="none" stroke="#000000" stroke-width="12" stroke-linecap="round" stroke-linejoin="round" stroke-miterlimit="10" d="
	M890.331,1905.31c-2.32-2.533-4.586-5.055-6.813-7.563"/>
<path fill="none" stroke="#000000" stroke-width="12" stroke-linecap="round" stroke-linejoin="round" stroke-miterlimit="10" d="
	M901.917,1609.65c0,0,10.729-50.958,24.138-56.323c13.41-5.361,40.229,2.979,26.82,40.38
	C939.466,1631.108,909.963,1617.697,901.917,1609.65z"/>
<path fill="none" stroke="#000000" stroke-width="12" stroke-linecap="round" stroke-linejoin="round" stroke-miterlimit="10" d="
	M810.73,1636.47c0,0,21.456,0,18.772,16.093c-2.682,16.091-2.682,29.501-18.772,24.138c-16.092-5.363-16.093-21.457-16.093-26.818
	C794.637,1644.516,800.002,1639.152,810.73,1636.47z"/>
<path fill="none" stroke="#000000" stroke-width="12" stroke-linecap="round" stroke-linejoin="round" stroke-miterlimit="10" d="
	M845.594,1491.644c0,0-13.408-5.365-10.728,10.729c2.683,16.092,2.683,16.092,10.728,13.409c8.046-2.683,13.41-16.093,10.729-18.773
	C853.64,1494.323,845.594,1491.644,845.594,1491.644z"/>
<path d="M1157.59,1332.456c0,18.772-5.364,32.185,13.41,26.818c18.774-5.363,24.137-10.729,26.819-21.456
	C1200.501,1327.093,1157.596,1300.795,1157.59,1332.456"/>
<path fill="none" stroke="#000000" stroke-width="12" stroke-linecap="round" stroke-linejoin="round" stroke-miterlimit="10" d="
	M1239.844,1058.01c0,0,29.501,18.771,16.093,37.547c-13.409,18.774-18.773,26.819-29.502,10.729
	C1215.707,1090.193,1210.343,1060.691,1239.844,1058.01z"/>
<path fill="none" stroke="#000000" stroke-width="12" stroke-linecap="round" stroke-linejoin="round" stroke-miterlimit="10" d="
	M1290.802,996.379c0,0,29.502-29.501,37.548-37.55c8.046-8.045,10.729-16.091,10.729,10.729c0,26.819,13.41,37.547-8.046,40.229
	C1309.577,1012.471,1293.484,1007.105,1290.802,996.379z"/>
<path fill="none" stroke="#000000" stroke-width="12" stroke-linecap="round" stroke-linejoin="round" stroke-miterlimit="10" d="
	M1465.118,1593.506c0,0,21.456-26.82,29.501-37.548c8.046-10.729-10.729-29.503,0-53.641c10.728-24.138,24.138-42.913,48.274-37.548
	c24.138,5.365,51.226,59.003,45.728,85.823c-5.498,26.818,7.912,37.548,13.276,53.641c5.362,16.09,18.772,45.593,0,59.001
	c-18.774,13.41-37.547,16.093-48.276-5.363c-10.728-21.454-64.367-26.817-67.049-29.5
	C1483.889,1625.689,1462.434,1612.279,1465.118,1593.506z"/>
<path fill="none" stroke="#000000" stroke-width="12" stroke-linecap="round" stroke-linejoin="round" stroke-miterlimit="10" d="
	M1098.586,746.969c-5.082,12.698,13.41,26.818,21.456,26.818s26.819-10.728,8.046-26.818
	C1109.313,730.877,1103.95,733.559,1098.586,746.969z"/>
<path fill="none" stroke="#000000" stroke-width="12" stroke-linecap="round" stroke-linejoin="round" stroke-miterlimit="10" d="
	M2674.699,1587.321c4.021,4.023-1.343,9.388-4.024,5.365C2667.994,1588.663,2674.699,1587.321,2674.699,1587.321z"/>
<path fill="none" stroke="#000000" stroke-width="12" stroke-linecap="round" stroke-linejoin="round" stroke-miterlimit="10" d="
	M2757.84,1590.005c-2.683-4.022,4.022-5.362,4.022-5.362C2765.885,1588.663,2760.52,1594.026,2757.84,1590.005z"/>
<path fill="none" stroke="#000000" stroke-width="12" stroke-linecap="round" stroke-linejoin="round" stroke-miterlimit="10" d="
	M2635.809,1484.065c-2.684-4.022,4.021-5.362,4.021-5.362C2643.854,1482.726,2638.491,1488.092,2635.809,1484.065z"/>
<path fill="none" stroke="#000000" stroke-width="12" stroke-linecap="round" stroke-linejoin="round" stroke-miterlimit="10" d="
	M2808.797,1514.91c-2.682-4.023,4.022-5.363,4.022-5.363C2816.842,1513.568,2811.477,1518.934,2808.797,1514.91z"/>
<path fill="none" stroke="#000000" stroke-width="12" stroke-linecap="round" stroke-linejoin="round" stroke-miterlimit="10" d="
	M2649.929,1543.042c4.963-6.704,11.063,3.396,11.063,3.396C2656.809,1555.325,2644.968,1549.746,2649.929,1543.042z"/>
<path fill="none" stroke="#000000" stroke-width="12" stroke-linecap="round" stroke-linejoin="round" stroke-miterlimit="10" d="
	M2714.298,1508.177c4.961-6.705,11.063,3.395,11.063,3.395C2721.176,1520.462,2709.336,1514.883,2714.298,1508.177z"/>
<path fill="none" stroke="#000000" stroke-width="12" stroke-linecap="round" stroke-linejoin="round" stroke-miterlimit="10" d="
	M2767.936,1541.701c4.963-6.704,11.063,3.396,11.063,3.396C2774.815,1553.986,2762.975,1548.406,2767.936,1541.701z"/>
<path fill="none" stroke="#000000" stroke-width="12" stroke-linecap="round" stroke-linejoin="round" stroke-miterlimit="10" d="
	M2757.209,1453.196c4.962-6.705,11.063,3.396,11.063,3.396C2764.089,1465.48,2752.248,1459.901,2757.209,1453.196z"/>
<path fill="none" stroke="#000000" stroke-width="12" stroke-linecap="round" stroke-linejoin="round" stroke-miterlimit="10" d="
	M2684.259,1447.781c5.768-7.792,12.848,3.94,12.848,3.94C2692.252,1462.034,2678.493,1455.557,2684.259,1447.781z"/>
<path fill="none" stroke="#000000" stroke-width="12" stroke-linecap="round" stroke-linejoin="round" stroke-miterlimit="10" d="
	M2632.926,1430.443c5.77-7.794,12.847,3.928,12.847,3.928C2640.919,1444.695,2627.173,1438.219,2632.926,1430.443z"/>
<path fill="none" stroke="#000000" stroke-width="12" stroke-linecap="round" stroke-linejoin="round" stroke-miterlimit="10" d="
	M1960.664,1404.694c0.322,1.34,21.777,91.135,146.396,179.947c11.33,8.074,23.509,16.146,36.607,24.138"/>
<path fill="none" stroke="#000000" stroke-width="12" stroke-linecap="round" stroke-linejoin="round" stroke-miterlimit="10" d="
	M2514.907,1963.402c21.964,16.291,42.079,31.982,57.876,45.875c34.062,29.97,62.33,53.721,85.662,74.384
	c22.596,20.036,40.563,37.199,54.657,54.353"/>
<path fill="none" stroke="#000000" stroke-width="12" stroke-linecap="round" stroke-linejoin="round" stroke-miterlimit="10" d="
	M2107.061,1584.642c0,0-6.306,21.455,36.605,64.366c42.912,42.911,147.509,145.32,182.373,177.708
	c22.195,20.598,88.921,65.037,151.801,109.826"/>
<path fill="none" stroke="#000000" stroke-width="12" stroke-linecap="round" stroke-linejoin="round" stroke-miterlimit="10" d="
	M2880.848,1710.479c0,0,24.5-54.324,27.182-73.097c2.682-18.775,16.092-37.549,5.363-67.053c-10.729-29.5-21.455-29.5-13.409-61.686
	c8.046-32.184,25.196-56.32-0.818-96.549c-26.001-40.23-68.912-56.323-42.093-96.553c26.818-40.229,56.32-42.911,72.413-50.957
	c16.093-8.049,35.388-15.812,52.563-40.084"/>
<path fill="none" stroke="#000000" stroke-width="12" stroke-linecap="round" stroke-linejoin="round" stroke-miterlimit="10" d="
	M882.419,620.675c1.006-1.021,1.999-2.025,3.018-3.044c10.151-10.19,21.766-20.425,35.818-31.526
	c76.438-60.344,207.584-108.351,305.745-124.711c1.984-0.335,3.942-0.604,5.873-0.818c45.338-5.281,79.426,17.246,98.723,24.956
	c20.115,8.046,189.079,16.092,189.079,16.092s122.029-56.319,178.353-48.273c56.319,8.045,128.733,0,229.31,40.229
	c100.573,40.229,108.619,56.321,217.238,76.438c108.62,20.115,172.987,132.757,189.077,181.033
	c16.094,48.273,113.933,197.205,223.061,249.863c5.98,2.897,10.595,6.692,15.288,11.358c15.649,15.516,32.33,40.579,104.503,73.581
	c93.868,42.91,139.462,75.094,179.691,91.187c14.856,5.939,65.227,24.7,124.856,47.472c67.562,25.802,147.014,56.764,200.236,80.108
	"/>
<path fill="none" stroke="#000000" stroke-width="12" stroke-linecap="round" stroke-linejoin="round" stroke-miterlimit="10" d="
	M3182.301,1304.615c0,0,0,0-0.015,0c-1.191,0.04-76.905,3.07-106.179,27.021c-29.502,24.138-69.732,61.686-21.455,118.007
	c48.273,56.322,91.692,80.714,127.646,91.307"/>
<path fill="none" stroke="#000000" stroke-width="12" stroke-linecap="round" stroke-linejoin="round" stroke-miterlimit="10" d="
	M1856.082,1523.56c-9.535-26.889-13.705-51.507-15.853-69.169"/>
<path fill="none" stroke="#000000" stroke-width="12" stroke-linecap="round" stroke-linejoin="round" stroke-miterlimit="10" d="
	M1912.537,1615.511c-8.718-8.878-16.375-18.09-23.105-27.479"/>
<path fill="none" stroke="#000000" stroke-width="12" stroke-linecap="round" stroke-linejoin="round" stroke-miterlimit="10" d="
	M2003.268,1709.244c-0.592-0.495-1.183-0.979-1.743-1.446c-26.819-22.152-14.831-32.238-64.367-70.43
	c-9.011-6.945-17.192-14.27-24.607-21.832"/>
<path fill="none" stroke="#000000" stroke-width="12" stroke-linecap="round" stroke-linejoin="round" stroke-miterlimit="10" d="
	M2143.668,1850.802c-4.479-3.02-9.226-6.212-14.309-9.604c-25.275-16.855-27.396-22.128-31.028-34.008"/>
<path fill="none" stroke="#000000" stroke-width="12" stroke-linecap="round" stroke-linejoin="round" stroke-miterlimit="10" d="
	M2105.343,1466.435c0,0,2.574,95.839,112.534,165.57c42.765,27.115,86.333,56.268,125.034,83.798
	c12.363,8.81,24.229,17.444,35.415,25.799c43.851,32.748,77.228,61.164,88.975,78.143c14.392,20.783,22.102,40.441,38.485,58.947
	c11.104,12.538,26.189,24.539,50.021,36.021c59.002,28.401,78.284-1.102,114.237,33.768c35.951,34.865,34.447,88.504,55.314,109.959
	c20.864,21.458,43.126,50.958,30.653,83.143c-12.471,32.186,3.621,59.006-23.198,67.051c-23.763,7.133-33.243,26.887-75.939,3.311"
	/>
<path fill="none" stroke="#000000" stroke-width="12" stroke-linecap="round" stroke-linejoin="round" stroke-miterlimit="10" d="
	M1737.524,1439.723c0,0,0,0,0.013,0.011c0.778,1.622,60.332,124.484,86.977,144.908c12.337,9.467,24.677,15.702,34.397,20.717
	c11.425,5.916,19.243,10.137,19.243,15.932c0,10.729,40.229,34.865,40.229,40.23c0,5.362,2.684,18.771,5.364,26.818
	c2.683,8.047,28.241,3.97,36.917,27.464s14.041,42.013,35.496,48.839c21.455,6.84,37.548,28.295,42.912,52.433
	c5.362,24.138,21.455,26.818,37.547,32.186c16.092,5.36,45.594,26.818,48.274,34.864c2.682,8.046,5.362,16.094,24.139,18.771
	c14.375,2.053,28.752-0.604,35.896,6.449c2.188,2.174,3.702,5.244,4.331,9.644c2.685,18.772-8.045,29.503,0,61.688
	c8.047,32.183,6.25,37.157,0.444,58.801"/>
<path fill="none" stroke="#000000" stroke-width="12" stroke-linecap="round" stroke-linejoin="round" stroke-miterlimit="10" d="
	M1876.465,1389.447c0,0-11.426,7.858-23.173,21.779c0,0.012-0.014,0.012-0.014,0.024c-5.323,6.315-10.714,13.864-15.126,22.487
	c-5.914,11.547-10.101,25.021-10.07,40.027c0.107,51.038,8.02,86.172,30.829,131.591"/>
<path fill="none" stroke="#000000" stroke-width="12" stroke-linecap="round" stroke-linejoin="round" stroke-miterlimit="10" d="
	M2143.668,1850.802c0,0,50.958-22.479,59.004-24.085c8.046-1.609,26.819-1.609,26.819,38.621c0,30.561,1.543,48.741-5.939,51.009
	c-2.373,0.712-5.646-0.161-10.151-2.735c-12.027-6.877-35.066-19.066-51.466-34.409
	C2152.719,1870.593,2145.598,1861.005,2143.668,1850.802z"/>
<path fill="none" stroke="#000000" stroke-width="12" stroke-linecap="round" stroke-linejoin="round" stroke-miterlimit="10" d="
	M2098.331,1807.191c-2.615,1.487-6.746,0.775-13.666-3.54c-21.455-13.41-59.003-54.419-61.686-72.804c0,0,2.589-0.039,6.854-0.066
	c10.137-0.095,29.796-0.199,46.786,0.066c24.138,0.391,32.331-9.709,38.956,8.744c6.638,18.464-2.87,29.192-8.85,42.602
	C2102.674,1791.285,2103.84,1804.065,2098.331,1807.191z"/>
<path fill="none" stroke="#000000" stroke-width="12" stroke-linecap="round" stroke-linejoin="round" stroke-miterlimit="10" d="
	M1889.43,1588.033c-13.062,7.321-34.313-33.674-37.156-59.729c0,0,1.381-2.076,3.809-4.746c7.093-7.805,23.064-20.613,39.063-0.617
	C1916.597,1549.761,1902.506,1580.713,1889.43,1588.033z"/>
<path fill="none" stroke="#000000" stroke-width="12" stroke-linecap="round" stroke-linejoin="round" stroke-miterlimit="10" d="
	M2003.268,1709.244c-3.555-0.924-7.818-3.659-14.258-9.293c-21.453-18.771-34.863-26.818-48.273-42.909
	c-13.408-16.094-26.873-18.668-28.188-41.506"/>
<path fill="none" stroke="#000000" stroke-width="12" stroke-linecap="round" stroke-linejoin="round" stroke-miterlimit="10" d="
	M1912.537,1615.511c-0.296-0.657-8.933-19.994,14.791-21.402c24.136-1.435,24.136,14.682,42.911,14.671
	c18.771-0.014,26.817-18.788,37.547-8.061c10.729,10.729,10.729,26.027,26.82,46.547c16.091,20.504,26.818,47.324,0,52.687
	c-18.746,3.754-23.079,11.439-31.313,9.308"/>
<path fill="none" stroke="#000000" stroke-width="12" stroke-linecap="round" stroke-linejoin="round" stroke-miterlimit="10" d="
	M1912.55,1615.536c-0.013,0-0.024-0.013-0.013-0.024"/>
<g id="XMLID_1_">
	<g>
		<path d="M2253.794,795.903c27.021,53.41,15.03,126.352,15.03,126.352s-29.87,12.438-101.3-23.142l0.01-0.01
			C2125.012,776.964,2253.794,795.903,2253.794,795.903z"/>
	</g>
	<g>
		<path fill="none" stroke="#000000" stroke-width="12" stroke-linecap="round" stroke-linejoin="round" stroke-miterlimit="10" d="
			M2253.794,795.903c27.021,53.41,15.03,126.352,15.03,126.352s-29.87,12.438-101.3-23.142c-2.723-1.37-5.513-2.79-8.353-4.29
			c-80.75-42.55-83.45-93.26-83.45-93.26s91.183-85.83,150.19-40.229C2238.084,770.742,2247.124,782.733,2253.794,795.903z"/>
		<path fill="none" stroke="#000000" stroke-width="12" stroke-linecap="round" stroke-linejoin="round" stroke-miterlimit="10" d="
			M2253.794,795.903c0,0-128.78-18.938-86.26,103.2"/>
	</g>
</g>
<path fill="#0E0E0E" d="M1770.874,2065.167c-5.364-9.371-18.773,9.361-26.819-17.459c-4.976-16.6-8.931-19.846-16.238-22.284
	c-4.492-1.49-10.26-2.685-18.317-6.491c-21.146-9.989-32.492-6.088-43.22,12.688c-10.729,18.772-26.82,21.455-64.368,26.817
	c-37.547,5.365-18.773,24.138-10.729,31.354c5.646,5.055,32.372,16.276,47.82,22.541c6.571,2.653,11.103,4.412,11.103,4.412
	c47.498-4.977,96.657-15.998,125.529-23.188v-0.013C1775.031,2080.391,1776.239,2074.529,1770.874,2065.167z"/>
<path fill="#0E0E0E" d="M1634.658,2195.219c13.985-69.73,79.896-26.82,74.532-10.729c-5.364,16.094-13.41,26.82-13.41,40.23
	c0,13.408,2.683,26.818-3.646,34.865c-6.331,8.045-36.583,19.512-36.583,19.512c-12.067-1.462-21.268-14.148-2.682-40.969
	C1659.118,2229.104,1631.17,2212.65,1634.658,2195.219z"/>
<path fill="#070707" d="M1377.068,2110.308c3.473,0.521,6.625,1.287,9.479,2.266c-12.873-1.021-26.014-2.213-39.331-3.58
	C1354.418,2108.067,1364.034,2108.35,1377.068,2110.308z"/>
<path fill="#070707" d="M1370.551,2276.469c-0.066,0.056-0.121,0.079-0.188,0.121c-18.774,10.728-39.331,8.046-58.105,2.683
	c-4.157-1.193-7.013-3.809-8.931-7.281c12.82,0.951,23.199,1.568,30.507,1.971
	C1345.097,2274.591,1357.409,2275.799,1370.551,2276.469z"/>
<path fill="#070707" d="M1233.502,2088.557c-0.064,1.19-0.146,2.452-0.268,3.809c-2.105-0.403-4.21-0.819-6.316-1.232
	C1229.171,2090.139,1231.37,2089.281,1233.502,2088.557z"/>
<path fill="#CBA000" d="M1223.886,2263.874l-4.304,47.754C1217.41,2285.883,1223.886,2263.874,1223.886,2263.874z"/>
<path fill="#070707" d="M1223.886,2263.874c0,0-6.478,22.009-4.304,47.754c-6.759-2.549-13.853-4.438-21.229-5.617
	c-1.517-0.242-3.044-0.456-4.561-0.63v-37.951c8.005,0.483,15.139-0.896,18.236-5.136
	C1216.042,2262.844,1219.999,2263.383,1223.886,2263.874z"/>
<path fill="#0E0E0E" d="M1206.776,1999.436c11.761,7.052,13.478,12.817,13.598,65.276c-20.208-9.319-76.262-30.938-124.457-44.707
	c-37.387-10.677-46.412-0.097-50.596,11.369c-22.126-11.438-42.67-24.391-61.042-39.021c-37.077-29.542-68.016-58.71-93.949-87.044
	c0,0,61.658-5.107,83.114-58.748c21.456-53.639,64.367-21.455,83.142,8.046c18.773,29.502,50.957,42.912,75.095,42.912
	c24.14,0,48.276,42.911,45.595,77.778C1177.274,1975.299,1193.367,1991.389,1206.776,1999.436z"/>
<path fill="#070707" d="M1193.796,2259.639c6.182,0.938,12.271,1.823,18.236,2.653c-3.099,4.237-10.231,5.621-18.236,5.137V2259.639
	L1193.796,2259.639z"/>
<path fill="#CBA000" d="M1193.796,2267.429v37.951c0,0-2.736-22.262-1.248-38.045
	C1192.964,2267.376,1193.38,2267.404,1193.796,2267.429z"/>
<path fill="#070707" d="M1193.796,2259.639v7.79c-0.416-0.024-0.832-0.053-1.248-0.094
	C1192.817,2264.507,1193.218,2261.892,1193.796,2259.639z"/>
<path fill="#070707" d="M1193.796,2259.639c-0.578,2.253-0.979,4.866-1.248,7.696c-5.954-0.496-12.284-1.982-17.729-4.074
	c2.603-1.73,4.922-3.661,6.961-5.526C1185.831,2258.392,1189.84,2259.021,1193.796,2259.639z"/>
<path fill="#FA67AB" d="M1045.322,2031.376c-2.132,5.807-3.019,11.842-5.728,15.448c-8.046,10.729-42.912,152.872-42.912,152.872
	s-1.232,3.715-1.446,8.555c-7.966-3.259-15.813-6.69-23.469-10.283c-69.072-32.428-136.913-99.18-191.184-166.522
	c6.651-8.208,10.607-21.471,12.713-24.62c4.022-6.035,28.16-52.301,36.206-74.426s30.025-34.193,44.253-34.193
	c3.781,0,7.04-0.121,9.762-0.457c2.228,2.509,4.493,5.028,6.813,7.563c25.935,28.334,56.872,57.502,93.949,87.044
	C1002.651,2006.985,1023.195,2019.938,1045.322,2031.376z"/>
<path fill="#070707" d="M885.826,1866.021c-11.937-23.883-36.904-21.725-44.213-20.517c-1.314,0.214-2.052,0.399-2.052,0.399
	c-46.265,4.022-74.426,54.313-82.471,72.413c-6.517,14.657-16.991,33.271-21.804,52.633c-1.127,4.563-1.945,9.146-2.334,13.745
	c-2.012,24.139-0.296,20.115,21.818,44.857c11.315,12.672,19.696,9.396,25.813,1.891c6.651-8.208,10.607-21.471,12.713-24.62
	c4.022-6.036,28.16-52.301,36.206-74.426s30.025-34.194,44.253-34.194c3.781,0,7.04-0.12,9.763-0.455
	C896.727,1896.124,897.492,1889.365,885.826,1866.021z"/>
<path fill="none" stroke="#000000" stroke-width="12" stroke-linecap="round" stroke-linejoin="round" stroke-miterlimit="10" d="
	M1634.658,2195.219c-3.487,17.433,24.46,33.887,18.21,42.909c-18.586,26.82-9.387,39.509,2.682,40.971
	c0,0,30.251-11.469,36.583-19.514c6.329-8.047,3.646-21.457,3.646-34.863c0-13.41,8.046-24.139,13.41-40.23
	C1714.552,2168.397,1648.643,2125.487,1634.658,2195.219z"/>
<path fill="none" stroke="#000000" stroke-width="12" stroke-linecap="round" stroke-linejoin="round" stroke-miterlimit="10" d="
	M1727.815,2025.424c18.692-18.427,30.358-29.999,30.358-29.999"/>
<path fill="none" stroke="#000000" stroke-width="12" stroke-linecap="round" stroke-linejoin="round" stroke-miterlimit="10" d="
	M1370.551,2276.469c43.206,2.278,95.25-1.045,147.441-49.001c32.572-29.932,74.88-70.414,114.882-109.182
	c2.051-2,4.09-3.971,6.128-5.955"/>
<path fill="none" stroke="#000000" stroke-width="12" stroke-linecap="round" stroke-linejoin="round" stroke-miterlimit="10" d="
	M1212.033,2262.292c4.01,0.553,7.966,1.091,11.854,1.582c31.099,4.054,58.521,6.549,79.439,8.114"/>
<path fill="none" stroke="#000000" stroke-width="12" stroke-linecap="round" stroke-linejoin="round" stroke-miterlimit="10" d="
	M780.585,2031.444c54.271,67.345,122.11,134.097,191.184,166.522c7.656,3.593,15.504,7.024,23.469,10.283"/>
<path fill="none" stroke="#000000" stroke-width="12" stroke-linecap="round" stroke-linejoin="round" stroke-miterlimit="10" d="
	M656.624,1757.012c-0.041,0.079-0.081,0.174-0.107,0.239c-1.461,3.34-16.452,41.112,19.352,115.3
	c11.828,24.484,32.519,59.713,59.42,98.398"/>
<path fill="none" stroke="#000000" stroke-width="12" stroke-linecap="round" stroke-linejoin="round" stroke-miterlimit="10" d="
	M1347.217,2108.992c-25.235-2.614-51.132-5.913-77.12-10.099"/>
<path fill="none" stroke="#000000" stroke-width="12" stroke-linecap="round" stroke-linejoin="round" stroke-miterlimit="10" d="
	M1650.106,2116.742c-5.78,0.604-11.533,1.126-17.231,1.543c-11.546,0.817-22.837,1.206-33.524,1.005
	c-34.396-0.644-116.369,0.926-212.802-6.718"/>
<path fill="none" stroke="#000000" stroke-width="12" stroke-linecap="round" stroke-linejoin="round" stroke-miterlimit="10" d="
	M1801.234,2086.813c0,0-9.749,2.79-25.601,6.744"/>
<path fill="none" stroke="#000000" stroke-width="12" stroke-linecap="round" stroke-linejoin="round" stroke-miterlimit="10" d="
	M1223.886,2263.874c0,0-6.478,22.009-4.304,47.754"/>
<path fill="none" stroke="#000000" stroke-width="12" stroke-linecap="round" stroke-linejoin="round" stroke-miterlimit="10" d="
	M1193.796,2305.381c0,0-2.736-22.261-1.248-38.045"/>
<path fill="none" stroke="#000000" stroke-width="12" stroke-linecap="round" stroke-linejoin="round" stroke-miterlimit="10" d="
	M1220.374,2064.712c-0.12-52.459-1.837-58.226-13.598-65.275c-13.41-8.047-29.502-24.139-29.502-24.139
	c2.683-34.866-21.455-77.777-45.595-77.777c-24.138,0-56.319-13.41-75.095-42.912c-18.774-29.501-61.686-61.684-83.142-8.046
	c-21.456,53.641-83.114,58.748-83.114,58.748c25.935,28.334,56.872,57.502,93.949,87.044c18.372,14.632,38.916,27.585,61.042,39.021
	"/>
<path fill="none" stroke="#000000" stroke-width="12" stroke-linecap="round" stroke-linejoin="round" stroke-miterlimit="10" d="
	M1775.634,2093.558v-0.013c-0.604-13.154,0.604-19.018-4.761-28.377c-5.364-9.372-18.772,9.36-26.819-17.459
	c-4.976-16.602-8.931-19.848-16.238-22.286c-4.492-1.49-10.26-2.684-18.317-6.491c-21.147-9.989-32.492-6.088-43.22,12.688
	c-10.729,18.771-26.82,21.455-64.368,26.815c-37.547,5.365-18.773,24.14-10.729,31.354c5.646,5.054,32.372,16.275,47.82,22.54
	c6.571,2.653,11.104,4.412,11.104,4.412C1697.604,2111.769,1746.761,2100.745,1775.634,2093.558z"/>
<path fill="#C2AF8C" d="M2458.343,2095.104c-21.46-2.69-24.14-8.051-32.18-16.101c-8.05-8.041-5.41-8.899-21.47-13.842
	c-7.771-2.38-10.32,1.19-11.7,3.762c0,0-29.91-38.189-57.38-38.189c-6.07,0-11.2-1.57-15.54-4.08
	c-1.771-1.51-3.54-3.061-5.313-4.609c-0.89-0.778-1.77-1.561-2.647-2.351c-0.899-0.78-1.79-1.58-2.67-2.37
	c-7.78-9.51-11.67-21.108-14.7-24.14c-0.59-0.591-1.271-1.53-2.05-2.75c0,0,95.029-17.82,132.58,6.319
	c2.199,1.408,4.47,2.908,6.812,4.488c-13.021,15.762-22.16,25.012-22.16,25.012c43.148,51.948,84.601,37.358,93.88,33.141
	c13.141,13.1,22.38,24.909,23.391,32.47c2.271,17.12,19.95,26.979,38.341,39.58
	C2509.674,2127.282,2479.794,2097.782,2458.343,2095.104z"/>
<path fill="#666666" d="M2381.424,2073.613c4.011-5.17,6.3-8.449,6.3-8.449c3.7,8.109,3.813,6.511,5.271,3.761
	c1.38-2.569,3.93-6.142,11.7-3.761c16.06,4.939,13.42,5.801,21.47,13.841c8.04,8.05,10.72,13.409,32.18,16.101
	c21.45,2.682,51.33,32.182,107.19,36.342c3.31,2.26,6.647,4.618,9.93,7.129c19.83,15.181,53.32,46.511,62.54,61.58
	c0.76,1.221,1.352,2.341,1.76,3.341c-11.02-3.47-23.92-5.89-32.107-9.16c-13.41-5.358-26.82-5.358-37.551-2.68
	c-10.729,2.68-37.552,10.729-45.602,5.36c-8.04-5.36,0,0-32.18-10.73c-32.18-10.72-37.551-8.04-45.59-21.45
	c-8.053-13.409-16.092-13.409-21.461-10.729c-5.359,2.68-24.142-2.681-37.552-11.57c-13.188-8.75-50.85-0.28-52.079,0
	c-21.279-13.32-43.029-27.75-65.131-43.21c0.45-0.12,22.813-6.41,41.74,0.01c19.148,6.49,24.521,22.59,43.29,3.813
	C2366.563,2092.122,2375.734,2080.952,2381.424,2073.613z"/>
<g>
	<path fill="none" stroke="#000000" stroke-width="12" stroke-linecap="round" stroke-linejoin="round" stroke-miterlimit="10" d="
		M2309.444,2017.323c-7.78-9.51-11.67-21.108-14.7-24.14c-0.59-0.591-1.271-1.53-2.05-2.75c-6.34-9.92-19.07-38.36-38.182-45.521
		c-11.641-4.358-21.431-16.358-30.959-28.568"/>
	<path fill="none" stroke="#000000" stroke-width="12" stroke-linecap="round" stroke-linejoin="round" stroke-miterlimit="10" d="
		M2392.994,2068.924c0,0-29.91-38.189-57.38-38.189c-6.07,0-11.2-1.568-15.54-4.08"/>
	<path fill="none" stroke="#000000" stroke-width="12" stroke-linecap="round" stroke-linejoin="round" stroke-miterlimit="10" d="
		M2565.534,2131.443c-55.86-4.16-85.74-33.66-107.19-36.34c-21.46-2.689-24.14-8.051-32.18-16.102
		c-8.05-8.039-5.41-8.898-21.47-13.841c-7.771-2.38-10.32,1.19-11.7,3.761c-1.46,2.75-1.57,4.352-5.271-3.761
		c0,0-2.291,3.28-6.302,8.45c-5.688,7.34-14.857,18.51-25.88,29.53c-18.77,18.778-24.14,2.68-43.29-3.813
		c-18.93-6.42-41.29-0.13-41.739-0.01c-0.021,0.01-0.021,0.01-0.021,0.01"/>
	<path fill="none" stroke="#000000" stroke-width="12" stroke-linecap="round" stroke-linejoin="round" stroke-miterlimit="10" d="
		M2381.424,2073.613c-3.77-2.561-7.55-5.188-11.34-7.88c-1.26-0.898-2.54-1.8-3.8-2.71c-1.271-0.91-2.551-1.84-3.813-2.76
		c-1.27-0.931-2.55-1.87-3.818-2.82c-2.472-1.82-4.939-3.67-7.409-5.561c-1.36-1.04-2.73-2.08-4.08-3.142
		c-1.29-0.989-2.58-2-3.852-3c-7.71-6.05-15.46-12.409-23.239-19.09c-1.771-1.51-3.539-3.061-5.312-4.608
		c-0.89-0.779-1.771-1.562-2.647-2.352c-0.9-0.779-1.791-1.579-2.67-2.37c-0.121-0.09-0.263-0.209-0.382-0.318
		c-1.101-0.979-2.198-1.96-3.301-2.95c-1.449-1.3-2.89-2.6-4.369-3.92c-28.948-25.96-63.108-56.76-99.421-89.83
		c-1.409-1.3-2.829-2.59-4.25-3.88c-1.42-1.3-2.84-2.601-4.27-3.88c-1.42-1.319-2.852-2.62-4.29-3.92
		c-0.642-0.602-1.301-1.189-1.94-1.78c-9.09-8.311-18.277-16.71-27.527-25.199c-4.683-4.29-9.393-8.609-14.091-12.938
		c-2.939-2.711-5.882-5.41-8.829-8.11c-6.853-6.318-13.723-12.659-20.57-19.01c-1.98-1.83-3.95-3.66-5.93-5.479
		c-7.791-7.229-15.57-14.438-23.291-21.648c-4.102-3.82-8.189-7.642-12.262-11.432c-1.31-1.239-2.618-2.46-3.92-3.681
		c-2.897-2.71-5.777-5.409-8.67-8.109c-7.2-6.739-14.33-13.46-21.37-20.101c-2.83-2.681-5.64-5.34-8.42-7.971
		c-4.479-4.25-8.92-8.459-13.31-12.63c-2.45-2.329-4.892-4.671-7.32-6.971c-16.59-15.84-32.46-31.149-47.319-45.699
		c-0.989-0.971-1.971-1.931-2.948-2.891c-21.143-20.739-40.12-39.841-55.961-56.438c-0.421-0.432-0.829-0.86-1.239-1.291
		c-18.16-19.09-32.08-34.819-40.271-45.909c-0.398-0.551-0.79-1.091-1.16-1.609c-0.579-0.79-1.108-1.569-1.608-2.312
		c-0.2-0.289-0.392-0.561-0.58-0.84c-0.439-0.67-0.84-1.319-1.23-1.931c-15.459-24.989-22.479-58.41-22.479-91.391
		c0-1.641,0.021-3.271,0.06-4.91c0.021-1.569,0.08-3.119,0.15-4.688c0.021-0.649,0.05-1.291,0.09-1.931
		c0.04-1.021,0.11-2.03,0.16-3.051c0.12-1.699,0.24-3.399,0.391-5.091c0.13-1.641,0.289-3.261,0.471-4.869
		c0.01-0.131,0.029-0.271,0.04-0.392c0.13-1.26,0.278-2.521,0.438-3.771c0.04-0.399,0.101-0.771,0.15-1.159
		c0.17-1.37,0.358-2.71,0.58-4.07c0.01-0.14,0.04-0.31,0.06-0.47c0.22-1.399,0.45-2.811,0.69-4.21c0.01-0.08,0.02-0.17,0.04-0.25
		v-0.021c0.26-1.551,0.55-3.08,0.858-4.609c0.11-0.602,0.24-1.2,0.36-1.812c0.24-1.181,0.49-2.351,0.76-3.5
		c0.271-1.25,0.562-2.489,0.87-3.71c0.14-0.551,0.271-1.119,0.42-1.649c0.94-3.689,1.97-7.271,3.101-10.761
		c0.221-0.688,0.449-1.391,0.689-2.079c0.59-1.739,1.2-3.439,1.83-5.13c0.438-1.171,0.9-2.32,1.35-3.45
		c0.562-1.37,1.131-2.72,1.721-4.029c0.359-0.812,0.721-1.601,1.08-2.391"/>
	<path fill="none" stroke="#000000" stroke-width="12" stroke-linecap="round" stroke-linejoin="round" stroke-miterlimit="10" d="
		M2335.614,2142.532c0,0,0.02,0,0.029,0c1.229-0.279,38.891-8.75,52.08,0c13.408,8.892,32.188,14.25,37.551,11.57
		c5.37-2.681,13.408-2.681,21.46,10.729c8.04,13.41,13.409,10.73,45.59,21.45c32.18,10.73,24.14,5.37,32.18,10.73
		c8.05,5.368,34.87-2.681,45.603-5.36c10.729-2.68,24.14-2.68,37.55,2.68c8.188,3.271,21.09,5.69,32.108,9.16
		c2.521,0.79,4.939,1.63,7.182,2.561c0.01,0,0.02,0.012,0.04,0.012c4.01,1.67,7.448,3.58,9.89,5.88
		c-17.38,26.528-41.061,38.76-41.061,38.76"/>
	<path fill="none" stroke="#000000" stroke-width="12" stroke-linecap="round" stroke-linejoin="round" stroke-miterlimit="10" d="
		M2503.802,2059.394c13.143,13.1,22.38,24.909,23.393,32.47c2.27,17.12,19.95,26.979,38.34,39.58c3.31,2.261,6.649,4.62,9.93,7.13
		c19.83,15.18,53.32,46.51,62.54,61.58c0.76,1.221,1.353,2.34,1.76,3.34"/>
	<path fill="none" stroke="#000000" stroke-width="12" stroke-linecap="round" stroke-linejoin="round" stroke-miterlimit="10" d="
		M2292.694,1990.434c0,0,95.029-17.82,132.58,6.319c2.199,1.408,4.47,2.908,6.81,4.488"/>
	<path fill="none" stroke="#000000" stroke-width="12" stroke-linecap="round" stroke-linejoin="round" stroke-miterlimit="10" d="
		M2503.802,2059.394c-9.278,4.22-50.729,18.811-93.88-33.141c0,0,9.143-9.25,22.16-25.012c13.13-15.89,30.189-38.39,45.76-64.698
		c7.603-12.841,14.842-26.58,21.092-40.899c2.431-5.551,4.711-11.189,6.801-16.9c0,0,1.84,11.012,3.938,27.802
		c1.932,15.438,4.08,35.75,5.23,56.858c1.96,36.21,0.97,74.75-9.17,95.03C2505.734,2058.434,2505.063,2058.823,2503.802,2059.394z"
		/>
	<path fill="none" stroke="#000000" stroke-width="12" stroke-linecap="round" stroke-linejoin="round" stroke-miterlimit="10" d="
		M3182.302,1304.613c26.96,11.83,47.2,21.7,55.73,27.96c40.229,29.511,53.64,74.2-16.091,157.34
		c-14.069,16.78-26.841,33.98-39.642,51.04c-50.71,67.46-102.271,132.46-239.29,158.16l-62.17,11.37l-104.109,19.021
		c0,0-18.771,5.368-56.318-5.359c-14.41-4.13-103.891-23.641-204.92-54.04c-44.5-13.391-91.24-28.87-134.79-46.09
		c-35.67-14.11-67.88-28.841-99.091-45.301c-27.682-14.592-54.58-30.54-82.392-48.58c-29.31-19.029-58.63-41.92-93.88-63.699
		c-15.38-9.521-31.899-18.813-50.061-27.479c-2.271-1.08-4.591-2.16-6.959-3.24c-1.58-0.729-3.19-1.449-4.813-2.16
		c-0.819-0.359-1.64-0.71-2.46-1.069c-0.83-0.37-1.649-0.729-2.489-1.08c-2.511-1.068-5.068-2.14-7.67-3.198
		c-1.729-0.71-3.49-1.422-5.261-2.12c-2.67-1.052-5.359-2.09-8.109-3.142c-0.87-0.33-1.75-0.66-2.63-0.988
		c-0.24-0.08-0.5-0.172-0.74-0.271c-1.648-0.601-3.3-1.221-4.971-1.811c-0.119-0.04-0.239-0.09-0.357-0.131
		c-1.762-0.631-3.53-1.261-5.32-1.881c-2.062-0.72-4.149-1.438-6.24-2.148c-1.64-0.551-3.29-1.102-4.949-1.63
		c-5.04-1.649-10.17-3.262-15.369-4.802c-1.012-0.3-2.012-0.608-3.029-0.89c-1.021-0.312-2.03-0.601-3.062-0.88
		c-3.358-0.98-6.771-1.921-10.188-2.82c0-0.01,0-0.01,0-0.01c-0.04-0.021-0.08-0.021-0.12-0.03c-0.189-0.05-0.392-0.108-0.59-0.148
		c-1.21-0.33-2.432-0.649-3.65-0.96c-0.29-0.08-0.59-0.149-0.88-0.229c-0.96-0.24-1.89-0.479-2.85-0.721
		c-3.21-0.819-6.432-1.601-9.66-2.351c-0.74-0.181-1.48-0.351-2.221-0.511c-3.5-0.811-7.012-1.58-10.521-2.311
		c-3.88-0.802-7.771-1.569-11.66-2.279c-2.01-0.37-4.029-0.721-6.05-1.07c-1.46-0.25-2.92-0.5-4.37-0.72
		c-0.55-0.101-1.109-0.188-1.67-0.271c-2.01-0.312-4.01-0.62-6.01-0.91c-0.03,0-0.04,0-0.052,0c-2-0.29-4-0.569-6-0.819
		c-1.488-0.188-2.96-0.38-4.438-0.551c-4.44-0.521-8.851-0.97-13.23-1.34c-0.068-0.021-0.148-0.021-0.229-0.021
		c-1.312-0.12-2.64-0.22-3.96-0.318c-1.7-0.12-3.391-0.222-5.062-0.32c-58.39-3.34-109.868,8.921-129.909,50.931
		c-13.239,27.729-12.789,68.432,8.439,126.16c0,0-13.41,43.812,230.65,285.189c71.078,70.311,143.17,133.8,213.078,188.391
		c27.33,21.369,54.32,41.34,80.812,59.851c22.103,15.461,43.853,29.891,65.131,43.211c111.771,70,210.479,109.52,280.17,108.17
		c0,0-171.648,78.68-393.351-25.932c-138.642-65.431-285.29-181.449-417.19-219.29c-2.54-0.729-5.06-1.42-7.58-2.09h-0.01
		c-13.35-3.54-26.51-6.24-39.51-7.971c-45.351-6.062-88.49-0.351-128.42,22.841"/>
</g>
<path fill="none" stroke="#000000" stroke-width="12" stroke-linecap="round" stroke-linejoin="round" stroke-miterlimit="10" d="
	M735.287,1970.95c4.813-19.361,15.287-37.976,21.804-52.633c8.045-18.103,36.207-68.391,82.472-72.413c0,0,0.735-0.188,2.051-0.399
	c7.309-1.208,32.276-3.366,44.213,20.517c11.667,23.346,10.902,30.104-2.307,31.728c-2.724,0.336-5.98,0.457-9.764,0.457
	c-14.228,0-36.207,12.068-44.253,34.193s-32.184,68.391-36.206,74.426c-2.104,3.149-6.062,16.412-12.713,24.62
	c-6.115,7.509-14.496,10.781-25.813-1.891c-22.114-24.742-23.83-20.72-21.818-44.857
	C733.342,1980.097,734.16,1975.512,735.287,1970.95z"/>
<path fill="#070707" d="M1303.689,2228.554c2.682-10.729-24.688-16.604-32.561-19.014c-17.433-5.364-30.843-10.729-41.852-1.518
	c-17.151,14.362-10.891,39.063-16.253,52.472c-0.256,0.646-0.59,1.248-0.993,1.798c-3.099,4.237-10.231,5.621-18.236,5.137
	c-0.416-0.024-0.832-0.053-1.248-0.094c-5.954-0.496-12.284-1.982-17.729-4.074c2.604-1.73,4.923-3.661,6.962-5.526
	c3.069-2.788,5.471-5.444,7.104-7.079c5.364-5.365,21.456-38.435,34.865-102.803c5.552-26.67,8.502-43.98,9.479-55.487
	c0.121-1.354,0.202-2.616,0.27-3.809c5.485-1.854,10.526-2.777,14.832-2.388c13.074,1.18,19.216,6.598,21.764,12.726
	c3.206,7.699,0.737,16.521-0.751,19.483c-2.682,5.338,0,34.84,26.82,29.475c26.82-5.362,21.456-5.362,26.82-18.771
	c3.739-9.358,7.575-17.955,24.229-20.088c7.201-0.926,16.816-0.644,29.85,1.314c3.475,0.521,6.625,1.287,9.48,2.266
	c19.244,6.518,25.036,22.262,22.704,33.939c-2.669,13.37-19.995,118.652-38.701,129.955c-0.068,0.056-0.121,0.079-0.188,0.121
	c-18.772,10.729-39.331,8.046-58.104,2.684c-4.158-1.193-7.013-3.81-8.931-7.281
	C1296.582,2259.76,1301.596,2236.909,1303.689,2228.554z"/>
<path fill="#070707" d="M1227.334,2068.28c4.318,2.884,6.839,7.054,6.168,20.276c-0.066,1.19-0.147,2.453-0.268,3.809
	c-0.979,11.506-3.931,28.817-9.481,55.487c-13.409,64.368-29.501,97.438-34.865,102.803c-1.636,1.636-4.034,4.291-7.104,7.079
	c-2.039,1.865-4.358,3.796-6.961,5.526c-6.315,4.263-14.254,7.479-23.48,6.167c-18.772-2.685-119.79-34.865-141.247-40.229
	c-13.033-3.26-15.179-13.45-14.855-20.948c0.214-4.84,1.447-8.554,1.447-8.554s34.865-142.145,42.911-152.872
	c2.709-3.606,3.596-9.644,5.728-15.447c4.184-11.467,13.209-22.047,50.596-11.371c48.194,13.771,104.248,35.388,124.457,44.707
	C1223.78,2066.281,1226.166,2067.501,1227.334,2068.28z"/>
<path fill="none" stroke="#000000" stroke-width="12" stroke-linecap="round" stroke-linejoin="round" stroke-miterlimit="10" d="
	M1233.502,2088.557c5.485-1.854,10.527-2.777,14.832-2.388c13.074,1.18,19.216,6.598,21.765,12.726
	c3.205,7.699,0.736,16.521-0.752,19.483c-2.682,5.338,0,34.84,26.82,29.475c26.82-5.362,21.456-5.362,26.82-18.771
	c3.74-9.358,7.577-17.955,24.229-20.088c7.201-0.926,16.816-0.644,29.852,1.314c3.473,0.521,6.625,1.287,9.479,2.266
	c19.244,6.518,25.036,22.262,22.704,33.939c-2.669,13.37-19.995,118.652-38.701,129.955c-0.066,0.056-0.121,0.079-0.188,0.121
	c-18.774,10.729-39.331,8.046-58.105,2.684c-4.158-1.193-7.013-3.81-8.931-7.281c-6.745-12.229-1.729-35.079,0.36-43.438
	c2.684-10.728-24.688-16.602-32.559-19.013c-17.433-5.365-30.843-10.729-41.852-1.517c-17.151,14.36-10.891,39.062-16.255,52.472
	c-0.254,0.645-0.589,1.248-0.991,1.797c-3.099,4.238-10.231,5.62-18.236,5.136c-0.416-0.022-0.832-0.053-1.248-0.093
	c-5.954-0.496-12.284-1.983-17.729-4.075"/>
<path fill="none" stroke="#000000" stroke-width="12" stroke-linecap="round" stroke-linejoin="round" stroke-miterlimit="10" d="
	M1174.82,2263.261c-6.315,4.263-14.254,7.479-23.48,6.167c-18.772-2.685-119.79-34.865-141.247-40.229
	c-13.034-3.26-15.179-13.451-14.855-20.947c0.214-4.841,1.446-8.555,1.446-8.555s34.866-142.145,42.912-152.872
	c2.709-3.606,3.596-9.644,5.728-15.447c4.184-11.468,13.209-22.048,50.596-11.371c48.194,13.771,104.248,35.388,124.457,44.707
	c3.406,1.567,5.792,2.79,6.96,3.567c4.318,2.885,6.839,7.055,6.168,20.275c-0.066,1.191-0.146,2.453-0.268,3.809
	c-0.979,11.508-3.931,28.817-9.481,55.487c-13.409,64.368-29.501,97.438-34.865,102.804c-1.636,1.636-4.035,4.291-7.104,7.078
	C1179.743,2259.6,1177.423,2261.53,1174.82,2263.261z"/>
<g id="Layer_6_2_">
	<path fill="#F7CA18" d="M1224.552,2303.329c77.082,20.254,131.932,96.582,127.063,184.299
		c-5.521,99.415-85.59,175.79-178.855,170.639c-93.255-5.196-164.431-89.949-158.909-189.352
		c5.371-96.991,81.75-172.069,172.091-170.828c2.246,0.021,4.512,0.099,6.756,0.235
		C1203.655,2298.934,1214.296,2300.624,1224.552,2303.329z"/>
	<path fill="none" stroke="#000000" stroke-width="12" stroke-linecap="round" stroke-linejoin="round" stroke-miterlimit="10" d="
		M1224.552,2303.329c77.082,20.254,131.932,96.582,127.063,184.299c-5.521,99.415-85.59,175.79-178.855,170.639
		c-93.255-5.196-164.431-89.949-158.909-189.352c5.371-96.991,81.75-172.069,172.091-170.828c2.246,0.021,4.512,0.099,6.756,0.235
		C1203.655,2298.934,1214.296,2300.624,1224.552,2303.329z"/>
	<g>
		<path d="M1036.064,2471.639l10.294,0.612c-0.371,5.526,0.145,9.97,1.548,13.321c1.401,3.354,3.725,6.249,6.968,8.688
			c3.242,2.438,7.089,4.027,11.539,4.771c6.382,1.068,11.598,0.339,15.648-2.188c4.05-2.526,6.49-6.28,7.323-11.259
			c0.488-2.916,0.273-5.567-0.644-7.957c-0.917-2.393-2.552-4.498-4.903-6.319c-2.353-1.824-7.606-4.726-15.769-8.7
			c-7.264-3.547-12.318-6.737-15.171-9.571c-2.854-2.834-4.886-6.164-6.093-9.993c-1.208-3.83-1.438-7.97-0.693-12.42
			c1.338-8,5.017-14.106,11.036-18.321c6.018-4.216,13.408-5.588,22.175-4.122c6.021,1.008,11.094,3.081,15.213,6.218
			c4.119,3.139,7.054,7.142,8.804,12.008c1.75,4.868,2.211,10.328,1.384,16.382l-10.474-0.781
			c0.536-6.519-0.589-11.604-3.374-15.258c-2.785-3.654-7.167-5.98-13.146-6.98c-6.067-1.015-10.926-0.431-14.57,1.756
			c-3.647,2.187-5.83,5.437-6.552,9.749c-0.669,4.001-0.021,7.298,1.949,9.89c1.97,2.596,6.854,5.702,14.653,9.327
			c7.625,3.552,12.921,6.41,15.884,8.575c4.521,3.355,7.696,7.299,9.531,11.829s2.277,9.646,1.323,15.349
			c-0.946,5.657-3.134,10.591-6.563,14.791c-3.43,4.203-7.629,7.138-12.596,8.8c-4.968,1.659-10.666,1.954-17.093,0.879
			c-10.024-1.679-17.511-6.023-22.458-13.045C1036.292,2490.644,1034.567,2481.969,1036.064,2471.639z"/>
		<path d="M1103.888,2543.906l16.568-99.045l9.169,1.534l-1.557,9.305c2.89-3.49,5.847-5.857,8.87-7.111
			c3.021-1.25,6.307-1.577,9.853-0.983c4.623,0.772,8.566,2.843,11.833,6.208c3.265,3.364,5.563,8.034,6.896,14.01
			c1.328,5.977,1.337,12.896,0.021,20.762c-2.038,12.182-6.159,21.139-12.361,26.868c-6.204,5.732-12.743,8.021-19.62,6.872
			c-3.058-0.511-5.779-1.773-8.169-3.792c-2.389-2.018-4.31-4.625-5.76-7.825l-5.831,34.858L1103.888,2543.906z M1123.448,2482.581
			c-1.549,9.262-1.146,16.341,1.217,21.238c2.36,4.9,5.737,7.719,10.132,8.453c4.214,0.705,8.292-0.945,12.235-4.953
			c3.942-4.008,6.708-10.753,8.294-20.236c1.563-9.35,1.175-16.529-1.166-21.543c-2.343-5.013-5.733-7.891-10.171-8.633
			c-3.991-0.668-8.027,1.144-12.108,5.426C1127.8,2466.617,1124.989,2473.366,1123.448,2482.581z"/>
		<path d="M1173.666,2490.566c2.068-12.36,6.224-21.252,12.468-26.678c6.245-5.424,13.347-7.471,21.301-6.143
			c7.82,1.311,13.834,5.551,18.041,12.723c4.207,7.175,5.316,16.69,3.332,28.56c-2.149,12.854-6.338,21.997-12.559,27.425
			c-6.223,5.43-13.333,7.476-21.334,6.135c-7.866-1.313-13.89-5.566-18.068-12.76
			C1172.665,2512.637,1171.606,2502.884,1173.666,2490.566z M1183.852,2492.236c-1.552,9.271-1.02,16.45,1.597,21.535
			c2.615,5.089,6.417,8.049,11.406,8.883c4.674,0.782,9.066-0.831,13.181-4.839c4.112-4.007,6.937-10.603,8.473-19.782
			c1.543-9.226,1.008-16.381-1.605-21.469c-2.614-5.087-6.417-8.048-11.406-8.883c-4.72-0.789-9.123,0.811-13.209,4.8
			C1188.199,2476.471,1185.386,2483.056,1183.852,2492.236z"/>
		<path d="M1258.356,2530.378l-0.445,10.945c-2.862,0.26-5.395,0.206-7.597-0.162c-3.462-0.579-6.136-1.729-8.019-3.454
			s-3.02-3.844-3.406-6.355c-0.39-2.515,0.013-7.321,1.199-14.427l6.893-41.193l-7.282-1.219l1.579-9.438l7.281,1.218l2.967-17.729
			l11.129-5.625l-4.186,25.014l10.047,1.681l-1.578,9.439l-10.047-1.681l-7.005,41.868c-0.646,3.866-0.771,6.409-0.375,7.632
			c0.583,1.762,2.043,2.838,4.382,3.229C1255.018,2530.306,1256.505,2530.393,1258.356,2530.378z"/>
		<path d="M1289.842,2535.646l-0.443,10.946c-2.862,0.26-5.396,0.205-7.599-0.163c-3.462-0.579-6.133-1.73-8.017-3.454
			c-1.884-1.727-3.021-3.843-3.407-6.357c-0.388-2.514,0.012-7.321,1.2-14.424l6.891-41.195l-7.28-1.218l1.577-9.439l7.282,1.22
			l2.966-17.731l11.129-5.624l-4.184,25.015l10.046,1.682l-1.579,9.438l-10.046-1.681l-7.004,41.87
			c-0.646,3.866-0.771,6.409-0.375,7.63c0.583,1.761,2.043,2.838,4.381,3.229
			C1286.504,2535.572,1287.992,2535.659,1289.842,2535.646z"/>
		<path d="M1297.399,2548.068l11.978-71.604l9.911,1.658l-11.979,71.604L1297.399,2548.068z M1311.597,2463.183l2.335-13.956
			l9.911,1.658l-2.335,13.956L1311.597,2463.183z"/>
	</g>
</g>
</svg>
