<?xml version="1.0" encoding="utf-8"?>
<!-- Generator: Adobe Illustrator 16.0.0, SVG Export Plug-In . SVG Version: 6.00 Build 0)  -->
<!DOCTYPE svg PUBLIC "-//W3C//DTD SVG 1.1//EN" "http://www.w3.org/Graphics/SVG/1.1/DTD/svg11.dtd">
<svg version="1.1" id="Layer_1" xmlns="http://www.w3.org/2000/svg" xmlns:xlink="http://www.w3.org/1999/xlink" x="0px" y="0px"
	 width="3001.527px" height="2815.516px" viewBox="0 0 3001.527 2815.516" enable-background="new 0 0 3001.527 2815.516"
	 xml:space="preserve">
<g id="Layer_2">
	<path fill="#F7E6B5" d="M1414.936,233.028c647.438,0,1172.287,524.852,1172.287,1172.29
		c0,647.44-524.85,1172.301-1172.287,1172.301c-647.44,0-1172.303-524.852-1172.303-1172.301
		C242.634,757.878,767.494,233.028,1414.936,233.028z"/>
</g>
<g id="Layer_3">
	<path fill="#0E0E0E" d="M451.159,2119.347c0,15.313-29.503,35.644-29.503,35.644c-18.772,2.681-8.046,2.681-21.454-13.412
		c-13.41-16.091-26.82-21.456-24.486-32.184c2.334-10.729,21.806-16.093,45.94-21.455
		C445.795,2082.573,451.159,2104.031,451.159,2119.347z"/>
	<path fill="none" stroke="#000000" stroke-width="12" stroke-linecap="round" stroke-linejoin="round" stroke-miterlimit="10" d="
		M451.159,2119.347c0-15.314-5.364-36.772-29.503-31.407c-24.138,5.362-43.606,10.728-45.94,21.455s11.077,16.093,24.486,32.185
		c13.408,16.095,2.682,16.095,21.454,13.412C421.656,2154.99,451.159,2134.656,451.159,2119.347z"/>
</g>
<path fill="#F8F8FF" d="M1521.236,2003.39c-6.26,4.92-11.83,14.221-11.83,16.23c0,1.26-7.31,11.57,15.381,67.189
	c0,0-9.75,2.79-25.601,6.74c-0.6-13.16,0.61-19.02-4.76-28.38c-5.36-9.37-18.771,9.36-26.82-17.46
	c-4.97-16.6-8.93-19.85-16.24-22.28c12.86-12.68,22.391-22.109,27.091-26.75c0.21-0.22,0.409-0.42,0.609-0.609
	c0.19-0.19,0.37-0.37,0.55-0.551c1.381-1.369,2.11-2.09,2.11-2.09c13,1.73,26.17,4.42,39.5,7.95h0.01V2003.39z"/>
<g id="Layer_4_2_">
	<path fill="#F8F8FF" d="M1745.731,2598.677L1745.731,2598.677c-989.373,282.604-1551.228-560.604-1551.228-560.604
		s134.291-181.604,163.792-235.244c5.028-9.132,12.592-25.143,21.778-45.577c-1.463,3.341-16.454,41.111,19.35,115.301
		c11.828,24.482,32.521,59.713,59.42,98.396c-1.127,4.563-1.943,9.146-2.334,13.745c-2.012,24.14-0.296,20.115,21.818,44.857
		c11.314,12.672,19.696,9.396,25.813,1.891c54.271,67.347,122.109,134.099,191.187,166.522c7.654,3.593,15.502,7.022,23.467,10.281
		c-0.32,7.498,1.824,17.688,14.855,20.947c21.457,5.363,122.475,37.546,141.246,40.229c9.229,1.313,17.166-1.904,23.479-6.167
		c5.445,2.092,11.772,3.579,17.729,4.074c-1.486,15.781,1.248,38.043,1.248,38.043c-61.108-7.159-118.104,38.363-128.521,103.694
		c-10.688,66.943,31.593,129.338,94.405,139.372c62.823,10.02,122.403-36.129,133.093-103.082
		c9.427-59.085-22.396-114.628-73.189-133.734l4.307-47.754c31.097,4.053,58.521,6.548,79.438,8.111
		c1.918,3.478,4.772,6.088,8.933,7.282c18.772,5.363,39.332,8.045,58.104-2.685c0.066-0.043,0.12-0.063,0.188-0.121
		c43.207,2.277,95.25-1.045,147.439-49.002c32.572-29.931,74.88-70.414,114.882-109.182c5.699-0.417,11.452-0.938,17.231-1.543
		c47.498-4.975,96.656-15.997,125.527-23.186c15.853-3.954,25.601-6.744,25.601-6.744c13.354,32.73,37.092,81.186,78.823,152.725
		c112.642,193.104,156.896,422.408,156.896,422.408L1745.731,2598.677z M1432.746,2184.49c5.362-16.093-60.546-59.003-74.532,10.729
		c-3.485,17.433,24.46,33.887,18.21,42.909c-18.586,26.818-9.387,39.509,2.684,40.971c0,0,30.251-11.469,36.583-19.514
		c6.328-8.049,3.646-21.457,3.646-34.863C1419.336,2211.311,1427.382,2200.583,1432.746,2184.49z M1198.528,2567.126
		c42.912-32.186-2.684-40.229-13.408-40.229c-10.729,0-8.047-13.407-18.773-8.045c-10.729,5.365-83.141,77.778-83.141,77.778
		s20.813,23.265,45.593,0C1195.205,2534.273,1155.618,2599.309,1198.528,2567.126z M744.379,2429.447
		c5.364-8.045,26.817-64.367-5.364-75.096c-32.184-10.729-56.32-8.045-75.095,0c-18.772,8.048-8.046,40.23-8.046,53.641
		c0,13.412-21.456,34.865-34.865,48.275c-13.407,13.41-53.641,75.094,21.456,64.366c0,0,64.368-42.911,69.729-59.001
		C717.56,2445.54,739.014,2437.495,744.379,2429.447z M421.656,2154.99c0,0,29.501-20.331,29.501-35.644
		c0-15.314-5.362-36.772-29.501-31.407c-24.138,5.362-43.606,10.729-45.94,21.455s11.077,16.093,24.484,32.184
		C413.61,2157.669,402.884,2157.669,421.656,2154.99z"/>
	<path fill="none" stroke="#000000" stroke-width="12" stroke-linecap="round" stroke-linejoin="round" stroke-miterlimit="10" d="
		M380.072,1757.251c-9.188,20.438-16.75,36.445-21.776,45.577c-29.501,53.645-129.958,198.414-129.958,198.414"/>
	<path fill="#0E0E0E" d="M739.014,2354.352c32.185,10.728,10.729,67.051,5.364,75.096c-5.364,8.048-26.818,16.093-32.186,32.188
		c-5.362,16.09-69.729,59.001-69.729,59.001c-75.096,10.728-34.863-50.956-21.456-64.366c13.409-13.41,34.865-34.865,34.865-48.273
		s-10.729-45.595,8.046-53.643C682.692,2346.307,706.832,2343.624,739.014,2354.352z"/>
	<path fill="none" stroke="#000000" stroke-width="12" stroke-linecap="round" stroke-linejoin="round" stroke-miterlimit="10" d="
		M739.014,2354.352c-32.184-10.728-56.32-8.045-75.095,0c-18.772,8.048-8.046,40.229-8.046,53.642
		c0,13.41-21.456,34.864-34.865,48.274c-13.407,13.41-53.641,75.094,21.456,64.366c0,0,64.368-42.911,69.729-59.001
		c5.364-16.093,26.82-24.138,32.186-32.188C749.743,2421.402,771.197,2365.079,739.014,2354.352z"/>
	<path fill="#0E0E0E" d="M1185.12,2526.896c10.729,0,56.319,8.048,13.407,40.23c-42.91,32.183-3.323-32.854-69.729,29.502
		c-24.781,23.266-45.594,0-45.594,0s72.413-72.412,83.142-77.777C1177.075,2513.488,1174.391,2526.896,1185.12,2526.896z"/>
	<path fill="none" stroke="#000000" stroke-width="12" stroke-linecap="round" stroke-linejoin="round" stroke-miterlimit="10" d="
		M1185.12,2526.896c10.729,0,56.319,8.048,13.407,40.23c-42.91,32.183-3.323-32.854-69.729,29.502c-24.781,23.266-45.594,0-45.594,0
		s72.413-72.412,83.142-77.777C1177.075,2513.488,1174.391,2526.896,1185.12,2526.896z"/>
	<path fill="none" stroke="#000000" stroke-width="12" stroke-linecap="round" stroke-linejoin="round" stroke-miterlimit="10" d="
		M1760.51,2661.946c0,0-44.254-229.308-156.896-422.409c-41.729-71.539-65.467-119.988-78.821-152.724
		c-22.688-55.625-15.383-65.937-15.383-67.196c0-2.013,5.564-11.306,11.828-16.228"/>
</g>
<path fill="#070707" d="M2784.374,1294.048l40.63,113.71l-40.63,113.71l21.58,118.81l-58.76,105.5l1.63,120.74l-75.431,94.29
	l-18.399,119.351l-89.979,80.529l-37.801,114.681l-101.979,64.67l-56.07,106.939l-111.189,47.108l-72.83,96.312l-117.408,28.21
	l-87.71,83.011l-120.46,8.42l-100.24,67.319l-120.189-11.659l-109.989,49.811l-116.649-31.25l-116.64,31.25l-110-49.811
	l-120.19,11.659l-100.24-67.319l-120.459-8.42l-87.699-83.011l-117.41-28.21l-72.84-96.319l-111.182-47.101l-56.08-106.95
	l-101.979-64.659l-37.8-114.689L170,2080.15l-18.398-119.34l-75.432-94.29l1.631-120.74l-58.751-105.5l21.58-118.81L0,1407.759
	l40.63-113.709l-21.58-118.82l58.762-105.49L76.17,949l75.44-94.301L170,735.36l89.98-80.529l37.8-114.681l101.979-64.67
	l56.08-106.938l111.19-47.11l72.83-96.31l117.41-28.222l87.7-83l120.459-8.42l100.239-67.33l120.19,11.671l110-49.819l116.64,31.25
	l116.649-31.25l109.988,49.819l120.2-11.66l100.24,67.319l120.46,8.42l87.7,83.011l117.409,28.211l72.83,96.31l111.188,47.11
	l56.08,106.938l101.97,64.67l37.813,114.69l89.979,80.52l18.392,119.351l75.438,94.29l-1.64,120.739l58.76,105.49L2784.374,1294.048
	z M2722.994,1405.326c0-722.43-585.64-1308.06-1308.06-1308.06S106.874,682.906,106.874,1405.326
	c0,722.421,585.641,1308.052,1308.063,1308.052C2137.357,2713.378,2722.994,2127.747,2722.994,1405.326z"/>
<path fill="#FFFFFF" d="M1414.936,97.268c722.42,0,1308.06,585.63,1308.06,1308.06c0,722.42-585.642,1308.051-1308.062,1308.051
	S106.874,2127.747,106.874,1405.326C106.874,682.906,692.513,97.268,1414.936,97.268z M2632.614,1407.758
	c0-673.852-546.271-1220.12-1220.12-1220.12s-1220.11,546.27-1220.11,1220.12c0,673.85,546.26,1220.11,1220.11,1220.11
	C2086.344,2627.867,2632.614,2081.608,2632.614,1407.758z"/>
<path fill="#070707" d="M1412.494,187.638c673.851,0,1220.12,546.27,1220.12,1220.12c0,673.85-546.271,1220.11-1220.12,1220.11
	s-1220.11-546.263-1220.11-1220.11C192.384,733.909,738.645,187.638,1412.494,187.638z M2587.223,1405.318
	c0-647.438-524.85-1172.29-1172.287-1172.29c-647.44,0-1172.303,524.852-1172.303,1172.29
	c0,647.45,524.86,1172.301,1172.303,1172.301C2062.374,2577.616,2587.223,2052.758,2587.223,1405.318z"/>
<path fill="#FA67AB" d="M1322.905,2119.29c10.688,0.199,21.979-0.188,33.525-1.004c-40.002,38.768-82.313,79.25-114.884,109.182
	c-52.189,47.956-104.233,51.279-147.439,49.001c18.706-11.304,36.03-116.585,38.701-129.955c2.333-11.681-3.46-27.425-22.704-33.939
	C1206.536,2120.218,1288.51,2118.647,1322.905,2119.29z"/>
<path fill="#FA67AB" d="M1070.775,2108.99c-16.653,2.134-20.489,10.729-24.229,20.087c-5.363,13.41,0,13.41-26.818,18.772
	c-26.82,5.362-29.501-24.138-26.82-29.478c1.488-2.963,3.957-11.783,0.752-19.48
	C1019.644,2103.079,1045.536,2106.378,1070.775,2108.99z"/>
<path fill="#FA67AB" d="M994.688,2209.54c7.871,2.409,35.239,8.283,32.559,19.015c-2.092,8.354-7.104,31.206-0.36,43.436
	c-20.918-1.563-48.342-4.063-79.438-8.112c-3.89-0.491-7.845-1.029-11.854-1.582c0.401-0.551,0.737-1.15,0.993-1.799
	c5.363-13.408-0.896-38.105,16.253-52.472C963.844,2198.811,977.254,2204.177,994.688,2209.54z"/>
<path fill="#F8F8FF" d="M1481.734,1995.425c0,0-11.667,11.572-30.358,29.999c-4.492-1.49-10.26-2.687-18.316-6.491
	c-21.146-9.989-32.491-6.088-43.221,12.688c-10.729,18.772-26.818,21.455-64.368,26.817c-37.547,5.365-18.771,24.138-10.729,31.354
	c5.646,5.055,32.372,16.274,47.819,22.541c-2.038,1.981-4.076,3.955-6.129,5.955c-11.546,0.813-22.837,1.205-33.523,1.004
	c-34.396-0.646-116.37,0.927-212.803-6.721c-2.854-0.979-6.007-1.74-9.479-2.266c-13.033-1.958-22.648-2.24-29.851-1.314
	c-25.237-2.611-51.132-5.913-77.12-10.099c-2.547-6.128-8.688-11.546-21.766-12.729c-4.305-0.391-9.348,0.535-14.832,2.388
	c0.672-13.224-1.85-17.394-6.168-20.273c-1.167-0.778-3.554-1.999-6.96-3.568c-0.118-52.459-1.837-58.225-13.599-65.272
	c-13.409-8.048-29.503-24.142-29.503-24.142c2.685-34.863-21.454-77.774-45.593-77.774c-24.14,0-56.32-13.41-75.097-42.912
	c-18.772-29.501-61.688-61.688-83.144-8.046c-21.455,53.641-83.112,58.748-83.112,58.748c-2.318-2.533-4.586-5.059-6.813-7.563
	c13.209-1.622,13.976-8.381,2.309-31.727c-11.937-23.886-36.903-21.729-44.213-20.521c-56.175-78.222-76.88-146.586-89.832-193.759
	c-17.636-64.143-5.138-104.557-1.128-114.979c0.056-0.146,0.107-0.278,0.176-0.412c0.294-0.728,0.604-1.438,0.896-2.146
	c0.025-0.079,0.055-0.121,0.055-0.121c22.166-52.646,40.067-94.66,45.675-104.941c16.091-29.504,152.856-280.709,160.902-294.118
	c8.047-13.41,35.646-52.606,35.646-52.606c3.341-2.493,5.954-4.801,7.711-6.853c9.334-10.9,17.475-24.204,22.998-37.589
	c0,0,11.307,5.353,27.396-26.832c16.094-32.188,8.047-52.302,24.14-92.527c16.094-40.229,28.161-56.321,28.161-72.413
	s-20.115-12.069-32.186-24.138c-12.069-12.069-40.229-24.142-96.551-16.096c-56.321,8.049-144.652-81.68-132.663-135.386h-0.016
	c12.322-18.586,24.229-34.194,39.251-49.71c0.056-0.066,0.119-0.135,0.175-0.202c1.007-1.019,1.998-2.021,3.019-3.044
	c9.896-9.185,41.854-32.143,81.746,7.751c48.274,48.275,61.688,53.642,77.776,59.003c16.093,5.364,48.273,5.364,80.459-32.184
	c32.185-37.547,53.64-64.367,80.459-77.777s29.5-37.547,32.185-67.049c2.684-29.502-5.188-46.801-5.188-46.801
	c45.339-5.283,79.427,17.246,98.725,24.956c20.114,8.046,189.079,16.092,189.079,16.092s-203.95,106.782-254.907,208.697
	c-50.958,101.914,40.229,166.28,67.049,174.325c26.819,8.048,9.054-5.361,52.811,29.503c43.741,34.862,73.243,34.862,108.107,32.185
	c34.865-2.681,32.187-5.364,83.143,10.729c50.959,16.096,144.827,61.688,187.736,77.777c42.912,16.09,124.271,87.604,134.997,95.652
	c10.729,8.045,24.475,50.898,118.007,37.548c18.774-2.685,42.911,26.815,93.869,29.501c50.958,2.682,32.186-10.729,64.366,0
	c32.185,10.729,26.818,8.77,42.91,0.362c16.094-8.408,32.187-0.362,40.229,2.315c8.045,2.687,16.094-21.455,88.504-32.183
	c72.414-10.729,123.784-0.429,225.5-155.771c15.648,15.519,32.33,40.578,104.504,73.58c93.866,42.91,139.461,75.097,179.689,91.188
	c14.856,5.938,65.229,24.701,124.856,47.471c-17.18,24.272-36.475,32.035-52.563,40.083c-16.094,8.045-45.596,10.729-72.414,50.958
	c-26.817,40.229,16.093,56.32,42.095,96.552c26.017,40.229,8.862,64.365,0.817,96.552c-8.047,32.186,2.683,32.186,13.408,61.686
	c-42.91-2.681-53.64-45.593-61.687-67.048c-8.047-21.456-88.506-72.414-112.646-88.506c-24.139-16.093-8.045,10.729-29.5,0
	c-21.457-10.729-26.819,18.771-50.959,5.364c-24.139-13.41-37.549-24.142-59.729-5.364c-22.192,18.771-26.097,59.003-7.321,104.596
	c18.773,45.596-2.683,83.142-18.561,101.916c-15.894,18.772-57.5,48.813-57.5,48.813c-44.51-13.39-91.241-28.872-134.799-46.095
	c-35.668-14.105-67.881-28.844-99.084-45.298c-27.679-14.592-54.578-30.536-82.392-48.584
	c-29.313-19.025-58.627-41.921-93.883-63.695c-15.382-9.521-31.902-18.813-50.062-27.478c-2.268-1.087-4.587-2.16-6.959-3.245
	c-1.584-0.728-3.192-1.45-4.813-2.16c-0.814-0.361-1.636-0.712-2.452-1.072c-0.831-0.358-1.646-0.724-2.493-1.07
	c-2.51-1.071-5.068-2.146-7.671-3.205c-1.729-0.712-3.486-1.422-5.259-2.118c-2.668-1.047-5.362-2.092-8.112-3.14
	c-0.87-0.334-1.743-0.656-2.628-0.991c-0.24-0.079-0.496-0.174-0.736-0.271c-1.647-0.603-3.3-1.22-4.979-1.811
	c-0.118-0.04-0.239-0.096-0.357-0.135c-1.759-0.632-3.527-1.265-5.313-1.877c-2.063-0.728-4.156-1.438-6.249-2.146
	c-1.638-0.549-3.286-1.1-4.948-1.636c-5.041-1.647-10.164-3.26-15.365-4.803c-1.006-0.293-2.014-0.604-3.029-0.887
	c-1.021-0.31-2.024-0.603-3.061-0.885c-3.364-0.979-6.771-1.918-10.189-2.813c0-0.018,0-0.018,0-0.018
	c-0.038-0.014-0.081-0.014-0.12-0.023c-0.188-0.055-0.39-0.107-0.591-0.146c-1.206-0.335-2.426-0.656-3.646-0.966
	c-0.296-0.081-0.591-0.146-0.886-0.229c-0.952-0.241-1.893-0.483-2.844-0.728c-3.22-0.815-6.438-1.596-9.668-2.345
	c-0.736-0.179-1.476-0.354-2.213-0.513c-3.5-0.808-7.016-1.584-10.526-2.311c-3.875-0.803-7.765-1.564-11.651-2.275
	c-2.013-0.377-4.036-0.727-6.05-1.071c-1.461-0.257-2.924-0.496-4.37-0.729c-0.55-0.092-1.112-0.188-1.678-0.27
	c-1.998-0.32-4.009-0.628-6.007-0.909c-0.026,0-0.04,0-0.057,0c-1.995-0.296-3.993-0.563-5.993-0.817
	c-1.486-0.188-2.963-0.377-4.438-0.552c-4.438-0.535-8.854-0.979-13.235-1.34c-0.064-0.015-0.146-0.015-0.229-0.015
	c-1.313-0.121-2.645-0.229-3.957-0.32c-1.702-0.121-3.395-0.229-5.066-0.324c-58.388-3.337-109.867,8.92-129.9,50.933
	c-13.248,27.731-12.793,68.434,8.437,126.161c0,0-13.409,43.813,230.647,285.188c71.088,70.307,143.178,133.802,213.084,188.394
	c27.326,21.362,54.322,41.344,80.807,59.852c22.104,15.462,43.854,29.893,65.134,43.205c111.771,70,210.479,109.521,280.17,108.18
	c0,0-171.646,78.676-393.351-25.938c-138.646-65.426-285.296-181.446-417.192-219.291c-2.535-0.727-5.058-1.422-7.576-2.094h-0.014
	C1507.896,1999.851,1494.725,1997.154,1481.734,1995.425z M1325.455,1663.235c18.772-13.408,5.362-42.911,0-59.001
	c-5.364-16.093-18.774-26.82-13.276-53.641c5.498-26.821-21.589-80.458-45.727-85.823c-24.141-5.365-37.55,13.41-48.275,37.548
	c-10.729,24.139,8.046,42.91,0,53.641c-8.046,10.729-29.501,37.55-29.501,37.55c-2.683,18.771,18.771,32.185,21.456,34.863
	c2.684,2.685,56.321,8.046,67.049,29.5C1287.906,1679.325,1306.68,1676.646,1325.455,1663.235z M1066.215,1859.972
	c50.958-18.772,40.229-67.048,29.501-77.778c-10.729-10.725-18.771,26.82-34.865,0c-16.091-26.813-26.818-16.09-59.003,5.365
	c-32.183,21.455-10.728,34.865,10.729,48.275c21.457,13.409,5.364,34.861,5.364,34.861
	C1034.03,1870.698,1015.258,1878.742,1066.215,1859.972z M1054.589,1009.785c21.456-2.683,8.046-13.406,8.046-40.229
	s-2.683-18.773-10.729-10.729c-8.046,8.051-37.548,37.552-37.548,37.552C1017.041,1007.105,1033.134,1012.471,1054.589,1009.785z
	 M979.493,1095.557c13.408-18.773-16.093-37.547-16.093-37.547c-29.501,2.682-24.138,32.184-13.41,48.272
	C960.719,1122.376,966.084,1114.331,979.493,1095.557z M921.376,1337.819c2.682-10.728-26.818-34.865-37.548-5.362h-2.683
	c0,18.772-5.364,32.187,13.41,26.818C913.33,1353.909,918.692,1348.548,921.376,1337.819z M843.598,773.785
	c8.048,0,26.819-10.728,8.048-26.816c-18.772-16.091-24.14-13.41-29.502,0C817.062,759.668,835.552,773.785,843.598,773.785z
	 M676.43,1593.706c13.41-37.398-13.408-45.741-26.818-40.382c-13.41,5.365-24.138,56.323-24.138,56.323
	C633.521,1617.697,663.023,1631.107,676.43,1593.706z M569.151,1515.781c8.046-2.683,13.41-16.093,10.729-18.771
	c-2.684-2.686-10.729-5.362-10.729-5.362s-13.408-5.365-10.729,10.729C561.108,1518.463,561.108,1518.463,569.151,1515.781z
	 M553.062,1652.563c2.683-16.093-18.772-16.093-18.772-16.093c-10.729,2.683-16.093,8.046-16.093,13.41
	c0,5.359,0,21.456,16.093,26.816C550.38,1682.062,550.379,1668.653,553.062,1652.563z"/>
<path fill="#070707" d="M2961.589,1332.573c40.229,29.504,53.642,74.196-16.094,157.338c-14.064,16.775-26.832,33.98-39.639,51.036
	c-35.954-10.593-79.373-34.98-127.646-91.307c-48.277-56.321-8.047-93.869,21.455-118.007c29.271-23.95,104.986-26.98,106.18-27.021
	c0.016,0,0.016,0,0.016,0C2932.825,1316.443,2953.061,1326.314,2961.589,1332.573z"/>
<path fill="#0E0E0E" d="M2905.844,1304.615c-1.191,0.04-76.904,3.07-106.18,27.021c-29.502,24.138-69.73,61.686-21.455,118.007
	c48.273,56.322,91.693,80.714,127.646,91.307c-50.704,67.47-102.268,132.464-239.285,158.158l-62.166,11.371
	c0,0,24.498-54.324,27.181-73.099c2.684-18.773,16.093-37.55,5.362-67.053c-10.729-29.5-21.455-29.5-13.408-61.686
	c8.046-32.187,25.197-56.32-0.818-96.549c-26-40.23-68.912-56.323-42.093-96.555c26.816-40.229,56.319-42.912,72.413-50.958
	c16.094-8.048,35.389-15.811,52.563-40.083C2773.168,1250.308,2852.62,1281.27,2905.844,1304.615z"/>
<path fill="#666666" d="M2636.95,1570.331c10.729,29.505-2.684,48.273-5.363,67.053c-2.682,18.771-27.182,73.097-27.182,73.097
	l-104.114,19.028c0,0-18.771,5.359-56.321-5.363c-14.401-4.13-103.886-23.642-204.914-54.041c0,0,41.607-30.041,57.5-48.813
	c15.877-18.774,37.334-56.319,18.561-101.916c-18.771-45.596-14.871-85.82,7.322-104.599c22.18-18.771,35.59-8.046,59.729,5.364
	s29.501-16.093,50.958-5.364c21.455,10.729,5.361-16.093,29.501,0c24.139,16.093,104.598,67.052,112.645,88.506
	C2583.311,1524.739,2594.038,1567.651,2636.95,1570.331z M2532.355,1514.908c2.684,4.022,8.045-1.343,4.021-5.361
	C2536.376,1509.547,2529.672,1510.886,2532.355,1514.908z M2491.493,1541.699c-4.961,6.705,6.879,12.284,11.063,3.396
	C2502.557,1545.097,2496.456,1534.994,2491.493,1541.699z M2481.398,1590.005c2.684,4.021,8.046-1.344,4.021-5.362
	C2485.419,1584.642,2478.714,1585.981,2481.398,1590.005z M2480.766,1453.196c-4.961,6.705,6.879,12.284,11.063,3.396
	C2491.829,1456.592,2485.727,1446.49,2480.766,1453.196z M2437.856,1508.177c-4.962,6.705,6.879,12.284,11.063,3.395
	C2448.917,1511.571,2442.817,1501.472,2437.856,1508.177z M2407.817,1447.781c-5.769,7.775,7.99,14.254,12.848,3.94
	C2420.661,1451.722,2413.582,1439.989,2407.817,1447.781z M2394.233,1592.687c2.685,4.021,8.047-1.342,4.022-5.365
	C2398.256,1587.321,2391.551,1588.661,2394.233,1592.687z M2373.486,1543.042c-4.961,6.702,6.879,12.281,11.063,3.396
	C2384.55,1546.437,2378.45,1536.338,2373.486,1543.042z M2359.366,1484.065c2.684,4.025,8.047-1.34,4.021-5.362
	C2363.389,1478.7,2356.684,1480.042,2359.366,1484.065z M2356.484,1430.443c-5.753,7.775,7.991,14.252,12.847,3.928
	C2369.329,1434.368,2362.25,1422.649,2356.484,1430.443z"/>
<path fill="#0E0E0E" d="M2536.376,1509.547c4.021,4.021-1.342,9.388-4.021,5.361
	C2529.672,1510.886,2536.376,1509.547,2536.376,1509.547z"/>
<path fill="#0E0E0E" d="M2502.557,1545.097c-4.186,8.89-16.023,3.311-11.063-3.396
	C2496.456,1534.994,2502.557,1545.097,2502.557,1545.097z"/>
<path fill="#0E0E0E" d="M2485.419,1584.642c4.021,4.021-1.342,9.385-4.021,5.362
	C2478.714,1585.981,2485.419,1584.642,2485.419,1584.642z"/>
<path fill="#0E0E0E" d="M2491.829,1456.592c-4.186,8.89-16.023,3.311-11.063-3.396
	C2485.727,1446.49,2491.829,1456.592,2491.829,1456.592z"/>
<path fill="#C89E95" d="M2382.002,2083.658c-14.765-31.916-40.752-68.805-82.979-111.03c-23.925-23.926-45.78-45.82-65.788-66.084
	c-2.104-16.788-3.943-27.802-3.943-27.802l0.056-0.054c11.104,12.538,26.189,24.539,50.021,36.021
	c59.003,28.4,78.286-1.103,114.239,33.769c35.949,34.865,34.445,88.504,55.313,109.959c20.865,21.458,43.127,50.958,30.654,83.144
	c-12.471,32.187,3.621,59.004-23.199,67.052c-23.761,7.133-33.241,26.887-75.938,3.311
	C2398.19,2184.84,2409.372,2142.813,2382.002,2083.658z"/>
<path fill="#0E0E0E" d="M2448.917,1511.571c-4.186,8.894-16.022,3.313-11.063-3.395
	C2442.817,1501.472,2448.917,1511.571,2448.917,1511.571z"/>
<path fill="#0E0E0E" d="M2420.661,1451.722c-4.854,10.313-18.611,3.835-12.847-3.94
	C2413.582,1439.989,2420.661,1451.722,2420.661,1451.722z"/>
<path fill="#0E0E0E" d="M2398.256,1587.321c4.021,4.023-1.343,9.388-4.022,5.365
	C2391.551,1588.661,2398.256,1587.321,2398.256,1587.321z"/>
<path fill="#C89E95" d="M2382.002,2083.658c27.37,59.151,16.188,101.181-1.569,128.277c-2.439-2.292-5.886-4.21-9.896-5.872
	c-0.013,0-0.024-0.013-0.039-0.013c-0.67-0.417-1.342-0.859-2.013-1.287c-0.671-0.443-1.354-0.888-2.037-1.343
	c-1.383-0.914-2.789-1.864-4.237-2.845c-0.215-0.146-0.431-0.298-0.646-0.43c-9.228-15.074-42.711-46.396-62.543-61.578
	c-21.455-16.414-45.595-26.498-48.274-46.708c-1.006-7.563-10.243-19.377-23.388-32.476c1.263-0.564,1.931-0.955,1.931-0.955
	c10.14-20.287,11.133-58.826,9.176-95.034c21.964,16.291,42.079,31.982,57.876,45.875
	C2330.401,2039.244,2358.67,2062.997,2382.002,2083.658z"/>
<path fill="#C89E95" d="M2382.002,2083.658c-23.332-20.664-51.603-44.414-85.662-74.384c-15.798-13.893-35.912-29.584-57.876-45.875
	c-1.154-21.107-3.301-41.423-5.229-56.858c20.008,20.267,41.863,42.161,65.788,66.085
	C2341.25,2014.856,2367.239,2051.745,2382.002,2083.658z"/>
<path fill="#0E0E0E" d="M2380.432,2211.938c-3.109-1.715-6.408-3.658-9.896-5.872
	C2374.547,2207.729,2377.991,2209.646,2380.432,2211.938z"/>
<path fill="#0E0E0E" d="M2370.536,2206.066c3.484,2.214,6.783,4.157,9.896,5.872c-17.379,26.538-41.063,38.771-41.063,38.771
	c-69.688,1.345-168.399-38.18-280.172-108.18c1.231-0.279,38.89-8.742,52.084,0c13.408,8.896,32.187,14.258,37.549,11.574
	c5.363-2.682,13.408-2.682,21.456,10.729c8.046,13.409,13.409,10.729,45.594,21.455c32.185,10.729,24.139,5.362,32.185,10.729
	c8.048,5.364,34.866-2.685,45.596-5.365s24.138-2.681,37.548,2.687c8.194,3.271,21.096,5.687,32.115,9.158
	c2.521,0.791,4.938,1.638,7.176,2.563C2370.51,2206.054,2370.525,2206.066,2370.536,2206.066z"/>
<path fill="#0E0E0E" d="M2384.55,1546.437c-4.186,8.89-16.022,3.311-11.063-3.395
	C2378.446,1536.336,2384.55,1546.437,2384.55,1546.437z"/>
<path fill="#666666" d="M2368.484,2204.767c0.671,0.428,1.344,0.87,2.014,1.287c-2.239-0.926-4.652-1.77-7.177-2.563
	c-0.415-0.993-1.005-2.119-1.758-3.342c0.216,0.135,0.432,0.28,0.646,0.434c1.447,0.977,2.854,1.929,4.236,2.844
	C2367.131,2203.882,2367.815,2204.323,2368.484,2204.767z"/>
<path fill="#666666" d="M2366.448,2203.427c0.684,0.454,1.364,0.896,2.037,1.34
	C2367.815,2204.323,2367.131,2203.882,2366.448,2203.427z"/>
<path fill="#0E0E0E" d="M2363.389,1478.7c4.021,4.022-1.342,9.392-4.021,5.362C2356.684,1480.042,2363.389,1478.7,2363.389,1478.7z"
	/>
<path fill="#0E0E0E" d="M2369.329,1434.368c-4.854,10.324-18.602,3.852-12.85-3.928
	C2362.25,1422.649,2369.329,1434.368,2369.329,1434.368z"/>
<path fill="#666666" d="M2360.909,2199.71c-0.537-0.36-1.086-0.728-1.65-1.088
	C2359.809,2198.972,2360.359,2199.333,2360.909,2199.71z"/>
<path fill="#666666" d="M2356.87,2197.109c-0.654-0.403-1.342-0.818-2.023-1.234C2355.53,2196.278,2356.2,2196.692,2356.87,2197.109
	z"/>
<path fill="#666666" d="M2351.602,2193.971c-0.766-0.429-1.527-0.871-2.307-1.302
	C2350.073,2193.1,2350.837,2193.529,2351.602,2193.971z"/>
<path fill="#0E0E0E" d="M2281.266,1000.907c5.98,2.897,10.596,6.692,15.289,11.358c-101.716,155.342-153.088,145.041-225.5,155.77
	c-72.412,10.729-80.459,34.865-88.506,32.187c-8.045-2.684-24.138-10.729-40.229-2.319c-16.094,8.407-10.729,10.365-42.911-0.362
	c-32.187-10.729-13.409,2.686-64.366,0c-50.959-2.683-75.096-32.184-93.87-29.5c-93.532,13.354-107.277-29.504-118.007-37.549
	c-10.729-8.047-92.084-79.563-134.996-95.648c-42.912-16.096-136.779-61.688-187.737-77.778
	c-50.957-16.091-48.273-13.409-83.142-10.729c-34.865,2.683-64.367,2.684-108.109-32.186
	c-43.756-34.866-25.988-21.456-52.809-29.501c-26.819-8.045-118.007-72.413-67.05-174.328
	c50.958-101.915,254.907-208.697,254.907-208.697s122.026-56.317,178.352-48.271c56.32,8.045,128.734,0,229.311,40.229
	c100.572,40.229,108.619,56.321,217.238,76.438c108.619,20.115,172.986,132.757,189.076,181.033
	C2074.3,799.32,2172.139,948.249,2281.266,1000.907z M1992.379,922.249c0,0,11.987-72.938-15.032-126.351
	c-6.664-13.168-15.7-25.157-27.879-34.571c-59.004-45.594-150.188,40.229-150.188,40.229s2.707,50.716,83.448,93.265
	c2.843,1.502,5.632,2.923,8.354,4.292C1962.514,934.692,1992.379,922.249,1992.379,922.249z"/>
<path fill="#FFFFFF" d="M2238.464,1963.402c1.957,36.208,0.965,74.747-9.174,95.034c0,0-0.67,0.392-1.934,0.955
	c-19.979-19.917-48.959-42.781-71.716-58.146c13.128-15.896,30.188-38.396,45.754-64.703
	C2214.044,1945.54,2226.53,1954.565,2238.464,1963.402z"/>
<path fill="#FFFFFF" d="M2233.234,1906.545c1.933,15.436,4.075,35.75,5.229,56.854c-11.937-8.837-24.42-17.859-37.063-26.857
	c7.604-12.838,14.846-26.579,21.094-40.899C2226.006,1899.222,2229.585,1902.856,2233.234,1906.545z"/>
<path fill="#C89E95" d="M2229.344,1878.691l-0.055,0.054c-2.092,5.714-4.371,11.349-6.799,16.896
	c-57.048-58.011-98.359-102.37-129.646-142.922c0,0,3.875-4.653,9.039-11.118c43.852,32.748,77.229,61.164,88.977,78.143
	C2205.247,1840.527,2212.958,1860.186,2229.344,1878.691z"/>
<path fill="#FFFFFF" d="M2229.29,1878.742c0,0,1.838,11.014,3.943,27.803c-3.648-3.688-7.229-7.322-10.742-10.902
	C2224.919,1890.091,2227.2,1884.458,2229.29,1878.742z"/>
<path fill="#FFFFFF" d="M2155.646,2001.242c22.757,15.365,51.733,38.229,71.716,58.146c-9.278,4.221-50.729,18.813-93.884-33.138
	C2133.477,2026.255,2142.622,2017.001,2155.646,2001.242z"/>
<path fill="#C89E95" d="M1830.618,1584.642c-124.619-88.813-146.074-178.607-146.396-179.947c3.421,0.898,6.826,1.838,10.191,2.816
	c1.021,0.281,2.04,0.574,3.059,0.884c1.02,0.296,2.024,0.591,3.03,0.884c5.202,1.543,10.325,3.154,15.366,4.803
	c1.661,0.536,3.313,1.091,4.947,1.64c2.094,0.71,4.186,1.422,6.249,2.146c1.782,0.615,3.556,1.246,5.313,1.876
	c0.119,0.04,0.24,0.099,0.357,0.138c1.68,0.604,3.328,1.209,4.979,1.811c0.241,0.095,0.497,0.189,0.737,0.271
	c0.885,0.334,1.757,0.675,2.628,0.99c2.75,1.048,5.443,2.094,8.113,3.143c1.771,0.71,3.526,1.402,5.258,2.114
	c2.603,1.063,5.162,2.138,7.67,3.205c0.832,0.361,1.663,0.713,2.494,1.073c0.816,0.361,1.638,0.71,2.453,1.073
	c1.636,0.724,3.229,1.433,4.813,2.16c2.372,1.085,4.69,2.156,6.958,3.244c18.157,8.66,34.68,17.953,50.063,27.478
	c0,0,2.572,95.839,112.532,165.57c42.768,27.114,86.333,56.268,125.034,83.798c7.938,12.136,16.668,24.338,26.377,36.917
	c31.286,40.552,72.602,84.911,129.646,142.922c-6.248,14.32-13.488,28.065-21.094,40.9
	c-62.879-44.788-129.604-89.229-151.801-109.826c-34.863-32.386-139.461-134.796-182.373-177.708
	C1824.315,1606.097,1830.618,1584.642,1830.618,1584.642z"/>
<path fill="#C89E95" d="M2201.4,1936.542c-15.569,26.311-32.626,48.813-45.754,64.7c-2.349-1.582-4.614-3.086-6.813-4.488
	c-37.55-24.142-132.583-6.316-132.583-6.316c-6.344-9.924-19.067-38.366-38.178-45.527c-11.644-4.354-21.432-16.355-30.966-28.563
	c7.481-2.267,5.938-20.448,5.938-51.009c0-40.23-18.771-40.23-26.819-38.621c-8.045,1.604-59.004,24.085-59.004,24.085
	c-4.479-3.021-9.226-6.212-14.309-9.604c-25.275-16.854-27.396-22.128-31.028-34.008c5.511-3.126,4.345-15.905,8.396-24.998
	c5.979-13.407,15.485-24.138,8.85-42.604c-6.625-18.451-14.816-8.354-38.956-8.742c-16.99-0.271-36.647-0.161-46.786-0.066
	c-9.896-8.087-19.216-15.515-26.538-21.521c8.232,2.135,12.565-5.555,31.313-9.309c26.818-5.362,16.091-32.183,0-52.687
	c-16.092-20.521-16.092-35.817-26.82-46.549c-10.728-10.729-18.771,8.049-37.547,8.063c-18.771,0.011-18.771-16.104-42.911-14.671
	c-23.723,1.408-15.087,20.745-14.791,21.401c-8.718-8.881-16.375-18.093-23.104-27.479c13.073-7.322,27.167-38.271,5.712-65.092
	c-15.997-19.996-31.969-7.188-39.063,0.615c-9.532-26.891-13.702-51.509-15.852-69.168v-0.016c0.268-1.557,0.55-3.086,0.858-4.612
	c0.118-0.604,0.237-1.204,0.358-1.811c0.24-1.168,0.496-2.334,0.767-3.5c0.271-1.248,0.563-2.495,0.87-3.715
	c0.137-0.553,0.271-1.104,0.416-1.65c0.938-3.688,1.975-7.268,3.1-10.754c0.229-0.696,0.456-1.396,0.696-2.079
	c0.592-1.743,1.19-3.446,1.821-5.136c0.441-1.166,0.898-2.32,1.355-3.444c0.563-1.37,1.126-2.725,1.715-4.036
	c0.363-0.807,0.725-1.598,1.087-2.39c0-0.013,0.015-0.013,0.015-0.021c11.746-13.923,23.175-21.778,23.175-21.778
	c0.079,0,0.159,0,0.228,0.014c5.849,0.496,11.748,1.126,17.674,1.896c2,0.253,3.998,0.534,5.994,0.813c0.017,0,0.027,0,0.056,0
	c1.998,0.295,3.995,0.604,6.01,0.91c0.563,0.082,1.128,0.178,1.677,0.271c1.446,0.229,2.91,0.47,4.371,0.726
	c2.012,0.349,4.036,0.696,6.048,1.073c3.89,0.71,7.777,1.475,11.652,2.273c3.515,0.729,7.024,1.505,10.524,2.312
	c0.738,0.161,1.478,0.335,2.213,0.512c3.231,0.749,6.449,1.526,9.668,2.345c0.951,0.24,1.903,0.482,2.845,0.729
	c0.297,0.077,0.592,0.146,0.888,0.228c1.222,0.311,2.438,0.632,3.646,0.966c0.201,0.038,0.401,0.097,0.592,0.146
	c0.038,0.013,0.08,0.024,0.119,0.04c0.321,1.34,21.776,91.135,146.396,179.945c0,0-6.306,21.455,36.604,64.365
	c42.912,42.911,147.511,145.321,182.373,177.709C2071.793,1847.313,2138.518,1891.755,2201.4,1936.542z"/>
<path fill="#FFFFFF" d="M2105.921,1686.556c21.455,0,26.818,10.298,18.771,23.924c-4.801,8.126-15.192,21.576-22.812,31.122
	c-11.186-8.354-23.053-16.989-35.415-25.799c-9.093-13.896-17.14-27.679-24.379-41.813
	C2042.09,1673.989,2084.465,1686.556,2105.921,1686.556z"/>
<path fill="#C89E95" d="M2116.553,2068.925c-1.461,2.749-1.566,4.345-5.271-3.758c0,0-2.291,3.271-6.303,8.447
	c-3.769-2.562-7.55-5.188-11.345-7.885c-1.26-0.896-2.533-1.796-3.795-2.709c-1.272-0.91-2.548-1.836-3.81-2.762
	c-1.272-0.928-2.551-1.864-3.821-2.816c-2.468-1.82-4.938-3.675-7.416-5.563c-1.354-1.031-2.722-2.078-4.074-3.137
	c-1.287-0.993-2.575-2-3.853-3.008c-7.709-6.048-15.461-12.4-23.237-19.081c4.346,2.509,9.469,4.075,15.541,4.075
	C2086.637,2030.732,2116.553,2068.925,2116.553,2068.925z"/>
<path fill="#C2AF8C" d="M2093.635,2065.732c3.798,2.695,7.578,5.323,11.347,7.885c-5.688,7.335-14.855,18.506-25.88,29.528
	c-18.771,18.772-24.139,2.683-43.287-3.81c-18.937-6.426-41.29-0.137-41.745-0.016c-26.481-18.507-53.479-38.482-80.808-59.85
	c5.807-21.646,7.604-26.618-0.443-58.801c-8.045-32.187,2.685-42.913,0-61.688c-0.629-4.396-2.146-7.47-4.331-9.644l2.294-2.508
	c0.646,0.593,1.303,1.184,1.943,1.781c1.436,1.316,2.869,2.614,4.291,3.917c1.424,1.287,2.843,2.588,4.265,3.891
	c1.422,1.284,2.845,2.589,4.253,3.875c36.313,33.066,70.471,63.87,99.42,89.834c1.477,1.313,2.938,2.627,4.371,3.911
	c1.102,0.993,2.197,1.977,3.3,2.951c0.121,0.107,0.256,0.229,0.377,0.321c0.014,0.015,0.022,0.04,0.04,0.053
	c2.924,3.582,6.408,6.868,10.594,9.282c7.777,6.677,15.528,13.033,23.238,19.081c1.288,1.021,2.574,2.026,3.852,3.005
	c1.354,1.062,2.723,2.104,4.074,3.137c2.479,1.895,4.949,3.742,7.416,5.565c1.271,0.951,2.549,1.892,3.822,2.813
	c1.261,0.929,2.531,1.854,3.809,2.765C2091.116,2063.937,2092.378,2064.847,2093.635,2065.732z"/>
<path fill="#C89E95" d="M2101.884,1741.602c-5.163,6.465-9.038,11.118-9.038,11.118c-9.709-12.579-18.438-24.781-26.377-36.917
	C2078.833,1724.612,2090.7,1733.245,2101.884,1741.602z"/>
<path fill="#C2AF8C" d="M2089.842,2063.023c1.261,0.913,2.536,1.811,3.794,2.709
	C2092.378,2064.847,2091.116,2063.937,2089.842,2063.023z"/>
<path fill="#C2AF8C" d="M2082.212,2057.445c1.271,0.952,2.549,1.895,3.822,2.816
	C2084.76,2059.335,2083.484,2058.397,2082.212,2057.445z"/>
<path fill="#C2AF8C" d="M2074.796,2051.878c2.479,1.894,4.949,3.741,7.416,5.564
	C2079.745,2055.622,2077.276,2053.771,2074.796,2051.878z"/>
<path fill="#C2AF8C" d="M2066.87,2045.738c1.271,1.005,2.563,2.012,3.85,3.005
	C2069.444,2047.765,2068.159,2046.758,2066.87,2045.738z"/>
<path fill="#666666" d="M2042.09,1673.989c7.239,14.136,15.287,27.92,24.379,41.813c-38.7-27.53-82.271-56.687-125.034-83.798
	c-109.959-69.731-112.532-165.57-112.532-165.57c35.254,21.775,64.567,44.667,93.881,63.696
	c27.813,18.047,54.714,33.992,82.394,48.584C2015.618,1614.465,2027.178,1644.958,2042.09,1673.989z"/>
<path fill="#F3FFB0" d="M2038.319,2022.042c1.771,1.557,3.541,3.1,5.313,4.612c-4.187-2.414-7.67-5.698-10.595-9.28
	c0.871,0.778,1.742,1.559,2.629,2.319C2036.551,2020.487,2037.436,2021.264,2038.319,2022.042z"/>
<path fill="#F3FFB0" d="M2035.667,2019.696c0.885,0.791,1.771,1.567,2.652,2.35
	C2037.436,2021.264,2036.551,2020.487,2035.667,2019.696z"/>
<path fill="#F3FFB0" d="M2035.667,2019.696c-0.887-0.765-1.758-1.541-2.629-2.321c-0.017-0.013-0.024-0.035-0.04-0.053
	C2033.883,2018.114,2034.768,2018.917,2035.667,2019.696z"/>
<path fill="#666666" d="M2032.997,2017.322c-0.121-0.093-0.257-0.214-0.377-0.317c-1.102-0.979-2.197-1.959-3.299-2.951
	c-1.447-1.299-2.896-2.604-4.372-3.915c-28.948-25.962-63.105-56.768-99.419-89.833c-1.409-1.304-2.831-2.588-4.253-3.875
	c-1.423-1.304-2.841-2.604-4.265-3.892c-1.42-1.313-2.855-2.61-4.291-3.917c-0.646-0.602-1.303-1.188-1.943-1.779
	c-9.092-8.305-18.277-16.707-27.53-25.195l2.239-2.442c16.397,15.344,39.438,27.532,51.466,34.409
	c4.509,2.574,7.779,3.447,10.152,2.735c9.534,12.204,19.323,24.206,30.964,28.563c19.107,7.161,31.835,35.604,38.178,45.527
	c0.777,1.221,1.462,2.157,2.053,2.748C2021.331,1996.217,2025.219,2007.816,2032.997,2017.322z"/>
<path fill="#C2AF8C" d="M2024.95,2010.135c1.477,1.313,2.925,2.616,4.373,3.915
	C2027.889,2012.762,2026.427,2011.448,2024.95,2010.135z"/>
<path fill="#FFFFFF" d="M1977.346,795.901c0,0-128.773-18.935-86.252,103.202l-0.014,0.013c-2.725-1.368-5.515-2.789-8.354-4.292
	c-80.741-42.549-83.449-93.265-83.449-93.265s91.188-85.823,150.189-40.229C1961.646,770.741,1970.682,782.732,1977.346,795.901z"/>
<path fill="#FFFFFF" d="M1953.048,1865.338c0,30.561,1.543,48.739-5.938,51.009c-8.032-10.298-15.862-20.73-24.46-26.871
	c-15.812-11.292-31.62-22.584-55.424-38.674c0,0,50.957-22.479,59.004-24.085
	C1934.275,1825.106,1953.048,1825.106,1953.048,1865.338z"/>
<path fill="#FFFFFF" d="M1947.109,1916.346c-2.373,0.712-5.646-0.161-10.15-2.735c-12.026-6.877-35.064-19.068-51.468-34.409
	c-9.212-8.605-16.332-18.196-18.265-28.396c23.803,16.09,39.612,27.382,55.423,38.674
	C1931.243,1895.615,1939.075,1906.049,1947.109,1916.346z"/>
<path fill="#C2AF8C" d="M1925.531,1920.302c-1.407-1.287-2.829-2.588-4.253-3.875
	C1922.7,1917.715,1924.123,1919.001,1925.531,1920.302z"/>
<path fill="#C2AF8C" d="M1917.016,1912.536c-1.422-1.303-2.855-2.601-4.291-3.917
	C1914.159,1909.926,1915.594,1911.226,1917.016,1912.536z"/>
<path fill="#0E0E0E" d="M1912.817,1980.675c8.047,32.183,6.25,37.156,0.443,58.801c-69.905-54.591-141.995-118.086-213.084-188.392
	c-244.062-241.38-230.647-285.188-230.647-285.188c-21.229-57.729-21.684-98.43-8.437-126.162
	c0.776,1.622,60.332,124.484,86.978,144.908c12.338,9.467,24.677,15.702,34.397,20.717c11.425,5.916,19.241,10.137,19.241,15.936
	c0,10.728,40.229,34.861,40.229,40.229c0,5.362,2.684,18.772,5.363,26.818c2.684,8.047,28.24,3.97,36.918,27.464
	c8.676,23.494,14.041,42.013,35.494,48.839c21.455,6.84,37.549,28.295,42.912,52.434c5.361,24.141,21.455,26.817,37.547,32.187
	c16.094,5.36,45.596,26.819,48.273,34.864c2.684,8.045,5.363,16.094,24.14,18.771c14.375,2.054,28.752-0.604,35.896,6.449
	c2.188,2.174,3.702,5.243,4.331,9.644C1915.5,1937.761,1904.774,1948.49,1912.817,1980.675z"/>
<path fill="#C2AF8C" d="M1910.779,1906.84l-2.294,2.506c-7.146-7.054-21.521-4.396-35.896-6.449
	c-18.772-2.68-21.456-10.729-24.138-18.771c-2.685-8.048-32.187-29.507-48.274-34.865c-16.093-5.365-32.185-8.046-37.548-32.188
	c-5.362-24.138-21.457-45.593-42.911-52.433c-21.454-6.826-26.819-25.345-35.495-48.839c-8.678-23.494-34.234-19.417-36.917-27.464
	c-2.685-8.048-5.364-21.456-5.364-26.818c0-5.365-40.229-29.503-40.229-40.229c0-5.797-7.816-10.018-19.242-15.934
	c-22.813-45.419-30.723-80.553-30.828-131.591c-0.028-15.006,4.154-28.479,10.068-40.027c0.455,4.774,1.021,11.844,2.078,20.642
	v0.013c-0.016,0.082-0.025,0.175-0.039,0.254c-0.24,1.397-0.473,2.804-0.688,4.212c-0.023,0.161-0.055,0.322-0.064,0.471
	c-0.217,1.354-0.4,2.709-0.576,4.063c-0.056,0.39-0.105,0.765-0.146,1.168c-0.16,1.245-0.309,2.506-0.44,3.771
	c-0.015,0.116-0.024,0.255-0.038,0.388c-0.178,1.606-0.337,3.229-0.473,4.868c-0.146,1.688-0.27,3.393-0.39,5.097
	c-0.054,1.005-0.12,2.025-0.161,3.044c-0.039,0.646-0.065,1.287-0.093,1.931c-0.068,1.56-0.107,3.125-0.147,4.692
	c-0.041,1.636-0.055,3.271-0.055,4.909c0,32.977,7.014,66.404,22.475,91.389c0.393,0.615,0.791,1.263,1.234,1.935
	c0.188,0.276,0.376,0.551,0.577,0.845c0.495,0.738,1.03,1.516,1.606,2.305c0.375,0.525,0.766,1.063,1.166,1.611
	c8.184,11.09,22.103,26.817,40.271,45.915c0.4,0.428,0.817,0.854,1.232,1.287c15.838,16.602,34.821,35.695,55.959,56.438
	c0.979,0.952,1.957,1.917,2.948,2.886c14.857,14.551,30.736,29.861,47.322,45.7c2.43,2.316,4.869,4.642,7.322,6.974
	c4.385,4.173,8.821,8.383,13.304,12.632c2.802,2.655,5.604,5.299,8.421,7.968c7.04,6.638,14.174,13.355,21.376,20.104
	c2.868,2.709,5.768,5.401,8.662,8.11c1.302,1.221,2.615,2.439,3.929,3.673c4.077,3.823,8.166,7.632,12.261,11.438
	c7.724,7.201,15.502,14.415,23.291,21.646c1.974,1.82,3.94,3.656,5.928,5.481c6.853,6.343,13.72,12.688,20.57,19.002
	c2.938,2.709,5.889,5.418,8.821,8.114c4.707,4.33,9.413,8.646,14.097,12.938C1892.502,1890.133,1901.691,1898.535,1910.779,1906.84z
	"/>
<path fill="#666666" d="M1885.488,1879.198l-2.237,2.442c-4.684-4.292-9.39-8.609-14.096-12.94c-2.938-2.709-5.875-5.401-8.821-8.11
	c-6.854-6.316-13.722-12.66-20.572-19.002c-1.981-1.837-3.954-3.661-5.927-5.483c-7.789-7.229-15.568-14.443-23.291-21.646
	c-4.104-3.82-8.194-7.646-12.26-11.438c-1.313-1.23-2.628-2.453-3.93-3.672c-2.896-2.709-5.779-5.418-8.662-8.113
	c-7.201-6.745-14.337-13.464-21.375-20.101c-2.83-2.686-5.635-5.338-8.423-7.969c-4.479-4.248-8.919-8.459-13.304-12.635
	c-2.453-2.332-4.896-4.666-7.322-6.972c-16.586-15.837-32.465-31.151-47.321-45.701c-0.99-0.966-1.973-1.931-2.947-2.883
	c-21.138-20.746-40.122-39.841-55.959-56.442c-0.415-0.43-0.832-0.855-1.234-1.287c-18.17-19.097-32.089-34.822-40.271-45.913
	c-0.402-0.553-0.791-1.088-1.166-1.609c-0.576-0.789-1.112-1.566-1.608-2.307c-0.201-0.278-0.39-0.563-0.577-0.847
	c-0.441-0.67-0.845-1.313-1.232-1.931c-15.463-24.984-22.477-58.412-22.477-91.391c0-1.638,0.016-3.271,0.057-4.908
	c0.023-1.566,0.078-3.123,0.146-4.691c0.026-0.645,0.054-1.287,0.093-1.932c0.041-1.021,0.107-2.024,0.161-3.043
	c0.12-1.704,0.241-3.405,0.392-5.101c0.136-1.635,0.294-3.258,0.472-4.866c0.013-0.135,0.024-0.27,0.038-0.388
	c0.136-1.264,0.281-2.521,0.439-3.77c0.041-0.403,0.097-0.778,0.148-1.168c0.174-1.369,0.359-2.709,0.576-4.063
	c0.013-0.146,0.041-0.309,0.063-0.47c0.216-1.408,0.443-2.813,0.688-4.212c0.013-0.079,0.021-0.172,0.038-0.254
	c2.146,17.661,6.313,42.277,15.853,69.169c-2.428,2.67-3.809,4.744-3.809,4.744c2.843,26.057,24.097,67.052,37.155,59.729
	c6.729,9.388,14.391,18.6,23.104,27.479c-0.016,0.014,0,0.022,0.013,0.022c1.313,22.838,14.778,25.412,28.188,41.505
	c13.409,16.092,26.816,24.141,48.271,42.91c6.438,5.635,10.703,8.369,14.256,9.293c0.016,0,0.016,0,0.027,0.014
	c7.322,6.012,16.643,13.438,26.538,21.522c-4.268,0.027-6.854,0.066-6.854,0.066c2.686,18.385,40.229,59.394,61.688,72.804
	c6.92,4.313,11.051,5.025,13.666,3.54c3.633,11.88,5.753,17.146,31.025,34.008c5.084,3.392,9.83,6.584,14.312,9.604
	C1869.155,1861.005,1876.276,1870.593,1885.488,1879.198z"/>
<path fill="#C2AF8C" d="M1869.155,1868.7c-2.938-2.692-5.887-5.401-8.821-8.11C1863.28,1863.299,1866.219,1865.991,1869.155,1868.7z
	"/>
<path fill="#FFFFFF" d="M1839.132,1739.593c6.639,18.464-2.87,29.19-8.85,42.602c-4.055,9.094-2.889,21.872-8.396,24.998
	c-1.007-3.247-2.104-6.984-3.837-11.585c-5.778-15.409-37.372-42.552-64.661-64.823c10.139-0.097,29.797-0.198,46.786,0.064
	C1824.315,1731.238,1832.507,1721.139,1839.132,1739.593z"/>
<path fill="#C2AF8C" d="M1839.76,1841.588c-1.981-1.825-3.952-3.661-5.927-5.483
	C1835.807,1837.927,1837.776,1839.751,1839.76,1841.588z"/>
<path fill="#FFFFFF" d="M1821.887,1807.191c-2.613,1.487-6.746,0.775-13.666-3.54c-21.455-13.41-59.003-54.419-61.686-72.804
	c0,0,2.589-0.039,6.854-0.066c27.289,22.273,58.884,49.416,64.661,64.825C1819.78,1800.201,1820.881,1803.944,1821.887,1807.191z"/>
<path fill="#C2AF8C" d="M1798.284,1803.019c4.063,3.796,8.152,7.618,12.259,11.439
	C1806.45,1810.649,1802.361,1806.844,1798.284,1803.019z"/>
<path fill="#C2AF8C" d="M1785.693,1791.233c2.884,2.695,5.767,5.404,8.662,8.113
	C1791.459,1796.638,1788.564,1793.942,1785.693,1791.233z"/>
<path fill="#C2AF8C" d="M1764.317,1771.134c-2.815-2.669-5.618-5.313-8.421-7.969
	C1758.687,1765.796,1761.487,1768.448,1764.317,1771.134z"/>
<path fill="#FFFFFF" d="M1758.163,1647.266c16.091,20.504,26.818,47.324,0,52.687c-18.746,3.754-23.079,11.439-31.313,9.31
	c-0.018-0.017-0.018-0.017-0.026-0.017c-0.591-0.494-1.183-0.979-1.742-1.444c-26.819-22.152-14.831-32.238-64.367-70.431
	c-9.011-6.944-17.19-14.271-24.605-21.832c-0.015,0-0.024-0.014-0.015-0.023c-0.296-0.657-8.932-19.994,14.791-21.402
	c24.138-1.435,24.138,14.686,42.911,14.671c18.771-0.014,26.818-18.787,37.548-8.061
	C1742.07,1611.448,1742.07,1626.745,1758.163,1647.266z"/>
<path fill="#C2AF8C" d="M1735.273,1743.562c2.429,2.306,4.868,4.64,7.32,6.972C1740.141,1748.198,1737.7,1745.881,1735.273,1743.562
	z"/>
<path fill="#FFFFFF" d="M1725.081,1707.798c0.563,0.47,1.151,0.951,1.741,1.444c-3.553-0.924-7.816-3.657-14.256-9.293
	c-21.455-18.771-34.864-26.816-48.273-42.907c-13.407-16.096-26.873-18.668-28.188-41.508c7.415,7.563,15.598,14.889,24.605,21.832
	C1710.25,1675.559,1698.261,1685.645,1725.081,1707.798z"/>
<path fill="#C2AF8C" d="M1687.947,1697.86c-0.99-0.966-1.971-1.931-2.947-2.883
	C1685.979,1695.93,1686.956,1696.895,1687.947,1697.86z"/>
<path fill="#C89E95" d="M1683.51,1404.508c-1.206-0.335-2.425-0.657-3.646-0.968
	C1681.085,1403.85,1682.303,1404.173,1683.51,1404.508z"/>
<path fill="#C89E95" d="M1653.728,1397.426c-3.875-0.804-7.766-1.567-11.653-2.277
	C1645.963,1395.857,1649.853,1396.619,1653.728,1397.426z"/>
<path fill="#C89E95" d="M1642.072,1395.147c-2.011-0.377-4.034-0.725-6.048-1.073
	C1638.036,1394.406,1640.064,1394.771,1642.072,1395.147z"/>
<path fill="#C89E95" d="M1636.026,1394.073c-1.461-0.256-2.924-0.496-4.371-0.726
	C1633.116,1393.575,1634.566,1393.818,1636.026,1394.073z"/>
<path fill="#C89E95" d="M1629.979,1393.077c-2.013-0.309-4.011-0.611-6.008-0.908
	C1625.969,1392.449,1627.981,1392.76,1629.979,1393.077z"/>
<path fill="#C2AF8C" d="M1627.805,1637.245c0.402,0.432,0.819,0.857,1.234,1.287
	C1628.625,1638.105,1628.208,1637.677,1627.805,1637.245z"/>
<path fill="#C89E95" d="M1623.916,1392.171c-1.996-0.282-3.994-0.564-5.994-0.817
	C1619.922,1391.605,1621.92,1391.874,1623.916,1392.171z"/>
<path fill="#FFFFFF" d="M1618.7,1522.942c21.454,26.818,7.361,57.771-5.713,65.092c-15.367-21.39-25.977-43.623-33.352-64.475
	C1586.733,1515.756,1602.702,1502.946,1618.7,1522.942z"/>
<path fill="#FFFFFF" d="M1612.987,1588.031c-13.063,7.321-34.313-33.674-37.156-59.729c0,0,1.381-2.076,3.809-4.746
	C1587.014,1544.408,1597.62,1566.645,1612.987,1588.031z"/>
<path fill="#C89E95" d="M1617.922,1391.353c-5.927-0.766-11.827-1.396-17.674-1.892
	C1606.094,1389.943,1611.996,1390.573,1617.922,1391.353z"/>
<path fill="#F3FFB0" d="M1596.066,1389.126c1.313,0.096,2.644,0.197,3.957,0.318c0,0-11.427,7.858-23.173,21.779
	c0.494-1.075,1.021-2.136,1.542-3.167c0.521-1.045,1.062-2.076,1.607-3.099c0.549-1.007,1.112-1.995,1.677-2.979
	c0.535-0.911,1.072-1.811,1.623-2.696c0.039-0.064,0.079-0.118,0.12-0.188c0.296-0.47,0.589-0.938,0.896-1.396
	c2.093-3.221,4.33-6.196,6.68-8.905C1592.672,1388.898,1594.36,1389.006,1596.066,1389.126z"/>
<path fill="#C89E95" d="M1600.023,1389.447c-1.313-0.121-2.645-0.227-3.957-0.317
	C1597.379,1389.221,1598.706,1389.323,1600.023,1389.447z"/>
<path fill="#C2AF8C" d="M1590.996,1388.802c-2.35,2.709-4.587,5.687-6.68,8.906c-0.312,0.451-0.604,0.925-0.896,1.394
	c-0.041,0.067-0.081,0.119-0.121,0.188c-0.55,0.888-1.087,1.782-1.623,2.693c-0.576,0.98-1.127,1.975-1.676,2.979
	c-0.55,1.021-1.086,2.052-1.609,3.097c-0.521,1.031-1.046,2.092-1.542,3.167c0,0.012-0.014,0.012-0.014,0.024
	c-5.323,6.313-10.714,13.863-15.126,22.486c-5.914,11.547-10.101,25.021-10.07,40.026c0.107,51.038,8.021,86.172,30.829,131.591
	c-9.722-5.015-22.061-11.25-34.396-20.717c-26.646-20.424-86.198-143.286-86.979-144.908
	C1481.13,1397.722,1532.609,1385.466,1590.996,1388.802z"/>
<path fill="#FA67AB" d="M565.17,1845.505c-1.313,0.214-2.052,0.397-2.052,0.397c-46.265,4.022-74.426,54.313-82.471,72.413
	c-6.519,14.657-16.991,33.271-21.806,52.633c-26.899-38.688-47.592-73.913-59.42-98.396
	c-35.804-74.188-20.813-111.96-19.352-115.299c0.025-0.066,0.065-0.161,0.105-0.24c25.601-56.98,63.656-148.124,94.03-220.244
	c-4.01,10.421-16.507,50.836,1.126,114.979C488.291,1698.917,508.996,1767.281,565.17,1845.505z"/>
<path fill="#C2AF8C" d="M1587.534,1591.333c-0.401-0.554-0.791-1.089-1.166-1.61
	C1586.743,1590.244,1587.133,1590.781,1587.534,1591.333z"/>
<path fill="#666666" d="M1584.185,1586.572c0.188,0.28,0.375,0.564,0.575,0.846
	C1584.561,1587.12,1584.372,1586.853,1584.185,1586.572z"/>
<path fill="#C2AF8C" d="M1584.317,1397.708c-0.312,0.452-0.604,0.926-0.896,1.395
	C1583.715,1398.634,1584.009,1398.16,1584.317,1397.708z"/>
<path fill="#C2AF8C" d="M1583.299,1399.286c-0.55,0.891-1.087,1.785-1.623,2.696
	C1582.212,1401.073,1582.749,1400.177,1583.299,1399.286z"/>
<path fill="#C2AF8C" d="M1581.676,1401.985c-0.563,0.98-1.127,1.974-1.676,2.979
	C1580.549,1403.958,1581.1,1402.967,1581.676,1401.985z"/>
<path fill="#C2AF8C" d="M1580,1404.964c-0.552,1.021-1.087,2.052-1.608,3.097C1578.914,1407.015,1579.45,1405.983,1580,1404.964z"/>
<path fill="#C2AF8C" d="M1578.391,1408.06c-0.521,1.031-1.047,2.092-1.543,3.167
	C1577.344,1410.151,1577.868,1409.092,1578.391,1408.06z"/>
<path fill="#F3FFB0" d="M1576.835,1411.251c-0.362,0.791-0.726,1.582-1.087,2.389c-0.589,1.313-1.166,2.667-1.716,4.038
	c-0.457,1.124-0.913,2.274-1.354,3.44c-0.631,1.688-1.247,3.396-1.821,5.139c-0.242,0.685-0.472,1.384-0.697,2.078
	c-1.125,3.484-2.157,7.064-3.1,10.754c-0.146,0.537-0.28,1.102-0.416,1.648c-0.309,1.221-0.603,2.469-0.869,3.715
	c-0.271,1.152-0.522,2.318-0.767,3.5c-0.121,0.604-0.241,1.205-0.359,1.813c-0.312,1.524-0.594,3.057-0.857,4.612
	c-1.063-8.799-1.623-15.862-2.078-20.641C1566.121,1425.115,1571.511,1417.568,1576.835,1411.251z"/>
<path fill="#F3FFB0" d="M1575.748,1413.639c-0.589,1.313-1.151,2.667-1.716,4.038
	C1574.582,1416.306,1575.159,1414.949,1575.748,1413.639z"/>
<path fill="#F3FFB0" d="M1572.677,1421.118c-0.631,1.688-1.231,3.396-1.821,5.14
	C1571.43,1424.514,1572.047,1422.81,1572.677,1421.118z"/>
<path fill="#F3FFB0" d="M1570.856,1426.258c-0.242,0.684-0.472,1.383-0.697,2.078
	C1570.385,1427.64,1570.611,1426.94,1570.856,1426.258z"/>
<path fill="#C2AF8C" d="M1563.748,1454.645c-0.242,1.397-0.473,2.804-0.688,4.212
	C1563.276,1457.448,1563.506,1456.042,1563.748,1454.645z"/>
<path fill="#C2AF8C" d="M1562.996,1459.323c-0.216,1.354-0.402,2.693-0.576,4.063
	C1562.594,1462.032,1562.78,1460.68,1562.996,1459.323z"/>
<path fill="#C2AF8C" d="M1562.273,1464.557c-0.16,1.245-0.31,2.506-0.44,3.77C1561.964,1467.063,1562.11,1465.802,1562.273,1464.557
	z"/>
<path fill="#C2AF8C" d="M1561.79,1468.713c-0.178,1.606-0.336,3.229-0.472,4.864
	C1561.454,1471.945,1561.613,1470.322,1561.79,1468.713z"/>
<path fill="#C2AF8C" d="M1560.93,1478.677c-0.054,1.019-0.118,2.021-0.159,3.044
	C1560.812,1480.699,1560.877,1479.682,1560.93,1478.677z"/>
<path fill="#C2AF8C" d="M1560.677,1483.651c-0.066,1.569-0.121,3.125-0.146,4.692
	C1560.568,1486.776,1560.609,1485.206,1560.677,1483.651z"/>
<path fill="#C2AF8C" d="M1560.528,1488.344c-0.041,1.636-0.057,3.271-0.057,4.909
	C1560.475,1491.615,1560.487,1489.979,1560.528,1488.344z"/>
<path d="M1325.455,1604.234c5.362,16.09,18.772,45.593,0,59.001c-18.774,13.41-37.548,16.093-48.276-5.363
	c-10.729-21.454-64.365-26.815-67.049-29.5c-2.684-2.683-24.139-16.093-21.456-34.863c0,0,21.456-26.82,29.501-37.55
	c8.046-10.729-10.729-29.503,0-53.641c10.729-24.138,24.14-42.913,48.275-37.548s51.225,59.003,45.727,85.823
	C1306.678,1577.41,1320.091,1588.142,1325.455,1604.234z"/>
<path fill="#0E0E0E" d="M1095.717,1782.193c10.729,10.73,21.456,59.006-29.501,77.778c-50.958,18.771-32.184,10.728-48.273,10.728
	c0,0,16.092-21.455-5.363-34.865c-21.457-13.406-42.91-26.816-10.729-48.271c32.185-21.455,42.911-32.184,59.004-5.365
	C1076.942,1809.014,1084.987,1771.469,1095.717,1782.193z"/>
<path fill="#0E0E0E" d="M1062.635,969.559c0,26.819,13.41,37.547-8.046,40.229c-21.456,2.687-37.548-2.683-40.229-13.406
	c0,0,29.502-29.501,37.548-37.552C1059.952,950.782,1062.635,942.739,1062.635,969.559z"/>
<path fill="#0E0E0E" d="M963.401,1058.01c0,0,29.501,18.771,16.093,37.547c-13.409,18.774-18.772,26.819-29.502,10.729
	C939.264,1090.193,933.901,1060.691,963.401,1058.01z"/>
<path fill="#0E0E0E" d="M956.428,460.573c0,0,7.872,17.299,5.189,46.801c-2.684,29.505-5.363,53.643-32.187,67.053
	c-26.82,13.41-48.272,40.229-80.459,77.773c-32.184,37.547-64.366,37.548-80.459,32.188c-16.091-5.363-29.501-10.729-77.774-59.003
	c-39.896-39.896-71.852-16.938-81.745-7.751c10.147-10.19,21.764-20.423,35.814-31.526
	c76.438-60.344,207.585-108.351,305.745-124.711C952.54,461.057,954.498,460.785,956.428,460.573z"/>
<path fill="#0E0E0E" d="M851.646,746.969c18.771,16.092,0,26.816-8.048,26.816c-8.046,0-26.536-14.118-21.454-26.816
	C827.507,733.559,832.87,730.877,851.646,746.969z"/>
<path fill="#0E0E0E" d="M748.269,1037.975c-5.522,13.384-13.665,26.688-22.998,37.588c-1.759,2.052-4.372,4.359-7.711,6.853
	c-42.657,31.973-205.291,96.873-253.781,85.68c-52.298-12.068-76.438-60.348-68.392-76.438
	c8.048-16.092-16.092-128.729,76.438-269.538c47.806-72.748,71.983-117.215,94.728-151.527h0.016
	c-11.987,53.706,76.342,143.432,132.663,135.386c56.319-8.046,84.48,4.021,96.551,16.092c12.069,12.069,32.187,8.046,32.187,24.138
	c0,16.096-12.068,32.188-28.16,72.413c-16.094,40.229-8.047,60.348-24.14,92.528
	C759.571,1043.323,748.269,1037.975,748.269,1037.975z"/>
<path fill="#0E0E0E" d="M649.61,1553.324c13.41-5.359,40.229,2.979,26.818,40.381c-13.407,37.4-42.91,23.989-50.958,15.942
	C625.473,1609.65,636.199,1558.692,649.61,1553.324z"/>
<path fill="#0E0E0E" d="M579.881,1497.007c2.684,2.683-2.684,16.093-10.729,18.771c-8.045,2.684-8.045,2.684-10.729-13.41
	c-2.684-16.093,10.729-10.728,10.729-10.728S577.197,1494.323,579.881,1497.007z"/>
<path fill="#0E0E0E" d="M534.287,1636.47c0,0,21.456,0,18.772,16.093c-2.684,16.091-2.684,29.501-18.772,24.138
	c-16.092-5.363-16.093-21.457-16.093-26.816C518.194,1644.516,523.56,1639.152,534.287,1636.47z"/>
<path fill="none" stroke="#000000" stroke-width="12" stroke-linecap="round" stroke-linejoin="round" stroke-miterlimit="10" d="
	M725.271,934.76c0,0,8.045,28.161,24.138,48.271c9.869,12.338,7.631,33.739-1.14,54.939c-5.524,13.384-13.665,26.688-22.998,37.588
	c-1.759,2.052-4.372,4.358-7.711,6.854c-42.657,31.971-205.291,96.873-253.781,85.678c-52.298-12.068-76.438-60.346-68.392-76.438
	c8.048-16.092-16.092-128.729,76.438-269.538c47.807-72.748,71.984-117.215,94.729-151.527
	c12.323-18.587,24.229-34.195,39.252-49.71"/>
<path fill="none" stroke="#000000" stroke-width="12" stroke-linecap="round" stroke-linejoin="round" stroke-miterlimit="10" d="
	M748.269,1037.975c0,0,11.305,5.352,27.396-26.832c16.092-32.188,8.046-52.299,24.139-92.528
	c16.093-40.229,28.16-56.32,28.16-72.413c0-16.092-20.113-12.065-32.186-24.138c-12.067-12.069-40.229-24.138-96.551-16.092
	c-56.322,8.046-144.651-81.684-132.662-135.387"/>
<path fill="none" stroke="#000000" stroke-width="12" stroke-linecap="round" stroke-linejoin="round" stroke-miterlimit="10" d="
	M605.802,620.877c0.056-0.068,0.12-0.139,0.176-0.202c0.389-0.442,1.406-1.569,3.02-3.044c9.896-9.188,41.854-32.146,81.744,7.751
	c48.276,48.271,61.688,53.64,77.777,59.003c16.092,5.36,48.273,5.36,80.459-32.188c32.186-37.547,53.639-64.367,80.459-77.773
	c26.818-13.41,29.501-37.548,32.184-67.053c2.684-29.502-5.188-46.801-5.188-46.801"/>
<path fill="none" stroke="#000000" stroke-width="12" stroke-linecap="round" stroke-linejoin="round" stroke-miterlimit="10" d="
	M1244.232,501.619c0,0-203.95,106.782-254.907,208.697s40.229,166.283,67.051,174.328c26.818,8.046,9.053-5.364,52.809,29.501
	c43.742,34.865,73.244,34.865,108.109,32.184c34.863-2.681,32.186-5.36,83.143,10.729c50.957,16.093,144.826,61.688,187.736,77.778
	c42.912,16.09,124.27,87.604,134.997,95.648c10.729,8.045,24.474,50.902,118.006,37.548c18.774-2.683,42.912,26.818,93.87,29.501
	c50.958,2.686,32.185-10.729,64.365,0c32.188,10.729,26.819,8.771,42.911,0.362c16.093-8.408,32.187-0.362,40.229,2.319
	c8.046,2.683,16.095-21.455,88.505-32.187c72.413-10.729,123.784-0.428,225.5-155.77"/>
<path fill="none" stroke="#000000" stroke-width="12" stroke-linecap="round" stroke-linejoin="round" stroke-miterlimit="10" d="
	M2636.95,1570.331c-42.91-2.683-53.641-45.595-61.688-67.05c-8.045-21.456-88.504-72.411-112.645-88.506
	c-24.14-16.093-8.047,10.729-29.502,0c-21.457-10.729-26.818,18.774-50.957,5.364s-37.549-24.138-59.729-5.364
	c-22.192,18.774-26.097,59.003-7.321,104.6c18.774,45.596-2.684,83.141-18.561,101.916c-15.894,18.771-57.501,48.813-57.501,48.813"
	/>
<path fill="none" stroke="#000000" stroke-width="12" stroke-linecap="round" stroke-linejoin="round" stroke-miterlimit="10" d="
	M2066.469,1715.803c-9.093-13.896-17.14-27.679-24.379-41.813c-14.91-29.031-26.472-59.521-36.918-95.271"/>
<path fill="none" stroke="#000000" stroke-width="12" stroke-linecap="round" stroke-linejoin="round" stroke-miterlimit="10" d="
	M2042.09,1673.989c0,0,42.375,12.566,63.831,12.566c21.455,0,26.818,10.298,18.771,23.924c-4.801,8.126-15.192,21.576-22.812,31.122
	"/>
<path fill="none" stroke="#000000" stroke-width="12" stroke-linecap="round" stroke-linejoin="round" stroke-miterlimit="10" d="
	M1017.941,1870.698c0,0,16.093-21.455-5.364-34.864c-21.454-13.407-42.909-26.817-10.729-48.272
	c32.185-21.455,42.911-32.184,59.004-5.365c16.092,26.82,24.139-10.725,34.863,0c10.729,10.73,21.456,59.006-29.501,77.778
	C1015.258,1878.742,1034.03,1870.698,1017.941,1870.698z"/>
<path fill="none" stroke="#000000" stroke-width="12" stroke-linecap="round" stroke-linejoin="round" stroke-miterlimit="10" d="
	M475.338,1534.086c22.166-52.646,40.066-94.66,45.674-104.944c16.093-29.503,152.858-280.709,160.904-294.119
	s35.646-52.604,35.646-52.604"/>
<path fill="none" stroke="#000000" stroke-width="12" stroke-linecap="round" stroke-linejoin="round" stroke-miterlimit="10" d="
	M474.385,1536.353c0.294-0.725,0.604-1.436,0.898-2.146"/>
<path fill="none" stroke="#000000" stroke-width="12" stroke-linecap="round" stroke-linejoin="round" stroke-miterlimit="10" d="
	M380.18,1757.012c25.601-56.98,63.656-148.124,94.03-220.244"/>
<path fill="none" stroke="#000000" stroke-width="12" stroke-linecap="round" stroke-linejoin="round" stroke-miterlimit="10" d="
	M565.17,1845.505c-56.173-78.226-76.878-146.588-89.832-193.763c-17.634-64.142-5.136-104.557-1.126-114.978
	c0.056-0.148,0.105-0.282,0.174-0.415c0.442-1.154,0.766-1.864,0.898-2.146c0.025-0.077,0.054-0.118,0.054-0.118"/>
<path fill="none" stroke="#000000" stroke-width="12" stroke-linecap="round" stroke-linejoin="round" stroke-miterlimit="10" d="
	M613.887,1905.31c-2.318-2.533-4.586-5.055-6.813-7.563"/>
<path fill="none" stroke="#000000" stroke-width="12" stroke-linecap="round" stroke-linejoin="round" stroke-miterlimit="10" d="
	M625.473,1609.65c0,0,10.729-50.958,24.14-56.323c13.41-5.359,40.229,2.979,26.819,40.38
	C663.024,1631.108,633.521,1617.697,625.473,1609.65z"/>
<path fill="none" stroke="#000000" stroke-width="12" stroke-linecap="round" stroke-linejoin="round" stroke-miterlimit="10" d="
	M534.287,1636.47c0,0,21.456,0,18.772,16.093c-2.684,16.091-2.684,29.501-18.772,24.138c-16.092-5.363-16.093-21.457-16.093-26.816
	C518.194,1644.516,523.56,1639.152,534.287,1636.47z"/>
<path fill="none" stroke="#000000" stroke-width="12" stroke-linecap="round" stroke-linejoin="round" stroke-miterlimit="10" d="
	M569.151,1491.644c0,0-13.408-5.365-10.729,10.729c2.685,16.094,2.685,16.094,10.729,13.409c8.046-2.683,13.41-16.093,10.729-18.771
	C577.197,1494.323,569.151,1491.644,569.151,1491.644z"/>
<path fill="none" stroke="#000000" stroke-width="12" stroke-linecap="round" stroke-linejoin="round" stroke-miterlimit="10" d="
	M963.401,1058.01c0,0,29.501,18.771,16.093,37.547c-13.409,18.774-18.772,26.819-29.502,10.729
	C939.264,1090.193,933.901,1060.691,963.401,1058.01z"/>
<path fill="none" stroke="#000000" stroke-width="12" stroke-linecap="round" stroke-linejoin="round" stroke-miterlimit="10" d="
	M1014.359,996.379c0,0,29.502-29.501,37.548-37.552c8.046-8.045,10.729-16.091,10.729,10.729c0,26.819,13.41,37.547-8.046,40.229
	C1033.134,1012.471,1017.041,1007.105,1014.359,996.379z"/>
<path fill="none" stroke="#000000" stroke-width="12" stroke-linecap="round" stroke-linejoin="round" stroke-miterlimit="10" d="
	M1188.675,1593.506c0,0,21.456-26.82,29.501-37.548c8.046-10.729-10.729-29.505,0-53.643c10.729-24.138,24.14-42.913,48.274-37.548
	c24.138,5.365,51.226,59.003,45.729,85.823c-5.498,26.816,7.911,37.548,13.275,53.641c5.362,16.09,18.772,45.593,0,59.001
	c-18.772,13.41-37.547,16.093-48.275-5.363c-10.729-21.452-64.366-26.815-67.05-29.5
	C1207.446,1625.689,1185.991,1612.279,1188.675,1593.506z"/>
<path fill="none" stroke="#000000" stroke-width="12" stroke-linecap="round" stroke-linejoin="round" stroke-miterlimit="10" d="
	M822.144,746.969c-5.082,12.698,13.409,26.816,21.456,26.816c8.046,0,26.817-10.728,8.046-26.816
	C832.87,730.877,827.507,733.559,822.144,746.969z"/>
<path fill="none" stroke="#000000" stroke-width="12" stroke-linecap="round" stroke-linejoin="round" stroke-miterlimit="10" d="
	M2398.256,1587.321c4.021,4.023-1.343,9.388-4.022,5.365C2391.551,1588.661,2398.256,1587.321,2398.256,1587.321z"/>
<path fill="none" stroke="#000000" stroke-width="12" stroke-linecap="round" stroke-linejoin="round" stroke-miterlimit="10" d="
	M2481.398,1590.005c-2.685-4.022,4.021-5.362,4.021-5.362C2489.442,1588.661,2484.077,1594.026,2481.398,1590.005z"/>
<path fill="none" stroke="#000000" stroke-width="12" stroke-linecap="round" stroke-linejoin="round" stroke-miterlimit="10" d="
	M2359.366,1484.065c-2.684-4.022,4.021-5.362,4.021-5.362C2367.411,1482.726,2362.048,1488.092,2359.366,1484.065z"/>
<path fill="none" stroke="#000000" stroke-width="12" stroke-linecap="round" stroke-linejoin="round" stroke-miterlimit="10" d="
	M2532.355,1514.908c-2.683-4.021,4.021-5.361,4.021-5.361C2540.4,1513.568,2535.034,1518.934,2532.355,1514.908z"/>
<path fill="none" stroke="#000000" stroke-width="12" stroke-linecap="round" stroke-linejoin="round" stroke-miterlimit="10" d="
	M2373.486,1543.042c4.963-6.704,11.063,3.396,11.063,3.396C2380.366,1555.323,2368.526,1549.744,2373.486,1543.042z"/>
<path fill="none" stroke="#000000" stroke-width="12" stroke-linecap="round" stroke-linejoin="round" stroke-miterlimit="10" d="
	M2437.856,1508.177c4.961-6.705,11.063,3.395,11.063,3.395C2444.734,1520.462,2432.893,1514.883,2437.856,1508.177z"/>
<path fill="none" stroke="#000000" stroke-width="12" stroke-linecap="round" stroke-linejoin="round" stroke-miterlimit="10" d="
	M2491.493,1541.699c4.963-6.703,11.063,3.396,11.063,3.396C2498.372,1553.986,2486.532,1548.406,2491.493,1541.699z"/>
<path fill="none" stroke="#000000" stroke-width="12" stroke-linecap="round" stroke-linejoin="round" stroke-miterlimit="10" d="
	M2480.766,1453.196c4.961-6.705,11.063,3.396,11.063,3.396C2487.647,1465.48,2475.805,1459.901,2480.766,1453.196z"/>
<path fill="none" stroke="#000000" stroke-width="12" stroke-linecap="round" stroke-linejoin="round" stroke-miterlimit="10" d="
	M2407.817,1447.781c5.768-7.792,12.848,3.94,12.848,3.94C2415.809,1462.032,2402.05,1455.557,2407.817,1447.781z"/>
<path fill="none" stroke="#000000" stroke-width="12" stroke-linecap="round" stroke-linejoin="round" stroke-miterlimit="10" d="
	M2356.484,1430.443c5.77-7.794,12.847,3.928,12.847,3.928C2364.475,1444.695,2350.731,1438.219,2356.484,1430.443z"/>
<path fill="none" stroke="#000000" stroke-width="12" stroke-linecap="round" stroke-linejoin="round" stroke-miterlimit="10" d="
	M1684.22,1404.694c0.322,1.34,21.777,91.135,146.396,179.947c11.33,8.074,23.509,16.146,36.606,24.138"/>
<path fill="none" stroke="#000000" stroke-width="12" stroke-linecap="round" stroke-linejoin="round" stroke-miterlimit="10" d="
	M2238.464,1963.402c21.965,16.291,42.079,31.982,57.876,45.875c34.063,29.97,62.33,53.721,85.662,74.384
	c22.597,20.036,40.563,37.199,54.657,54.354"/>
<path fill="none" stroke="#000000" stroke-width="12" stroke-linecap="round" stroke-linejoin="round" stroke-miterlimit="10" d="
	M1830.618,1584.642c0,0-6.306,21.455,36.605,64.366c42.912,42.911,147.509,145.318,182.373,177.708
	c22.193,20.598,88.92,65.037,151.801,109.826"/>
<path fill="none" stroke="#000000" stroke-width="12" stroke-linecap="round" stroke-linejoin="round" stroke-miterlimit="10" d="
	M2604.405,1710.479c0,0,24.5-54.324,27.182-73.097c2.682-18.775,16.092-37.549,5.363-67.055c-10.729-29.5-21.455-29.5-13.409-61.686
	s25.196-56.32-0.818-96.549c-26.001-40.23-68.912-56.323-42.093-96.555c26.818-40.229,56.32-42.909,72.413-50.957
	c16.093-8.049,35.388-15.812,52.563-40.084"/>
<path fill="none" stroke="#000000" stroke-width="12" stroke-linecap="round" stroke-linejoin="round" stroke-miterlimit="10" d="
	M605.977,620.675c1.006-1.021,1.999-2.025,3.018-3.044c10.151-10.19,21.766-20.427,35.818-31.526
	c76.438-60.344,207.584-108.351,305.744-124.711c1.983-0.335,3.941-0.604,5.873-0.818c45.339-5.279,79.427,17.246,98.724,24.956
	c20.115,8.046,189.079,16.092,189.079,16.092s122.027-56.317,178.353-48.271c56.319,8.045,128.733,0,229.312,40.229
	c100.572,40.229,108.619,56.321,217.238,76.438c108.618,20.115,172.985,132.757,189.075,181.033
	c16.095,48.271,113.935,197.205,223.063,249.861c5.979,2.897,10.595,6.692,15.288,11.358c15.647,15.517,32.33,40.579,104.503,73.581
	c93.868,42.91,139.462,75.094,179.689,91.188c14.856,5.938,65.229,24.699,124.856,47.473
	c67.562,25.802,147.014,56.764,200.234,80.107"/>
<path fill="none" stroke="#000000" stroke-width="12" stroke-linecap="round" stroke-linejoin="round" stroke-miterlimit="10" d="
	M2905.859,1304.615c0,0,0,0-0.017,0c-1.189,0.04-76.904,3.07-106.179,27.021c-29.502,24.138-69.731,61.686-21.455,118.007
	c48.272,56.322,91.692,80.714,127.646,91.307"/>
<path fill="none" stroke="#000000" stroke-width="12" stroke-linecap="round" stroke-linejoin="round" stroke-miterlimit="10" d="
	M1579.639,1523.56c-9.534-26.889-13.704-51.507-15.854-69.169"/>
<path fill="none" stroke="#000000" stroke-width="12" stroke-linecap="round" stroke-linejoin="round" stroke-miterlimit="10" d="
	M1636.094,1615.511c-8.718-8.878-16.375-18.09-23.104-27.479"/>
<path fill="none" stroke="#000000" stroke-width="12" stroke-linecap="round" stroke-linejoin="round" stroke-miterlimit="10" d="
	M1726.825,1709.242c-0.592-0.493-1.184-0.979-1.743-1.444c-26.819-22.152-14.831-32.238-64.367-70.432
	c-9.011-6.943-17.19-14.27-24.605-21.832"/>
<path fill="none" stroke="#000000" stroke-width="12" stroke-linecap="round" stroke-linejoin="round" stroke-miterlimit="10" d="
	M1867.225,1850.802c-4.479-3.021-9.227-6.212-14.31-9.604c-25.274-16.854-27.396-22.128-31.028-34.008"/>
<path fill="none" stroke="#000000" stroke-width="12" stroke-linecap="round" stroke-linejoin="round" stroke-miterlimit="10" d="
	M1828.901,1466.435c0,0,2.572,95.839,112.533,165.57c42.766,27.115,86.332,56.268,125.033,83.798
	c12.363,8.81,24.229,17.444,35.415,25.799c43.853,32.748,77.229,61.164,88.977,78.143c14.392,20.783,22.102,40.441,38.483,58.947
	c11.104,12.538,26.189,24.539,50.021,36.021c59.002,28.399,78.283-1.104,114.236,33.768c35.95,34.865,34.446,88.504,55.313,109.959
	c20.864,21.458,43.126,50.958,30.653,83.144c-12.471,32.187,3.621,59.007-23.198,67.052c-23.763,7.133-33.242,26.887-75.938,3.311"
	/>
<path fill="none" stroke="#000000" stroke-width="12" stroke-linecap="round" stroke-linejoin="round" stroke-miterlimit="10" d="
	M1461.081,1439.723c0,0,0,0,0.013,0.011c0.778,1.622,60.332,124.484,86.979,144.908c12.337,9.467,24.677,15.702,34.396,20.717
	c11.427,5.916,19.243,10.137,19.243,15.932c0,10.729,40.229,34.865,40.229,40.23c0,5.362,2.684,18.771,5.363,26.818
	c2.684,8.047,28.24,3.97,36.918,27.464c8.676,23.494,14.041,42.013,35.494,48.839c21.455,6.84,37.549,28.295,42.912,52.433
	c5.362,24.138,21.455,26.818,37.549,32.188c16.092,5.358,45.594,26.816,48.272,34.862c2.682,8.048,5.362,16.096,24.139,18.771
	c14.375,2.053,28.752-0.604,35.896,6.449c2.188,2.174,3.7,5.244,4.331,9.644c2.685,18.772-8.045,29.503,0,61.688
	c8.047,32.183,6.25,37.156,0.443,58.801"/>
<path fill="none" stroke="#000000" stroke-width="12" stroke-linecap="round" stroke-linejoin="round" stroke-miterlimit="10" d="
	M1600.023,1389.447c0,0-11.428,7.858-23.175,21.779c0,0.012-0.014,0.012-0.014,0.024c-5.323,6.313-10.714,13.862-15.126,22.485
	c-5.914,11.547-10.101,25.021-10.069,40.027c0.106,51.038,8.021,86.172,30.828,131.591"/>
<path fill="none" stroke="#000000" stroke-width="12" stroke-linecap="round" stroke-linejoin="round" stroke-miterlimit="10" d="
	M1867.225,1850.802c0,0,50.957-22.479,59.004-24.085c8.045-1.609,26.818-1.609,26.818,38.621c0,30.561,1.543,48.739-5.938,51.009
	c-2.373,0.712-5.646-0.161-10.151-2.735c-12.026-6.877-35.064-19.064-51.466-34.409
	C1876.276,1870.593,1869.155,1861.005,1867.225,1850.802z"/>
<path fill="none" stroke="#000000" stroke-width="12" stroke-linecap="round" stroke-linejoin="round" stroke-miterlimit="10" d="
	M1821.887,1807.191c-2.613,1.487-6.746,0.775-13.666-3.54c-21.455-13.41-59.003-54.419-61.686-72.804c0,0,2.589-0.039,6.854-0.066
	c10.139-0.095,29.798-0.199,46.786,0.066c24.138,0.391,32.331-9.709,38.956,8.744c6.639,18.464-2.87,29.19-8.85,42.602
	C1826.232,1791.283,1827.398,1804.065,1821.887,1807.191z"/>
<path fill="none" stroke="#000000" stroke-width="12" stroke-linecap="round" stroke-linejoin="round" stroke-miterlimit="10" d="
	M1612.987,1588.031c-13.063,7.321-34.313-33.674-37.156-59.729c0,0,1.381-2.076,3.809-4.746c7.095-7.806,23.064-20.613,39.063-0.617
	C1640.154,1549.761,1626.064,1580.713,1612.987,1588.031z"/>
<path fill="none" stroke="#000000" stroke-width="12" stroke-linecap="round" stroke-linejoin="round" stroke-miterlimit="10" d="
	M1726.825,1709.242c-3.555-0.924-7.818-3.657-14.258-9.293c-21.453-18.771-34.863-26.816-48.273-42.907
	c-13.408-16.096-26.873-18.668-28.188-41.508"/>
<path fill="none" stroke="#000000" stroke-width="12" stroke-linecap="round" stroke-linejoin="round" stroke-miterlimit="10" d="
	M1636.094,1615.511c-0.296-0.657-8.933-19.994,14.791-21.402c24.138-1.435,24.138,14.682,42.911,14.671
	c18.771-0.014,26.817-18.788,37.547-8.061c10.729,10.729,10.729,26.025,26.82,46.547c16.091,20.504,26.818,47.324,0,52.687
	c-18.746,3.754-23.079,11.439-31.313,9.31"/>
<path fill="none" stroke="#000000" stroke-width="12" stroke-linecap="round" stroke-linejoin="round" stroke-miterlimit="10" d="
	M1636.108,1615.534c-0.014,0-0.024-0.013-0.014-0.022"/>
<g id="XMLID_1_">
	<g>
		<path d="M1977.35,795.903c27.021,53.41,15.03,126.354,15.03,126.354s-29.87,12.438-101.3-23.144l0.01-0.01
			C1848.569,776.964,1977.35,795.903,1977.35,795.903z"/>
	</g>
	<g>
		<path fill="none" stroke="#000000" stroke-width="12" stroke-linecap="round" stroke-linejoin="round" stroke-miterlimit="10" d="
			M1977.35,795.903c27.021,53.41,15.03,126.354,15.03,126.354s-29.87,12.438-101.3-23.144c-2.723-1.37-5.513-2.79-8.354-4.29
			c-80.75-42.55-83.449-93.26-83.449-93.26s91.183-85.83,150.188-40.229C1961.641,770.74,1970.68,782.733,1977.35,795.903z"/>
		<path fill="none" stroke="#000000" stroke-width="12" stroke-linecap="round" stroke-linejoin="round" stroke-miterlimit="10" d="
			M1977.35,795.903c0,0-128.778-18.938-86.26,103.2"/>
	</g>
</g>
<path fill="#0E0E0E" d="M1494.43,2065.167c-5.362-9.371-18.771,9.359-26.817-17.459c-4.978-16.602-8.933-19.848-16.238-22.284
	c-4.492-1.49-10.26-2.687-18.315-6.491c-21.146-9.989-32.492-6.088-43.222,12.688c-10.729,18.772-26.818,21.455-64.368,26.817
	c-37.547,5.365-18.771,24.138-10.729,31.354c5.646,5.055,32.372,16.274,47.818,22.541c6.571,2.651,11.104,4.412,11.104,4.412
	c47.498-4.979,96.657-15.998,125.529-23.188v-0.013C1498.588,2080.391,1499.796,2074.529,1494.43,2065.167z"/>
<path fill="#0E0E0E" d="M1358.215,2195.219c13.985-69.73,79.896-26.82,74.532-10.729c-5.364,16.094-13.41,26.82-13.41,40.23
	c0,13.408,2.684,26.818-3.646,34.865c-6.331,8.045-36.583,19.512-36.583,19.512c-12.067-1.462-21.27-14.148-2.684-40.969
	C1382.675,2229.104,1354.728,2212.65,1358.215,2195.219z"/>
<path fill="#070707" d="M1100.625,2110.308c3.474,0.521,6.625,1.287,9.479,2.266c-12.873-1.021-26.016-2.213-39.331-3.58
	C1077.975,2108.067,1087.591,2108.35,1100.625,2110.308z"/>
<path fill="#070707" d="M1094.109,2276.469c-0.066,0.056-0.121,0.079-0.188,0.121c-18.772,10.728-39.331,8.046-58.104,2.683
	c-4.157-1.193-7.015-3.809-8.933-7.281c12.82,0.951,23.199,1.568,30.509,1.973
	C1068.654,2274.591,1080.966,2275.799,1094.109,2276.469z"/>
<path fill="#070707" d="M957.06,2088.557c-0.064,1.188-0.146,2.452-0.27,3.809c-2.104-0.403-4.21-0.819-6.314-1.23
	C952.729,2090.139,954.927,2089.281,957.06,2088.557z"/>
<path fill="#CBA000" d="M947.443,2263.874l-4.304,47.754C940.967,2285.883,947.443,2263.874,947.443,2263.874z"/>
<path fill="#070707" d="M947.443,2263.874c0,0-6.479,22.009-4.304,47.754c-6.761-2.551-13.854-4.438-21.229-5.617
	c-1.517-0.242-3.044-0.456-4.562-0.63v-37.951c8.006,0.483,15.14-0.896,18.235-5.136
	C939.598,2262.844,943.555,2263.383,947.443,2263.874z"/>
<path fill="#0E0E0E" d="M930.333,1999.436c11.761,7.052,13.479,12.817,13.598,65.276c-20.207-9.319-76.262-30.938-124.457-44.707
	c-37.387-10.679-46.41-0.099-50.596,11.367c-22.126-11.438-42.67-24.391-61.042-39.021c-37.077-29.542-68.016-58.71-93.948-87.044
	c0,0,61.657-5.107,83.113-58.748s64.367-21.455,83.144,8.046c18.771,29.502,50.957,42.912,75.095,42.912
	c24.14,0,48.275,42.911,45.595,77.776C900.831,1975.299,916.924,1991.389,930.333,1999.436z"/>
<path fill="#070707" d="M917.354,2259.639c6.182,0.938,12.271,1.823,18.234,2.653c-3.099,4.235-10.229,5.621-18.234,5.137V2259.639
	L917.354,2259.639z"/>
<path fill="#CBA000" d="M917.354,2267.429v37.951c0,0-2.736-22.264-1.248-38.045
	C916.522,2267.376,916.938,2267.404,917.354,2267.429z"/>
<path fill="#070707" d="M917.354,2259.639v7.79c-0.416-0.024-0.832-0.053-1.248-0.094
	C916.374,2264.507,916.776,2261.892,917.354,2259.639z"/>
<path fill="#070707" d="M917.354,2259.639c-0.578,2.253-0.979,4.866-1.248,7.696c-5.954-0.496-12.284-1.982-17.729-4.074
	c2.604-1.73,4.922-3.661,6.961-5.526C909.387,2258.392,913.398,2259.021,917.354,2259.639z"/>
<path fill="#FA67AB" d="M768.879,2031.376c-2.132,5.807-3.019,11.842-5.728,15.446c-8.046,10.729-42.912,152.872-42.912,152.872
	s-1.232,3.717-1.446,8.557c-7.966-3.261-15.813-6.69-23.469-10.283c-69.072-32.428-136.913-99.18-191.185-166.522
	c6.65-8.208,10.606-21.471,12.714-24.62c4.021-6.035,28.158-52.301,36.206-74.426c8.046-22.125,30.023-34.193,44.253-34.193
	c3.779,0,7.04-0.119,9.762-0.457c2.228,2.511,4.493,5.028,6.813,7.563c25.937,28.334,56.872,57.502,93.949,87.044
	C726.208,2006.985,746.752,2019.938,768.879,2031.376z"/>
<path fill="#070707" d="M609.383,1866.021c-11.937-23.883-36.902-21.725-44.213-20.517c-1.313,0.214-2.052,0.397-2.052,0.397
	c-46.265,4.022-74.426,54.313-82.471,72.413c-6.519,14.657-16.991,33.271-21.806,52.633c-1.127,4.563-1.943,9.146-2.334,13.745
	c-2.012,24.141-0.296,20.115,21.818,44.857c11.313,12.672,19.696,9.396,25.813,1.891c6.651-8.208,10.607-21.471,12.715-24.62
	c4.021-6.035,28.158-52.301,36.206-74.426c8.046-22.125,30.023-34.193,44.253-34.193c3.779,0,7.04-0.12,9.763-0.454
	C620.284,1896.124,621.049,1889.365,609.383,1866.021z"/>
<path fill="none" stroke="#000000" stroke-width="12" stroke-linecap="round" stroke-linejoin="round" stroke-miterlimit="10" d="
	M1358.215,2195.219c-3.487,17.433,24.46,33.887,18.21,42.909c-18.586,26.818-9.387,39.509,2.684,40.971
	c0,0,30.251-11.469,36.583-19.514c6.327-8.049,3.646-21.457,3.646-34.863c0-13.41,8.046-24.139,13.41-40.23
	C1438.109,2168.397,1372.2,2125.487,1358.215,2195.219z"/>
<path fill="none" stroke="#000000" stroke-width="12" stroke-linecap="round" stroke-linejoin="round" stroke-miterlimit="10" d="
	M1451.372,2025.424c18.692-18.429,30.358-29.999,30.358-29.999"/>
<path fill="none" stroke="#000000" stroke-width="12" stroke-linecap="round" stroke-linejoin="round" stroke-miterlimit="10" d="
	M1094.109,2276.469c43.206,2.278,95.25-1.045,147.439-49.001c32.572-29.932,74.88-70.414,114.882-109.182
	c2.053-2,4.092-3.973,6.129-5.955"/>
<path fill="none" stroke="#000000" stroke-width="12" stroke-linecap="round" stroke-linejoin="round" stroke-miterlimit="10" d="
	M935.59,2262.292c4.011,0.553,7.966,1.091,11.854,1.582c31.099,4.054,58.521,6.549,79.438,8.112"/>
<path fill="none" stroke="#000000" stroke-width="12" stroke-linecap="round" stroke-linejoin="round" stroke-miterlimit="10" d="
	M504.143,2031.444c54.271,67.345,122.108,134.097,191.184,166.522c7.656,3.593,15.504,7.022,23.469,10.283"/>
<path fill="none" stroke="#000000" stroke-width="12" stroke-linecap="round" stroke-linejoin="round" stroke-miterlimit="10" d="
	M380.18,1757.012c-0.041,0.079-0.079,0.174-0.105,0.239c-1.461,3.34-16.452,41.11,19.352,115.3
	c11.828,24.482,32.521,59.713,59.42,98.396"/>
<path fill="none" stroke="#000000" stroke-width="12" stroke-linecap="round" stroke-linejoin="round" stroke-miterlimit="10" d="
	M1070.775,2108.99c-25.235-2.612-51.132-5.913-77.12-10.099"/>
<path fill="none" stroke="#000000" stroke-width="12" stroke-linecap="round" stroke-linejoin="round" stroke-miterlimit="10" d="
	M1373.663,2116.74c-5.78,0.604-11.533,1.126-17.23,1.543c-11.547,0.817-22.838,1.206-33.523,1.005
	c-34.396-0.644-116.369,0.928-212.802-6.718"/>
<path fill="none" stroke="#000000" stroke-width="12" stroke-linecap="round" stroke-linejoin="round" stroke-miterlimit="10" d="
	M1524.791,2086.813c0,0-9.749,2.79-25.601,6.744"/>
<path fill="none" stroke="#000000" stroke-width="12" stroke-linecap="round" stroke-linejoin="round" stroke-miterlimit="10" d="
	M947.443,2263.874c0,0-6.479,22.009-4.304,47.754"/>
<path fill="none" stroke="#000000" stroke-width="12" stroke-linecap="round" stroke-linejoin="round" stroke-miterlimit="10" d="
	M917.354,2305.381c0,0-2.736-22.261-1.248-38.045"/>
<path fill="none" stroke="#000000" stroke-width="12" stroke-linecap="round" stroke-linejoin="round" stroke-miterlimit="10" d="
	M943.93,2064.712c-0.118-52.459-1.837-58.228-13.598-65.275c-13.41-8.047-29.502-24.139-29.502-24.139
	c2.684-34.866-21.455-77.777-45.595-77.777c-24.138,0-56.319-13.41-75.095-42.912c-18.774-29.501-61.688-61.684-83.144-8.046
	c-21.456,53.641-83.112,58.748-83.112,58.748c25.935,28.334,56.87,57.502,93.947,87.044c18.372,14.632,38.916,27.585,61.042,39.021"
	/>
<path fill="none" stroke="#000000" stroke-width="12" stroke-linecap="round" stroke-linejoin="round" stroke-miterlimit="10" d="
	M1499.192,2093.558v-0.013c-0.604-13.154,0.604-19.02-4.762-28.377c-5.363-9.372-18.771,9.36-26.818-17.459
	c-4.977-16.604-8.932-19.85-16.238-22.286c-4.492-1.49-10.26-2.684-18.316-6.491c-21.146-9.989-32.491-6.088-43.221,12.688
	c-10.729,18.771-26.818,21.455-64.368,26.813c-37.547,5.365-18.771,24.142-10.729,31.354c5.646,5.054,32.372,16.273,47.819,22.54
	c6.57,2.651,11.104,4.412,11.104,4.412C1421.161,2111.769,1470.318,2100.745,1499.192,2093.558z"/>
<path fill="#C2AF8C" d="M2181.901,2095.104c-21.46-2.69-24.141-8.051-32.182-16.101c-8.05-8.041-5.408-8.899-21.47-13.844
	c-7.771-2.38-10.319,1.19-11.7,3.764c0,0-29.908-38.189-57.379-38.189c-6.069,0-11.199-1.57-15.541-4.08
	c-1.771-1.51-3.539-3.061-5.313-4.609c-0.89-0.776-1.77-1.561-2.646-2.351c-0.898-0.78-1.791-1.58-2.67-2.37
	c-7.779-9.51-11.67-21.106-14.699-24.14c-0.592-0.591-1.271-1.53-2.051-2.75c0,0,95.028-17.82,132.58,6.319
	c2.198,1.406,4.471,2.906,6.813,4.486c-13.021,15.764-22.16,25.014-22.16,25.014c43.148,51.946,84.603,37.356,93.88,33.141
	c13.143,13.1,22.38,24.909,23.393,32.47c2.271,17.12,19.95,26.979,38.341,39.58
	C2233.232,2127.281,2203.35,2097.781,2181.901,2095.104z"/>
<path fill="#666666" d="M2104.982,2073.613c4.011-5.17,6.3-8.449,6.3-8.449c3.7,8.109,3.813,6.513,5.271,3.763
	c1.381-2.569,3.931-6.144,11.699-3.763c16.062,4.939,13.42,5.803,21.471,13.843c8.041,8.05,10.721,13.407,32.181,16.101
	c21.45,2.684,51.33,32.184,107.188,36.344c3.312,2.26,6.647,4.616,9.932,7.129c19.83,15.181,53.318,46.511,62.539,61.58
	c0.761,1.221,1.353,2.341,1.761,3.341c-11.021-3.47-23.92-5.89-32.107-9.16c-13.409-5.358-26.819-5.358-37.551-2.68
	c-10.729,2.68-37.552,10.729-45.603,5.36c-8.039-5.36,0,0-32.181-10.73c-32.18-10.72-37.551-8.04-45.59-21.45
	c-8.053-13.409-16.092-13.409-21.461-10.729c-5.358,2.68-24.144-2.681-37.552-11.57c-13.188-8.75-50.852-0.28-52.079,0
	c-21.279-13.32-43.029-27.75-65.132-43.21c0.449-0.12,22.813-6.41,41.739,0.01c19.148,6.49,24.521,22.59,43.29,3.813
	C2090.12,2092.122,2099.291,2080.95,2104.982,2073.613z"/>
<g>
	<path fill="none" stroke="#000000" stroke-width="12" stroke-linecap="round" stroke-linejoin="round" stroke-miterlimit="10" d="
		M2033.001,2017.323c-7.779-9.51-11.67-21.106-14.699-24.14c-0.591-0.591-1.271-1.53-2.051-2.75
		c-6.34-9.92-19.07-38.36-38.182-45.521c-11.641-4.356-21.431-16.356-30.959-28.566"/>
	<path fill="none" stroke="#000000" stroke-width="12" stroke-linecap="round" stroke-linejoin="round" stroke-miterlimit="10" d="
		M2116.551,2068.924c0,0-29.909-38.189-57.38-38.189c-6.07,0-11.199-1.566-15.54-4.08"/>
	<path fill="none" stroke="#000000" stroke-width="12" stroke-linecap="round" stroke-linejoin="round" stroke-miterlimit="10" d="
		M2289.091,2131.443c-55.858-4.16-85.74-33.66-107.188-36.34c-21.46-2.689-24.142-8.051-32.181-16.102
		c-8.051-8.039-5.409-8.898-21.471-13.843c-7.771-2.38-10.32,1.19-11.699,3.763c-1.461,2.75-1.569,4.352-5.271-3.763
		c0,0-2.291,3.28-6.302,8.45c-5.688,7.34-14.857,18.51-25.88,29.53c-18.771,18.776-24.142,2.68-43.29-3.813
		c-18.932-6.42-41.29-0.13-41.739-0.01c-0.021,0.01-0.021,0.01-0.021,0.01"/>
	<path fill="none" stroke="#000000" stroke-width="12" stroke-linecap="round" stroke-linejoin="round" stroke-miterlimit="10" d="
		M2104.982,2073.613c-3.771-2.561-7.552-5.188-11.341-7.88c-1.261-0.896-2.541-1.8-3.801-2.71c-1.271-0.91-2.551-1.84-3.813-2.76
		c-1.271-0.931-2.551-1.87-3.818-2.82c-2.472-1.82-4.939-3.67-7.409-5.561c-1.36-1.04-2.729-2.08-4.08-3.144
		c-1.29-0.987-2.58-2-3.852-3c-7.71-6.05-15.46-12.409-23.239-19.09c-1.771-1.51-3.539-3.061-5.313-4.606
		c-0.891-0.779-1.771-1.563-2.646-2.354c-0.9-0.779-1.791-1.579-2.67-2.37c-0.121-0.09-0.263-0.209-0.382-0.317
		c-1.103-0.979-2.198-1.959-3.302-2.949c-1.448-1.301-2.891-2.602-4.368-3.92c-28.948-25.96-63.108-56.762-99.421-89.83
		c-1.409-1.301-2.829-2.59-4.25-3.88c-1.42-1.302-2.84-2.603-4.271-3.88c-1.42-1.319-2.852-2.62-4.29-3.922
		c-0.642-0.602-1.301-1.188-1.938-1.778c-9.09-8.313-18.277-16.71-27.527-25.199c-4.684-4.29-9.393-8.609-14.091-12.938
		c-2.939-2.711-5.882-5.41-8.829-8.108c-6.854-6.318-13.723-12.659-20.57-19.011c-1.98-1.829-3.95-3.659-5.93-5.479
		c-7.791-7.229-15.57-14.438-23.291-21.646c-4.104-3.82-8.189-7.644-12.262-11.434c-1.312-1.239-2.618-2.46-3.92-3.681
		c-2.897-2.71-5.777-5.409-8.67-8.109c-7.2-6.739-14.33-13.46-21.37-20.101c-2.83-2.683-5.642-5.34-8.421-7.973
		c-4.479-4.25-8.921-8.459-13.311-12.63c-2.45-2.329-4.892-4.671-7.32-6.971c-16.59-15.84-32.46-31.149-47.317-45.699
		c-0.989-0.971-1.973-1.931-2.948-2.891c-21.143-20.739-40.12-39.841-55.961-56.438c-0.421-0.432-0.829-0.858-1.239-1.291
		c-18.16-19.09-32.08-34.817-40.271-45.907c-0.398-0.553-0.79-1.093-1.16-1.609c-0.579-0.79-1.108-1.569-1.608-2.313
		c-0.2-0.287-0.392-0.561-0.58-0.84c-0.438-0.67-0.84-1.317-1.229-1.931c-15.459-24.989-22.479-58.41-22.479-91.391
		c0-1.643,0.021-3.271,0.062-4.91c0.021-1.569,0.08-3.119,0.149-4.688c0.021-0.647,0.051-1.291,0.091-1.931
		c0.04-1.021,0.108-2.03,0.159-3.051c0.119-1.699,0.239-3.399,0.392-5.091c0.13-1.643,0.289-3.263,0.471-4.869
		c0.01-0.131,0.029-0.271,0.04-0.394c0.13-1.26,0.278-2.521,0.438-3.771c0.04-0.399,0.101-0.771,0.148-1.159
		c0.17-1.37,0.358-2.71,0.58-4.07c0.01-0.14,0.04-0.31,0.062-0.47c0.22-1.399,0.448-2.813,0.688-4.21
		c0.01-0.08,0.021-0.17,0.04-0.25v-0.021c0.26-1.552,0.55-3.079,0.858-4.608c0.108-0.604,0.239-1.2,0.358-1.813
		c0.24-1.181,0.49-2.351,0.762-3.5c0.271-1.25,0.562-2.487,0.869-3.71c0.141-0.551,0.271-1.118,0.421-1.647
		c0.938-3.689,1.97-7.271,3.101-10.762c0.221-0.688,0.449-1.392,0.688-2.078c0.592-1.739,1.2-3.439,1.83-5.131
		c0.438-1.172,0.9-2.319,1.352-3.449c0.562-1.37,1.131-2.721,1.721-4.029c0.359-0.813,0.721-1.601,1.08-2.391"/>
	<path fill="none" stroke="#000000" stroke-width="12" stroke-linecap="round" stroke-linejoin="round" stroke-miterlimit="10" d="
		M2059.171,2142.531c0,0,0.021,0,0.029,0c1.229-0.277,38.891-8.75,52.08,0c13.408,8.894,32.188,14.25,37.551,11.57
		c5.37-2.681,13.408-2.681,21.46,10.729c8.04,13.409,13.409,10.729,45.591,21.449c32.181,10.73,24.141,5.37,32.181,10.73
		c8.05,5.367,34.87-2.682,45.603-5.36c10.729-2.68,24.141-2.68,37.551,2.68c8.188,3.271,21.091,5.69,32.107,9.16
		c2.521,0.79,4.938,1.63,7.182,2.562c0.012,0,0.021,0.013,0.04,0.013c4.011,1.67,7.448,3.58,9.892,5.88
		c-17.381,26.527-41.063,38.76-41.063,38.76"/>
	<path fill="none" stroke="#000000" stroke-width="12" stroke-linecap="round" stroke-linejoin="round" stroke-miterlimit="10" d="
		M2227.359,2059.394c13.143,13.1,22.38,24.909,23.393,32.47c2.271,17.12,19.95,26.979,38.341,39.58
		c3.311,2.261,6.648,4.62,9.931,7.13c19.83,15.18,53.319,46.51,62.54,61.58c0.76,1.221,1.353,2.34,1.76,3.34"/>
	<path fill="none" stroke="#000000" stroke-width="12" stroke-linecap="round" stroke-linejoin="round" stroke-miterlimit="10" d="
		M2016.251,1990.434c0,0,95.029-17.82,132.58,6.319c2.199,1.406,4.471,2.906,6.812,4.486"/>
	<path fill="none" stroke="#000000" stroke-width="12" stroke-linecap="round" stroke-linejoin="round" stroke-miterlimit="10" d="
		M2227.359,2059.394c-9.278,4.22-50.729,18.811-93.88-33.141c0,0,9.143-9.25,22.16-25.014c13.129-15.89,30.188-38.39,45.76-64.697
		c7.603-12.841,14.842-26.579,21.092-40.898c2.431-5.551,4.711-11.189,6.801-16.9c0,0,1.84,11.014,3.938,27.803
		c1.932,15.438,4.08,35.75,5.229,56.857c1.96,36.21,0.972,74.75-9.17,95.03C2229.291,2058.434,2228.62,2058.823,2227.359,2059.394z"
		/>
	<path fill="none" stroke="#000000" stroke-width="12" stroke-linecap="round" stroke-linejoin="round" stroke-miterlimit="10" d="
		M2905.859,1304.613c26.96,11.83,47.2,21.7,55.729,27.96c40.229,29.511,53.642,74.2-16.091,157.34
		c-14.069,16.78-26.841,33.98-39.643,51.04c-50.711,67.46-102.271,132.46-239.291,158.16l-62.17,11.37l-104.107,19.021
		c0,0-18.771,5.368-56.318-5.359c-14.408-4.13-103.891-23.641-204.92-54.04c-44.5-13.391-91.238-28.87-134.79-46.09
		c-35.67-14.11-67.88-28.841-99.091-45.301c-27.682-14.594-54.58-30.54-82.393-48.58c-29.311-19.029-58.631-41.92-93.881-63.699
		c-15.379-9.521-31.897-18.813-50.061-27.479c-2.271-1.08-4.592-2.16-6.959-3.24c-1.58-0.729-3.189-1.449-4.813-2.16
		c-0.818-0.359-1.641-0.71-2.461-1.069c-0.829-0.37-1.647-0.729-2.488-1.08c-2.512-1.066-5.067-2.14-7.67-3.196
		c-1.729-0.71-3.489-1.424-5.262-2.12c-2.67-1.054-5.358-2.09-8.108-3.144c-0.869-0.33-1.75-0.66-2.63-0.986
		c-0.239-0.08-0.5-0.174-0.739-0.271c-1.648-0.601-3.301-1.221-4.972-1.811c-0.119-0.04-0.239-0.092-0.356-0.133
		c-1.763-0.631-3.53-1.261-5.32-1.881c-2.063-0.72-4.148-1.438-6.239-2.146c-1.641-0.551-3.29-1.104-4.948-1.63
		c-5.041-1.649-10.171-3.263-15.369-4.804c-1.013-0.3-2.013-0.606-3.029-0.89c-1.021-0.312-2.03-0.601-3.063-0.88
		c-3.357-0.98-6.771-1.921-10.188-2.82c0-0.01,0-0.01,0-0.01c-0.04-0.021-0.08-0.021-0.12-0.03c-0.188-0.05-0.392-0.106-0.59-0.146
		c-1.21-0.33-2.433-0.649-3.649-0.96c-0.29-0.08-0.591-0.149-0.88-0.229c-0.961-0.238-1.891-0.479-2.851-0.721
		c-3.21-0.817-6.433-1.601-9.66-2.351c-0.739-0.183-1.479-0.353-2.221-0.512c-3.5-0.812-7.013-1.579-10.521-2.312
		c-3.881-0.802-7.771-1.569-11.66-2.279c-2.011-0.37-4.029-0.721-6.051-1.068c-1.46-0.25-2.92-0.5-4.369-0.722
		c-0.551-0.101-1.109-0.188-1.671-0.271c-2.01-0.313-4.01-0.62-6.01-0.91c-0.03,0-0.04,0-0.052,0c-2-0.29-4-0.569-6-0.819
		c-1.488-0.188-2.961-0.38-4.438-0.551c-4.438-0.521-8.851-0.97-13.229-1.34c-0.067-0.021-0.147-0.021-0.229-0.021
		c-1.313-0.118-2.64-0.22-3.96-0.316c-1.699-0.12-3.391-0.223-5.062-0.32c-58.391-3.34-109.868,8.921-129.909,50.933
		c-13.239,27.729-12.789,68.432,8.438,126.159c0,0-13.41,43.813,230.649,285.188c71.078,70.312,143.17,133.8,213.078,188.391
		c27.33,21.369,54.319,41.341,80.812,59.853c22.104,15.461,43.854,29.891,65.133,43.211c111.771,70,210.479,109.52,280.17,108.17
		c0,0-171.648,78.68-393.353-25.932c-138.642-65.433-285.29-181.449-417.188-219.291c-2.541-0.729-5.062-1.421-7.58-2.091h-0.011
		c-13.351-3.54-26.511-6.238-39.511-7.971c-45.351-6.062-88.489-0.351-128.42,22.841"/>
</g>
<path fill="none" stroke="#000000" stroke-width="12" stroke-linecap="round" stroke-linejoin="round" stroke-miterlimit="10" d="
	M458.844,1970.948c4.813-19.359,15.287-37.976,21.806-52.633c8.045-18.104,36.207-68.391,82.472-72.413c0,0,0.735-0.188,2.051-0.397
	c7.311-1.209,32.276-3.366,44.213,20.517c11.667,23.346,10.902,30.104-2.307,31.728c-2.724,0.337-5.979,0.457-9.764,0.457
	c-14.229,0-36.207,12.068-44.253,34.193c-8.047,22.125-32.186,68.391-36.206,74.426c-2.104,3.149-6.063,16.412-12.713,24.62
	c-6.115,7.509-14.496,10.781-25.813-1.891c-22.114-24.742-23.83-20.72-21.818-44.857
	C456.9,1980.097,457.717,1975.512,458.844,1970.948z"/>
<path fill="#070707" d="M1027.246,2228.554c2.682-10.729-24.688-16.604-32.562-19.014c-17.434-5.364-30.844-10.729-41.853-1.52
	c-17.151,14.362-10.891,39.063-16.253,52.472c-0.256,0.646-0.59,1.248-0.993,1.8c-3.099,4.235-10.229,5.621-18.236,5.137
	c-0.416-0.024-0.832-0.053-1.248-0.094c-5.952-0.496-12.282-1.982-17.729-4.074c2.604-1.73,4.923-3.661,6.962-5.526
	c3.069-2.788,5.471-5.444,7.104-7.079c5.363-5.365,21.455-38.435,34.864-102.803c5.552-26.67,8.502-43.98,9.479-55.487
	c0.121-1.354,0.202-2.616,0.27-3.809c5.485-1.854,10.526-2.777,14.832-2.388c13.074,1.18,19.216,6.598,21.766,12.726
	c3.206,7.699,0.735,16.521-0.751,19.483c-2.684,5.338,0,34.84,26.818,29.475c26.82-5.362,21.456-5.362,26.82-18.771
	c3.739-9.356,7.575-17.955,24.229-20.088c7.201-0.926,16.816-0.644,29.852,1.314c3.475,0.521,6.625,1.287,9.479,2.266
	c19.244,6.52,25.036,22.264,22.704,33.939c-2.669,13.37-19.995,118.652-38.701,129.955c-0.066,0.056-0.121,0.079-0.188,0.121
	c-18.772,10.729-39.331,8.046-58.104,2.684c-4.157-1.191-7.013-3.81-8.931-7.279
	C1020.139,2259.76,1025.153,2236.907,1027.246,2228.554z"/>
<path fill="#070707" d="M950.891,2068.28c4.317,2.884,6.84,7.054,6.168,20.276c-0.065,1.188-0.146,2.453-0.269,3.809
	c-0.979,11.506-3.931,28.817-9.479,55.487c-13.409,64.368-29.502,97.438-34.865,102.803c-1.637,1.636-4.034,4.291-7.104,7.079
	c-2.039,1.865-4.356,3.796-6.961,5.526c-6.313,4.263-14.254,7.479-23.479,6.167c-18.772-2.687-119.79-34.865-141.247-40.229
	c-13.033-3.26-15.181-13.45-14.855-20.948c0.214-4.84,1.447-8.554,1.447-8.554s34.865-142.145,42.911-152.872
	c2.709-3.604,3.596-9.644,5.728-15.445c4.186-11.469,13.209-22.049,50.598-11.371c48.192,13.771,104.248,35.388,124.457,44.707
	C947.337,2066.281,949.723,2067.501,950.891,2068.28z"/>
<path fill="none" stroke="#000000" stroke-width="12" stroke-linecap="round" stroke-linejoin="round" stroke-miterlimit="10" d="
	M957.06,2088.557c5.483-1.854,10.525-2.777,14.832-2.388c13.072,1.18,19.216,6.598,21.765,12.726
	c3.205,7.699,0.735,16.521-0.752,19.483c-2.683,5.338,0,34.84,26.819,29.475c26.819-5.362,21.457-5.362,26.819-18.771
	c3.74-9.356,7.577-17.955,24.229-20.088c7.2-0.926,16.814-0.644,29.852,1.314c3.475,0.521,6.625,1.287,9.479,2.266
	c19.244,6.52,25.035,22.264,22.703,33.939c-2.668,13.37-19.994,118.652-38.7,129.955c-0.066,0.056-0.121,0.079-0.188,0.121
	c-18.772,10.729-39.331,8.046-58.104,2.684c-4.158-1.191-7.014-3.81-8.932-7.279c-6.745-12.229-1.729-35.079,0.359-43.438
	c2.684-10.728-24.688-16.602-32.559-19.013c-17.435-5.365-30.844-10.729-41.854-1.518c-17.15,14.359-10.891,39.063-16.255,52.473
	c-0.254,0.645-0.589,1.248-0.991,1.797c-3.099,4.238-10.229,5.62-18.234,5.136c-0.416-0.021-0.832-0.053-1.248-0.093
	c-5.954-0.496-12.284-1.982-17.729-4.075"/>
<path fill="none" stroke="#000000" stroke-width="12" stroke-linecap="round" stroke-linejoin="round" stroke-miterlimit="10" d="
	M898.377,2263.261c-6.313,4.263-14.254,7.479-23.479,6.167c-18.772-2.687-119.79-34.865-141.247-40.229
	c-13.034-3.26-15.181-13.451-14.855-20.947c0.214-4.841,1.446-8.555,1.446-8.555s34.866-142.145,42.912-152.872
	c2.709-3.604,3.596-9.644,5.728-15.445c4.186-11.47,13.209-22.05,50.598-11.371c48.192,13.771,104.248,35.388,124.457,44.707
	c3.404,1.565,5.791,2.79,6.959,3.565c4.317,2.885,6.84,7.055,6.168,20.275c-0.065,1.189-0.146,2.453-0.269,3.809
	c-0.979,11.508-3.931,28.817-9.479,55.487c-13.409,64.368-29.501,97.438-34.865,102.804c-1.636,1.637-4.035,4.291-7.104,7.078
	C903.3,2259.6,900.981,2261.53,898.377,2263.261z"/>
<g id="Layer_6_2_">
	<path fill="#FA67AB" d="M951.109,2294.329c77.082,20.254,131.932,96.582,127.063,184.299
		c-5.521,99.415-85.59,175.79-178.854,170.639c-93.255-5.196-164.433-89.949-158.909-189.352
		c5.371-96.991,81.75-172.069,172.091-170.828c2.246,0.021,4.512,0.099,6.756,0.233
		C930.212,2289.934,940.854,2291.624,951.109,2294.329z"/>
	<path fill="none" stroke="#000000" stroke-width="12" stroke-linecap="round" stroke-linejoin="round" stroke-miterlimit="10" d="
		M951.109,2294.329c77.082,20.254,131.932,96.582,127.063,184.299c-5.521,99.415-85.59,175.79-178.854,170.639
		c-93.255-5.196-164.433-89.949-158.909-189.352c5.371-96.991,81.75-172.069,172.091-170.828c2.246,0.021,4.512,0.099,6.756,0.233
		C930.212,2289.934,940.854,2291.624,951.109,2294.329z"/>
	<g>
		<path d="M776.2,2464.029l9.321,0.503c-0.308,5.002,0.181,9.024,1.469,12.049c1.285,3.03,3.403,5.639,6.351,7.83
			c2.947,2.19,6.438,3.607,10.469,4.26c5.782,0.936,10.502,0.251,14.154-2.058c3.653-2.309,5.843-5.719,6.571-10.231
			c0.427-2.641,0.219-5.038-0.623-7.199c-0.843-2.162-2.333-4.059-4.471-5.694c-2.139-1.639-6.908-4.24-14.318-7.796
			c-6.595-3.174-11.185-6.036-13.781-8.588c-2.598-2.55-4.456-5.555-5.567-9.013c-1.112-3.461-1.341-7.208-0.688-11.239
			c1.171-7.249,4.47-12.795,9.898-16.641c5.426-3.846,12.108-5.126,20.052-3.843c5.456,0.882,10.058,2.733,13.802,5.552
			c3.745,2.82,6.421,6.429,8.03,10.825c1.609,4.398,2.054,9.338,1.337,14.823l-9.486-0.653c0.453-5.905-0.592-10.502-3.131-13.797
			c-2.54-3.292-6.518-5.376-11.935-6.251c-5.497-0.888-9.893-0.334-13.181,1.663c-3.289,1.999-5.25,4.952-5.882,8.858
			c-0.584,3.624,0.018,6.607,1.815,8.944c1.796,2.34,6.232,5.125,13.31,8.368c6.92,3.178,11.728,5.736,14.421,7.681
			c4.11,3.015,7.003,6.568,8.688,10.661c1.684,4.091,2.11,8.721,1.275,13.889c-0.829,5.124-2.784,9.602-5.867,13.421
			c-3.083,3.82-6.87,6.5-11.357,8.029c-4.488,1.527-9.645,1.822-15.468,0.882c-9.083-1.47-15.881-5.362-20.395-11.696
			C776.502,2481.231,774.896,2473.388,776.2,2464.029z"/>
		<path d="M837.96,2529.104l14.497-89.74l8.307,1.343l-1.362,8.432c2.598-3.174,5.263-5.33,7.994-6.482
			c2.729-1.146,5.701-1.458,8.914-0.938c4.189,0.675,7.769,2.529,10.743,5.56c2.974,3.029,5.077,7.244,6.313,12.646
			c1.232,5.405,1.276,11.668,0.124,18.796c-1.783,11.037-5.468,19.166-11.053,24.382c-5.586,5.221-11.495,7.326-17.726,6.319
			c-2.77-0.446-5.24-1.573-7.414-3.391c-2.172-1.814-3.926-4.165-5.253-7.053l-5.103,31.581L837.96,2529.104z M855.356,2473.494
			c-1.355,8.391-0.955,14.798,1.208,19.218c2.162,4.423,5.232,6.959,9.216,7.601c3.817,0.615,7.501-0.898,11.049-4.547
			c3.548-3.646,6.018-9.766,7.406-18.357c1.368-8.473,0.981-14.968-1.165-19.495c-2.146-4.527-5.228-7.115-9.25-7.765
			c-3.615-0.585-7.26,1.076-10.932,4.974C859.216,2459.02,856.704,2465.142,855.356,2473.494z"/>
		<path d="M900.855,2480.468c1.809-11.199,5.527-19.269,11.152-24.211c5.625-4.941,12.044-6.83,19.25-5.671
			c7.086,1.15,12.551,4.959,16.396,11.429c3.844,6.474,4.896,15.079,3.16,25.836c-1.881,11.646-5.626,19.944-11.23,24.889
			c-5.606,4.947-12.031,6.836-19.281,5.662c-7.127-1.15-12.603-4.97-16.42-11.462
			C900.059,2500.452,899.052,2491.629,900.855,2480.468z M910.083,2481.928c-1.358,8.401-0.84,14.896,1.554,19.487
			c2.393,4.593,5.85,7.253,10.37,7.982c4.235,0.685,8.203-0.797,11.907-4.446c3.703-3.647,6.227-9.633,7.572-17.95
			c1.35-8.358,0.83-14.833-1.562-19.425c-2.39-4.592-5.849-7.254-10.368-7.983c-4.278-0.691-8.254,0.779-11.933,4.411
			C913.938,2467.637,911.426,2473.613,910.083,2481.928z"/>
		<path d="M977.718,2516.08l-0.348,9.908c-2.588,0.252-4.882,0.213-6.877-0.107c-3.137-0.508-5.563-1.535-7.275-3.088
			c-1.715-1.551-2.755-3.463-3.116-5.733c-0.367-2.274-0.025-6.627,1.013-13.064l6.032-37.324l-6.598-1.067l1.382-8.552l6.597,1.066
			l2.597-16.063l10.045-5.148l-3.663,22.663l9.104,1.472l-1.381,8.553l-9.103-1.472l-6.13,37.933
			c-0.566,3.504-0.666,5.807-0.301,6.913c0.536,1.592,1.863,2.559,3.982,2.9C974.695,2516.031,976.043,2516.104,977.718,2516.08z"/>
		<path d="M1006.246,2520.69l-0.346,9.911c-2.589,0.249-4.883,0.214-6.878-0.109c-3.137-0.507-5.563-1.535-7.277-3.086
			c-1.714-1.556-2.753-3.463-3.114-5.738c-0.366-2.273-0.027-6.627,1.012-13.063l6.031-37.325l-6.596-1.065l1.38-8.553l6.599,1.069
			l2.595-16.065l10.045-5.147l-3.662,22.666l9.103,1.472l-1.382,8.552l-9.103-1.472l-6.13,37.937
			c-0.565,3.504-0.666,5.807-0.301,6.908c0.538,1.592,1.864,2.56,3.984,2.902C1003.224,2520.64,1004.57,2520.709,1006.246,2520.69z"
			/>
		<path d="M1013.149,2531.896l10.483-64.876l8.979,1.45l-10.482,64.877L1013.149,2531.896z M1025.573,2454.986l2.044-12.645
			l8.98,1.451l-2.043,12.645L1025.573,2454.986z"/>
	</g>
</g>
<path fill="#0E0E0E" d="M921.549,1334.813c2.688,6.059-13.315,26.838-27.446,27.459c-14.133,0.625-14.133,0.625-9.229-28.931
	c4.902-29.558,22.893-13.363,22.893-13.363S918.861,1328.749,921.549,1334.813z"/>
<path fill="none" stroke="#000000" stroke-width="12" stroke-linecap="round" stroke-linejoin="round" stroke-miterlimit="10" d="
	M907.762,1319.981c0,0-17.983-16.192-22.893,13.364c-4.902,29.557-4.902,29.557,9.23,28.929
	c14.133-0.625,30.134-21.405,27.446-27.459C918.861,1328.749,907.762,1319.981,907.762,1319.981z"/>
</svg>
