<?xml version="1.0" encoding="utf-8"?>
<!-- Generator: Adobe Illustrator 16.0.0, SVG Export Plug-In . SVG Version: 6.00 Build 0)  -->
<!DOCTYPE svg PUBLIC "-//W3C//DTD SVG 1.1//EN" "http://www.w3.org/Graphics/SVG/1.1/DTD/svg11.dtd">
<svg version="1.1" id="Layer_1" xmlns="http://www.w3.org/2000/svg" xmlns:xlink="http://www.w3.org/1999/xlink" x="0px" y="0px"
	 width="3172.264px" height="2815.516px" viewBox="-170.737 0 3172.264 2815.516"
	 enable-background="new -170.737 0 3172.264 2815.516" xml:space="preserve">
<g id="Layer_2">
	<path fill="#F7E6B5" d="M1414.936,233.028c647.438,0,1172.287,524.853,1172.287,1172.29
		c0,647.44-524.85,1172.301-1172.287,1172.301c-647.439,0-1172.303-524.852-1172.303-1172.301
		C242.634,757.878,767.494,233.028,1414.936,233.028z"/>
</g>
<g id="Layer_3">
	<path fill="#0E0E0E" d="M451.159,2119.347c0,15.313-29.503,35.644-29.503,35.644c-18.771,2.681-8.046,2.681-21.454-13.412
		c-13.41-16.091-26.819-21.456-24.485-32.184c2.334-10.729,21.806-16.093,45.939-21.455
		C445.796,2082.573,451.159,2104.031,451.159,2119.347z"/>
	<path fill="none" stroke="#000000" stroke-width="12" stroke-linecap="round" stroke-linejoin="round" stroke-miterlimit="10" d="
		M451.159,2119.347c0-15.314-5.363-36.772-29.503-31.407c-24.138,5.362-43.605,10.728-45.939,21.455s11.077,16.093,24.485,32.185
		c13.408,16.096,2.683,16.096,21.454,13.412C421.656,2154.99,451.159,2134.656,451.159,2119.347z"/>
</g>
<path fill="#F8F8FF" d="M1521.236,2003.39c-6.26,4.92-11.83,14.221-11.83,16.229c0,1.261-7.31,11.57,15.381,67.189
	c0,0-9.75,2.79-25.601,6.74c-0.6-13.16,0.61-19.021-4.76-28.38c-5.36-9.37-18.771,9.359-26.82-17.46
	c-4.97-16.601-8.93-19.851-16.24-22.28c12.86-12.68,22.392-22.109,27.092-26.75c0.209-0.22,0.408-0.42,0.608-0.609
	c0.19-0.189,0.37-0.369,0.55-0.551c1.381-1.369,2.11-2.09,2.11-2.09c13,1.73,26.17,4.42,39.5,7.95h0.01V2003.39L1521.236,2003.39z"
	/>
<g id="Layer_4_2_">
	<path fill="#F8F8FF" d="M1745.731,2598.677L1745.731,2598.677c-989.373,282.604-1551.229-560.604-1551.229-560.604
		s134.291-181.604,163.793-235.244c5.027-9.132,12.592-25.143,21.777-45.577c-1.463,3.342-16.454,41.111,19.351,115.302
		c11.827,24.481,32.521,59.713,59.42,98.396c-1.127,4.563-1.943,9.146-2.334,13.745c-2.013,24.14-0.296,20.115,21.817,44.857
		c11.314,12.672,19.696,9.396,25.813,1.891c54.271,67.347,122.108,134.099,191.187,166.522c7.654,3.593,15.502,7.021,23.467,10.281
		c-0.319,7.498,1.824,17.688,14.855,20.946c21.457,5.363,122.475,37.546,141.246,40.229c9.229,1.313,17.166-1.904,23.479-6.167
		c5.445,2.092,11.772,3.579,17.729,4.073c-1.486,15.781,1.248,38.043,1.248,38.043c-61.108-7.158-118.104,38.363-128.521,103.694
		c-10.688,66.943,31.594,129.338,94.405,139.372c62.823,10.021,122.403-36.129,133.093-103.082
		c9.427-59.085-22.396-114.628-73.188-133.733l4.307-47.754c31.097,4.053,58.521,6.548,79.438,8.11
		c1.918,3.479,4.771,6.088,8.933,7.282c18.771,5.363,39.332,8.045,58.104-2.685c0.066-0.043,0.12-0.063,0.188-0.121
		c43.207,2.277,95.25-1.045,147.438-49.002c32.572-29.932,74.881-70.414,114.883-109.182c5.698-0.418,11.451-0.938,17.23-1.543
		c47.498-4.976,96.656-15.998,125.527-23.187c15.853-3.954,25.601-6.744,25.601-6.744c13.354,32.73,37.092,81.187,78.823,152.726
		c112.642,193.104,156.896,422.408,156.896,422.408L1745.731,2598.677z M1432.746,2184.49c5.362-16.093-60.546-59.003-74.531,10.729
		c-3.485,17.433,24.46,33.887,18.21,42.909c-18.586,26.817-9.388,39.509,2.684,40.971c0,0,30.251-11.469,36.583-19.514
		c6.328-8.05,3.646-21.457,3.646-34.863C1419.337,2211.311,1427.383,2200.583,1432.746,2184.49z M1198.528,2567.126
		c42.912-32.187-2.684-40.229-13.408-40.229c-10.729,0-8.047-13.407-18.772-8.045c-10.729,5.365-83.142,77.778-83.142,77.778
		s20.813,23.265,45.594,0C1195.205,2534.273,1155.618,2599.309,1198.528,2567.126z M744.38,2429.447
		c5.363-8.045,26.816-64.367-5.364-75.096c-32.185-10.729-56.32-8.045-75.095,0c-18.772,8.048-8.047,40.23-8.047,53.641
		c0,13.412-21.455,34.865-34.864,48.275c-13.407,13.41-53.642,75.094,21.456,64.366c0,0,64.367-42.911,69.729-59.001
		C717.56,2445.54,739.014,2437.495,744.38,2429.447z M421.656,2154.99c0,0,29.501-20.331,29.501-35.644
		c0-15.314-5.361-36.772-29.501-31.407c-24.138,5.362-43.605,10.729-45.939,21.455s11.077,16.093,24.483,32.184
		C413.61,2157.669,402.885,2157.669,421.656,2154.99z"/>
	<path fill="none" stroke="#000000" stroke-width="12" stroke-linecap="round" stroke-linejoin="round" stroke-miterlimit="10" d="
		M380.072,1757.251c-9.188,20.438-16.75,36.444-21.775,45.576c-29.501,53.646-129.959,198.414-129.959,198.414"/>
	<path fill="#0E0E0E" d="M739.014,2354.352c32.185,10.728,10.729,67.051,5.364,75.096c-5.364,8.048-26.818,16.093-32.187,32.188
		c-5.362,16.09-69.729,59.001-69.729,59.001c-75.097,10.728-34.863-50.956-21.456-64.366c13.409-13.41,34.864-34.865,34.864-48.273
		c0-13.407-10.729-45.595,8.047-53.643C682.692,2346.307,706.832,2343.624,739.014,2354.352z"/>
	<path fill="none" stroke="#000000" stroke-width="12" stroke-linecap="round" stroke-linejoin="round" stroke-miterlimit="10" d="
		M739.014,2354.352c-32.185-10.728-56.32-8.045-75.096,0c-18.771,8.048-8.046,40.229-8.046,53.642
		c0,13.41-21.456,34.864-34.864,48.274c-13.407,13.41-53.642,75.094,21.456,64.366c0,0,64.367-42.911,69.729-59.001
		c5.364-16.093,26.82-24.138,32.187-32.188C749.743,2421.402,771.197,2365.079,739.014,2354.352z"/>
	<path fill="#0E0E0E" d="M1185.12,2526.896c10.729,0,56.319,8.048,13.407,40.23c-42.91,32.183-3.323-32.854-69.729,29.502
		c-24.781,23.266-45.595,0-45.595,0s72.413-72.412,83.143-77.777C1177.075,2513.488,1174.391,2526.896,1185.12,2526.896z"/>
	<path fill="none" stroke="#000000" stroke-width="12" stroke-linecap="round" stroke-linejoin="round" stroke-miterlimit="10" d="
		M1185.12,2526.896c10.729,0,56.319,8.048,13.407,40.23c-42.91,32.183-3.323-32.854-69.729,29.502c-24.781,23.266-45.595,0-45.595,0
		s72.413-72.412,83.143-77.777C1177.075,2513.488,1174.391,2526.896,1185.12,2526.896z"/>
	<path fill="none" stroke="#000000" stroke-width="12" stroke-linecap="round" stroke-linejoin="round" stroke-miterlimit="10" d="
		M1760.51,2661.946c0,0-44.254-229.308-156.896-422.409c-41.729-71.539-65.467-119.987-78.82-152.724
		c-22.688-55.625-15.384-65.937-15.384-67.196c0-2.013,5.564-11.306,11.828-16.228"/>
</g>
<path fill="#070707" d="M2784.374,1294.048l40.631,113.71l-40.631,113.71l21.58,118.81l-58.76,105.5l1.63,120.74l-75.431,94.29
	l-18.398,119.351l-89.979,80.529l-37.801,114.681l-101.979,64.67l-56.07,106.939l-111.188,47.107l-72.83,96.313l-117.408,28.21
	l-87.71,83.011l-120.46,8.42l-100.239,67.319l-120.189-11.659l-109.989,49.811l-116.648-31.25l-116.641,31.25l-110-49.811
	l-120.189,11.659l-100.24-67.319l-120.459-8.42l-87.699-83.011l-117.41-28.21l-72.84-96.319l-111.182-47.101l-56.08-106.95
	l-101.979-64.659l-37.8-114.689L170,2080.15l-18.397-119.34l-75.433-94.29l1.631-120.74l-58.751-105.5l21.58-118.81L0,1407.759
	l40.63-113.709l-21.58-118.82l58.763-105.49l-1.643-120.74l75.44-94.301L170,735.36l89.98-80.529l37.8-114.681l101.979-64.67
	l56.08-106.938l111.189-47.11l72.83-96.31l117.41-28.223l87.7-83l120.459-8.42l100.238-67.33l120.19,11.671l110-49.818l116.64,31.25
	l116.649-31.25l109.988,49.818l120.2-11.659l100.239,67.318l120.46,8.42l87.7,83.012l117.409,28.211l72.83,96.31l111.188,47.11
	l56.08,106.938l101.971,64.67l37.813,114.69l89.979,80.52l18.393,119.352l75.438,94.29l-1.64,120.738l58.761,105.49
	L2784.374,1294.048z M2722.994,1405.325c0-722.43-585.64-1308.06-1308.06-1308.06S106.874,682.906,106.874,1405.325
	c0,722.422,585.642,1308.053,1308.063,1308.053C2137.357,2713.378,2722.994,2127.747,2722.994,1405.325z"/>
<path fill="#FFFFFF" d="M1414.936,97.268c722.42,0,1308.061,585.63,1308.061,1308.06c0,722.42-585.643,1308.051-1308.063,1308.051
	S106.874,2127.747,106.874,1405.325C106.874,682.906,692.513,97.268,1414.936,97.268z M2632.614,1407.758
	c0-673.853-546.271-1220.12-1220.12-1220.12c-673.849,0-1220.109,546.27-1220.109,1220.12c0,673.85,546.26,1220.11,1220.109,1220.11
	C2086.344,2627.866,2632.614,2081.608,2632.614,1407.758z"/>
<path fill="#070707" d="M1412.494,187.638c673.852,0,1220.12,546.27,1220.12,1220.12c0,673.85-546.271,1220.11-1220.12,1220.11
	c-673.849,0-1220.109-546.264-1220.109-1220.11C192.384,733.908,738.645,187.638,1412.494,187.638z M2587.223,1405.318
	c0-647.438-524.85-1172.29-1172.287-1172.29c-647.44,0-1172.304,524.853-1172.304,1172.29
	c0,647.45,524.86,1172.301,1172.304,1172.301C2062.374,2577.615,2587.223,2052.758,2587.223,1405.318z"/>
<path fill="#FA67AB" d="M1322.905,2119.29c10.688,0.198,21.979-0.188,33.525-1.004c-40.002,38.768-82.313,79.25-114.884,109.182
	c-52.189,47.956-104.233,51.279-147.439,49.001c18.706-11.304,36.03-116.585,38.701-129.955c2.333-11.681-3.46-27.425-22.704-33.939
	C1206.536,2120.218,1288.51,2118.647,1322.905,2119.29z"/>
<path fill="#FA67AB" d="M1070.775,2108.99c-16.653,2.135-20.489,10.729-24.229,20.087c-5.363,13.41,0,13.41-26.818,18.772
	c-26.82,5.361-29.501-24.139-26.82-29.479c1.488-2.963,3.957-11.783,0.752-19.479
	C1019.644,2103.079,1045.536,2106.378,1070.775,2108.99z"/>
<path fill="#FA67AB" d="M994.688,2209.54c7.871,2.408,35.239,8.282,32.559,19.015c-2.092,8.354-7.104,31.206-0.359,43.436
	c-20.918-1.563-48.342-4.063-79.438-8.112c-3.89-0.49-7.845-1.028-11.854-1.582c0.4-0.551,0.736-1.149,0.993-1.799
	c5.362-13.408-0.896-38.104,16.253-52.472C963.844,2198.811,977.255,2204.177,994.688,2209.54z"/>
<path fill="#F8F8FF" d="M1481.734,1995.425c0,0-11.667,11.572-30.358,29.999c-4.491-1.49-10.26-2.688-18.315-6.491
	c-21.146-9.989-32.491-6.088-43.221,12.688c-10.729,18.772-26.818,21.455-64.368,26.817c-37.547,5.365-18.771,24.138-10.729,31.354
	c5.646,5.055,32.372,16.273,47.819,22.541c-2.038,1.98-4.076,3.955-6.129,5.955c-11.546,0.813-22.837,1.205-33.523,1.004
	c-34.396-0.646-116.37,0.927-212.803-6.722c-2.854-0.979-6.007-1.739-9.479-2.266c-13.033-1.958-22.648-2.24-29.852-1.314
	c-25.236-2.61-51.132-5.913-77.12-10.099c-2.547-6.128-8.688-11.546-21.766-12.729c-4.305-0.391-9.349,0.535-14.832,2.388
	c0.672-13.224-1.85-17.394-6.168-20.272c-1.167-0.778-3.554-1.999-6.96-3.568c-0.118-52.459-1.837-58.225-13.6-65.271
	c-13.408-8.048-29.503-24.143-29.503-24.143c2.686-34.862-21.454-77.773-45.593-77.773c-24.14,0-56.32-13.41-75.097-42.912
	c-18.772-29.501-61.688-61.688-83.145-8.046c-21.455,53.641-83.111,58.748-83.111,58.748c-2.318-2.533-4.586-5.06-6.813-7.563
	c13.209-1.622,13.977-8.381,2.31-31.727c-11.938-23.886-36.903-21.729-44.214-20.521c-56.175-78.222-76.88-146.586-89.831-193.759
	c-17.637-64.143-5.139-104.557-1.129-114.979c0.057-0.146,0.107-0.278,0.177-0.412c0.294-0.729,0.604-1.438,0.896-2.146
	c0.025-0.079,0.056-0.121,0.056-0.121c22.166-52.646,40.066-94.66,45.675-104.94c16.091-29.505,152.855-280.709,160.901-294.118
	c8.047-13.41,35.646-52.606,35.646-52.606c3.341-2.493,5.954-4.801,7.711-6.853c9.334-10.9,17.475-24.204,22.998-37.589
	c0,0,11.307,5.353,27.396-26.832c16.095-32.188,8.047-52.303,24.141-92.527c16.094-40.229,28.161-56.321,28.161-72.413
	s-20.115-12.069-32.187-24.138c-12.069-12.069-40.229-24.143-96.551-16.097c-56.321,8.05-144.652-81.68-132.663-135.386h-0.016
	c12.321-18.586,24.229-34.194,39.251-49.71c0.056-0.065,0.118-0.135,0.175-0.202c1.007-1.019,1.998-2.021,3.019-3.044
	c9.896-9.185,41.854-32.143,81.746,7.751c48.274,48.275,61.688,53.643,77.776,59.003c16.093,5.364,48.272,5.364,80.459-32.184
	c32.185-37.547,53.64-64.367,80.459-77.777c26.818-13.41,29.5-37.547,32.185-67.049s-5.188-46.801-5.188-46.801
	c45.339-5.283,79.427,17.246,98.725,24.956c20.114,8.046,189.079,16.092,189.079,16.092s-203.95,106.782-254.907,208.697
	c-50.958,101.914,40.229,166.279,67.049,174.325c26.819,8.048,9.055-5.361,52.812,29.503
	c43.741,34.861,73.243,34.861,108.107,32.185c34.864-2.681,32.187-5.364,83.143,10.729c50.959,16.097,144.827,61.688,187.736,77.777
	c42.911,16.09,124.271,87.604,134.996,95.652c10.729,8.045,24.476,50.897,118.008,37.548c18.773-2.686,42.91,26.814,93.868,29.501
	c50.958,2.682,32.187-10.729,64.366,0c32.186,10.729,26.818,8.77,42.91,0.362c16.094-8.408,32.188-0.362,40.229,2.314
	c8.046,2.688,16.095-21.455,88.504-32.183c72.414-10.729,123.784-0.43,225.5-155.771c15.648,15.52,32.33,40.578,104.504,73.58
	c93.866,42.91,139.461,75.098,179.689,91.188c14.855,5.938,65.229,24.7,124.855,47.471c-17.18,24.271-36.475,32.035-52.563,40.083
	c-16.094,8.045-45.596,10.729-72.414,50.958c-26.816,40.229,16.093,56.319,42.095,96.552c26.018,40.229,8.862,64.365,0.817,96.552
	c-8.047,32.187,2.683,32.187,13.408,61.687c-42.91-2.682-53.641-45.593-61.688-67.048c-8.047-21.456-88.506-72.414-112.646-88.506
	c-24.139-16.094-8.045,10.729-29.5,0c-21.457-10.729-26.818,18.771-50.959,5.363c-24.139-13.409-37.549-24.142-59.729-5.363
	c-22.191,18.771-26.097,59.003-7.321,104.596c18.773,45.596-2.683,83.142-18.561,101.916c-15.895,18.771-57.5,48.813-57.5,48.813
	c-44.511-13.39-91.241-28.872-134.8-46.095c-35.668-14.104-67.881-28.844-99.084-45.298c-27.679-14.592-54.577-30.536-82.392-48.584
	c-29.313-19.025-58.627-41.921-93.883-63.695c-15.382-9.521-31.902-18.813-50.063-27.478c-2.268-1.087-4.587-2.16-6.959-3.245
	c-1.584-0.728-3.191-1.45-4.813-2.16c-0.814-0.36-1.636-0.712-2.452-1.072c-0.831-0.357-1.646-0.724-2.493-1.069
	c-2.51-1.071-5.067-2.146-7.671-3.205c-1.729-0.712-3.486-1.422-5.259-2.118c-2.668-1.047-5.362-2.092-8.112-3.14
	c-0.87-0.334-1.743-0.656-2.628-0.991c-0.24-0.079-0.496-0.174-0.736-0.271c-1.646-0.603-3.3-1.22-4.979-1.811
	c-0.118-0.04-0.239-0.096-0.357-0.135c-1.759-0.632-3.526-1.266-5.313-1.877c-2.063-0.729-4.156-1.438-6.249-2.146
	c-1.639-0.549-3.286-1.1-4.948-1.636c-5.041-1.647-10.164-3.26-15.365-4.803c-1.006-0.293-2.014-0.604-3.029-0.888
	c-1.021-0.31-2.023-0.603-3.061-0.885c-3.364-0.979-6.771-1.918-10.189-2.813c0-0.019,0-0.019,0-0.019
	c-0.038-0.014-0.081-0.014-0.12-0.022c-0.188-0.056-0.39-0.107-0.591-0.146c-1.206-0.335-2.426-0.655-3.646-0.966
	c-0.296-0.081-0.591-0.146-0.886-0.229c-0.952-0.241-1.894-0.483-2.845-0.729c-3.22-0.814-6.438-1.596-9.668-2.345
	c-0.735-0.179-1.476-0.354-2.213-0.513c-3.5-0.809-7.016-1.584-10.525-2.312c-3.875-0.803-7.766-1.563-11.651-2.274
	c-2.013-0.377-4.036-0.728-6.05-1.071c-1.461-0.257-2.924-0.496-4.37-0.729c-0.55-0.092-1.112-0.188-1.678-0.27
	c-1.998-0.32-4.01-0.628-6.007-0.909c-0.026,0-0.041,0-0.058,0c-1.995-0.296-3.993-0.563-5.993-0.817
	c-1.485-0.188-2.963-0.377-4.438-0.552c-4.438-0.535-8.854-0.979-13.235-1.34c-0.063-0.015-0.146-0.015-0.229-0.015
	c-1.313-0.121-2.646-0.229-3.957-0.32c-1.702-0.121-3.396-0.229-5.066-0.324c-58.388-3.337-109.867,8.92-129.9,50.934
	c-13.248,27.73-12.793,68.434,8.438,126.16c0,0-13.409,43.813,230.646,285.188c71.089,70.307,143.179,133.802,213.084,188.394
	c27.326,21.362,54.322,41.345,80.808,59.853c22.104,15.462,43.854,29.893,65.134,43.205c111.771,70,210.479,109.521,280.17,108.18
	c0,0-171.646,78.676-393.351-25.938c-138.646-65.426-285.297-181.445-417.192-219.291c-2.535-0.727-5.058-1.422-7.576-2.094h-0.014
	C1507.896,1999.851,1494.725,1997.154,1481.734,1995.425z M1325.455,1663.235c18.772-13.408,5.362-42.911,0-59.001
	c-5.363-16.093-18.773-26.82-13.275-53.641c5.498-26.821-21.589-80.458-45.728-85.823c-24.141-5.365-37.55,13.41-48.274,37.548
	c-10.729,24.139,8.046,42.91,0,53.641c-8.046,10.729-29.501,37.551-29.501,37.551c-2.684,18.771,18.771,32.185,21.456,34.863
	c2.684,2.685,56.32,8.046,67.049,29.5C1287.906,1679.324,1306.68,1676.646,1325.455,1663.235z M1066.216,1859.972
	c50.958-18.772,40.229-67.048,29.501-77.778c-10.729-10.725-18.771,26.82-34.865,0c-16.091-26.813-26.818-16.09-59.003,5.365
	c-32.184,21.455-10.729,34.865,10.729,48.275c21.457,13.409,5.364,34.86,5.364,34.86
	C1034.03,1870.698,1015.259,1878.741,1066.216,1859.972z M1054.59,1009.784c21.456-2.683,8.046-13.405,8.046-40.229
	s-2.684-18.773-10.729-10.729c-8.046,8.052-37.548,37.553-37.548,37.553C1017.042,1007.105,1033.135,1012.471,1054.59,1009.784z
	 M979.493,1095.557c13.408-18.773-16.093-37.547-16.093-37.547c-29.501,2.682-24.138,32.184-13.41,48.271
	C960.719,1122.376,966.085,1114.331,979.493,1095.557z M921.376,1337.819c2.683-10.728-26.817-34.865-37.548-5.362h-2.683
	c0,18.772-5.364,32.188,13.41,26.818C913.33,1353.908,918.692,1348.548,921.376,1337.819z M843.598,773.784
	c8.048,0,26.818-10.728,8.048-26.815c-18.772-16.091-24.14-13.41-29.502,0C817.062,759.668,835.552,773.784,843.598,773.784z
	 M676.43,1593.706c13.41-37.398-13.408-45.741-26.818-40.383c-13.41,5.365-24.138,56.323-24.138,56.323
	C633.521,1617.697,663.023,1631.107,676.43,1593.706z M569.151,1515.781c8.046-2.683,13.41-16.093,10.729-18.771
	c-2.685-2.687-10.729-5.362-10.729-5.362s-13.408-5.365-10.729,10.729C561.108,1518.463,561.108,1518.463,569.151,1515.781z
	 M553.062,1652.563c2.683-16.093-18.772-16.093-18.772-16.093c-10.729,2.683-16.093,8.046-16.093,13.41
	c0,5.358,0,21.456,16.093,26.815C550.381,1682.062,550.38,1668.653,553.062,1652.563z"/>
<path fill="#070707" d="M2961.59,1332.573c40.229,29.504,53.642,74.196-16.095,157.338c-14.063,16.775-26.832,33.98-39.639,51.036
	c-35.954-10.593-79.373-34.979-127.646-91.307c-48.277-56.321-8.048-93.869,21.455-118.007
	c29.271-23.95,104.985-26.98,106.18-27.021c0.017,0,0.017,0,0.017,0C2932.825,1316.443,2953.061,1326.314,2961.59,1332.573z"/>
<path fill="#0E0E0E" d="M2905.844,1304.615c-1.191,0.04-76.904,3.07-106.18,27.021c-29.502,24.138-69.73,61.686-21.455,118.007
	c48.272,56.322,91.692,80.714,127.646,91.307c-50.704,67.47-102.269,132.464-239.285,158.158l-62.166,11.371
	c0,0,24.498-54.324,27.181-73.099c2.685-18.773,16.094-37.551,5.362-67.054c-10.729-29.5-21.455-29.5-13.407-61.686
	c8.045-32.188,25.196-56.32-0.818-96.549c-26-40.23-68.912-56.323-42.094-96.556c26.816-40.229,56.319-42.912,72.414-50.958
	c16.094-8.048,35.389-15.811,52.563-40.083C2773.169,1250.308,2852.62,1281.27,2905.844,1304.615z"/>
<path fill="#666666" d="M2636.95,1570.331c10.729,29.505-2.684,48.272-5.363,67.053c-2.682,18.771-27.182,73.097-27.182,73.097
	l-104.113,19.028c0,0-18.771,5.358-56.321-5.363c-14.401-4.13-103.886-23.642-204.914-54.041c0,0,41.606-30.041,57.5-48.813
	c15.877-18.774,37.334-56.319,18.561-101.916c-18.771-45.597-14.871-85.82,7.322-104.6c22.18-18.771,35.59-8.046,59.729,5.364
	c24.139,13.41,29.5-16.093,50.957-5.364c21.455,10.729,5.361-16.093,29.502,0c24.139,16.093,104.598,67.052,112.645,88.506
	C2583.311,1524.739,2594.038,1567.651,2636.95,1570.331z M2532.355,1514.907c2.685,4.022,8.045-1.343,4.021-5.36
	C2536.376,1509.547,2529.673,1510.886,2532.355,1514.907z M2491.493,1541.698c-4.961,6.705,6.879,12.284,11.063,3.396
	C2502.557,1545.097,2496.456,1534.993,2491.493,1541.698z M2481.398,1590.005c2.685,4.021,8.046-1.345,4.021-5.362
	C2485.419,1584.642,2478.715,1585.981,2481.398,1590.005z M2480.766,1453.196c-4.961,6.705,6.879,12.284,11.063,3.396
	C2491.829,1456.592,2485.727,1446.49,2480.766,1453.196z M2437.856,1508.177c-4.962,6.705,6.879,12.284,11.063,3.395
	C2448.917,1511.571,2442.817,1501.472,2437.856,1508.177z M2407.817,1447.781c-5.77,7.775,7.99,14.254,12.848,3.94
	C2420.661,1451.722,2413.583,1439.989,2407.817,1447.781z M2394.233,1592.687c2.686,4.021,8.047-1.342,4.021-5.365
	C2398.257,1587.321,2391.552,1588.66,2394.233,1592.687z M2373.486,1543.042c-4.961,6.701,6.879,12.28,11.063,3.396
	C2384.551,1546.437,2378.45,1536.338,2373.486,1543.042z M2359.366,1484.065c2.685,4.025,8.047-1.34,4.021-5.362
	C2363.389,1478.699,2356.684,1480.042,2359.366,1484.065z M2356.484,1430.443c-5.753,7.775,7.991,14.252,12.847,3.928
	C2369.329,1434.367,2362.251,1422.649,2356.484,1430.443z"/>
<path fill="#0E0E0E" d="M2536.376,1509.547c4.021,4.021-1.342,9.388-4.021,5.36
	C2529.673,1510.886,2536.376,1509.547,2536.376,1509.547z"/>
<path fill="#0E0E0E" d="M2502.557,1545.097c-4.187,8.89-16.023,3.311-11.063-3.396
	C2496.456,1534.993,2502.557,1545.097,2502.557,1545.097z"/>
<path fill="#0E0E0E" d="M2485.419,1584.642c4.021,4.021-1.342,9.385-4.021,5.362
	C2478.715,1585.981,2485.419,1584.642,2485.419,1584.642z"/>
<path fill="#0E0E0E" d="M2491.829,1456.592c-4.186,8.89-16.022,3.311-11.063-3.396
	C2485.727,1446.49,2491.829,1456.592,2491.829,1456.592z"/>
<path fill="#C89E95" d="M2382.003,2083.657c-14.766-31.916-40.752-68.805-82.979-111.029c-23.925-23.927-45.78-45.82-65.788-66.084
	c-2.104-16.788-3.943-27.803-3.943-27.803l0.057-0.054c11.104,12.538,26.188,24.539,50.021,36.021
	c59.003,28.4,78.286-1.103,114.239,33.77c35.949,34.865,34.445,88.504,55.313,109.959c20.865,21.458,43.127,50.958,30.654,83.145
	c-12.471,32.187,3.621,59.004-23.199,67.052c-23.761,7.133-33.24,26.887-75.938,3.311
	C2398.19,2184.84,2409.372,2142.813,2382.003,2083.657z"/>
<path fill="#0E0E0E" d="M2448.917,1511.571c-4.186,8.895-16.021,3.313-11.063-3.395
	C2442.817,1501.472,2448.917,1511.571,2448.917,1511.571z"/>
<path fill="#0E0E0E" d="M2420.661,1451.722c-4.854,10.313-18.611,3.835-12.847-3.94
	C2413.583,1439.989,2420.661,1451.722,2420.661,1451.722z"/>
<path fill="#0E0E0E" d="M2398.257,1587.321c4.021,4.023-1.344,9.388-4.022,5.365
	C2391.552,1588.66,2398.257,1587.321,2398.257,1587.321z"/>
<path fill="#C89E95" d="M2382.003,2083.657c27.369,59.151,16.188,101.182-1.569,128.277c-2.439-2.292-5.886-4.21-9.896-5.872
	c-0.013,0-0.023-0.013-0.039-0.013c-0.67-0.417-1.342-0.859-2.013-1.287c-0.671-0.443-1.354-0.889-2.037-1.344
	c-1.383-0.914-2.789-1.863-4.237-2.845c-0.215-0.146-0.431-0.298-0.646-0.43c-9.229-15.074-42.711-46.396-62.543-61.578
	c-21.455-16.414-45.596-26.498-48.274-46.708c-1.006-7.563-10.243-19.377-23.388-32.476c1.263-0.564,1.931-0.955,1.931-0.955
	c10.14-20.287,11.134-58.826,9.177-95.034c21.964,16.291,42.078,31.982,57.875,45.875
	C2330.401,2039.243,2358.671,2062.997,2382.003,2083.657z"/>
<path fill="#C89E95" d="M2382.003,2083.657c-23.332-20.664-51.604-44.414-85.662-74.384c-15.799-13.893-35.912-29.584-57.877-45.875
	c-1.153-21.107-3.301-41.423-5.229-56.858c20.008,20.268,41.863,42.161,65.788,66.085
	C2341.251,2014.856,2367.239,2051.745,2382.003,2083.657z"/>
<path fill="#0E0E0E" d="M2380.432,2211.938c-3.109-1.715-6.408-3.658-9.896-5.872
	C2374.548,2207.729,2377.991,2209.646,2380.432,2211.938z"/>
<path fill="#0E0E0E" d="M2370.536,2206.066c3.484,2.214,6.783,4.157,9.896,5.872c-17.379,26.538-41.063,38.771-41.063,38.771
	c-69.688,1.346-168.398-38.18-280.172-108.18c1.231-0.279,38.89-8.742,52.084,0c13.408,8.896,32.187,14.258,37.549,11.574
	c5.363-2.682,13.408-2.682,21.456,10.729c8.046,13.409,13.409,10.729,45.594,21.455c32.186,10.729,24.14,5.362,32.186,10.729
	c8.048,5.364,34.866-2.685,45.596-5.365c10.73-2.68,24.139-2.681,37.549,2.688c8.193,3.271,21.096,5.687,32.114,9.157
	c2.521,0.791,4.938,1.639,7.177,2.563C2370.51,2206.054,2370.525,2206.066,2370.536,2206.066z"/>
<path fill="#0E0E0E" d="M2384.551,1546.437c-4.187,8.89-16.022,3.311-11.063-3.395
	C2378.446,1536.336,2384.551,1546.437,2384.551,1546.437z"/>
<path fill="#666666" d="M2368.484,2204.767c0.671,0.428,1.344,0.87,2.014,1.287c-2.239-0.926-4.651-1.77-7.177-2.563
	c-0.415-0.993-1.005-2.119-1.758-3.343c0.216,0.136,0.432,0.28,0.646,0.435c1.447,0.977,2.854,1.929,4.236,2.844
	C2367.132,2203.882,2367.815,2204.323,2368.484,2204.767z"/>
<path fill="#666666" d="M2366.448,2203.427c0.685,0.454,1.364,0.896,2.037,1.34
	C2367.815,2204.323,2367.132,2203.882,2366.448,2203.427z"/>
<path fill="#0E0E0E" d="M2363.389,1478.699c4.021,4.022-1.342,9.393-4.021,5.362
	C2356.684,1480.042,2363.389,1478.699,2363.389,1478.699z"/>
<path fill="#0E0E0E" d="M2369.329,1434.367c-4.854,10.324-18.602,3.853-12.85-3.928
	C2362.251,1422.649,2369.329,1434.367,2369.329,1434.367z"/>
<path fill="#666666" d="M2360.909,2199.71c-0.537-0.36-1.086-0.729-1.649-1.088
	C2359.809,2198.972,2360.359,2199.333,2360.909,2199.71z"/>
<path fill="#666666" d="M2356.87,2197.109c-0.653-0.403-1.342-0.818-2.022-1.234C2355.53,2196.278,2356.2,2196.692,2356.87,2197.109
	z"/>
<path fill="#666666" d="M2351.602,2193.971c-0.766-0.429-1.527-0.871-2.307-1.302
	C2350.073,2193.1,2350.837,2193.529,2351.602,2193.971z"/>
<path fill="#0E0E0E" d="M2281.266,1000.906c5.98,2.897,10.596,6.692,15.289,11.358c-101.716,155.342-153.088,145.041-225.5,155.77
	c-72.412,10.729-80.459,34.865-88.506,32.188c-8.045-2.685-24.139-10.729-40.229-2.319c-16.094,8.407-10.729,10.365-42.911-0.362
	c-32.187-10.729-13.408,2.687-64.365,0c-50.959-2.683-75.096-32.184-93.87-29.5c-93.532,13.354-107.277-29.504-118.007-37.549
	c-10.729-8.047-92.084-79.563-134.996-95.647c-42.912-16.097-136.779-61.688-187.737-77.778
	c-50.957-16.091-48.272-13.409-83.142-10.729c-34.865,2.683-64.367,2.684-108.109-32.187
	c-43.756-34.866-25.988-21.456-52.809-29.501c-26.819-8.045-118.007-72.413-67.05-174.328
	c50.958-101.915,254.907-208.697,254.907-208.697s122.025-56.316,178.352-48.271c56.32,8.045,128.734,0,229.311,40.229
	c100.572,40.229,108.619,56.32,217.238,76.438c108.619,20.115,172.986,132.757,189.076,181.033
	C2074.301,799.32,2172.139,948.249,2281.266,1000.906z M1992.38,922.249c0,0,11.986-72.938-15.032-126.352
	c-6.664-13.168-15.7-25.157-27.879-34.571c-59.004-45.594-150.188,40.229-150.188,40.229s2.707,50.716,83.448,93.265
	c2.843,1.502,5.632,2.923,8.354,4.292C1962.514,934.692,1992.38,922.249,1992.38,922.249z"/>
<path fill="#FFFFFF" d="M2238.465,1963.402c1.957,36.208,0.965,74.747-9.175,95.034c0,0-0.67,0.392-1.934,0.955
	c-19.979-19.917-48.959-42.781-71.716-58.146c13.128-15.896,30.188-38.396,45.754-64.703
	C2214.044,1945.54,2226.53,1954.565,2238.465,1963.402z"/>
<path fill="#FFFFFF" d="M2233.234,1906.545c1.933,15.436,4.075,35.75,5.229,56.854c-11.938-8.837-24.42-17.858-37.063-26.856
	c7.604-12.839,14.846-26.579,21.094-40.899C2226.007,1899.222,2229.585,1902.856,2233.234,1906.545z"/>
<path fill="#C89E95" d="M2229.344,1878.691l-0.055,0.054c-2.093,5.714-4.371,11.35-6.8,16.896
	c-57.048-58.011-98.358-102.37-129.646-142.922c0,0,3.875-4.653,9.039-11.118c43.852,32.748,77.229,61.164,88.977,78.143
	C2205.247,1840.527,2212.958,1860.186,2229.344,1878.691z"/>
<path fill="#FFFFFF" d="M2229.29,1878.741c0,0,1.838,11.015,3.943,27.803c-3.647-3.688-7.229-7.321-10.742-10.901
	C2224.919,1890.091,2227.2,1884.458,2229.29,1878.741z"/>
<path fill="#FFFFFF" d="M2155.646,2001.241c22.757,15.365,51.733,38.229,71.716,58.146c-9.277,4.221-50.729,18.813-93.884-33.139
	C2133.477,2026.255,2142.622,2017.001,2155.646,2001.241z"/>
<path fill="#C89E95" d="M1830.618,1584.642c-124.619-88.813-146.073-178.607-146.396-179.947c3.421,0.898,6.826,1.838,10.19,2.816
	c1.021,0.281,2.041,0.574,3.06,0.884c1.02,0.296,2.024,0.591,3.03,0.884c5.201,1.543,10.324,3.154,15.365,4.803
	c1.661,0.536,3.313,1.092,4.947,1.641c2.094,0.71,4.187,1.422,6.249,2.146c1.782,0.615,3.556,1.246,5.313,1.876
	c0.119,0.04,0.239,0.1,0.356,0.139c1.681,0.604,3.328,1.209,4.979,1.811c0.24,0.095,0.497,0.189,0.736,0.271
	c0.886,0.334,1.758,0.675,2.629,0.989c2.75,1.048,5.442,2.095,8.112,3.144c1.771,0.71,3.526,1.401,5.259,2.113
	c2.603,1.063,5.162,2.139,7.67,3.205c0.832,0.361,1.663,0.713,2.494,1.073c0.815,0.361,1.638,0.71,2.453,1.073
	c1.636,0.724,3.229,1.433,4.813,2.16c2.372,1.085,4.689,2.156,6.958,3.244c18.157,8.66,34.68,17.953,50.063,27.478
	c0,0,2.571,95.839,112.531,165.57c42.769,27.114,86.333,56.268,125.034,83.798c7.938,12.136,16.668,24.338,26.377,36.917
	c31.286,40.552,72.603,84.911,129.646,142.922c-6.248,14.32-13.487,28.065-21.094,40.9
	c-62.879-44.788-129.604-89.229-151.801-109.826c-34.863-32.386-139.461-134.796-182.373-177.708
	C1824.315,1606.097,1830.618,1584.642,1830.618,1584.642z"/>
<path fill="#C89E95" d="M2201.4,1936.542c-15.569,26.311-32.626,48.813-45.754,64.699c-2.349-1.582-4.614-3.086-6.813-4.488
	c-37.55-24.142-132.582-6.315-132.582-6.315c-6.345-9.924-19.067-38.366-38.179-45.527c-11.644-4.354-21.432-16.354-30.966-28.563
	c7.481-2.268,5.938-20.448,5.938-51.009c0-40.23-18.771-40.23-26.819-38.621c-8.045,1.604-59.004,24.085-59.004,24.085
	c-4.479-3.021-9.227-6.212-14.309-9.604c-25.275-16.854-27.396-22.128-31.028-34.008c5.511-3.126,4.345-15.905,8.396-24.998
	c5.979-13.407,15.485-24.139,8.851-42.604c-6.625-18.45-14.816-8.354-38.956-8.741c-16.99-0.271-36.647-0.161-46.786-0.066
	c-9.896-8.087-19.216-15.515-26.538-21.521c8.232,2.136,12.564-5.555,31.313-9.309c26.818-5.362,16.092-32.183,0-52.687
	c-16.092-20.521-16.092-35.817-26.819-46.55c-10.729-10.729-18.771,8.05-37.547,8.063c-18.771,0.011-18.771-16.104-42.911-14.671
	c-23.723,1.408-15.087,20.745-14.791,21.4c-8.718-8.881-16.375-18.093-23.104-27.479c13.073-7.322,27.167-38.271,5.712-65.092
	c-15.996-19.996-31.969-7.188-39.063,0.615c-9.532-26.892-13.702-51.51-15.852-69.168v-0.017c0.268-1.557,0.55-3.086,0.857-4.612
	c0.118-0.604,0.237-1.203,0.358-1.811c0.239-1.168,0.496-2.334,0.767-3.5c0.271-1.248,0.563-2.495,0.87-3.715
	c0.137-0.553,0.271-1.104,0.416-1.65c0.938-3.688,1.975-7.268,3.1-10.754c0.229-0.696,0.456-1.396,0.696-2.079
	c0.592-1.743,1.19-3.446,1.821-5.136c0.44-1.166,0.897-2.32,1.354-3.444c0.563-1.37,1.126-2.725,1.715-4.036
	c0.363-0.807,0.726-1.598,1.088-2.39c0-0.013,0.015-0.013,0.015-0.021c11.746-13.924,23.175-21.778,23.175-21.778
	c0.079,0,0.159,0,0.229,0.014c5.849,0.496,11.748,1.126,17.674,1.896c2,0.253,3.998,0.534,5.994,0.813c0.017,0,0.026,0,0.056,0
	c1.998,0.295,3.995,0.604,6.01,0.91c0.563,0.082,1.128,0.178,1.678,0.271c1.445,0.229,2.909,0.47,4.37,0.726
	c2.013,0.349,4.036,0.696,6.049,1.073c3.89,0.71,7.776,1.475,11.651,2.272c3.516,0.729,7.024,1.505,10.524,2.313
	c0.738,0.161,1.478,0.335,2.213,0.512c3.23,0.749,6.449,1.526,9.668,2.345c0.951,0.24,1.903,0.482,2.845,0.729
	c0.297,0.077,0.593,0.146,0.888,0.228c1.223,0.312,2.438,0.632,3.646,0.966c0.201,0.038,0.401,0.098,0.592,0.146
	c0.038,0.013,0.08,0.023,0.119,0.04c0.321,1.34,21.776,91.135,146.396,179.944c0,0-6.307,21.455,36.604,64.365
	c42.912,42.911,147.511,145.321,182.373,177.709C2071.794,1847.313,2138.518,1891.755,2201.4,1936.542z"/>
<path fill="#FFFFFF" d="M2105.921,1686.556c21.455,0,26.818,10.298,18.771,23.924c-4.801,8.126-15.191,21.576-22.813,31.122
	c-11.186-8.354-23.053-16.989-35.414-25.799c-9.094-13.896-17.141-27.679-24.38-41.813
	C2042.091,1673.989,2084.466,1686.556,2105.921,1686.556z"/>
<path fill="#C89E95" d="M2116.553,2068.925c-1.461,2.749-1.566,4.345-5.271-3.758c0,0-2.291,3.271-6.303,8.446
	c-3.77-2.562-7.55-5.188-11.345-7.885c-1.261-0.896-2.533-1.796-3.795-2.709c-1.272-0.91-2.548-1.836-3.811-2.762
	c-1.271-0.929-2.551-1.864-3.821-2.816c-2.468-1.819-4.938-3.675-7.416-5.563c-1.354-1.031-2.722-2.078-4.073-3.138
	c-1.287-0.992-2.575-2-3.854-3.008c-7.709-6.048-15.461-12.399-23.237-19.081c4.347,2.509,9.47,4.075,15.541,4.075
	C2086.637,2030.732,2116.553,2068.925,2116.553,2068.925z"/>
<path fill="#C2AF8C" d="M2093.635,2065.732c3.798,2.695,7.578,5.323,11.347,7.885c-5.688,7.335-14.854,18.506-25.88,29.528
	c-18.771,18.772-24.139,2.683-43.287-3.81c-18.937-6.427-41.29-0.138-41.745-0.017c-26.48-18.507-53.479-38.481-80.808-59.85
	c5.807-21.646,7.604-26.618-0.443-58.802c-8.045-32.187,2.686-42.912,0-61.688c-0.629-4.396-2.146-7.47-4.331-9.645l2.294-2.508
	c0.646,0.593,1.303,1.184,1.943,1.781c1.436,1.316,2.869,2.614,4.291,3.917c1.424,1.287,2.843,2.588,4.265,3.891
	c1.422,1.284,2.845,2.589,4.253,3.875c36.313,33.066,70.472,63.87,99.42,89.834c1.478,1.313,2.938,2.627,4.371,3.911
	c1.103,0.993,2.197,1.978,3.301,2.951c0.121,0.107,0.256,0.229,0.377,0.321c0.014,0.015,0.021,0.04,0.04,0.053
	c2.924,3.582,6.407,6.868,10.594,9.282c7.776,6.677,15.528,13.033,23.237,19.081c1.289,1.021,2.574,2.025,3.853,3.005
	c1.354,1.062,2.723,2.104,4.074,3.137c2.479,1.895,4.948,3.742,7.416,5.564c1.271,0.951,2.549,1.893,3.821,2.813
	c1.262,0.929,2.531,1.854,3.81,2.765C2091.116,2063.937,2092.378,2064.847,2093.635,2065.732z"/>
<path fill="#C89E95" d="M2101.885,1741.602c-5.163,6.465-9.038,11.118-9.038,11.118c-9.709-12.579-18.438-24.781-26.377-36.917
	C2078.833,1724.612,2090.7,1733.244,2101.885,1741.602z"/>
<path fill="#C2AF8C" d="M2089.843,2063.023c1.261,0.913,2.535,1.811,3.794,2.709
	C2092.378,2064.847,2091.116,2063.937,2089.843,2063.023z"/>
<path fill="#C2AF8C" d="M2082.212,2057.445c1.271,0.952,2.55,1.896,3.822,2.816
	C2084.76,2059.335,2083.484,2058.397,2082.212,2057.445z"/>
<path fill="#C2AF8C" d="M2074.796,2051.878c2.479,1.894,4.949,3.74,7.416,5.563
	C2079.745,2055.622,2077.276,2053.771,2074.796,2051.878z"/>
<path fill="#C2AF8C" d="M2066.87,2045.738c1.271,1.005,2.563,2.012,3.851,3.005
	C2069.444,2047.765,2068.159,2046.758,2066.87,2045.738z"/>
<path fill="#666666" d="M2042.091,1673.989c7.238,14.136,15.287,27.92,24.379,41.813c-38.7-27.53-82.271-56.688-125.034-83.798
	c-109.959-69.731-112.532-165.57-112.532-165.57c35.254,21.775,64.567,44.667,93.881,63.696
	c27.813,18.047,54.715,33.992,82.395,48.584C2015.618,1614.465,2027.178,1644.958,2042.091,1673.989z"/>
<path fill="#F3FFB0" d="M2038.319,2022.042c1.771,1.557,3.541,3.1,5.313,4.611c-4.188-2.414-7.671-5.697-10.596-9.279
	c0.871,0.777,1.742,1.559,2.63,2.318C2036.552,2020.487,2037.436,2021.264,2038.319,2022.042z"/>
<path fill="#F3FFB0" d="M2035.667,2019.696c0.886,0.791,1.771,1.567,2.652,2.351
	C2037.436,2021.264,2036.552,2020.487,2035.667,2019.696z"/>
<path fill="#F3FFB0" d="M2035.667,2019.696c-0.887-0.765-1.758-1.541-2.629-2.321c-0.017-0.013-0.023-0.034-0.04-0.053
	C2033.884,2018.114,2034.768,2018.917,2035.667,2019.696z"/>
<path fill="#666666" d="M2032.997,2017.322c-0.121-0.093-0.257-0.214-0.377-0.316c-1.102-0.979-2.196-1.959-3.299-2.951
	c-1.447-1.299-2.896-2.604-4.372-3.915c-28.947-25.962-63.104-56.769-99.419-89.833c-1.408-1.305-2.831-2.588-4.253-3.875
	c-1.423-1.305-2.841-2.604-4.265-3.893c-1.42-1.313-2.855-2.609-4.291-3.917c-0.646-0.602-1.303-1.188-1.943-1.778
	c-9.092-8.306-18.276-16.707-27.529-25.195l2.238-2.442c16.397,15.345,39.438,27.532,51.466,34.409
	c4.51,2.574,7.779,3.447,10.152,2.735c9.534,12.204,19.323,24.206,30.964,28.563c19.107,7.161,31.835,35.604,38.178,45.527
	c0.777,1.221,1.463,2.157,2.054,2.748C2021.331,1996.217,2025.219,2007.816,2032.997,2017.322z"/>
<path fill="#C2AF8C" d="M2024.95,2010.135c1.478,1.313,2.926,2.616,4.373,3.915
	C2027.889,2012.762,2026.427,2011.448,2024.95,2010.135z"/>
<path fill="#FFFFFF" d="M1977.346,795.901c0,0-128.773-18.935-86.252,103.202l-0.015,0.013c-2.725-1.368-5.515-2.789-8.354-4.292
	c-80.741-42.549-83.449-93.265-83.449-93.265s91.188-85.823,150.189-40.229C1961.646,770.74,1970.682,782.732,1977.346,795.901z"/>
<path fill="#FFFFFF" d="M1953.049,1865.338c0,30.561,1.543,48.738-5.938,51.009c-8.032-10.298-15.862-20.73-24.46-26.871
	c-15.812-11.292-31.62-22.584-55.424-38.674c0,0,50.957-22.479,59.004-24.085
	C1934.275,1825.106,1953.049,1825.106,1953.049,1865.338z"/>
<path fill="#FFFFFF" d="M1947.109,1916.346c-2.373,0.712-5.646-0.161-10.149-2.735c-12.026-6.877-35.064-19.068-51.469-34.409
	c-9.212-8.604-16.332-18.196-18.265-28.396c23.803,16.09,39.612,27.382,55.423,38.674
	C1931.243,1895.615,1939.075,1906.049,1947.109,1916.346z"/>
<path fill="#C2AF8C" d="M1925.531,1920.302c-1.407-1.287-2.829-2.588-4.253-3.875
	C1922.7,1917.715,1924.124,1919.001,1925.531,1920.302z"/>
<path fill="#C2AF8C" d="M1917.016,1912.535c-1.422-1.303-2.855-2.601-4.291-3.917
	C1914.159,1909.926,1915.594,1911.226,1917.016,1912.535z"/>
<path fill="#0E0E0E" d="M1912.817,1980.675c8.047,32.183,6.25,37.156,0.443,58.801c-69.905-54.591-141.995-118.086-213.084-188.392
	c-244.063-241.38-230.647-285.188-230.647-285.188c-21.229-57.729-21.684-98.43-8.437-126.162
	c0.775,1.622,60.332,124.484,86.978,144.908c12.338,9.467,24.677,15.702,34.397,20.717c11.425,5.916,19.24,10.137,19.24,15.937
	c0,10.728,40.229,34.86,40.229,40.229c0,5.362,2.684,18.772,5.363,26.818c2.684,8.047,28.239,3.97,36.918,27.464
	c8.676,23.494,14.041,42.013,35.494,48.839c21.454,6.84,37.549,28.295,42.911,52.435c5.361,24.141,21.455,26.816,37.548,32.187
	c16.094,5.36,45.596,26.819,48.272,34.864c2.684,8.045,5.363,16.094,24.141,18.771c14.375,2.054,28.752-0.604,35.896,6.449
	c2.188,2.174,3.702,5.243,4.331,9.644C1915.501,1937.761,1904.774,1948.49,1912.817,1980.675z"/>
<path fill="#C2AF8C" d="M1910.779,1906.84l-2.294,2.506c-7.146-7.054-21.521-4.396-35.896-6.449
	c-18.772-2.68-21.456-10.729-24.138-18.771c-2.686-8.049-32.188-29.508-48.274-34.865c-16.093-5.365-32.186-8.046-37.548-32.188
	c-5.362-24.138-21.457-45.593-42.911-52.433c-21.454-6.826-26.819-25.345-35.495-48.839c-8.678-23.494-34.234-19.417-36.917-27.464
	c-2.685-8.049-5.364-21.456-5.364-26.818c0-5.365-40.229-29.503-40.229-40.229c0-5.798-7.816-10.019-19.242-15.935
	c-22.813-45.419-30.723-80.553-30.828-131.591c-0.027-15.006,4.154-28.479,10.068-40.027c0.455,4.774,1.021,11.845,2.078,20.643
	v0.013c-0.017,0.082-0.025,0.175-0.039,0.254c-0.24,1.397-0.474,2.804-0.688,4.212c-0.022,0.161-0.055,0.322-0.063,0.471
	c-0.217,1.354-0.4,2.709-0.576,4.063c-0.057,0.39-0.105,0.765-0.146,1.168c-0.16,1.245-0.309,2.506-0.439,3.771
	c-0.016,0.116-0.024,0.256-0.038,0.389c-0.178,1.605-0.337,3.229-0.473,4.868c-0.146,1.688-0.271,3.393-0.391,5.097
	c-0.054,1.005-0.12,2.025-0.161,3.044c-0.039,0.646-0.064,1.287-0.093,1.931c-0.067,1.561-0.106,3.125-0.146,4.692
	c-0.041,1.636-0.056,3.271-0.056,4.909c0,32.977,7.015,66.404,22.476,91.389c0.393,0.615,0.791,1.264,1.233,1.936
	c0.188,0.275,0.376,0.551,0.577,0.845c0.495,0.738,1.03,1.516,1.606,2.305c0.375,0.525,0.766,1.063,1.166,1.611
	c8.184,11.09,22.103,26.817,40.271,45.915c0.4,0.428,0.817,0.854,1.232,1.287c15.838,16.602,34.821,35.695,55.959,56.438
	c0.979,0.952,1.957,1.917,2.948,2.887c14.856,14.551,30.735,29.86,47.321,45.699c2.431,2.316,4.869,4.643,7.322,6.975
	c4.385,4.173,8.821,8.383,13.304,12.632c2.803,2.655,5.604,5.299,8.421,7.968c7.04,6.638,14.175,13.355,21.376,20.104
	c2.868,2.709,5.769,5.4,8.662,8.109c1.303,1.222,2.615,2.439,3.93,3.673c4.076,3.823,8.166,7.633,12.261,11.438
	c7.724,7.201,15.502,14.415,23.291,21.646c1.974,1.82,3.939,3.656,5.928,5.481c6.853,6.343,13.72,12.688,20.57,19.002
	c2.938,2.709,5.889,5.418,8.82,8.114c4.707,4.33,9.413,8.646,14.098,12.938C1892.503,1890.133,1901.691,1898.534,1910.779,1906.84z"
	/>
<path fill="#666666" d="M1885.488,1879.198l-2.237,2.442c-4.684-4.292-9.39-8.609-14.096-12.94c-2.938-2.709-5.875-5.4-8.82-8.109
	c-6.854-6.316-13.723-12.66-20.572-19.002c-1.981-1.837-3.954-3.661-5.928-5.483c-7.788-7.229-15.567-14.443-23.291-21.646
	c-4.104-3.82-8.193-7.646-12.26-11.438c-1.313-1.229-2.628-2.453-3.93-3.672c-2.896-2.709-5.779-5.418-8.662-8.113
	c-7.201-6.745-14.337-13.464-21.375-20.101c-2.83-2.687-5.635-5.338-8.423-7.969c-4.479-4.248-8.919-8.459-13.304-12.636
	c-2.453-2.332-4.896-4.666-7.322-6.972c-16.586-15.837-32.465-31.151-47.321-45.701c-0.99-0.966-1.973-1.931-2.947-2.883
	c-21.138-20.746-40.122-39.841-55.959-56.442c-0.415-0.43-0.832-0.854-1.233-1.287c-18.17-19.097-32.089-34.821-40.271-45.912
	c-0.401-0.554-0.791-1.089-1.166-1.609c-0.576-0.789-1.111-1.566-1.607-2.307c-0.201-0.278-0.391-0.563-0.577-0.848
	c-0.441-0.67-0.845-1.313-1.232-1.931c-15.463-24.984-22.477-58.412-22.477-91.392c0-1.638,0.016-3.271,0.057-4.907
	c0.022-1.566,0.078-3.123,0.146-4.691c0.026-0.646,0.055-1.287,0.094-1.932c0.041-1.021,0.106-2.024,0.161-3.043
	c0.12-1.704,0.24-3.405,0.392-5.102c0.136-1.635,0.294-3.258,0.472-4.866c0.014-0.135,0.024-0.27,0.038-0.388
	c0.137-1.264,0.281-2.521,0.439-3.77c0.041-0.403,0.097-0.778,0.147-1.168c0.174-1.369,0.359-2.709,0.576-4.063
	c0.013-0.146,0.041-0.309,0.063-0.47c0.216-1.408,0.442-2.813,0.688-4.212c0.013-0.079,0.021-0.172,0.038-0.254
	c2.146,17.661,6.313,42.276,15.853,69.169c-2.428,2.67-3.809,4.744-3.809,4.744c2.843,26.057,24.098,67.052,37.155,59.729
	c6.729,9.388,14.391,18.601,23.104,27.479c-0.016,0.014,0,0.021,0.014,0.021c1.313,22.838,14.777,25.412,28.188,41.505
	c13.409,16.093,26.816,24.142,48.271,42.91c6.438,5.635,10.702,8.369,14.256,9.293c0.016,0,0.016,0,0.026,0.015
	c7.322,6.012,16.644,13.438,26.538,21.521c-4.268,0.027-6.854,0.066-6.854,0.066c2.686,18.385,40.229,59.394,61.688,72.804
	c6.92,4.313,11.052,5.024,13.666,3.54c3.634,11.88,5.753,17.146,31.025,34.008c5.084,3.393,9.83,6.584,14.312,9.604
	C1869.155,1861.005,1876.276,1870.593,1885.488,1879.198z"/>
<path fill="#C2AF8C" d="M1869.155,1868.699c-2.938-2.691-5.887-5.4-8.82-8.109C1863.28,1863.299,1866.219,1865.99,1869.155,1868.699
	z"/>
<path fill="#FFFFFF" d="M1839.133,1739.593c6.639,18.464-2.87,29.189-8.851,42.602c-4.055,9.094-2.889,21.872-8.396,24.998
	c-1.007-3.247-2.104-6.983-3.837-11.585c-5.778-15.409-37.372-42.552-64.661-64.823c10.139-0.097,29.797-0.197,46.786,0.064
	C1824.315,1731.238,1832.508,1721.139,1839.133,1739.593z"/>
<path fill="#C2AF8C" d="M1839.76,1841.588c-1.981-1.825-3.952-3.661-5.928-5.483
	C1835.807,1837.927,1837.776,1839.751,1839.76,1841.588z"/>
<path fill="#FFFFFF" d="M1821.887,1807.191c-2.613,1.487-6.746,0.775-13.666-3.54c-21.455-13.41-59.003-54.419-61.687-72.804
	c0,0,2.589-0.039,6.854-0.066c27.289,22.273,58.884,49.416,64.661,64.825C1819.78,1800.2,1820.882,1803.944,1821.887,1807.191z"/>
<path fill="#C2AF8C" d="M1798.284,1803.019c4.063,3.796,8.152,7.618,12.26,11.439
	C1806.45,1810.649,1802.361,1806.844,1798.284,1803.019z"/>
<path fill="#C2AF8C" d="M1785.693,1791.233c2.884,2.695,5.767,5.404,8.662,8.113
	C1791.46,1796.638,1788.564,1793.942,1785.693,1791.233z"/>
<path fill="#C2AF8C" d="M1764.317,1771.134c-2.814-2.669-5.618-5.313-8.421-7.969
	C1758.687,1765.796,1761.487,1768.448,1764.317,1771.134z"/>
<path fill="#FFFFFF" d="M1758.163,1647.266c16.092,20.504,26.818,47.324,0,52.687c-18.746,3.754-23.078,11.439-31.313,9.311
	c-0.018-0.018-0.018-0.018-0.026-0.018c-0.591-0.493-1.183-0.979-1.741-1.443c-26.819-22.152-14.832-32.238-64.367-70.432
	c-9.012-6.943-17.19-14.271-24.605-21.832c-0.015,0-0.023-0.014-0.015-0.022c-0.296-0.657-8.933-19.994,14.791-21.402
	c24.138-1.435,24.138,14.687,42.911,14.671c18.771-0.014,26.817-18.786,37.548-8.061
	C1742.07,1611.448,1742.07,1626.744,1758.163,1647.266z"/>
<path fill="#C2AF8C" d="M1735.273,1743.562c2.429,2.306,4.868,4.64,7.32,6.972C1740.141,1748.198,1737.7,1745.881,1735.273,1743.562
	z"/>
<path fill="#FFFFFF" d="M1725.081,1707.798c0.563,0.47,1.151,0.951,1.741,1.443c-3.553-0.924-7.815-3.656-14.256-9.293
	c-21.455-18.771-34.864-26.815-48.272-42.906c-13.407-16.097-26.873-18.668-28.188-41.509c7.415,7.563,15.599,14.89,24.605,21.832
	C1710.251,1675.559,1698.261,1685.645,1725.081,1707.798z"/>
<path fill="#C2AF8C" d="M1687.947,1697.86c-0.989-0.966-1.971-1.931-2.946-2.883
	C1685.979,1695.93,1686.956,1696.895,1687.947,1697.86z"/>
<path fill="#C89E95" d="M1683.51,1404.508c-1.206-0.335-2.426-0.657-3.646-0.968
	C1681.085,1403.85,1682.303,1404.173,1683.51,1404.508z"/>
<path fill="#C89E95" d="M1653.728,1397.426c-3.875-0.804-7.766-1.567-11.653-2.277
	C1645.964,1395.857,1649.853,1396.618,1653.728,1397.426z"/>
<path fill="#C89E95" d="M1642.072,1395.147c-2.011-0.377-4.034-0.725-6.048-1.073
	C1638.036,1394.406,1640.064,1394.771,1642.072,1395.147z"/>
<path fill="#C89E95" d="M1636.026,1394.073c-1.461-0.256-2.924-0.496-4.371-0.726
	C1633.116,1393.574,1634.566,1393.818,1636.026,1394.073z"/>
<path fill="#C89E95" d="M1629.979,1393.076c-2.013-0.309-4.011-0.61-6.008-0.907
	C1625.969,1392.448,1627.981,1392.76,1629.979,1393.076z"/>
<path fill="#C2AF8C" d="M1627.805,1637.244c0.402,0.433,0.818,0.857,1.234,1.287
	C1628.626,1638.105,1628.208,1637.677,1627.805,1637.244z"/>
<path fill="#C89E95" d="M1623.917,1392.171c-1.996-0.282-3.994-0.564-5.994-0.817
	C1619.923,1391.605,1621.921,1391.874,1623.917,1392.171z"/>
<path fill="#FFFFFF" d="M1618.7,1522.942c21.454,26.818,7.361,57.771-5.713,65.092c-15.367-21.39-25.977-43.623-33.352-64.475
	C1586.733,1515.756,1602.702,1502.946,1618.7,1522.942z"/>
<path fill="#FFFFFF" d="M1612.987,1588.031c-13.063,7.321-34.313-33.674-37.156-59.729c0,0,1.382-2.076,3.81-4.746
	C1587.014,1544.407,1597.62,1566.645,1612.987,1588.031z"/>
<path fill="#C89E95" d="M1617.923,1391.353c-5.928-0.766-11.827-1.396-17.674-1.892
	C1606.094,1389.943,1611.996,1390.573,1617.923,1391.353z"/>
<path fill="#F3FFB0" d="M1596.066,1389.126c1.313,0.096,2.645,0.196,3.957,0.317c0,0-11.427,7.858-23.173,21.779
	c0.494-1.075,1.021-2.136,1.542-3.167c0.521-1.045,1.062-2.076,1.607-3.1c0.549-1.007,1.111-1.994,1.677-2.979
	c0.535-0.911,1.072-1.811,1.623-2.696c0.039-0.063,0.079-0.118,0.12-0.188c0.296-0.47,0.589-0.938,0.896-1.396
	c2.094-3.221,4.33-6.196,6.681-8.905C1592.673,1388.898,1594.36,1389.006,1596.066,1389.126z"/>
<path fill="#C89E95" d="M1600.023,1389.447c-1.313-0.121-2.646-0.227-3.957-0.316
	C1597.38,1389.221,1598.706,1389.323,1600.023,1389.447z"/>
<path fill="#C2AF8C" d="M1590.996,1388.802c-2.35,2.709-4.587,5.687-6.68,8.906c-0.312,0.45-0.604,0.925-0.896,1.394
	c-0.041,0.067-0.082,0.119-0.121,0.188c-0.551,0.888-1.088,1.781-1.623,2.692c-0.576,0.98-1.127,1.976-1.677,2.979
	c-0.55,1.021-1.086,2.052-1.608,3.097c-0.521,1.031-1.046,2.092-1.542,3.167c0,0.012-0.015,0.012-0.015,0.024
	c-5.322,6.313-10.714,13.862-15.126,22.485c-5.913,11.547-10.101,25.021-10.069,40.026c0.106,51.038,8.021,86.172,30.829,131.591
	c-9.723-5.015-22.062-11.25-34.396-20.717c-26.646-20.424-86.198-143.286-86.979-144.908
	C1481.131,1397.722,1532.609,1385.466,1590.996,1388.802z"/>
<path fill="#FA67AB" d="M565.171,1845.505c-1.313,0.214-2.053,0.396-2.053,0.396c-46.265,4.022-74.426,54.313-82.471,72.413
	c-6.519,14.657-16.991,33.271-21.806,52.633c-26.899-38.688-47.593-73.913-59.42-98.396
	c-35.805-74.188-20.813-111.96-19.353-115.299c0.025-0.066,0.065-0.161,0.105-0.24c25.601-56.98,63.655-148.124,94.029-220.244
	c-4.01,10.421-16.507,50.836,1.126,114.979C488.291,1698.917,508.996,1767.281,565.171,1845.505z"/>
<path fill="#C2AF8C" d="M1587.534,1591.333c-0.4-0.555-0.791-1.09-1.166-1.61
	C1586.743,1590.243,1587.134,1590.781,1587.534,1591.333z"/>
<path fill="#666666" d="M1584.185,1586.572c0.188,0.28,0.375,0.564,0.575,0.846
	C1584.561,1587.119,1584.372,1586.853,1584.185,1586.572z"/>
<path fill="#C2AF8C" d="M1584.317,1397.708c-0.312,0.451-0.604,0.926-0.896,1.395
	C1583.716,1398.634,1584.01,1398.159,1584.317,1397.708z"/>
<path fill="#C2AF8C" d="M1583.3,1399.285c-0.551,0.892-1.088,1.785-1.623,2.696
	C1582.213,1401.073,1582.749,1400.177,1583.3,1399.285z"/>
<path fill="#C2AF8C" d="M1581.677,1401.985c-0.563,0.98-1.127,1.974-1.676,2.979
	C1580.55,1403.958,1581.1,1402.967,1581.677,1401.985z"/>
<path fill="#C2AF8C" d="M1580.001,1404.964c-0.553,1.021-1.088,2.052-1.608,3.097
	C1578.914,1407.015,1579.45,1405.983,1580.001,1404.964z"/>
<path fill="#C2AF8C" d="M1578.391,1408.06c-0.521,1.031-1.047,2.092-1.543,3.167
	C1577.344,1410.151,1577.868,1409.092,1578.391,1408.06z"/>
<path fill="#F3FFB0" d="M1576.835,1411.251c-0.361,0.791-0.726,1.582-1.087,2.389c-0.589,1.313-1.166,2.667-1.716,4.038
	c-0.457,1.124-0.913,2.273-1.354,3.439c-0.631,1.688-1.247,3.396-1.821,5.14c-0.242,0.685-0.472,1.384-0.697,2.078
	c-1.125,3.483-2.157,7.063-3.1,10.754c-0.146,0.537-0.28,1.102-0.416,1.647c-0.31,1.221-0.604,2.469-0.869,3.715
	c-0.271,1.152-0.522,2.318-0.767,3.5c-0.121,0.604-0.241,1.205-0.359,1.813c-0.313,1.523-0.594,3.057-0.857,4.611
	c-1.063-8.799-1.623-15.861-2.078-20.641C1566.121,1425.115,1571.511,1417.568,1576.835,1411.251z"/>
<path fill="#F3FFB0" d="M1575.749,1413.639c-0.59,1.313-1.151,2.667-1.717,4.038
	C1574.583,1416.306,1575.159,1414.948,1575.749,1413.639z"/>
<path fill="#F3FFB0" d="M1572.677,1421.117c-0.631,1.688-1.231,3.396-1.821,5.141
	C1571.43,1424.514,1572.048,1422.81,1572.677,1421.117z"/>
<path fill="#F3FFB0" d="M1570.856,1426.258c-0.242,0.684-0.472,1.383-0.697,2.078
	C1570.385,1427.64,1570.611,1426.94,1570.856,1426.258z"/>
<path fill="#C2AF8C" d="M1563.749,1454.645c-0.242,1.397-0.474,2.804-0.688,4.212
	C1563.276,1457.448,1563.507,1456.042,1563.749,1454.645z"/>
<path fill="#C2AF8C" d="M1562.996,1459.323c-0.216,1.354-0.401,2.693-0.575,4.063
	C1562.594,1462.031,1562.78,1460.68,1562.996,1459.323z"/>
<path fill="#C2AF8C" d="M1562.273,1464.557c-0.16,1.245-0.31,2.506-0.44,3.77C1561.965,1467.063,1562.11,1465.802,1562.273,1464.557
	z"/>
<path fill="#C2AF8C" d="M1561.79,1468.713c-0.178,1.605-0.336,3.229-0.472,4.863
	C1561.454,1471.945,1561.613,1470.322,1561.79,1468.713z"/>
<path fill="#C2AF8C" d="M1560.93,1478.677c-0.054,1.019-0.118,2.021-0.159,3.044
	C1560.812,1480.698,1560.878,1479.682,1560.93,1478.677z"/>
<path fill="#C2AF8C" d="M1560.677,1483.651c-0.066,1.569-0.121,3.125-0.146,4.692
	C1560.568,1486.776,1560.609,1485.206,1560.677,1483.651z"/>
<path fill="#C2AF8C" d="M1560.528,1488.344c-0.041,1.636-0.057,3.271-0.057,4.909
	C1560.475,1491.615,1560.487,1489.979,1560.528,1488.344z"/>
<path d="M1325.455,1604.234c5.362,16.09,18.772,45.593,0,59.001c-18.773,13.41-37.548,16.093-48.275-5.363
	c-10.729-21.454-64.365-26.814-67.049-29.5c-2.685-2.683-24.14-16.093-21.456-34.862c0,0,21.456-26.82,29.501-37.551
	c8.046-10.729-10.729-29.503,0-53.641c10.729-24.138,24.14-42.913,48.274-37.548s51.226,59.003,45.728,85.823
	C1306.678,1577.409,1320.092,1588.142,1325.455,1604.234z"/>
<path fill="#0E0E0E" d="M1095.718,1782.193c10.729,10.73,21.456,59.006-29.501,77.778c-50.958,18.771-32.185,10.728-48.273,10.728
	c0,0,16.092-21.455-5.362-34.865c-21.457-13.405-42.91-26.815-10.729-48.271c32.185-21.455,42.911-32.184,59.004-5.365
	C1076.942,1809.014,1084.987,1771.469,1095.718,1782.193z"/>
<path fill="#0E0E0E" d="M1062.635,969.559c0,26.819,13.41,37.547-8.046,40.229c-21.456,2.688-37.548-2.683-40.229-13.405
	c0,0,29.502-29.501,37.548-37.553C1059.952,950.781,1062.635,942.739,1062.635,969.559z"/>
<path fill="#0E0E0E" d="M963.401,1058.01c0,0,29.501,18.771,16.093,37.547c-13.408,18.774-18.771,26.819-29.502,10.729
	C939.264,1090.193,933.901,1060.691,963.401,1058.01z"/>
<path fill="#0E0E0E" d="M956.428,460.573c0,0,7.872,17.299,5.188,46.801c-2.684,29.506-5.362,53.644-32.187,67.054
	c-26.82,13.41-48.272,40.229-80.459,77.772c-32.185,37.547-64.366,37.548-80.459,32.188c-16.091-5.363-29.501-10.729-77.774-59.003
	c-39.896-39.896-71.852-16.938-81.745-7.751c10.147-10.19,21.765-20.423,35.814-31.526
	c76.438-60.344,207.585-108.351,305.745-124.711C952.54,461.057,954.498,460.784,956.428,460.573z"/>
<path fill="#0E0E0E" d="M851.646,746.969c18.771,16.092,0,26.815-8.048,26.815c-8.046,0-26.536-14.117-21.454-26.815
	C827.508,733.559,832.87,730.877,851.646,746.969z"/>
<path fill="#0E0E0E" d="M748.269,1037.975c-5.522,13.384-13.665,26.688-22.998,37.588c-1.759,2.052-4.372,4.359-7.711,6.853
	c-42.657,31.974-205.291,96.873-253.781,85.681c-52.298-12.068-76.438-60.349-68.392-76.438
	c8.048-16.092-16.092-128.729,76.438-269.537c47.807-72.748,71.983-117.216,94.729-151.527h0.016
	c-11.987,53.706,76.342,143.432,132.663,135.386c56.319-8.046,84.479,4.021,96.551,16.092c12.069,12.069,32.188,8.046,32.188,24.139
	c0,16.096-12.068,32.188-28.16,72.413c-16.094,40.229-8.047,60.348-24.14,92.527
	C759.571,1043.323,748.269,1037.975,748.269,1037.975z"/>
<path fill="#0E0E0E" d="M649.61,1553.323c13.41-5.358,40.229,2.979,26.818,40.381c-13.407,37.4-42.91,23.989-50.958,15.942
	C625.473,1609.65,636.199,1558.692,649.61,1553.323z"/>
<path fill="#0E0E0E" d="M579.882,1497.007c2.684,2.683-2.685,16.093-10.729,18.771c-8.045,2.685-8.045,2.685-10.729-13.41
	c-2.685-16.093,10.729-10.728,10.729-10.728S577.197,1494.323,579.882,1497.007z"/>
<path fill="#0E0E0E" d="M534.287,1636.47c0,0,21.456,0,18.772,16.093c-2.685,16.091-2.685,29.501-18.772,24.138
	c-16.092-5.363-16.093-21.457-16.093-26.815C518.194,1644.516,523.56,1639.152,534.287,1636.47z"/>
<path fill="none" stroke="#000000" stroke-width="12" stroke-linecap="round" stroke-linejoin="round" stroke-miterlimit="10" d="
	M725.271,934.76c0,0,8.045,28.161,24.138,48.271c9.869,12.338,7.631,33.739-1.14,54.939c-5.524,13.384-13.665,26.688-22.998,37.588
	c-1.759,2.052-4.372,4.357-7.711,6.854c-42.657,31.972-205.291,96.873-253.781,85.679c-52.298-12.068-76.438-60.347-68.392-76.438
	c8.048-16.092-16.092-128.729,76.438-269.538c47.808-72.748,71.984-117.215,94.729-151.526
	c12.323-18.587,24.229-34.195,39.252-49.71"/>
<path fill="none" stroke="#000000" stroke-width="12" stroke-linecap="round" stroke-linejoin="round" stroke-miterlimit="10" d="
	M748.269,1037.975c0,0,11.305,5.352,27.396-26.832c16.093-32.188,8.047-52.299,24.14-92.528c16.093-40.229,28.16-56.32,28.16-72.413
	c0-16.092-20.113-12.064-32.187-24.138c-12.066-12.069-40.229-24.138-96.551-16.092s-144.651-81.685-132.662-135.387"/>
<path fill="none" stroke="#000000" stroke-width="12" stroke-linecap="round" stroke-linejoin="round" stroke-miterlimit="10" d="
	M605.802,620.877c0.056-0.068,0.12-0.14,0.176-0.202c0.389-0.442,1.406-1.569,3.021-3.044c9.896-9.188,41.854-32.146,81.743,7.751
	c48.276,48.271,61.688,53.64,77.777,59.003c16.092,5.359,48.273,5.359,80.459-32.188c32.186-37.547,53.639-64.367,80.459-77.772
	c26.818-13.41,29.501-37.548,32.184-67.054c2.685-29.502-5.188-46.801-5.188-46.801"/>
<path fill="none" stroke="#000000" stroke-width="12" stroke-linecap="round" stroke-linejoin="round" stroke-miterlimit="10" d="
	M1244.232,501.618c0,0-203.95,106.782-254.907,208.697s40.229,166.283,67.052,174.328c26.817,8.046,9.053-5.364,52.809,29.501
	c43.742,34.865,73.244,34.865,108.109,32.184c34.862-2.681,32.186-5.359,83.143,10.729c50.957,16.093,144.826,61.688,187.736,77.777
	c42.911,16.091,124.27,87.604,134.997,95.648c10.729,8.045,24.474,50.902,118.006,37.548c18.773-2.683,42.912,26.818,93.869,29.501
	c50.959,2.687,32.186-10.729,64.365,0c32.188,10.729,26.819,8.771,42.911,0.362c16.093-8.408,32.188-0.362,40.229,2.319
	c8.046,2.683,16.095-21.455,88.505-32.188c72.413-10.729,123.784-0.428,225.5-155.77"/>
<path fill="none" stroke="#000000" stroke-width="12" stroke-linecap="round" stroke-linejoin="round" stroke-miterlimit="10" d="
	M2636.95,1570.331c-42.91-2.684-53.641-45.596-61.688-67.051c-8.045-21.456-88.504-72.411-112.646-88.506
	c-24.14-16.093-8.047,10.729-29.502,0c-21.457-10.729-26.817,18.774-50.957,5.364c-24.139-13.41-37.549-24.138-59.729-5.364
	c-22.192,18.774-26.097,59.003-7.321,104.6c18.773,45.597-2.684,83.142-18.561,101.916c-15.895,18.771-57.502,48.813-57.502,48.813"
	/>
<path fill="none" stroke="#000000" stroke-width="12" stroke-linecap="round" stroke-linejoin="round" stroke-miterlimit="10" d="
	M2066.469,1715.803c-9.094-13.896-17.141-27.679-24.379-41.813c-14.91-29.031-26.473-59.521-36.918-95.271"/>
<path fill="none" stroke="#000000" stroke-width="12" stroke-linecap="round" stroke-linejoin="round" stroke-miterlimit="10" d="
	M2042.091,1673.989c0,0,42.375,12.566,63.83,12.566s26.818,10.298,18.771,23.924c-4.801,8.126-15.191,21.576-22.813,31.122"/>
<path fill="none" stroke="#000000" stroke-width="12" stroke-linecap="round" stroke-linejoin="round" stroke-miterlimit="10" d="
	M1017.941,1870.698c0,0,16.093-21.455-5.364-34.864c-21.454-13.406-42.908-26.816-10.729-48.271
	c32.185-21.455,42.911-32.184,59.004-5.365c16.092,26.82,24.139-10.725,34.863,0c10.729,10.73,21.456,59.006-29.501,77.778
	C1015.259,1878.741,1034.03,1870.698,1017.941,1870.698z"/>
<path fill="none" stroke="#000000" stroke-width="12" stroke-linecap="round" stroke-linejoin="round" stroke-miterlimit="10" d="
	M475.339,1534.086c22.166-52.646,40.065-94.66,45.674-104.944c16.093-29.503,152.857-280.709,160.904-294.119
	c8.046-13.41,35.646-52.604,35.646-52.604"/>
<path fill="none" stroke="#000000" stroke-width="12" stroke-linecap="round" stroke-linejoin="round" stroke-miterlimit="10" d="
	M474.385,1536.353c0.294-0.725,0.604-1.436,0.897-2.146"/>
<path fill="none" stroke="#000000" stroke-width="12" stroke-linecap="round" stroke-linejoin="round" stroke-miterlimit="10" d="
	M380.18,1757.012c25.601-56.98,63.656-148.124,94.03-220.244"/>
<path fill="none" stroke="#000000" stroke-width="12" stroke-linecap="round" stroke-linejoin="round" stroke-miterlimit="10" d="
	M565.171,1845.505c-56.174-78.227-76.879-146.588-89.832-193.764c-17.635-64.142-5.137-104.557-1.126-114.978
	c0.056-0.148,0.104-0.282,0.174-0.415c0.441-1.154,0.766-1.864,0.897-2.146c0.025-0.077,0.055-0.118,0.055-0.118"/>
<path fill="none" stroke="#000000" stroke-width="12" stroke-linecap="round" stroke-linejoin="round" stroke-miterlimit="10" d="
	M613.887,1905.31c-2.318-2.533-4.586-5.055-6.813-7.563"/>
<path fill="none" stroke="#000000" stroke-width="12" stroke-linecap="round" stroke-linejoin="round" stroke-miterlimit="10" d="
	M625.473,1609.65c0,0,10.729-50.958,24.14-56.323c13.41-5.358,40.229,2.979,26.819,40.38
	C663.024,1631.108,633.521,1617.697,625.473,1609.65z"/>
<path fill="none" stroke="#000000" stroke-width="12" stroke-linecap="round" stroke-linejoin="round" stroke-miterlimit="10" d="
	M534.287,1636.47c0,0,21.456,0,18.772,16.093c-2.685,16.091-2.685,29.501-18.772,24.138c-16.092-5.363-16.093-21.457-16.093-26.815
	C518.194,1644.516,523.56,1639.152,534.287,1636.47z"/>
<path fill="none" stroke="#000000" stroke-width="12" stroke-linecap="round" stroke-linejoin="round" stroke-miterlimit="10" d="
	M569.151,1491.644c0,0-13.408-5.365-10.729,10.729c2.685,16.095,2.685,16.095,10.729,13.409c8.046-2.683,13.41-16.093,10.729-18.771
	C577.197,1494.323,569.151,1491.644,569.151,1491.644z"/>
<path fill="none" stroke="#000000" stroke-width="12" stroke-linecap="round" stroke-linejoin="round" stroke-miterlimit="10" d="
	M963.401,1058.01c0,0,29.501,18.771,16.093,37.547c-13.408,18.774-18.771,26.819-29.502,10.729
	C939.264,1090.193,933.901,1060.691,963.401,1058.01z"/>
<path fill="none" stroke="#000000" stroke-width="12" stroke-linecap="round" stroke-linejoin="round" stroke-miterlimit="10" d="
	M1014.359,996.379c0,0,29.502-29.501,37.548-37.553c8.046-8.045,10.729-16.091,10.729,10.729c0,26.818,13.41,37.547-8.046,40.229
	C1033.135,1012.471,1017.042,1007.105,1014.359,996.379z"/>
<path fill="none" stroke="#000000" stroke-width="12" stroke-linecap="round" stroke-linejoin="round" stroke-miterlimit="10" d="
	M1188.676,1593.506c0,0,21.456-26.82,29.501-37.548c8.046-10.729-10.729-29.506,0-53.644c10.729-24.138,24.14-42.913,48.273-37.548
	c24.139,5.365,51.227,59.003,45.729,85.823c-5.498,26.815,7.911,37.548,13.274,53.641c5.362,16.09,18.772,45.593,0,59.001
	c-18.771,13.41-37.547,16.093-48.274-5.363c-10.729-21.451-64.366-26.814-67.05-29.5
	C1207.446,1625.689,1185.991,1612.279,1188.676,1593.506z"/>
<path fill="none" stroke="#000000" stroke-width="12" stroke-linecap="round" stroke-linejoin="round" stroke-miterlimit="10" d="
	M822.144,746.969c-5.082,12.698,13.409,26.815,21.456,26.815c8.046,0,26.816-10.728,8.046-26.815
	C832.87,730.877,827.508,733.559,822.144,746.969z"/>
<path fill="none" stroke="#000000" stroke-width="12" stroke-linecap="round" stroke-linejoin="round" stroke-miterlimit="10" d="
	M2398.257,1587.321c4.021,4.023-1.344,9.388-4.022,5.365C2391.552,1588.66,2398.257,1587.321,2398.257,1587.321z"/>
<path fill="none" stroke="#000000" stroke-width="12" stroke-linecap="round" stroke-linejoin="round" stroke-miterlimit="10" d="
	M2481.398,1590.005c-2.685-4.022,4.021-5.362,4.021-5.362C2489.442,1588.66,2484.077,1594.026,2481.398,1590.005z"/>
<path fill="none" stroke="#000000" stroke-width="12" stroke-linecap="round" stroke-linejoin="round" stroke-miterlimit="10" d="
	M2359.366,1484.065c-2.684-4.022,4.021-5.362,4.021-5.362C2367.411,1482.726,2362.049,1488.092,2359.366,1484.065z"/>
<path fill="none" stroke="#000000" stroke-width="12" stroke-linecap="round" stroke-linejoin="round" stroke-miterlimit="10" d="
	M2532.355,1514.907c-2.683-4.021,4.021-5.36,4.021-5.36C2540.4,1513.568,2535.034,1518.934,2532.355,1514.907z"/>
<path fill="none" stroke="#000000" stroke-width="12" stroke-linecap="round" stroke-linejoin="round" stroke-miterlimit="10" d="
	M2373.486,1543.042c4.963-6.704,11.063,3.396,11.063,3.396C2380.366,1555.323,2368.526,1549.743,2373.486,1543.042z"/>
<path fill="none" stroke="#000000" stroke-width="12" stroke-linecap="round" stroke-linejoin="round" stroke-miterlimit="10" d="
	M2437.856,1508.177c4.961-6.705,11.063,3.395,11.063,3.395C2444.734,1520.462,2432.893,1514.883,2437.856,1508.177z"/>
<path fill="none" stroke="#000000" stroke-width="12" stroke-linecap="round" stroke-linejoin="round" stroke-miterlimit="10" d="
	M2491.493,1541.698c4.963-6.703,11.063,3.396,11.063,3.396C2498.372,1553.986,2486.532,1548.406,2491.493,1541.698z"/>
<path fill="none" stroke="#000000" stroke-width="12" stroke-linecap="round" stroke-linejoin="round" stroke-miterlimit="10" d="
	M2480.766,1453.196c4.961-6.705,11.063,3.396,11.063,3.396C2487.647,1465.48,2475.805,1459.901,2480.766,1453.196z"/>
<path fill="none" stroke="#000000" stroke-width="12" stroke-linecap="round" stroke-linejoin="round" stroke-miterlimit="10" d="
	M2407.817,1447.781c5.768-7.792,12.848,3.94,12.848,3.94C2415.809,1462.031,2402.051,1455.557,2407.817,1447.781z"/>
<path fill="none" stroke="#000000" stroke-width="12" stroke-linecap="round" stroke-linejoin="round" stroke-miterlimit="10" d="
	M2356.484,1430.443c5.771-7.794,12.847,3.928,12.847,3.928C2364.475,1444.695,2350.731,1438.219,2356.484,1430.443z"/>
<path fill="none" stroke="#000000" stroke-width="12" stroke-linecap="round" stroke-linejoin="round" stroke-miterlimit="10" d="
	M1684.22,1404.694c0.321,1.34,21.776,91.135,146.396,179.947c11.33,8.074,23.51,16.146,36.606,24.138"/>
<path fill="none" stroke="#000000" stroke-width="12" stroke-linecap="round" stroke-linejoin="round" stroke-miterlimit="10" d="
	M2238.465,1963.402c21.965,16.291,42.079,31.982,57.876,45.875c34.063,29.97,62.33,53.721,85.662,74.384
	c22.597,20.036,40.563,37.199,54.656,54.354"/>
<path fill="none" stroke="#000000" stroke-width="12" stroke-linecap="round" stroke-linejoin="round" stroke-miterlimit="10" d="
	M1830.618,1584.642c0,0-6.306,21.455,36.605,64.366c42.912,42.911,147.509,145.317,182.373,177.708
	c22.193,20.598,88.92,65.037,151.801,109.826"/>
<path fill="none" stroke="#000000" stroke-width="12" stroke-linecap="round" stroke-linejoin="round" stroke-miterlimit="10" d="
	M2604.405,1710.479c0,0,24.5-54.324,27.182-73.097c2.683-18.775,16.093-37.549,5.363-67.056c-10.729-29.5-21.455-29.5-13.408-61.686
	c8.046-32.187,25.195-56.32-0.818-96.549c-26.001-40.23-68.912-56.323-42.094-96.556c26.818-40.229,56.32-42.909,72.414-50.957
	c16.093-8.049,35.388-15.812,52.563-40.084"/>
<path fill="none" stroke="#000000" stroke-width="12" stroke-linecap="round" stroke-linejoin="round" stroke-miterlimit="10" d="
	M605.977,620.675c1.006-1.021,1.999-2.025,3.018-3.044c10.151-10.19,21.767-20.428,35.818-31.526
	c76.438-60.344,207.584-108.351,305.744-124.711c1.982-0.335,3.94-0.604,5.873-0.818c45.339-5.278,79.427,17.246,98.724,24.956
	c20.115,8.046,189.079,16.092,189.079,16.092s122.027-56.316,178.354-48.271c56.318,8.045,128.732,0,229.312,40.229
	c100.572,40.229,108.619,56.321,217.238,76.438c108.618,20.115,172.985,132.757,189.075,181.033
	c16.095,48.271,113.935,197.205,223.063,249.86c5.979,2.897,10.596,6.692,15.288,11.358c15.647,15.517,32.33,40.579,104.503,73.581
	c93.868,42.91,139.462,75.094,179.689,91.188c14.855,5.938,65.229,24.699,124.855,47.474
	c67.563,25.802,147.014,56.764,200.234,80.106"/>
<path fill="none" stroke="#000000" stroke-width="12" stroke-linecap="round" stroke-linejoin="round" stroke-miterlimit="10" d="
	M2905.859,1304.615c0,0,0,0-0.017,0c-1.189,0.04-76.904,3.07-106.18,27.021c-29.502,24.138-69.73,61.686-21.455,118.007
	c48.272,56.322,91.692,80.714,127.646,91.307"/>
<path fill="none" stroke="#000000" stroke-width="12" stroke-linecap="round" stroke-linejoin="round" stroke-miterlimit="10" d="
	M1579.639,1523.56c-9.534-26.889-13.704-51.507-15.854-69.169"/>
<path fill="none" stroke="#000000" stroke-width="12" stroke-linecap="round" stroke-linejoin="round" stroke-miterlimit="10" d="
	M1636.094,1615.511c-8.719-8.878-16.375-18.09-23.104-27.479"/>
<path fill="none" stroke="#000000" stroke-width="12" stroke-linecap="round" stroke-linejoin="round" stroke-miterlimit="10" d="
	M1726.825,1709.241c-0.592-0.493-1.184-0.979-1.743-1.443c-26.818-22.152-14.831-32.238-64.366-70.433
	c-9.012-6.942-17.19-14.27-24.605-21.832"/>
<path fill="none" stroke="#000000" stroke-width="12" stroke-linecap="round" stroke-linejoin="round" stroke-miterlimit="10" d="
	M1867.225,1850.802c-4.479-3.021-9.228-6.212-14.311-9.604c-25.273-16.854-27.396-22.128-31.027-34.008"/>
<path fill="none" stroke="#000000" stroke-width="12" stroke-linecap="round" stroke-linejoin="round" stroke-miterlimit="10" d="
	M1828.901,1466.435c0,0,2.572,95.839,112.533,165.57c42.766,27.115,86.332,56.268,125.033,83.798
	c12.363,8.81,24.229,17.444,35.415,25.799c43.853,32.748,77.229,61.164,88.977,78.143c14.393,20.783,22.103,40.441,38.483,58.947
	c11.104,12.538,26.188,24.539,50.021,36.021c59.002,28.398,78.283-1.104,114.236,33.768c35.95,34.865,34.446,88.504,55.313,109.959
	c20.863,21.458,43.125,50.958,30.652,83.144c-12.471,32.188,3.621,59.008-23.197,67.053c-23.764,7.133-33.242,26.887-75.938,3.311"
	/>
<path fill="none" stroke="#000000" stroke-width="12" stroke-linecap="round" stroke-linejoin="round" stroke-miterlimit="10" d="
	M1461.081,1439.723c0,0,0,0,0.014,0.011c0.777,1.622,60.332,124.484,86.979,144.908c12.337,9.467,24.678,15.702,34.396,20.717
	c11.427,5.916,19.243,10.137,19.243,15.932c0,10.729,40.229,34.865,40.229,40.23c0,5.362,2.685,18.771,5.363,26.818
	c2.684,8.047,28.24,3.97,36.918,27.464c8.676,23.494,14.041,42.013,35.494,48.839c21.455,6.84,37.549,28.295,42.912,52.433
	c5.361,24.138,21.454,26.818,37.549,32.188c16.092,5.357,45.594,26.815,48.271,34.861c2.683,8.049,5.362,16.097,24.14,18.771
	c14.375,2.053,28.752-0.604,35.896,6.449c2.188,2.174,3.7,5.244,4.331,9.644c2.686,18.772-8.045,29.503,0,61.688
	c8.047,32.183,6.25,37.156,0.443,58.801"/>
<path fill="none" stroke="#000000" stroke-width="12" stroke-linecap="round" stroke-linejoin="round" stroke-miterlimit="10" d="
	M1600.023,1389.447c0,0-11.428,7.858-23.175,21.779c0,0.012-0.015,0.012-0.015,0.024c-5.322,6.313-10.714,13.861-15.126,22.484
	c-5.914,11.547-10.101,25.021-10.068,40.027c0.105,51.038,8.021,86.172,30.828,131.591"/>
<path fill="none" stroke="#000000" stroke-width="12" stroke-linecap="round" stroke-linejoin="round" stroke-miterlimit="10" d="
	M1867.225,1850.802c0,0,50.957-22.479,59.004-24.085c8.045-1.609,26.818-1.609,26.818,38.621c0,30.561,1.543,48.738-5.938,51.009
	c-2.373,0.712-5.646-0.161-10.151-2.735c-12.025-6.877-35.063-19.063-51.466-34.409
	C1876.276,1870.593,1869.155,1861.005,1867.225,1850.802z"/>
<path fill="none" stroke="#000000" stroke-width="12" stroke-linecap="round" stroke-linejoin="round" stroke-miterlimit="10" d="
	M1821.887,1807.191c-2.613,1.487-6.746,0.775-13.666-3.54c-21.455-13.41-59.003-54.419-61.687-72.804c0,0,2.589-0.039,6.854-0.066
	c10.139-0.095,29.798-0.199,46.786,0.066c24.138,0.391,32.331-9.709,38.956,8.744c6.639,18.464-2.87,29.189-8.851,42.602
	C1826.232,1791.282,1827.398,1804.065,1821.887,1807.191z"/>
<path fill="none" stroke="#000000" stroke-width="12" stroke-linecap="round" stroke-linejoin="round" stroke-miterlimit="10" d="
	M1612.987,1588.031c-13.063,7.321-34.313-33.674-37.156-59.729c0,0,1.382-2.076,3.81-4.746c7.095-7.807,23.063-20.613,39.063-0.617
	C1640.154,1549.761,1626.064,1580.713,1612.987,1588.031z"/>
<path fill="none" stroke="#000000" stroke-width="12" stroke-linecap="round" stroke-linejoin="round" stroke-miterlimit="10" d="
	M1726.825,1709.241c-3.555-0.924-7.817-3.656-14.258-9.293c-21.453-18.771-34.863-26.815-48.273-42.906
	c-13.407-16.097-26.873-18.668-28.188-41.509"/>
<path fill="none" stroke="#000000" stroke-width="12" stroke-linecap="round" stroke-linejoin="round" stroke-miterlimit="10" d="
	M1636.094,1615.511c-0.296-0.657-8.934-19.994,14.791-21.402c24.138-1.435,24.138,14.682,42.911,14.671
	c18.771-0.014,26.816-18.788,37.547-8.061c10.729,10.729,10.729,26.024,26.819,46.547c16.092,20.504,26.818,47.324,0,52.687
	c-18.746,3.754-23.078,11.439-31.313,9.311"/>
<path fill="none" stroke="#000000" stroke-width="12" stroke-linecap="round" stroke-linejoin="round" stroke-miterlimit="10" d="
	M1636.108,1615.533c-0.014,0-0.023-0.013-0.014-0.021"/>
<g id="XMLID_1_">
	<g>
		<path d="M1977.35,795.903c27.021,53.41,15.03,126.354,15.03,126.354s-29.87,12.438-101.301-23.145l0.011-0.01
			C1848.569,776.964,1977.35,795.903,1977.35,795.903z"/>
	</g>
	<g>
		<path fill="none" stroke="#000000" stroke-width="12" stroke-linecap="round" stroke-linejoin="round" stroke-miterlimit="10" d="
			M1977.35,795.903c27.021,53.41,15.03,126.354,15.03,126.354s-29.87,12.438-101.301-23.145c-2.723-1.37-5.513-2.79-8.354-4.29
			c-80.75-42.55-83.449-93.26-83.449-93.26s91.183-85.83,150.188-40.229C1961.641,770.74,1970.68,782.733,1977.35,795.903z"/>
		<path fill="none" stroke="#000000" stroke-width="12" stroke-linecap="round" stroke-linejoin="round" stroke-miterlimit="10" d="
			M1977.35,795.903c0,0-128.778-18.938-86.26,103.2"/>
	</g>
</g>
<path fill="#0E0E0E" d="M1494.43,2065.167c-5.362-9.371-18.771,9.358-26.817-17.459c-4.978-16.603-8.933-19.849-16.237-22.284
	c-4.492-1.49-10.261-2.688-18.315-6.491c-21.146-9.989-32.492-6.088-43.222,12.688c-10.729,18.772-26.818,21.455-64.368,26.817
	c-37.547,5.365-18.771,24.138-10.729,31.354c5.646,5.055,32.372,16.273,47.818,22.541c6.571,2.65,11.104,4.412,11.104,4.412
	c47.498-4.979,96.657-15.998,125.529-23.188v-0.013C1498.589,2080.391,1499.797,2074.529,1494.43,2065.167z"/>
<path fill="#0E0E0E" d="M1358.216,2195.219c13.984-69.73,79.896-26.82,74.531-10.729c-5.363,16.094-13.41,26.82-13.41,40.23
	c0,13.408,2.685,26.818-3.646,34.865c-6.331,8.045-36.583,19.512-36.583,19.512c-12.067-1.462-21.27-14.148-2.684-40.969
	C1382.676,2229.104,1354.728,2212.65,1358.216,2195.219z"/>
<path fill="#070707" d="M1100.626,2110.308c3.474,0.521,6.625,1.287,9.479,2.266c-12.873-1.021-26.016-2.213-39.331-3.58
	C1077.975,2108.067,1087.592,2108.35,1100.626,2110.308z"/>
<path fill="#070707" d="M1094.109,2276.469c-0.065,0.056-0.121,0.079-0.188,0.121c-18.772,10.728-39.331,8.046-58.104,2.683
	c-4.157-1.193-7.015-3.809-8.933-7.281c12.819,0.951,23.198,1.568,30.509,1.974
	C1068.654,2274.591,1080.967,2275.799,1094.109,2276.469z"/>
<path fill="#070707" d="M957.06,2088.557c-0.064,1.188-0.146,2.452-0.271,3.809c-2.104-0.403-4.21-0.819-6.313-1.229
	C952.729,2090.139,954.927,2089.281,957.06,2088.557z"/>
<path fill="#CBA000" d="M947.443,2263.874l-4.304,47.754C940.968,2285.883,947.443,2263.874,947.443,2263.874z"/>
<path fill="#070707" d="M947.443,2263.874c0,0-6.479,22.009-4.304,47.754c-6.761-2.552-13.854-4.438-21.229-5.617
	c-1.517-0.242-3.044-0.456-4.562-0.63v-37.951c8.006,0.483,15.14-0.896,18.234-5.136
	C939.598,2262.844,943.555,2263.383,947.443,2263.874z"/>
<path fill="#0E0E0E" d="M930.333,1999.436c11.762,7.052,13.479,12.817,13.599,65.276c-20.207-9.319-76.262-30.938-124.457-44.707
	c-37.387-10.68-46.41-0.1-50.596,11.366c-22.126-11.438-42.671-24.391-61.042-39.021c-37.077-29.542-68.017-58.71-93.948-87.044
	c0,0,61.657-5.107,83.112-58.748c21.456-53.642,64.367-21.455,83.145,8.046c18.771,29.502,50.957,42.912,75.095,42.912
	c24.141,0,48.275,42.911,45.595,77.775C900.831,1975.299,916.925,1991.389,930.333,1999.436z"/>
<path fill="#070707" d="M917.354,2259.639c6.182,0.938,12.271,1.823,18.234,2.653c-3.1,4.234-10.229,5.621-18.234,5.137V2259.639
	L917.354,2259.639z"/>
<path fill="#CBA000" d="M917.354,2267.429v37.951c0,0-2.736-22.265-1.248-38.045
	C916.522,2267.376,916.938,2267.404,917.354,2267.429z"/>
<path fill="#070707" d="M917.354,2259.639v7.79c-0.416-0.024-0.832-0.053-1.248-0.094
	C916.374,2264.507,916.776,2261.892,917.354,2259.639z"/>
<path fill="#070707" d="M917.354,2259.639c-0.578,2.253-0.979,4.866-1.248,7.696c-5.954-0.496-12.284-1.982-17.729-4.074
	c2.604-1.73,4.922-3.661,6.961-5.526C909.387,2258.392,913.398,2259.021,917.354,2259.639z"/>
<path fill="#FA67AB" d="M768.88,2031.376c-2.133,5.807-3.02,11.842-5.729,15.445c-8.046,10.729-42.912,152.872-42.912,152.872
	s-1.231,3.718-1.445,8.558c-7.967-3.262-15.813-6.69-23.47-10.283c-69.071-32.428-136.913-99.18-191.185-166.522
	c6.649-8.208,10.605-21.471,12.714-24.62c4.021-6.035,28.158-52.301,36.206-74.426c8.046-22.125,30.023-34.193,44.253-34.193
	c3.779,0,7.04-0.118,9.762-0.457c2.229,2.512,4.493,5.028,6.813,7.563c25.937,28.334,56.872,57.502,93.949,87.044
	C726.208,2006.985,746.753,2019.938,768.88,2031.376z"/>
<path fill="#070707" d="M609.384,1866.021c-11.938-23.883-36.902-21.725-44.213-20.517c-1.313,0.214-2.053,0.396-2.053,0.396
	c-46.265,4.022-74.426,54.313-82.471,72.413c-6.519,14.657-16.991,33.271-21.806,52.633c-1.127,4.563-1.943,9.146-2.334,13.745
	c-2.013,24.142-0.296,20.115,21.817,44.857c11.313,12.672,19.696,9.396,25.813,1.891c6.65-8.208,10.606-21.471,12.715-24.62
	c4.021-6.035,28.158-52.301,36.206-74.426c8.046-22.125,30.022-34.193,44.253-34.193c3.779,0,7.04-0.119,9.763-0.453
	C620.284,1896.124,621.05,1889.365,609.384,1866.021z"/>
<path fill="none" stroke="#000000" stroke-width="12" stroke-linecap="round" stroke-linejoin="round" stroke-miterlimit="10" d="
	M1358.216,2195.219c-3.487,17.433,24.46,33.887,18.21,42.909c-18.587,26.817-9.388,39.509,2.684,40.971
	c0,0,30.251-11.469,36.583-19.514c6.327-8.05,3.646-21.457,3.646-34.863c0-13.41,8.046-24.139,13.409-40.23
	C1438.109,2168.397,1372.2,2125.487,1358.216,2195.219z"/>
<path fill="none" stroke="#000000" stroke-width="12" stroke-linecap="round" stroke-linejoin="round" stroke-miterlimit="10" d="
	M1451.372,2025.424c18.692-18.43,30.358-29.999,30.358-29.999"/>
<path fill="none" stroke="#000000" stroke-width="12" stroke-linecap="round" stroke-linejoin="round" stroke-miterlimit="10" d="
	M1094.109,2276.469c43.206,2.278,95.25-1.045,147.439-49.001c32.571-29.932,74.88-70.414,114.882-109.182
	c2.053-2,4.092-3.974,6.129-5.955"/>
<path fill="none" stroke="#000000" stroke-width="12" stroke-linecap="round" stroke-linejoin="round" stroke-miterlimit="10" d="
	M935.591,2262.292c4.011,0.553,7.966,1.091,11.854,1.582c31.1,4.054,58.521,6.549,79.438,8.111"/>
<path fill="none" stroke="#000000" stroke-width="12" stroke-linecap="round" stroke-linejoin="round" stroke-miterlimit="10" d="
	M504.143,2031.444c54.271,67.345,122.107,134.097,191.184,166.522c7.656,3.593,15.504,7.021,23.47,10.283"/>
<path fill="none" stroke="#000000" stroke-width="12" stroke-linecap="round" stroke-linejoin="round" stroke-miterlimit="10" d="
	M380.18,1757.012c-0.041,0.079-0.079,0.174-0.105,0.239c-1.461,3.34-16.452,41.109,19.353,115.3
	c11.828,24.481,32.521,59.713,59.42,98.396"/>
<path fill="none" stroke="#000000" stroke-width="12" stroke-linecap="round" stroke-linejoin="round" stroke-miterlimit="10" d="
	M1070.775,2108.99c-25.235-2.611-51.132-5.913-77.12-10.099"/>
<path fill="none" stroke="#000000" stroke-width="12" stroke-linecap="round" stroke-linejoin="round" stroke-miterlimit="10" d="
	M1373.663,2116.74c-5.779,0.604-11.532,1.126-17.229,1.543c-11.547,0.817-22.838,1.206-33.523,1.005
	c-34.396-0.644-116.368,0.929-212.802-6.718"/>
<path fill="none" stroke="#000000" stroke-width="12" stroke-linecap="round" stroke-linejoin="round" stroke-miterlimit="10" d="
	M1524.792,2086.813c0,0-9.75,2.79-25.602,6.744"/>
<path fill="none" stroke="#000000" stroke-width="12" stroke-linecap="round" stroke-linejoin="round" stroke-miterlimit="10" d="
	M947.443,2263.874c0,0-6.479,22.009-4.304,47.754"/>
<path fill="none" stroke="#000000" stroke-width="12" stroke-linecap="round" stroke-linejoin="round" stroke-miterlimit="10" d="
	M917.354,2305.381c0,0-2.736-22.261-1.248-38.045"/>
<path fill="none" stroke="#000000" stroke-width="12" stroke-linecap="round" stroke-linejoin="round" stroke-miterlimit="10" d="
	M943.93,2064.712c-0.118-52.459-1.837-58.229-13.599-65.275c-13.409-8.047-29.502-24.139-29.502-24.139
	c2.685-34.866-21.455-77.777-45.595-77.777c-24.138,0-56.318-13.41-75.095-42.912c-18.774-29.501-61.688-61.684-83.145-8.046
	c-21.456,53.641-83.111,58.748-83.111,58.748c25.935,28.334,56.87,57.502,93.946,87.044c18.372,14.632,38.916,27.585,61.043,39.021"
	/>
<path fill="none" stroke="#000000" stroke-width="12" stroke-linecap="round" stroke-linejoin="round" stroke-miterlimit="10" d="
	M1499.192,2093.558v-0.013c-0.604-13.154,0.604-19.021-4.762-28.377c-5.363-9.372-18.771,9.36-26.818-17.459
	c-4.977-16.604-8.932-19.851-16.238-22.286c-4.491-1.49-10.26-2.684-18.315-6.491c-21.146-9.989-32.491-6.088-43.221,12.688
	c-10.729,18.771-26.818,21.455-64.368,26.813c-37.547,5.365-18.771,24.143-10.729,31.354c5.646,5.054,32.372,16.272,47.819,22.54
	c6.57,2.65,11.104,4.412,11.104,4.412C1421.161,2111.769,1470.318,2100.745,1499.192,2093.558z"/>
<path fill="#C2AF8C" d="M2181.901,2095.104c-21.46-2.69-24.141-8.051-32.182-16.101c-8.051-8.041-5.408-8.899-21.471-13.845
	c-7.771-2.38-10.318,1.19-11.699,3.765c0,0-29.908-38.189-57.379-38.189c-6.069,0-11.199-1.57-15.541-4.08
	c-1.771-1.51-3.539-3.061-5.313-4.609c-0.89-0.775-1.77-1.561-2.646-2.351c-0.898-0.78-1.791-1.58-2.67-2.37
	c-7.779-9.51-11.67-21.105-14.699-24.14c-0.592-0.591-1.271-1.53-2.051-2.75c0,0,95.027-17.82,132.58,6.319
	c2.197,1.405,4.471,2.905,6.813,4.485c-13.021,15.765-22.16,25.015-22.16,25.015c43.148,51.945,84.604,37.355,93.88,33.141
	c13.144,13.1,22.38,24.909,23.394,32.47c2.271,17.12,19.949,26.979,38.341,39.58
	C2233.232,2127.281,2203.35,2097.781,2181.901,2095.104z"/>
<path fill="#666666" d="M2104.982,2073.613c4.011-5.17,6.3-8.449,6.3-8.449c3.7,8.109,3.813,6.514,5.271,3.764
	c1.381-2.569,3.931-6.145,11.699-3.764c16.062,4.939,13.42,5.804,21.471,13.844c8.041,8.05,10.721,13.406,32.181,16.101
	c21.45,2.685,51.33,32.185,107.188,36.345c3.312,2.26,6.646,4.615,9.932,7.129c19.83,15.181,53.318,46.511,62.539,61.58
	c0.761,1.221,1.353,2.341,1.761,3.341c-11.021-3.47-23.92-5.89-32.106-9.16c-13.409-5.358-26.819-5.358-37.552-2.68
	c-10.729,2.68-37.552,10.729-45.603,5.36c-8.039-5.36,0,0-32.182-10.73c-32.18-10.72-37.551-8.04-45.59-21.45
	c-8.053-13.409-16.092-13.409-21.461-10.729c-5.357,2.68-24.144-2.681-37.552-11.57c-13.188-8.75-50.853-0.28-52.079,0
	c-21.279-13.32-43.029-27.75-65.132-43.21c0.449-0.12,22.813-6.41,41.739,0.01c19.147,6.49,24.521,22.59,43.289,3.813
	C2090.12,2092.122,2099.292,2080.949,2104.982,2073.613z"/>
<g>
	<path fill="none" stroke="#000000" stroke-width="12" stroke-linecap="round" stroke-linejoin="round" stroke-miterlimit="10" d="
		M2033.001,2017.323c-7.778-9.51-11.67-21.105-14.698-24.14c-0.591-0.591-1.271-1.53-2.052-2.75
		c-6.34-9.92-19.069-38.36-38.182-45.521c-11.641-4.355-21.431-16.355-30.959-28.565"/>
	<path fill="none" stroke="#000000" stroke-width="12" stroke-linecap="round" stroke-linejoin="round" stroke-miterlimit="10" d="
		M2116.552,2068.924c0,0-29.909-38.189-57.38-38.189c-6.07,0-11.199-1.565-15.54-4.08"/>
	<path fill="none" stroke="#000000" stroke-width="12" stroke-linecap="round" stroke-linejoin="round" stroke-miterlimit="10" d="
		M2289.092,2131.443c-55.858-4.16-85.74-33.66-107.188-36.34c-21.46-2.689-24.142-8.051-32.181-16.102
		c-8.051-8.039-5.409-8.898-21.471-13.844c-7.771-2.38-10.32,1.19-11.699,3.764c-1.461,2.75-1.569,4.352-5.271-3.764
		c0,0-2.291,3.28-6.303,8.45c-5.688,7.34-14.856,18.51-25.88,29.53c-18.771,18.775-24.142,2.68-43.29-3.813
		c-18.932-6.42-41.29-0.13-41.738-0.01c-0.021,0.01-0.021,0.01-0.021,0.01"/>
	<path fill="none" stroke="#000000" stroke-width="12" stroke-linecap="round" stroke-linejoin="round" stroke-miterlimit="10" d="
		M2104.982,2073.613c-3.771-2.561-7.552-5.188-11.341-7.88c-1.262-0.896-2.541-1.8-3.801-2.71c-1.271-0.91-2.552-1.84-3.813-2.76
		c-1.271-0.931-2.551-1.87-3.818-2.82c-2.472-1.82-4.938-3.67-7.409-5.561c-1.359-1.04-2.729-2.08-4.08-3.145
		c-1.289-0.986-2.58-2-3.852-3c-7.71-6.05-15.46-12.409-23.239-19.09c-1.771-1.51-3.539-3.061-5.313-4.605
		c-0.892-0.779-1.771-1.563-2.646-2.354c-0.899-0.779-1.791-1.579-2.67-2.37c-0.121-0.09-0.263-0.209-0.382-0.316
		c-1.104-0.979-2.198-1.959-3.302-2.949c-1.448-1.301-2.892-2.603-4.368-3.92c-28.948-25.96-63.108-56.762-99.421-89.83
		c-1.409-1.301-2.829-2.59-4.25-3.88c-1.42-1.302-2.84-2.604-4.271-3.88c-1.42-1.319-2.852-2.62-4.29-3.922
		c-0.642-0.603-1.301-1.188-1.938-1.778c-9.09-8.313-18.277-16.71-27.527-25.199c-4.684-4.29-9.393-8.608-14.091-12.938
		c-2.938-2.712-5.882-5.41-8.829-8.108c-6.854-6.318-13.723-12.659-20.57-19.011c-1.979-1.829-3.949-3.659-5.93-5.479
		c-7.791-7.229-15.57-14.438-23.291-21.646c-4.104-3.82-8.188-7.645-12.262-11.435c-1.313-1.238-2.618-2.46-3.92-3.681
		c-2.897-2.71-5.777-5.409-8.67-8.109c-7.2-6.738-14.33-13.46-21.37-20.101c-2.83-2.683-5.643-5.34-8.421-7.973
		c-4.479-4.25-8.922-8.459-13.312-12.631c-2.45-2.328-4.892-4.671-7.319-6.971c-16.591-15.84-32.461-31.148-47.317-45.699
		c-0.989-0.971-1.974-1.931-2.948-2.891c-21.143-20.739-40.12-39.841-55.961-56.438c-0.421-0.433-0.829-0.858-1.239-1.291
		c-18.16-19.09-32.08-34.817-40.271-45.907c-0.398-0.553-0.79-1.093-1.16-1.609c-0.579-0.79-1.108-1.568-1.608-2.313
		c-0.2-0.287-0.392-0.562-0.58-0.84c-0.438-0.671-0.84-1.317-1.229-1.932c-15.459-24.989-22.479-58.41-22.479-91.391
		c0-1.644,0.021-3.271,0.063-4.91c0.021-1.569,0.08-3.119,0.148-4.688c0.021-0.646,0.052-1.291,0.092-1.931
		c0.04-1.021,0.107-2.03,0.158-3.051c0.119-1.699,0.239-3.399,0.393-5.091c0.13-1.644,0.289-3.264,0.471-4.869
		c0.01-0.131,0.029-0.271,0.04-0.395c0.13-1.26,0.278-2.521,0.438-3.771c0.04-0.399,0.101-0.771,0.147-1.159
		c0.17-1.37,0.358-2.71,0.58-4.07c0.01-0.14,0.04-0.31,0.062-0.47c0.221-1.399,0.448-2.813,0.688-4.21
		c0.01-0.08,0.021-0.17,0.04-0.25v-0.021c0.26-1.553,0.55-3.079,0.858-4.608c0.107-0.604,0.238-1.2,0.357-1.813
		c0.24-1.182,0.49-2.352,0.763-3.5c0.271-1.25,0.562-2.487,0.868-3.711c0.142-0.551,0.271-1.117,0.421-1.646
		c0.938-3.689,1.971-7.271,3.102-10.762c0.221-0.688,0.449-1.393,0.688-2.078c0.593-1.739,1.2-3.439,1.83-5.131
		c0.438-1.172,0.9-2.319,1.353-3.449c0.562-1.37,1.131-2.721,1.721-4.029c0.359-0.813,0.721-1.601,1.08-2.391"/>
	<path fill="none" stroke="#000000" stroke-width="12" stroke-linecap="round" stroke-linejoin="round" stroke-miterlimit="10" d="
		M2059.171,2142.531c0,0,0.021,0,0.029,0c1.229-0.277,38.892-8.75,52.08,0c13.408,8.895,32.188,14.25,37.551,11.57
		c5.371-2.681,13.408-2.681,21.461,10.729c8.039,13.409,13.408,10.729,45.591,21.449c32.181,10.73,24.141,5.37,32.181,10.73
		c8.05,5.367,34.87-2.682,45.604-5.36c10.729-2.68,24.141-2.68,37.551,2.68c8.188,3.271,21.091,5.69,32.106,9.16
		c2.521,0.79,4.938,1.63,7.183,2.562c0.012,0,0.021,0.014,0.039,0.014c4.012,1.67,7.448,3.58,9.893,5.88
		c-17.381,26.526-41.063,38.76-41.063,38.76"/>
	<path fill="none" stroke="#000000" stroke-width="12" stroke-linecap="round" stroke-linejoin="round" stroke-miterlimit="10" d="
		M2227.359,2059.394c13.144,13.1,22.38,24.909,23.394,32.47c2.271,17.12,19.949,26.979,38.341,39.58
		c3.311,2.261,6.647,4.62,9.931,7.13c19.83,15.18,53.319,46.51,62.54,61.58c0.76,1.221,1.353,2.34,1.76,3.34"/>
	<path fill="none" stroke="#000000" stroke-width="12" stroke-linecap="round" stroke-linejoin="round" stroke-miterlimit="10" d="
		M2016.251,1990.434c0,0,95.029-17.82,132.58,6.319c2.199,1.405,4.472,2.905,6.813,4.485"/>
	<path fill="none" stroke="#000000" stroke-width="12" stroke-linecap="round" stroke-linejoin="round" stroke-miterlimit="10" d="
		M2227.359,2059.394c-9.278,4.22-50.729,18.811-93.88-33.141c0,0,9.143-9.25,22.16-25.015c13.129-15.89,30.188-38.39,45.76-64.696
		c7.604-12.842,14.842-26.579,21.092-40.898c2.432-5.551,4.711-11.189,6.801-16.9c0,0,1.841,11.015,3.938,27.804
		c1.932,15.438,4.08,35.75,5.229,56.856c1.959,36.21,0.972,74.75-9.17,95.03C2229.292,2058.434,2228.62,2058.823,2227.359,2059.394z
		"/>
	<path fill="none" stroke="#000000" stroke-width="12" stroke-linecap="round" stroke-linejoin="round" stroke-miterlimit="10" d="
		M2905.859,1304.613c26.96,11.83,47.2,21.7,55.729,27.96c40.229,29.511,53.642,74.2-16.092,157.34
		c-14.068,16.78-26.841,33.98-39.643,51.04c-50.711,67.46-102.271,132.46-239.291,158.16l-62.17,11.37l-104.107,19.021
		c0,0-18.771,5.368-56.318-5.359c-14.407-4.13-103.891-23.641-204.92-54.04c-44.5-13.391-91.237-28.87-134.789-46.09
		c-35.67-14.11-67.881-28.841-99.092-45.301c-27.682-14.595-54.58-30.54-82.393-48.58c-29.312-19.029-58.631-41.92-93.881-63.699
		c-15.379-9.521-31.897-18.813-50.062-27.479c-2.271-1.08-4.592-2.16-6.959-3.24c-1.58-0.729-3.188-1.449-4.813-2.16
		c-0.818-0.359-1.642-0.71-2.461-1.069c-0.829-0.37-1.647-0.729-2.488-1.08c-2.512-1.065-5.067-2.14-7.67-3.195
		c-1.729-0.71-3.489-1.425-5.263-2.12c-2.67-1.055-5.357-2.09-8.107-3.145c-0.869-0.33-1.75-0.66-2.63-0.985
		c-0.239-0.08-0.5-0.175-0.739-0.271c-1.648-0.601-3.301-1.221-4.972-1.811c-0.119-0.04-0.239-0.093-0.356-0.134
		c-1.763-0.631-3.53-1.261-5.32-1.881c-2.063-0.72-4.147-1.438-6.238-2.146c-1.642-0.552-3.29-1.104-4.948-1.63
		c-5.041-1.649-10.171-3.264-15.369-4.805c-1.013-0.3-2.013-0.605-3.029-0.89c-1.021-0.312-2.029-0.601-3.063-0.88
		c-3.357-0.98-6.771-1.921-10.188-2.82c0-0.01,0-0.01,0-0.01c-0.04-0.021-0.08-0.021-0.119-0.03
		c-0.188-0.05-0.393-0.105-0.591-0.146c-1.21-0.33-2.433-0.649-3.648-0.96c-0.29-0.08-0.591-0.149-0.88-0.229
		c-0.961-0.238-1.892-0.479-2.852-0.721c-3.21-0.817-6.433-1.601-9.66-2.351c-0.738-0.184-1.479-0.354-2.221-0.513
		c-3.5-0.812-7.013-1.578-10.521-2.312c-3.882-0.802-7.771-1.569-11.66-2.279c-2.011-0.37-4.029-0.721-6.052-1.067
		c-1.459-0.25-2.92-0.5-4.368-0.723c-0.552-0.101-1.109-0.188-1.671-0.271c-2.011-0.313-4.011-0.62-6.011-0.91
		c-0.03,0-0.04,0-0.052,0c-2-0.29-4-0.569-6-0.819c-1.488-0.188-2.961-0.38-4.438-0.551c-4.438-0.521-8.852-0.97-13.229-1.34
		c-0.067-0.021-0.147-0.021-0.229-0.021c-1.313-0.118-2.64-0.22-3.959-0.315c-1.699-0.12-3.392-0.224-5.063-0.32
		c-58.391-3.34-109.868,8.921-129.909,50.933c-13.239,27.729-12.789,68.433,8.438,126.159c0,0-13.41,43.813,230.648,285.188
		c71.078,70.312,143.17,133.8,213.078,188.391c27.33,21.369,54.319,41.341,80.813,59.854c22.104,15.461,43.854,29.891,65.133,43.211
		c111.771,70,210.479,109.52,280.17,108.17c0,0-171.648,78.68-393.354-25.933c-138.642-65.433-285.289-181.448-417.188-219.291
		c-2.541-0.729-5.063-1.421-7.58-2.091h-0.011c-13.351-3.54-26.511-6.238-39.511-7.971c-45.352-6.063-88.489-0.352-128.42,22.841"/>
</g>
<path fill="none" stroke="#000000" stroke-width="12" stroke-linecap="round" stroke-linejoin="round" stroke-miterlimit="10" d="
	M458.844,1970.948c4.813-19.358,15.287-37.976,21.806-52.633c8.045-18.104,36.207-68.391,82.472-72.413c0,0,0.735-0.188,2.052-0.396
	c7.311-1.209,32.275-3.366,44.213,20.517c11.667,23.346,10.901,30.104-2.308,31.728c-2.724,0.338-5.979,0.457-9.764,0.457
	c-14.229,0-36.207,12.068-44.253,34.193c-8.047,22.125-32.186,68.391-36.206,74.426c-2.104,3.149-6.063,16.412-12.713,24.62
	c-6.115,7.509-14.496,10.781-25.813-1.891c-22.114-24.742-23.83-20.72-21.818-44.857
	C456.9,1980.097,457.718,1975.512,458.844,1970.948z"/>
<path fill="#070707" d="M1027.246,2228.554c2.683-10.729-24.688-16.604-32.562-19.014c-17.435-5.364-30.844-10.729-41.854-1.521
	c-17.15,14.362-10.891,39.063-16.253,52.472c-0.256,0.646-0.59,1.248-0.993,1.801c-3.099,4.234-10.229,5.621-18.235,5.137
	c-0.416-0.024-0.832-0.053-1.248-0.094c-5.952-0.496-12.282-1.982-17.729-4.074c2.604-1.73,4.924-3.661,6.962-5.526
	c3.069-2.788,5.472-5.444,7.104-7.079c5.363-5.365,21.455-38.435,34.864-102.803c5.552-26.67,8.502-43.98,9.479-55.487
	c0.121-1.354,0.202-2.616,0.271-3.809c5.484-1.854,10.525-2.777,14.832-2.388c13.073,1.18,19.216,6.598,21.766,12.726
	c3.206,7.699,0.735,16.521-0.751,19.483c-2.684,5.338,0,34.84,26.818,29.475c26.819-5.362,21.456-5.362,26.819-18.771
	c3.739-9.355,7.575-17.955,24.229-20.088c7.201-0.926,16.815-0.644,29.852,1.314c3.476,0.521,6.625,1.287,9.479,2.266
	c19.244,6.521,25.036,22.265,22.704,33.939c-2.669,13.37-19.995,118.652-38.701,129.955c-0.066,0.056-0.121,0.079-0.188,0.121
	c-18.771,10.729-39.331,8.046-58.104,2.684c-4.157-1.19-7.014-3.81-8.932-7.278
	C1020.139,2259.76,1025.153,2236.906,1027.246,2228.554z"/>
<path fill="#070707" d="M950.891,2068.28c4.316,2.884,6.84,7.054,6.168,20.276c-0.065,1.188-0.146,2.453-0.27,3.809
	c-0.979,11.506-3.931,28.817-9.479,55.487c-13.409,64.368-29.502,97.438-34.865,102.803c-1.637,1.636-4.034,4.291-7.104,7.079
	c-2.039,1.865-4.356,3.796-6.961,5.526c-6.313,4.263-14.254,7.479-23.479,6.167c-18.771-2.688-119.79-34.865-141.247-40.229
	c-13.033-3.26-15.181-13.45-14.854-20.948c0.214-4.84,1.446-8.554,1.446-8.554s34.865-142.145,42.911-152.872
	c2.709-3.604,3.597-9.644,5.729-15.444c4.186-11.47,13.209-22.049,50.598-11.371c48.192,13.771,104.248,35.388,124.457,44.707
	C947.338,2066.281,949.723,2067.501,950.891,2068.28z"/>
<path fill="none" stroke="#000000" stroke-width="12" stroke-linecap="round" stroke-linejoin="round" stroke-miterlimit="10" d="
	M957.06,2088.557c5.483-1.854,10.525-2.777,14.832-2.388c13.072,1.18,19.216,6.598,21.765,12.726
	c3.205,7.699,0.735,16.521-0.752,19.483c-2.683,5.338,0,34.84,26.819,29.475c26.819-5.362,21.457-5.362,26.819-18.771
	c3.739-9.355,7.576-17.955,24.229-20.088c7.2-0.926,16.814-0.644,29.852,1.314c3.476,0.521,6.625,1.287,9.479,2.266
	c19.244,6.521,25.035,22.265,22.703,33.939c-2.668,13.37-19.994,118.652-38.7,129.955c-0.066,0.056-0.121,0.079-0.188,0.121
	c-18.772,10.729-39.331,8.046-58.104,2.684c-4.158-1.19-7.014-3.81-8.932-7.278c-6.745-12.229-1.729-35.079,0.358-43.438
	c2.685-10.728-24.688-16.602-32.559-19.013c-17.436-5.365-30.844-10.729-41.854-1.519c-17.149,14.359-10.891,39.063-16.255,52.474
	c-0.254,0.645-0.589,1.248-0.99,1.797c-3.1,4.238-10.229,5.62-18.234,5.136c-0.416-0.021-0.832-0.053-1.248-0.093
	c-5.954-0.496-12.284-1.981-17.729-4.075"/>
<path fill="none" stroke="#000000" stroke-width="12" stroke-linecap="round" stroke-linejoin="round" stroke-miterlimit="10" d="
	M898.378,2263.261c-6.313,4.263-14.255,7.479-23.479,6.167c-18.771-2.688-119.79-34.865-141.247-40.229
	c-13.034-3.26-15.181-13.451-14.854-20.947c0.214-4.841,1.445-8.555,1.445-8.555s34.866-142.145,42.912-152.872
	c2.709-3.604,3.597-9.644,5.729-15.444c4.186-11.471,13.209-22.051,50.598-11.371c48.192,13.771,104.248,35.388,124.457,44.707
	c3.404,1.564,5.791,2.79,6.959,3.564c4.317,2.885,6.84,7.055,6.168,20.275c-0.065,1.188-0.146,2.453-0.269,3.809
	c-0.979,11.508-3.932,28.817-9.479,55.487c-13.409,64.368-29.501,97.438-34.865,102.804c-1.636,1.637-4.034,4.291-7.104,7.078
	C903.301,2259.6,900.981,2261.53,898.378,2263.261z"/>
<g id="Layer_6_2_">
	<path fill="#FA67AB" d="M951.109,2294.329c77.082,20.254,131.933,96.582,127.063,184.299
		c-5.521,99.415-85.59,175.79-178.854,170.639c-93.255-5.196-164.433-89.949-158.909-189.352
		c5.371-96.991,81.75-172.069,172.092-170.828c2.245,0.021,4.512,0.099,6.756,0.232
		C930.213,2289.934,940.854,2291.624,951.109,2294.329z"/>
	<path fill="none" stroke="#000000" stroke-width="12" stroke-linecap="round" stroke-linejoin="round" stroke-miterlimit="10" d="
		M951.109,2294.329c77.082,20.254,131.933,96.582,127.063,184.299c-5.521,99.415-85.59,175.79-178.854,170.639
		c-93.255-5.196-164.433-89.949-158.909-189.352c5.371-96.991,81.75-172.069,172.092-170.828c2.245,0.021,4.512,0.099,6.756,0.232
		C930.213,2289.934,940.854,2291.624,951.109,2294.329z"/>
	<g>
		<path d="M776.2,2464.029l9.321,0.503c-0.308,5.002,0.181,9.024,1.469,12.05c1.285,3.029,3.403,5.639,6.352,7.83
			c2.946,2.189,6.438,3.606,10.469,4.26c5.782,0.936,10.502,0.251,14.154-2.059c3.652-2.309,5.843-5.719,6.57-10.23
			c0.428-2.642,0.22-5.038-0.623-7.199c-0.843-2.162-2.333-4.059-4.471-5.694c-2.139-1.639-6.908-4.239-14.318-7.796
			c-6.595-3.174-11.185-6.035-13.78-8.588c-2.599-2.55-4.456-5.555-5.567-9.013c-1.112-3.461-1.341-7.208-0.688-11.239
			c1.171-7.249,4.47-12.795,9.897-16.641c5.426-3.846,12.108-5.126,20.052-3.844c5.456,0.883,10.059,2.733,13.803,5.553
			c3.745,2.82,6.421,6.429,8.029,10.824c1.609,4.398,2.055,9.338,1.337,14.823l-9.485-0.653c0.453-5.904-0.592-10.502-3.131-13.797
			c-2.54-3.292-6.519-5.376-11.936-6.251c-5.497-0.888-9.893-0.334-13.181,1.663c-3.289,1.999-5.25,4.952-5.882,8.858
			c-0.584,3.624,0.018,6.606,1.814,8.944c1.796,2.34,6.232,5.125,13.311,8.367c6.92,3.178,11.728,5.736,14.421,7.682
			c4.109,3.015,7.003,6.567,8.688,10.66c1.685,4.092,2.11,8.721,1.275,13.889c-0.829,5.125-2.784,9.603-5.867,13.422
			s-6.87,6.5-11.356,8.028c-4.488,1.527-9.646,1.822-15.469,0.882c-9.083-1.47-15.881-5.361-20.395-11.695
			C776.503,2481.231,774.896,2473.388,776.2,2464.029z"/>
		<path d="M837.961,2529.104l14.497-89.74l8.307,1.343l-1.362,8.433c2.599-3.175,5.263-5.33,7.994-6.482
			c2.729-1.146,5.701-1.458,8.914-0.938c4.189,0.675,7.769,2.528,10.743,5.56c2.974,3.029,5.077,7.244,6.313,12.646
			c1.232,5.404,1.276,11.668,0.124,18.796c-1.782,11.037-5.468,19.166-11.053,24.382c-5.586,5.221-11.495,7.326-17.726,6.319
			c-2.771-0.446-5.24-1.573-7.414-3.392c-2.172-1.813-3.927-4.165-5.253-7.053l-5.104,31.581L837.961,2529.104z M855.356,2473.493
			c-1.354,8.392-0.955,14.799,1.208,19.219c2.162,4.423,5.232,6.959,9.216,7.601c3.817,0.615,7.501-0.897,11.049-4.547
			c3.549-3.646,6.019-9.767,7.406-18.357c1.368-8.473,0.981-14.968-1.165-19.495c-2.146-4.527-5.228-7.115-9.25-7.765
			c-3.614-0.585-7.26,1.076-10.932,4.974S856.704,2465.142,855.356,2473.493z"/>
		<path d="M900.855,2480.468c1.809-11.199,5.527-19.27,11.152-24.211s12.044-6.83,19.25-5.671
			c7.086,1.149,12.551,4.959,16.396,11.429c3.844,6.475,4.896,15.079,3.16,25.836c-1.881,11.646-5.626,19.944-11.23,24.889
			c-5.605,4.947-12.03,6.836-19.28,5.662c-7.127-1.149-12.604-4.97-16.42-11.462
			C900.059,2500.451,899.052,2491.628,900.855,2480.468z M910.083,2481.928c-1.357,8.4-0.84,14.896,1.555,19.487
			c2.393,4.593,5.85,7.252,10.37,7.981c4.234,0.685,8.203-0.797,11.906-4.446c3.703-3.646,6.228-9.633,7.572-17.949
			c1.351-8.358,0.83-14.834-1.562-19.426c-2.391-4.592-5.85-7.254-10.368-7.982c-4.278-0.691-8.254,0.779-11.933,4.41
			C913.938,2467.637,911.427,2473.613,910.083,2481.928z"/>
		<path d="M977.719,2516.079l-0.349,9.908c-2.588,0.252-4.882,0.213-6.877-0.106c-3.137-0.509-5.563-1.535-7.274-3.088
			c-1.716-1.552-2.755-3.463-3.116-5.733c-0.367-2.273-0.025-6.627,1.013-13.063l6.032-37.324l-6.598-1.067l1.382-8.552l6.597,1.066
			l2.597-16.063l10.045-5.147l-3.663,22.663l9.104,1.472l-1.381,8.553l-9.104-1.472l-6.13,37.934
			c-0.565,3.504-0.666,5.807-0.301,6.912c0.536,1.593,1.863,2.56,3.982,2.9C974.695,2516.031,976.044,2516.104,977.719,2516.079z"/>
		<path d="M1006.246,2520.69l-0.346,9.911c-2.589,0.249-4.883,0.214-6.878-0.109c-3.137-0.507-5.563-1.535-7.277-3.086
			c-1.714-1.556-2.753-3.463-3.113-5.738c-0.366-2.272-0.027-6.627,1.012-13.063l6.031-37.325l-6.597-1.064l1.38-8.554l6.6,1.069
			l2.595-16.064l10.045-5.147l-3.662,22.666l9.104,1.473l-1.382,8.552l-9.104-1.472l-6.13,37.937
			c-0.565,3.504-0.666,5.807-0.301,6.908c0.538,1.592,1.864,2.56,3.983,2.901C1003.224,2520.64,1004.57,2520.708,1006.246,2520.69z"
			/>
		<path d="M1013.149,2531.896l10.483-64.876l8.979,1.45l-10.481,64.877L1013.149,2531.896z M1025.573,2454.986l2.044-12.645
			l8.98,1.451l-2.043,12.645L1025.573,2454.986z"/>
	</g>
</g>
<path fill="#0E0E0E" d="M921.55,1334.813c2.688,6.059-13.315,26.838-27.446,27.459c-14.133,0.625-14.133,0.625-9.229-28.931
	c4.902-29.559,22.894-13.363,22.894-13.363S918.861,1328.749,921.55,1334.813z"/>
<path fill="none" stroke="#000000" stroke-width="12" stroke-linecap="round" stroke-linejoin="round" stroke-miterlimit="10" d="
	M907.762,1319.981c0,0-17.983-16.192-22.894,13.364c-4.901,29.557-4.901,29.557,9.23,28.929
	c14.133-0.625,30.134-21.405,27.446-27.459C918.861,1328.749,907.762,1319.981,907.762,1319.981z"/>
</svg>
