<?xml version="1.0" encoding="utf-8"?>
<!-- Generator: Adobe Illustrator 16.0.3, SVG Export Plug-In . SVG Version: 6.00 Build 0)  -->
<!DOCTYPE svg PUBLIC "-//W3C//DTD SVG 1.1//EN" "http://www.w3.org/Graphics/SVG/1.1/DTD/svg11.dtd">
<svg version="1.1" xmlns="http://www.w3.org/2000/svg" xmlns:xlink="http://www.w3.org/1999/xlink" x="0px" y="0px"
	 width="3100.979px" height="2815.515px" viewBox="0 0 3100.979 2815.515" enable-background="new 0 0 3100.979 2815.515"
	 xml:space="preserve">
<g id="Layer_4">
	<path fill="#F8F8FF" d="M1845.737,2598.676L1845.737,2598.676c-989.373,282.607-1551.226-560.601-1551.226-560.601
		s134.291-181.604,163.792-235.244c5.028-9.132,12.592-25.143,21.778-45.579c-1.461,3.339-16.454,41.113,19.35,115.299
		c11.828,24.486,32.519,59.713,59.42,98.4c-1.127,4.561-1.945,9.146-2.334,13.745c-2.012,24.138-0.296,20.115,21.818,44.857
		c11.317,12.672,19.698,9.398,25.813,1.891c54.27,67.344,122.11,134.097,191.184,166.522c7.656,3.593,15.502,7.026,23.467,10.284
		c-0.321,7.497,1.824,17.688,14.857,20.948c21.457,5.363,122.473,37.546,141.247,40.229c9.226,1.313,17.165-1.904,23.48-6.167
		c5.445,2.092,11.774,3.579,17.729,4.075c-1.488,15.784,1.248,38.044,1.248,38.044c-61.11-7.161-118.102,38.365-128.521,103.696
		c-10.688,66.943,31.593,129.338,94.406,139.372c62.824,10.016,122.405-36.129,133.092-103.082
		c9.427-59.085-22.394-114.628-73.19-133.737l4.304-47.754c31.097,4.052,58.521,6.547,79.439,8.114
		c1.918,3.474,4.773,6.088,8.931,7.282c18.774,5.363,39.331,8.045,58.105-2.683c0.067-0.042,0.12-0.065,0.188-0.121
		c43.206,2.279,95.25-1.045,147.441-49.001c32.572-29.93,74.88-70.414,114.882-109.181c5.699-0.417,11.452-0.938,17.231-1.543
		c47.498-4.975,96.657-15.997,125.529-23.186c15.851-3.954,25.599-6.744,25.599-6.744c13.356,32.731,37.092,81.184,78.823,152.724
		c112.642,193.102,156.896,422.409,156.896,422.409L1845.737,2598.676z M1532.753,2184.49c5.364-16.093-60.545-59.003-74.532,10.728
		c-3.487,17.433,24.46,33.887,18.21,42.911c-18.586,26.82-9.387,39.507,2.682,40.969c0,0,30.251-11.467,36.583-19.512
		c6.329-8.047,3.646-21.457,3.646-34.865C1519.343,2211.311,1527.389,2200.583,1532.753,2184.49z M1298.537,2567.126
		c42.912-32.183-2.682-40.23-13.409-40.23c-10.729,0-8.046-13.407-18.774-8.045c-10.728,5.365-83.141,77.778-83.141,77.778
		s20.812,23.265,45.593,0C1295.212,2534.273,1255.625,2599.309,1298.537,2567.126z M844.386,2429.447
		c5.364-8.045,26.819-64.368-5.364-75.096c-32.184-10.728-56.322-8.045-75.095,0c-18.774,8.048-8.046,40.23-8.046,53.641
		s-21.456,34.865-34.865,48.275s-53.64,75.094,21.456,64.366c0,0,64.368-42.911,69.731-59.001
		C817.566,2445.54,839.022,2437.495,844.386,2429.447z M521.665,2154.99c0,0,29.501-20.331,29.501-35.644
		c0-15.314-5.364-36.772-29.501-31.407c-24.138,5.362-43.608,10.728-45.942,21.455s11.077,16.093,24.486,32.184
		C513.619,2157.67,502.891,2157.67,521.665,2154.99z"/>
	<path fill="none" stroke="#000000" stroke-width="12" stroke-linecap="round" stroke-linejoin="round" stroke-miterlimit="10" d="
		M480.081,1757.252c-9.186,20.437-16.75,36.447-21.778,45.579c-29.501,53.641-212.76,302.164-212.76,302.164"/>
	<path fill="#0E0E0E" d="M839.022,2354.352c32.183,10.728,10.728,67.051,5.364,75.096c-5.364,8.048-26.82,16.093-32.184,32.186
		c-5.364,16.09-69.731,59.001-69.731,59.001c-75.095,10.728-34.865-50.956-21.456-64.366s34.865-34.865,34.865-48.275
		s-10.728-45.593,8.046-53.641C782.701,2346.307,806.839,2343.624,839.022,2354.352z"/>
	<path fill="none" stroke="#000000" stroke-width="12" stroke-linecap="round" stroke-linejoin="round" stroke-miterlimit="10" d="
		M839.022,2354.352c-32.184-10.728-56.322-8.045-75.095,0c-18.774,8.048-8.046,40.23-8.046,53.641s-21.456,34.865-34.865,48.275
		s-53.64,75.094,21.456,64.366c0,0,64.368-42.911,69.731-59.001c5.364-16.093,26.82-24.138,32.184-32.186
		C849.75,2421.402,871.206,2365.079,839.022,2354.352z"/>
	<path fill="#0E0E0E" d="M1285.127,2526.896c10.728,0,56.321,8.048,13.409,40.23c-42.911,32.183-3.325-32.853-69.731,29.503
		c-24.781,23.265-45.593,0-45.593,0s72.413-72.413,83.141-77.778C1277.082,2513.488,1274.399,2526.896,1285.127,2526.896z"/>
	<path fill="none" stroke="#000000" stroke-width="12" stroke-linecap="round" stroke-linejoin="round" stroke-miterlimit="10" d="
		M1285.127,2526.896c10.728,0,56.321,8.048,13.409,40.23c-42.911,32.183-3.325-32.853-69.731,29.503
		c-24.781,23.265-45.593,0-45.593,0s72.413-72.413,83.141-77.778C1277.082,2513.488,1274.399,2526.896,1285.127,2526.896z"/>
	<path fill="none" stroke="#000000" stroke-width="12" stroke-linecap="round" stroke-linejoin="round" stroke-miterlimit="10" d="
		M1860.517,2661.946c0,0-44.254-229.308-156.896-422.409c-41.731-71.54-65.467-119.992-78.823-152.724
		c-22.689-55.625-15.381-65.936-15.381-67.196c0-2.013,5.566-11.306,11.828-16.228"/>
</g>
<g id="Layer_8">
	<path fill="#070707" d="M2784.381,1521.468l40.629-113.711l-40.629-113.712l21.578-118.812l-58.753-105.494l1.631-120.741
		l-75.434-94.293l-18.396-119.342l-89.979-80.531l-37.801-114.684l-101.979-64.667l-56.075-106.944l-111.187-47.106l-72.835-96.315
		l-117.411-28.213l-87.702-83.005l-120.458-8.422l-100.243-67.324l-120.19,11.667L1529.15,0l-116.645,31.252L1295.86,0
		l-109.996,49.818l-120.189-11.666l-100.243,67.323l-120.458,8.422l-87.703,83.004l-117.41,28.213l-72.835,96.315l-111.187,47.105
		l-56.076,106.944l-101.979,64.667L259.984,654.83l-89.98,80.531l-18.397,119.343l-75.434,94.293l1.632,120.742L19.05,1175.233
		l21.578,118.813L0,1407.757l40.628,113.711L19.05,1640.28l58.754,105.494l-1.631,120.742l75.433,94.292l18.397,119.344
		l89.979,80.531l37.801,114.683l101.979,64.667l56.075,106.945l111.187,47.104l72.835,96.315l117.411,28.214l87.703,83.005
		l120.458,8.422l100.243,67.323l120.19-11.666l109.996,49.818l116.645-31.252l116.645,31.252l109.995-49.818l120.19,11.666
		l100.242-67.323l120.458-8.422l87.703-83.004l117.41-28.214l72.835-96.315l111.187-47.104l56.075-106.944l101.979-64.667
		l37.802-114.684l89.979-80.531l18.397-119.344l75.434-94.293l-1.632-120.742l58.754-105.494L2784.381,1521.468z M1414.939,2577.618
		c-647.44,0-1172.295-524.854-1172.295-1172.295S767.499,233.029,1414.939,233.029s1172.295,524.854,1172.295,1172.294
		S2062.379,2577.618,1414.939,2577.618z"/>
	<path fill="#FFFFFF" d="M1414.939,97.267c-722.419,0-1308.057,585.637-1308.057,1308.057
		c0,722.421,585.637,1308.057,1308.057,1308.057s1308.057-585.636,1308.057-1308.057
		C2722.996,682.903,2137.359,97.267,1414.939,97.267z M1412.505,2627.871c-673.85,0-1220.114-546.263-1220.114-1220.114
		c0-673.85,546.264-1220.114,1220.114-1220.114s1220.115,546.264,1220.115,1220.114
		C2632.621,2081.608,2086.356,2627.871,1412.505,2627.871z"/>
</g>
<g id="Layer_5">
	<path fill="#FA67AB" d="M1422.914,2119.291c10.688,0.201,21.979-0.188,33.525-1.005c-40.002,38.767-82.31,79.251-114.882,109.181
		c-52.191,47.956-104.235,51.28-147.441,49.001c18.706-11.303,36.031-116.585,38.701-129.955c2.333-11.68-3.46-27.424-22.704-33.939
		C1306.543,2120.217,1388.517,2118.647,1422.914,2119.291z"/>
	<path fill="#FA67AB" d="M1170.782,2108.993c-16.655,2.132-20.49,10.728-24.231,20.087c-5.364,13.41,0,13.41-26.82,18.772
		c-26.82,5.365-29.501-24.136-26.82-29.474c1.488-2.963,3.957-11.785,0.751-19.484
		C1119.65,2103.08,1145.544,2106.379,1170.782,2108.993z"/>
	<path fill="#FA67AB" d="M1094.694,2209.541c7.872,2.411,35.241,8.285,32.559,19.013c-2.092,8.356-7.107,31.206-0.362,43.436
		c-20.918-1.567-48.342-4.063-79.439-8.114c-3.889-0.493-7.845-1.031-11.855-1.582c0.403-0.549,0.738-1.152,0.993-1.797
		c5.364-13.41-0.898-38.109,16.253-52.472C1063.852,2198.811,1077.261,2204.176,1094.694,2209.541z"/>
	<path fill="#F8F8FF" d="M1581.74,1995.424c0,0-11.667,11.574-30.36,29.999c-4.492-1.49-10.258-2.683-18.317-6.491
		c-21.147-9.989-32.492-6.088-43.22,12.688c-10.728,18.772-26.82,21.455-64.368,26.817c-37.547,5.365-18.773,24.138-10.728,31.354
		c5.646,5.054,32.372,16.277,47.82,22.54c-2.039,1.985-4.077,3.956-6.128,5.955c-11.546,0.817-22.837,1.206-33.525,1.005
		c-34.396-0.644-116.37,0.926-212.801-6.718c-2.856-0.979-6.007-1.743-9.48-2.266c-13.034-1.958-22.649-2.24-29.85-1.314
		c-25.237-2.614-51.132-5.913-77.12-10.099c-2.547-6.128-8.69-11.546-21.764-12.725c-4.305-0.391-9.347,0.535-14.832,2.387
		c0.671-13.223-1.85-17.393-6.168-20.276c-1.167-0.778-3.554-1.999-6.96-3.568c-0.12-52.459-1.837-58.225-13.598-65.276
		c-13.41-8.047-29.502-24.138-29.502-24.138c2.683-34.867-21.455-77.778-45.593-77.778s-56.321-13.41-75.095-42.912
		c-18.774-29.501-61.686-61.684-83.142-8.046c-21.456,53.641-83.114,58.748-83.114,58.748c-2.32-2.533-4.586-5.055-6.813-7.563
		c13.209-1.622,13.974-8.381,2.307-31.727c-11.935-23.883-36.904-21.725-44.213-20.517
		c-56.173-78.222-76.878-146.586-89.832-193.759c-17.634-64.142-5.136-104.557-1.126-114.978c0.054-0.148,0.107-0.282,0.174-0.415
		c0.294-0.725,0.604-1.435,0.898-2.146c0.027-0.079,0.054-0.121,0.054-0.121c22.166-52.646,40.068-94.66,45.674-104.944
		c16.091-29.503,152.858-280.709,160.904-294.119c8.046-13.41,35.644-52.606,35.644-52.606c3.339-2.493,5.954-4.801,7.711-6.853
		c9.333-10.9,17.473-24.204,22.998-37.588c0,0,11.305,5.352,27.396-26.832c16.092-32.185,8.046-52.299,24.138-92.528
		s28.161-56.321,28.161-72.413s-20.115-12.069-32.184-24.138s-40.23-24.138-96.551-16.092s-144.652-81.68-132.663-135.386h-0.014
		c12.324-18.586,24.231-34.195,39.251-49.71c0.054-0.068,0.12-0.135,0.174-0.202c1.006-1.019,1.999-2.025,3.018-3.044
		c9.896-9.185,41.852-32.143,81.746,7.751c48.276,48.275,61.686,53.64,77.777,59.003c16.092,5.364,48.275,5.364,80.459-32.184
		c32.184-37.547,53.639-64.367,80.459-77.777s29.501-37.547,32.184-67.049c2.682-29.502-5.19-46.801-5.19-46.801
		c45.338-5.283,79.426,17.246,98.723,24.956c20.115,8.046,189.079,16.092,189.079,16.092s-203.95,106.782-254.907,208.697
		c-50.958,101.915,40.23,166.283,67.049,174.328c26.82,8.046,9.052-5.364,52.808,29.501c43.743,34.865,73.245,34.865,108.11,32.184
		s32.184-5.364,83.141,10.728c50.958,16.093,144.827,61.687,187.738,77.778c42.912,16.09,124.268,87.605,134.997,95.652
		c10.728,8.045,24.473,50.902,118.006,37.548c18.775-2.683,42.912,26.818,93.87,29.501c50.958,2.682,32.183-10.729,64.367,0
		c32.184,10.728,26.819,8.77,42.911,0.362c16.092-8.408,32.185-0.362,40.229,2.319c8.046,2.683,16.093-21.455,88.505-32.183
		c72.413-10.729,123.785-0.428,225.5-155.77c15.649,15.516,32.33,40.579,104.503,73.581c93.868,42.91,139.462,75.094,179.691,91.186
		c14.858,5.94,65.227,24.701,124.858,47.471c-17.178,24.272-36.473,32.035-52.565,40.083c-16.093,8.045-45.595,10.728-72.413,50.958
		c-26.819,40.228,16.092,56.32,42.093,96.551c26.016,40.229,8.864,64.366,0.818,96.549c-8.046,32.186,2.682,32.186,13.409,61.686
		c-42.91-2.681-53.639-45.593-61.685-67.048c-8.046-21.456-88.505-72.414-112.643-88.506c-24.138-16.093-8.046,10.728-29.501,0
		c-21.457-10.729-26.82,18.774-50.958,5.364s-37.548-24.138-59.728-5.364c-22.193,18.774-26.096,59.003-7.322,104.596
		c18.775,45.596-2.682,83.141-18.559,101.916c-15.892,18.772-57.501,48.813-57.501,48.813
		c-44.508-13.386-91.241-28.872-134.797-46.091c-35.669-14.109-67.881-28.844-99.085-45.298
		c-27.678-14.592-54.578-30.537-82.391-48.584c-29.313-19.029-58.627-41.921-93.881-63.696
		c-15.381-9.521-31.903-18.814-50.061-27.477c-2.266-1.087-4.586-2.16-6.958-3.245c-1.584-0.728-3.193-1.45-4.815-2.16
		c-0.816-0.363-1.635-0.712-2.453-1.073c-0.831-0.361-1.648-0.723-2.494-1.073c-2.508-1.071-5.069-2.145-7.67-3.205
		c-1.729-0.712-3.487-1.422-5.257-2.118c-2.669-1.047-5.364-2.092-8.114-3.139c-0.871-0.335-1.743-0.657-2.628-0.992
		c-0.24-0.079-0.496-0.174-0.737-0.269c-1.648-0.602-3.299-1.219-4.977-1.81c-0.118-0.04-0.24-0.095-0.359-0.135
		c-1.758-0.63-3.528-1.261-5.312-1.876c-2.065-0.725-4.157-1.437-6.249-2.146c-1.637-0.549-3.286-1.1-4.948-1.636
		c-5.042-1.648-10.165-3.26-15.367-4.803c-1.006-0.293-2.013-0.602-3.03-0.884c-1.019-0.309-2.025-0.602-3.059-0.884
		c-3.365-0.979-6.772-1.918-10.191-2.816c0-0.014,0-0.014,0-0.014c-0.039-0.014-0.081-0.014-0.12-0.026
		c-0.188-0.053-0.389-0.108-0.591-0.147c-1.206-0.335-2.425-0.657-3.646-0.966c-0.296-0.081-0.591-0.147-0.886-0.227
		c-0.952-0.243-1.892-0.485-2.843-0.726c-3.219-0.817-6.437-1.596-9.668-2.345c-0.737-0.177-1.475-0.351-2.213-0.512
		c-3.5-0.805-7.014-1.583-10.527-2.308c-3.875-0.803-7.764-1.567-11.653-2.277c-2.011-0.377-4.036-0.725-6.048-1.073
		c-1.461-0.256-2.924-0.496-4.371-0.726c-0.549-0.092-1.113-0.187-1.677-0.269c-1.998-0.321-4.009-0.628-6.007-0.91
		c-0.027,0-0.04,0-0.055,0c-1.996-0.296-3.994-0.564-5.994-0.817c-1.487-0.19-2.962-0.377-4.438-0.552
		c-4.439-0.535-8.852-0.979-13.236-1.34c-0.066-0.014-0.146-0.014-0.227-0.014c-1.315-0.121-2.643-0.227-3.957-0.321
		c-1.703-0.121-3.393-0.228-5.068-0.324c-58.387-3.337-109.867,8.92-129.902,50.932c-13.248,27.732-12.793,68.431,8.436,126.162
		c0,0-13.41,43.81,230.648,285.188c71.088,70.306,143.178,133.801,213.084,188.392c27.328,21.364,54.323,41.343,80.807,59.85
		c22.101,15.462,43.851,29.891,65.132,43.205c111.771,70,210.481,109.521,280.171,108.179c0,0-171.646,78.675-393.35-25.935
		c-138.645-65.426-285.295-181.448-417.193-219.292c-2.535-0.725-5.056-1.421-7.577-2.092h-0.013
		C1607.902,1999.851,1594.733,1997.154,1581.74,1995.424z M1425.462,1663.235c18.774-13.408,5.364-42.911,0-59.001
		c-5.364-16.093-18.774-26.82-13.276-53.641s-21.589-80.458-45.727-85.823s-37.548,13.41-48.275,37.548
		c-10.729,24.138,8.046,42.91,0,53.641c-8.046,10.726-29.501,37.546-29.501,37.546c-2.683,18.774,18.773,32.185,21.456,34.867
		c2.682,2.681,56.321,8.045,67.049,29.5C1387.915,1679.328,1406.688,1676.646,1425.462,1663.235z M1166.222,1859.972
		c50.958-18.772,40.23-67.048,29.501-77.778c-10.728-10.725-18.773,26.82-34.865,0c-16.091-26.817-26.82-16.09-59.003,5.365
		c-32.183,21.455-10.728,34.865,10.728,48.275c21.456,13.41,5.364,34.865,5.364,34.865
		C1134.039,1870.699,1115.265,1878.745,1166.222,1859.972z M1154.596,1009.788c21.456-2.683,8.046-13.41,8.046-40.229
		c0-26.82-2.682-18.773-10.728-10.729c-8.046,8.047-37.548,37.548-37.548,37.548
		C1117.048,1007.105,1133.141,1012.471,1154.596,1009.788z M1079.5,1095.557c13.41-18.773-16.091-37.547-16.091-37.547
		c-29.501,2.682-24.138,32.184-13.41,48.276C1060.727,1122.377,1066.091,1114.331,1079.5,1095.557z M1021.383,1337.819
		c2.682-10.728-26.819-34.865-37.548-5.362h-2.681c0,18.772-5.364,32.183,13.41,26.818
		C1013.337,1353.912,1018.701,1348.547,1021.383,1337.819z M943.606,773.788c8.046,0,26.819-10.728,8.046-26.82
		c-18.774-16.092-24.138-13.41-29.502,0C917.068,759.667,935.56,773.788,943.606,773.788z M776.438,1593.707
		c13.41-37.4-13.41-45.743-26.82-40.38c-13.41,5.365-24.138,56.323-24.138,56.323
		C733.527,1617.697,763.029,1631.107,776.438,1593.707z M669.16,1515.781c8.046-2.683,13.41-16.093,10.728-18.775
		c-2.682-2.682-10.728-5.362-10.728-5.362s-13.41-5.365-10.728,10.728C661.114,1518.462,661.114,1518.462,669.16,1515.781z
		 M653.068,1652.563c2.682-16.093-18.774-16.093-18.774-16.093c-10.728,2.683-16.091,8.046-16.091,13.41
		c0,5.363,0,21.456,16.091,26.82C650.386,1682.063,650.386,1668.653,653.068,1652.563z"/>
	<path fill="#070707" d="M3061.596,1332.576c40.229,29.503,53.64,74.196-16.093,157.337c-14.066,16.776-26.832,33.981-39.638,51.037
		c-35.954-10.593-79.373-34.984-127.648-91.307c-48.277-56.321-8.047-93.869,21.455-118.007
		c29.273-23.95,104.986-26.98,106.179-27.021c0.015,0,0.015,0,0.015,0C3032.832,1316.443,3053.069,1326.314,3061.596,1332.576z"/>
	<path fill="#0E0E0E" d="M3005.851,1304.616c-1.192,0.04-76.905,3.07-106.179,27.021c-29.502,24.138-69.732,61.686-21.455,118.007
		c48.275,56.322,91.694,80.714,127.648,91.307c-50.704,67.468-102.266,132.464-239.286,158.158l-62.167,11.371
		c0,0,24.499-54.324,27.181-73.097c2.682-18.775,16.092-37.548,5.363-67.051c-10.728-29.5-21.455-29.5-13.409-61.686
		c8.046-32.183,25.197-56.32-0.818-96.549c-26.001-40.23-68.912-56.323-42.093-96.551c26.818-40.23,56.32-42.913,72.413-50.958
		c16.093-8.048,35.388-15.811,52.565-40.083C2873.175,1250.308,2952.628,1281.27,3005.851,1304.616z"/>
	<path fill="#666666" d="M2736.957,1570.332c10.729,29.503-2.682,48.275-5.363,67.051c-2.682,18.772-27.181,73.097-27.181,73.097
		l-104.115,19.028c0,0-18.773,5.362-56.321-5.363c-14.403-4.13-103.886-23.642-204.915-54.041c0,0,41.609-30.041,57.501-48.813
		c15.877-18.775,37.334-56.32,18.559-101.916c-18.773-45.593-14.871-85.821,7.322-104.596c22.18-18.773,35.59-8.046,59.728,5.364
		s29.501-16.093,50.958-5.364c21.455,10.728,5.363-16.093,29.501,0c24.138,16.092,104.597,67.05,112.643,88.506
		C2683.318,1524.739,2694.046,1567.651,2736.957,1570.332z M2632.361,1514.911c2.682,4.022,8.045-1.343,4.022-5.365
		C2636.383,1509.546,2629.679,1510.886,2632.361,1514.911z M2591.5,1541.702c-4.961,6.705,6.88,12.284,11.064,3.395
		C2602.565,1545.097,2596.463,1534.997,2591.5,1541.702z M2581.404,1590.004c2.682,4.022,8.046-1.34,4.022-5.362
		C2585.426,1584.642,2578.721,1585.981,2581.404,1590.004z M2580.773,1453.196c-4.961,6.705,6.88,12.284,11.064,3.395
		C2591.837,1456.591,2585.735,1446.491,2580.773,1453.196z M2537.862,1508.177c-4.962,6.705,6.879,12.284,11.063,3.395
		C2548.924,1511.571,2542.823,1501.472,2537.862,1508.177z M2507.824,1447.781c-5.767,7.775,7.992,14.254,12.846,3.94
		C2520.669,1451.722,2513.589,1439.989,2507.824,1447.781z M2494.239,1592.687c2.683,4.022,8.047-1.342,4.024-5.365
		C2498.263,1587.321,2491.558,1588.664,2494.239,1592.687z M2473.495,1543.042c-4.962,6.705,6.879,12.284,11.063,3.395
		C2484.557,1546.437,2478.457,1536.337,2473.495,1543.042z M2459.374,1484.065c2.682,4.025,8.046-1.34,4.022-5.362
		C2463.396,1478.703,2456.691,1480.043,2459.374,1484.065z M2456.49,1430.443c-5.753,7.775,7.993,14.252,12.847,3.928
		C2469.336,1434.371,2462.257,1422.649,2456.49,1430.443z"/>
	<path fill="#0E0E0E" d="M2636.383,1509.546c4.022,4.022-1.341,9.388-4.022,5.365
		C2629.679,1510.886,2636.383,1509.546,2636.383,1509.546z"/>
	<path fill="#0E0E0E" d="M2602.565,1545.097c-4.185,8.89-16.025,3.311-11.064-3.395
		C2596.463,1534.997,2602.565,1545.097,2602.565,1545.097z"/>
	<path fill="#0E0E0E" d="M2585.426,1584.642c4.023,4.022-1.341,9.385-4.022,5.362
		C2578.721,1585.981,2585.426,1584.642,2585.426,1584.642z"/>
	<path fill="#0E0E0E" d="M2591.837,1456.591c-4.185,8.89-16.025,3.311-11.064-3.395
		C2585.735,1446.491,2591.837,1456.591,2591.837,1456.591z"/>
	<path fill="#C89E95" d="M2482.009,2083.661c-14.764-31.916-40.752-68.805-82.98-111.032
		c-23.923-23.924-45.781-45.822-65.788-66.085c-2.105-16.789-3.943-27.799-3.943-27.799l0.054-0.054
		c11.104,12.538,26.191,24.539,50.02,36.019c59.003,28.403,78.286-1.1,114.239,33.768c35.951,34.865,34.447,88.504,55.314,109.959
		c20.865,21.458,43.126,50.958,30.654,83.142c-12.47,32.185,3.621,59.005-23.199,67.05c-23.761,7.133-33.243,26.887-75.939,3.311
		C2498.196,2184.839,2509.379,2142.813,2482.009,2083.661z"/>
	<path fill="#0E0E0E" d="M2548.924,1511.571c-4.184,8.89-16.024,3.311-11.063-3.395
		C2542.823,1501.472,2548.924,1511.571,2548.924,1511.571z"/>
	<path fill="#0E0E0E" d="M2520.669,1451.722c-4.854,10.313-18.612,3.835-12.846-3.94
		C2513.589,1439.989,2520.669,1451.722,2520.669,1451.722z"/>
	<path fill="#0E0E0E" d="M2498.263,1587.321c4.022,4.023-1.342,9.388-4.024,5.365
		C2491.558,1588.664,2498.263,1587.321,2498.263,1587.321z"/>
	<path fill="#C89E95" d="M2482.009,2083.661c27.37,59.151,16.187,101.178-1.569,128.277c-2.441-2.292-5.886-4.21-9.896-5.872
		c-0.013,0-0.026-0.013-0.04-0.013c-0.67-0.417-1.341-0.859-2.012-1.287c-0.671-0.443-1.354-0.886-2.037-1.34
		c-1.382-0.915-2.789-1.867-4.237-2.844c-0.215-0.149-0.431-0.298-0.646-0.43c-9.225-15.074-42.71-46.397-62.543-61.578
		c-21.455-16.414-45.593-26.498-48.275-46.708c-1.005-7.563-10.244-19.377-23.387-32.476c1.262-0.564,1.931-0.955,1.931-0.955
		c10.138-20.287,11.131-58.826,9.174-95.034c21.964,16.291,42.079,31.982,57.876,45.875
		C2430.409,2039.247,2458.677,2062.997,2482.009,2083.661z"/>
	<path fill="#C89E95" d="M2482.009,2083.661c-23.332-20.664-51.601-44.414-85.662-74.384
		c-15.797-13.893-35.912-29.584-57.876-45.875c-1.154-21.107-3.3-41.423-5.23-56.858c20.007,20.263,41.865,42.161,65.788,66.085
		C2441.257,2014.856,2467.246,2051.745,2482.009,2083.661z"/>
	<path fill="#0E0E0E" d="M2480.44,2211.938c-3.111-1.715-6.41-3.658-9.896-5.872
		C2474.554,2207.729,2477.999,2209.646,2480.44,2211.938z"/>
	<path fill="#0E0E0E" d="M2470.543,2206.066c3.486,2.214,6.785,4.157,9.896,5.872c-17.379,26.538-41.062,38.77-41.062,38.77
		c-69.689,1.342-168.4-38.179-280.171-108.179c1.233-0.279,38.889-8.743,52.083,0c13.41,8.893,32.185,14.257,37.549,11.574
		c5.364-2.682,13.409-2.682,21.456,10.729c8.046,13.409,13.409,10.728,45.593,21.455c32.183,10.728,24.138,5.362,32.183,10.728
		c8.047,5.364,34.867-2.683,45.595-5.365c10.728-2.681,24.138-2.681,37.548,2.683c8.194,3.271,21.094,5.687,32.115,9.16
		c2.522,0.792,4.936,1.636,7.175,2.562C2470.517,2206.054,2470.531,2206.066,2470.543,2206.066z"/>
	<path fill="#0E0E0E" d="M2484.557,1546.437c-4.184,8.89-16.024,3.311-11.063-3.395S2484.557,1546.437,2484.557,1546.437z"/>
	<path fill="#666666" d="M2468.492,2204.767c0.671,0.428,1.342,0.87,2.012,1.287c-2.239-0.926-4.652-1.77-7.175-2.562
		c-0.415-0.994-1.005-2.12-1.757-3.339c0.215,0.132,0.431,0.28,0.646,0.43c1.448,0.977,2.855,1.929,4.237,2.844
		C2467.138,2203.881,2467.821,2204.323,2468.492,2204.767z"/>
	<path fill="#666666" d="M2466.455,2203.427c0.684,0.454,1.366,0.896,2.037,1.34
		C2467.821,2204.323,2467.138,2203.881,2466.455,2203.427z"/>
	<path fill="#0E0E0E" d="M2463.396,1478.703c4.023,4.022-1.341,9.388-4.022,5.362
		C2456.691,1480.043,2463.396,1478.703,2463.396,1478.703z"/>
	<path fill="#0E0E0E" d="M2469.336,1434.371c-4.854,10.324-18.6,3.848-12.847-3.928
		C2462.257,1422.649,2469.336,1434.371,2469.336,1434.371z"/>
	<path fill="#666666" d="M2460.917,2199.71c-0.538-0.361-1.087-0.725-1.651-1.087
		C2459.817,2198.972,2460.366,2199.333,2460.917,2199.71z"/>
	<path fill="#666666" d="M2456.878,2197.109c-0.655-0.403-1.341-0.818-2.024-1.234
		C2455.538,2196.278,2456.208,2196.692,2456.878,2197.109z"/>
	<path fill="#666666" d="M2451.61,2193.971c-0.766-0.428-1.529-0.871-2.307-1.301
		C2450.081,2193.1,2450.844,2193.529,2451.61,2193.971z"/>
	<path fill="#0E0E0E" d="M2381.274,1000.91c5.981,2.897,10.594,6.692,15.288,11.358c-101.715,155.342-153.087,145.041-225.5,155.77
		c-72.412,10.728-80.459,34.865-88.505,32.183c-8.045-2.682-24.138-10.728-40.229-2.319c-16.092,8.407-10.728,10.365-42.911-0.362
		c-32.185-10.729-13.409,2.682-64.367,0c-50.958-2.683-75.095-32.184-93.87-29.501c-93.533,13.354-107.278-29.503-118.006-37.548
		c-10.729-8.047-92.085-79.563-134.997-95.652c-42.912-16.092-136.78-61.686-187.738-77.778
		c-50.957-16.091-48.275-13.409-83.141-10.728s-64.367,2.682-108.11-32.184c-43.756-34.866-25.988-21.456-52.808-29.501
		c-26.819-8.045-118.006-72.413-67.049-174.328c50.958-101.915,254.907-208.697,254.907-208.697s122.029-56.321,178.351-48.275
		c56.321,8.045,128.735,0,229.31,40.229c100.573,40.229,108.619,56.321,217.238,76.436
		c108.62,20.115,172.987,132.757,189.078,181.033C2174.307,799.32,2272.146,948.25,2381.274,1000.91z M2092.386,922.249
		c0,0,11.987-72.937-15.032-126.348c-6.664-13.168-15.702-25.157-27.879-34.571c-59.004-45.594-150.19,40.229-150.19,40.229
		s2.708,50.716,83.449,93.265c2.842,1.502,5.632,2.923,8.354,4.292C2062.522,934.692,2092.386,922.249,2092.386,922.249z"/>
	<path fill="#FFFFFF" d="M2338.471,1963.402c1.957,36.208,0.964,74.747-9.174,95.034c0,0-0.669,0.391-1.931,0.955
		c-19.979-19.917-48.959-42.781-71.715-58.146c13.128-15.892,30.185-38.394,45.754-64.703
		C2314.051,1945.54,2326.537,1954.565,2338.471,1963.402z"/>
	<path fill="#FFFFFF" d="M2333.241,1906.544c1.931,15.436,4.076,35.751,5.23,56.858c-11.935-8.837-24.42-17.862-37.065-26.86
		c7.604-12.835,14.844-26.58,21.093-40.9C2326.013,1899.222,2329.592,1902.856,2333.241,1906.544z"/>
	<path fill="#C89E95" d="M2329.351,1878.691l-0.054,0.054c-2.091,5.713-4.371,11.345-6.799,16.896
		c-57.046-58.011-98.359-102.37-129.646-142.922c0,0,3.875-4.653,9.038-11.118c43.851,32.748,77.228,61.164,88.975,78.143
		C2305.255,1840.527,2312.965,1860.186,2329.351,1878.691z"/>
	<path fill="#FFFFFF" d="M2329.297,1878.745c0,0,1.838,11.01,3.943,27.799c-3.648-3.688-7.228-7.322-10.742-10.902
		C2324.926,1890.09,2327.207,1884.458,2329.297,1878.745z"/>
	<path fill="#FFFFFF" d="M2255.652,2001.245c22.756,15.365,51.735,38.229,71.715,58.146c-9.279,4.221-50.728,18.812-93.882-33.138
		C2233.485,2026.254,2242.63,2017.001,2255.652,2001.245z"/>
	<path fill="#C89E95" d="M1930.625,1584.642c-124.619-88.813-146.074-178.607-146.396-179.947c3.419,0.898,6.826,1.838,10.191,2.816
		c1.02,0.282,2.04,0.575,3.059,0.884c1.018,0.296,2.024,0.591,3.03,0.884c5.202,1.543,10.325,3.154,15.367,4.803
		c1.662,0.536,3.312,1.087,4.948,1.636c2.092,0.71,4.184,1.422,6.249,2.146c1.783,0.615,3.554,1.246,5.312,1.876
		c0.119,0.04,0.241,0.095,0.359,0.135c1.678,0.604,3.328,1.208,4.977,1.81c0.241,0.095,0.497,0.189,0.737,0.269
		c0.885,0.335,1.757,0.673,2.628,0.992c2.75,1.047,5.445,2.092,8.114,3.139c1.77,0.71,3.527,1.406,5.257,2.118
		c2.601,1.061,5.162,2.134,7.67,3.205c0.832,0.361,1.663,0.712,2.494,1.073c0.818,0.361,1.637,0.71,2.453,1.073
		c1.636,0.724,3.231,1.433,4.815,2.16c2.372,1.085,4.692,2.158,6.958,3.245c18.157,8.662,34.68,17.955,50.061,27.477
		c0,0,2.574,95.839,112.534,165.57c42.765,27.115,86.333,56.268,125.034,83.798c7.939,12.136,16.668,24.338,26.377,36.917
		c31.286,40.552,72.6,84.911,129.646,142.922c-6.249,14.32-13.489,28.065-21.093,40.9c-62.88-44.788-129.605-89.229-151.801-109.826
		c-34.864-32.386-139.461-134.796-182.373-177.708C1924.321,1606.097,1930.625,1584.642,1930.625,1584.642z"/>
	<path fill="#C89E95" d="M2301.406,1936.542c-15.569,26.31-32.626,48.812-45.754,64.703c-2.348-1.582-4.614-3.086-6.813-4.492
		c-37.549-24.138-132.583-6.316-132.583-6.316c-6.343-9.924-19.068-38.366-38.178-45.527c-11.64-4.357-21.43-16.359-30.964-28.563
		c7.483-2.266,5.94-20.448,5.94-51.009c0-40.23-18.773-40.23-26.819-38.621c-8.046,1.608-59.004,24.085-59.004,24.085
		c-4.479-3.018-9.226-6.212-14.309-9.602c-25.275-16.857-27.396-22.128-31.028-34.008c5.509-3.126,4.343-15.905,8.395-24.998
		c5.979-13.407,15.487-24.138,8.85-42.602c-6.625-18.453-14.818-8.354-38.956-8.744c-16.99-0.267-36.649-0.161-46.786-0.066
		c-9.896-8.087-19.216-15.515-26.538-21.523c8.232,2.134,12.565-5.552,31.312-9.306c26.82-5.362,16.091-32.183,0-52.687
		c-16.092-20.518-16.092-35.817-26.82-46.547c-10.728-10.728-18.774,8.047-37.547,8.061c-18.775,0.011-18.775-16.105-42.911-14.671
		c-23.723,1.408-15.087,20.745-14.791,21.402c-8.718-8.878-16.375-18.09-23.105-27.477c13.074-7.322,27.167-38.273,5.712-65.092
		c-15.997-19.996-31.969-7.188-39.062,0.617c-9.535-26.889-13.705-51.507-15.852-69.169v-0.013c0.268-1.557,0.55-3.086,0.859-4.613
		c0.119-0.604,0.24-1.206,0.361-1.81c0.24-1.168,0.496-2.334,0.765-3.5c0.269-1.248,0.563-2.495,0.87-3.715
		c0.135-0.551,0.27-1.1,0.417-1.65c0.938-3.688,1.972-7.268,3.097-10.754c0.229-0.696,0.456-1.396,0.698-2.079
		c0.59-1.743,1.192-3.447,1.823-5.136c0.441-1.166,0.898-2.32,1.355-3.444c0.563-1.371,1.126-2.725,1.715-4.038
		c0.363-0.805,0.725-1.596,1.087-2.388c0-0.013,0.014-0.013,0.014-0.024c11.747-13.921,23.173-21.779,23.173-21.779
		c0.08,0,0.16,0,0.227,0.014c5.847,0.496,11.748,1.126,17.674,1.892c2,0.253,3.998,0.535,5.994,0.817c0.015,0,0.027,0,0.055,0
		c1.998,0.295,3.996,0.602,6.007,0.91c0.563,0.082,1.128,0.177,1.677,0.269c1.447,0.229,2.91,0.47,4.371,0.726
		c2.012,0.349,4.037,0.696,6.048,1.073c3.89,0.71,7.778,1.475,11.653,2.277c3.514,0.725,7.027,1.503,10.527,2.308
		c0.738,0.161,1.476,0.335,2.213,0.512c3.231,0.749,6.449,1.527,9.668,2.345c0.951,0.24,1.903,0.482,2.843,0.726
		c0.295,0.079,0.59,0.146,0.886,0.227c1.222,0.309,2.44,0.631,3.646,0.966c0.202,0.039,0.402,0.095,0.591,0.147
		c0.039,0.013,0.081,0.026,0.12,0.04c0.322,1.34,21.777,91.135,146.396,179.947c0,0-6.304,21.455,36.607,64.366
		c42.912,42.912,147.509,145.322,182.373,177.708C2171.8,1847.313,2238.526,1891.754,2301.406,1936.542z"/>
	<path fill="#FFFFFF" d="M2205.928,1686.556c21.455,0,26.819,10.298,18.772,23.924c-4.8,8.126-15.193,21.576-22.81,31.122
		c-11.184-8.354-23.051-16.989-35.415-25.799c-9.092-13.894-17.139-27.678-24.379-41.813
		C2142.097,1673.989,2184.472,1686.556,2205.928,1686.556z"/>
	<path fill="#C89E95" d="M2216.561,2068.924c-1.461,2.749-1.568,4.345-5.271-3.756c0,0-2.292,3.273-6.303,8.449
		c-3.767-2.562-7.549-5.189-11.345-7.885c-1.258-0.899-2.533-1.796-3.794-2.709c-1.274-0.91-2.547-1.836-3.808-2.762
		c-1.274-0.926-2.55-1.864-3.822-2.816c-2.467-1.823-4.937-3.675-7.416-5.566c-1.354-1.031-2.722-2.078-4.076-3.136
		c-1.287-0.994-2.575-2-3.85-3.005c-7.71-6.048-15.461-12.404-23.238-19.081c4.344,2.506,9.468,4.075,15.541,4.075
		C2186.644,2030.732,2216.561,2068.924,2216.561,2068.924z"/>
	<path fill="#C2AF8C" d="M2193.643,2065.732c3.796,2.695,7.578,5.323,11.345,7.885c-5.686,7.335-14.857,18.506-25.88,29.528
		c-18.773,18.773-24.138,2.683-43.287-3.809c-18.935-6.423-41.29-0.134-41.745-0.013c-26.483-18.507-53.479-38.485-80.807-59.85
		c5.806-21.643,7.603-26.618-0.444-58.801c-8.045-32.183,2.683-42.913,0-61.686c-0.629-4.399-2.145-7.47-4.331-9.644l2.294-2.506
		c0.644,0.591,1.302,1.182,1.944,1.783c1.435,1.316,2.87,2.614,4.291,3.917c1.423,1.287,2.842,2.588,4.264,3.888
		c1.422,1.287,2.844,2.588,4.253,3.875c36.312,33.069,70.469,63.872,99.419,89.833c1.476,1.315,2.938,2.627,4.372,3.915
		c1.1,0.993,2.198,1.973,3.298,2.951c0.121,0.107,0.256,0.229,0.377,0.321c0.014,0.014,0.025,0.04,0.04,0.053
		c2.924,3.582,6.409,6.868,10.594,9.282c7.777,6.677,15.528,13.033,23.238,19.081c1.288,1.019,2.575,2.026,3.85,3.005
		c1.354,1.058,2.722,2.104,4.076,3.136c2.479,1.892,4.949,3.743,7.416,5.566c1.272,0.952,2.548,1.891,3.822,2.816
		c1.261,0.926,2.533,1.852,3.808,2.762C2191.123,2063.937,2192.385,2064.847,2193.643,2065.732z"/>
	<path fill="#C89E95" d="M2201.891,1741.602c-5.163,6.465-9.038,11.118-9.038,11.118c-9.709-12.579-18.438-24.781-26.377-36.917
		C2178.84,1724.612,2190.708,1733.248,2201.891,1741.602z"/>
	<path fill="#C2AF8C" d="M2189.849,2063.023c1.261,0.913,2.536,1.81,3.794,2.709
		C2192.385,2064.847,2191.123,2063.937,2189.849,2063.023z"/>
	<path fill="#C2AF8C" d="M2182.219,2057.445c1.272,0.952,2.548,1.891,3.822,2.816
		C2184.767,2059.336,2183.492,2058.397,2182.219,2057.445z"/>
	<path fill="#C2AF8C" d="M2174.803,2051.879c2.479,1.892,4.949,3.743,7.416,5.566
		C2179.752,2055.622,2177.283,2053.771,2174.803,2051.879z"/>
	<path fill="#C2AF8C" d="M2166.877,2045.738c1.274,1.005,2.563,2.011,3.85,3.005
		C2169.453,2047.765,2168.166,2046.757,2166.877,2045.738z"/>
	<path fill="#666666" d="M2142.097,1673.989c7.24,14.136,15.287,27.92,24.379,41.813c-38.701-27.53-82.27-56.683-125.034-83.798
		c-109.96-69.731-112.534-165.57-112.534-165.57c35.254,21.775,64.568,44.667,93.881,63.696
		c27.813,18.047,54.713,33.992,82.391,48.584C2115.626,1614.464,2127.186,1644.958,2142.097,1673.989z"/>
	<path fill="#F3FFB0" d="M2138.328,2022.042c1.771,1.556,3.541,3.099,5.312,4.615c-4.185-2.414-7.67-5.7-10.594-9.282
		c0.871,0.78,1.743,1.557,2.629,2.321C2136.558,2020.487,2137.443,2021.264,2138.328,2022.042z"/>
	<path fill="#F3FFB0" d="M2135.674,2019.696c0.884,0.791,1.769,1.567,2.653,2.346
		C2137.443,2021.264,2136.558,2020.487,2135.674,2019.696z"/>
	<path fill="#F3FFB0" d="M2135.674,2019.696c-0.886-0.765-1.758-1.541-2.629-2.321c-0.015-0.013-0.026-0.039-0.04-0.053
		C2133.89,2018.114,2134.776,2018.918,2135.674,2019.696z"/>
	<path fill="#666666" d="M2133.005,2017.322c-0.121-0.093-0.256-0.214-0.377-0.321c-1.1-0.979-2.198-1.958-3.298-2.951
		c-1.448-1.299-2.896-2.6-4.372-3.915c-28.95-25.961-63.107-56.764-99.419-89.833c-1.409-1.3-2.831-2.588-4.253-3.875
		c-1.422-1.3-2.841-2.601-4.264-3.888c-1.421-1.313-2.856-2.614-4.291-3.917c-0.643-0.602-1.301-1.192-1.944-1.783
		c-9.091-8.301-18.278-16.707-27.53-25.195l2.239-2.442c16.399,15.341,39.438,27.532,51.466,34.409
		c4.508,2.574,7.779,3.447,10.152,2.735c9.534,12.204,19.324,24.206,30.964,28.563c19.109,7.161,31.835,35.604,38.178,45.527
		c0.777,1.221,1.462,2.157,2.052,2.748C2121.338,1996.216,2125.227,2007.816,2133.005,2017.322z"/>
	<path fill="#C2AF8C" d="M2124.958,2010.135c1.476,1.315,2.924,2.616,4.372,3.915
		C2127.896,2012.762,2126.434,2011.45,2124.958,2010.135z"/>
	<path fill="#FFFFFF" d="M2077.354,795.901c0,0-128.775-18.935-86.252,103.202l-0.014,0.013c-2.723-1.368-5.513-2.789-8.354-4.292
		c-80.741-42.549-83.449-93.265-83.449-93.265s91.187-85.823,150.19-40.229C2061.652,770.744,2070.69,782.732,2077.354,795.901z"/>
	<path fill="#FFFFFF" d="M2053.055,1865.337c0,30.561,1.543,48.743-5.94,51.009c-8.032-10.298-15.863-20.73-24.46-26.871
		c-15.81-11.292-31.62-22.584-55.423-38.674c0,0,50.958-22.477,59.004-24.085
		C2034.282,1825.106,2053.055,1825.106,2053.055,1865.337z"/>
	<path fill="#FFFFFF" d="M2047.115,1916.346c-2.373,0.712-5.645-0.161-10.152-2.735c-12.027-6.877-35.066-19.068-51.466-34.409
		c-9.212-8.609-16.333-18.197-18.265-28.4c23.803,16.09,39.613,27.382,55.423,38.674
		C2031.251,1895.615,2039.083,1906.048,2047.115,1916.346z"/>
	<path fill="#C2AF8C" d="M2025.54,1920.302c-1.409-1.287-2.831-2.588-4.253-3.875
		C2022.708,1917.714,2024.13,1919.002,2025.54,1920.302z"/>
	<path fill="#C2AF8C" d="M2017.023,1912.539c-1.421-1.303-2.856-2.601-4.291-3.917
		C2014.167,1909.925,2015.602,1911.226,2017.023,1912.539z"/>
	<path fill="#0E0E0E" d="M2012.825,1980.674c8.047,32.183,6.25,37.158,0.444,58.801c-69.906-54.591-141.996-118.086-213.084-188.392
		c-244.059-241.378-230.648-285.188-230.648-285.188c-21.229-57.731-21.684-98.43-8.436-126.162
		c0.778,1.622,60.332,124.484,86.977,144.908c12.337,9.467,24.675,15.702,34.397,20.717c11.425,5.916,19.243,10.137,19.243,15.932
		c0,10.728,40.229,34.865,40.229,40.23c0,5.362,2.682,18.772,5.364,26.818c2.683,8.047,28.241,3.97,36.917,27.464
		s14.041,42.013,35.496,48.839c21.455,6.84,37.548,28.295,42.912,52.433c5.363,24.138,21.455,26.818,37.547,32.184
		c16.092,5.362,45.594,26.82,48.275,34.865s5.363,16.093,24.138,18.772c14.375,2.053,28.752-0.604,35.897,6.449
		c2.187,2.174,3.702,5.244,4.331,9.644C2015.507,1937.761,2004.78,1948.491,2012.825,1980.674z"/>
	<path fill="#C2AF8C" d="M2010.788,1906.839l-2.294,2.506c-7.146-7.053-21.522-4.396-35.897-6.449
		c-18.774-2.68-21.456-10.728-24.138-18.772s-32.184-29.503-48.275-34.865c-16.092-5.365-32.184-8.046-37.547-32.184
		c-5.364-24.138-21.457-45.593-42.912-52.433c-21.455-6.826-26.82-25.345-35.496-48.839s-34.234-19.417-36.917-27.464
		c-2.683-8.046-5.364-21.456-5.364-26.818c0-5.365-40.229-29.503-40.229-40.23c0-5.795-7.818-10.016-19.243-15.932
		c-22.812-45.419-30.722-80.553-30.829-131.591c-0.028-15.006,4.156-28.481,10.07-40.027c0.455,4.774,1.019,11.841,2.078,20.638
		v0.013c-0.014,0.082-0.026,0.175-0.039,0.254c-0.242,1.397-0.471,2.804-0.686,4.212c-0.025,0.161-0.054,0.322-0.066,0.47
		c-0.215,1.354-0.402,2.709-0.576,4.063c-0.054,0.39-0.107,0.765-0.148,1.168c-0.16,1.245-0.308,2.506-0.442,3.77
		c-0.013,0.118-0.026,0.253-0.039,0.386c-0.176,1.61-0.336,3.233-0.47,4.868c-0.148,1.691-0.27,3.393-0.39,5.097
		c-0.054,1.005-0.12,2.025-0.161,3.044c-0.039,0.644-0.066,1.287-0.093,1.931c-0.068,1.556-0.107,3.125-0.147,4.692
		c-0.041,1.636-0.055,3.273-0.055,4.909c0,32.977,7.014,66.404,22.475,91.389c0.39,0.615,0.791,1.261,1.234,1.931
		c0.188,0.28,0.376,0.551,0.577,0.845c0.496,0.738,1.032,1.516,1.608,2.305c0.375,0.525,0.764,1.061,1.166,1.611
		c8.182,11.09,22.101,26.818,40.271,45.915c0.402,0.428,0.819,0.857,1.234,1.287c15.837,16.602,34.823,35.696,55.959,56.442
		c0.979,0.952,1.957,1.917,2.949,2.883c14.858,14.55,30.737,29.864,47.323,45.701c2.429,2.318,4.869,4.64,7.322,6.972
		c4.385,4.173,8.823,8.383,13.304,12.632c2.802,2.656,5.604,5.299,8.421,7.968c7.04,6.637,14.174,13.355,21.376,20.101
		c2.868,2.709,5.765,5.404,8.662,8.113c1.301,1.219,2.615,2.439,3.929,3.672c4.077,3.824,8.166,7.631,12.258,11.439
		c7.723,7.201,15.502,14.415,23.291,21.646c1.973,1.822,3.943,3.658,5.927,5.483c6.853,6.342,13.72,12.686,20.572,19.002
		c2.937,2.709,5.887,5.418,8.823,8.114c4.706,4.331,9.413,8.648,14.094,12.94
		C1992.509,1890.132,2001.697,1898.538,2010.788,1906.839z"/>
	<path fill="#666666" d="M1985.497,1879.201l-2.239,2.442c-4.681-4.292-9.388-8.609-14.094-12.94
		c-2.937-2.709-5.875-5.405-8.823-8.114c-6.853-6.316-13.72-12.66-20.572-19.002c-1.983-1.836-3.954-3.661-5.927-5.483
		c-7.789-7.23-15.568-14.444-23.291-21.646c-4.104-3.821-8.194-7.644-12.258-11.439c-1.313-1.232-2.628-2.453-3.929-3.672
		c-2.897-2.709-5.78-5.418-8.662-8.113c-7.202-6.745-14.336-13.464-21.376-20.101c-2.83-2.682-5.633-5.338-8.421-7.968
		c-4.48-4.249-8.919-8.459-13.304-12.632c-2.453-2.332-4.894-4.666-7.322-6.972c-16.586-15.837-32.465-31.151-47.323-45.701
		c-0.992-0.966-1.971-1.931-2.949-2.883c-21.136-20.746-40.122-39.841-55.959-56.442c-0.415-0.43-0.832-0.859-1.234-1.287
		c-18.17-19.097-32.089-34.825-40.271-45.915c-0.402-0.551-0.791-1.086-1.166-1.611c-0.576-0.789-1.112-1.566-1.608-2.305
		c-0.201-0.28-0.389-0.564-0.577-0.845c-0.443-0.67-0.845-1.315-1.234-1.931c-15.461-24.984-22.475-58.412-22.475-91.389
		c0-1.636,0.014-3.273,0.055-4.909c0.025-1.567,0.079-3.123,0.147-4.692c0.026-0.644,0.054-1.287,0.093-1.931
		c0.041-1.019,0.107-2.025,0.161-3.044c0.12-1.704,0.241-3.405,0.39-5.097c0.134-1.635,0.294-3.258,0.47-4.868
		c0.013-0.133,0.026-0.268,0.039-0.386c0.135-1.264,0.282-2.524,0.442-3.77c0.041-0.403,0.095-0.778,0.148-1.168
		c0.174-1.369,0.361-2.709,0.576-4.063c0.013-0.147,0.041-0.309,0.066-0.47c0.215-1.408,0.443-2.814,0.686-4.212
		c0.013-0.079,0.025-0.172,0.039-0.254c2.146,17.662,6.316,42.28,15.852,69.169c-2.428,2.67-3.809,4.746-3.809,4.746
		c2.843,26.055,24.097,67.05,37.158,59.729c6.73,9.387,14.388,18.599,23.105,27.477c-0.014,0.014,0,0.026,0.013,0.026
		c1.313,22.838,14.778,25.412,28.187,41.505c13.41,16.09,26.82,24.138,48.275,42.91c6.438,5.634,10.703,8.369,14.256,9.293
		c0.012,0,0.012,0,0.027,0.013c7.322,6.009,16.642,13.437,26.538,21.523c-4.265,0.027-6.853,0.066-6.853,0.066
		c2.682,18.385,40.229,59.394,61.685,72.804c6.92,4.315,11.051,5.027,13.666,3.54c3.633,11.88,5.753,17.15,31.028,34.008
		c5.083,3.39,9.83,6.584,14.309,9.602C1969.164,1861.004,1976.285,1870.592,1985.497,1879.201z"/>
	<path fill="#C2AF8C" d="M1969.164,1868.703c-2.937-2.696-5.887-5.405-8.823-8.114
		C1963.289,1863.298,1966.227,1865.994,1969.164,1868.703z"/>
	<path fill="#FFFFFF" d="M1939.139,1739.592c6.638,18.464-2.87,29.194-8.85,42.602c-4.052,9.093-2.886,21.872-8.395,24.998
		c-1.007-3.247-2.106-6.987-3.837-11.585c-5.779-15.409-37.372-42.552-64.661-64.825c10.137-0.095,29.796-0.2,46.786,0.066
		C1924.321,1731.238,1932.514,1721.139,1939.139,1739.592z"/>
	<path fill="#C2AF8C" d="M1939.768,1841.587c-1.983-1.825-3.954-3.661-5.927-5.483
		C1935.814,1837.926,1937.785,1839.751,1939.768,1841.587z"/>
	<path fill="#FFFFFF" d="M1921.895,1807.191c-2.615,1.487-6.746,0.775-13.666-3.54c-21.455-13.41-59.003-54.419-61.685-72.804
		c0,0,2.588-0.039,6.853-0.066c27.289,22.273,58.882,49.416,64.661,64.825C1919.789,1800.204,1920.888,1803.944,1921.895,1807.191z"
		/>
	<path fill="#C2AF8C" d="M1898.292,1803.019c4.063,3.796,8.153,7.618,12.258,11.439
		C1906.458,1810.649,1902.37,1806.843,1898.292,1803.019z"/>
	<path fill="#C2AF8C" d="M1885.702,1791.233c2.882,2.695,5.765,5.404,8.662,8.113
		C1891.466,1796.638,1888.57,1793.942,1885.702,1791.233z"/>
	<path fill="#C2AF8C" d="M1864.326,1771.133c-2.817-2.669-5.619-5.312-8.421-7.968
		C1858.693,1765.795,1861.496,1768.451,1864.326,1771.133z"/>
	<path fill="#FFFFFF" d="M1858.17,1647.266c16.091,20.504,26.82,47.324,0,52.687c-18.746,3.754-23.079,11.439-31.312,9.306
		c-0.016-0.013-0.016-0.013-0.027-0.013c-0.59-0.496-1.181-0.979-1.743-1.448c-26.819-22.152-14.831-32.238-64.367-70.428
		c-9.011-6.947-17.192-14.27-24.607-21.832c-0.013,0-0.026-0.013-0.013-0.026c-0.296-0.657-8.932-19.994,14.791-21.402
		c24.136-1.435,24.136,14.682,42.911,14.671c18.772-0.014,26.819-18.788,37.547-8.061
		C1842.079,1611.448,1842.079,1626.748,1858.17,1647.266z"/>
	<path fill="#C2AF8C" d="M1835.279,1743.562c2.429,2.306,4.869,4.64,7.322,6.972
		C1840.148,1748.201,1837.708,1745.88,1835.279,1743.562z"/>
	<path fill="#FFFFFF" d="M1825.088,1707.797c0.563,0.47,1.153,0.952,1.743,1.448c-3.553-0.924-7.818-3.659-14.256-9.293
		c-21.455-18.772-34.865-26.82-48.275-42.91c-13.408-16.093-26.873-18.667-28.187-41.505c7.415,7.563,15.597,14.885,24.607,21.832
		C1810.257,1675.559,1798.269,1685.645,1825.088,1707.797z"/>
	<path fill="#C2AF8C" d="M1787.956,1697.86c-0.992-0.966-1.971-1.931-2.949-2.883
		C1785.985,1695.93,1786.963,1696.895,1787.956,1697.86z"/>
	<path fill="#C89E95" d="M1783.517,1404.507c-1.206-0.335-2.425-0.657-3.646-0.966
		C1781.092,1403.85,1782.311,1404.172,1783.517,1404.507z"/>
	<path fill="#C89E95" d="M1753.734,1397.425c-3.875-0.803-7.764-1.567-11.653-2.277
		C1745.97,1395.857,1749.859,1396.622,1753.734,1397.425z"/>
	<path fill="#C89E95" d="M1742.081,1395.147c-2.011-0.377-4.036-0.725-6.048-1.073
		C1738.044,1394.409,1740.07,1394.771,1742.081,1395.147z"/>
	<path fill="#C89E95" d="M1736.033,1394.074c-1.461-0.256-2.924-0.496-4.371-0.726
		C1733.123,1393.578,1734.572,1393.818,1736.033,1394.074z"/>
	<path fill="#C89E95" d="M1729.985,1393.08c-2.011-0.309-4.009-0.615-6.007-0.91
		C1725.976,1392.452,1727.987,1392.759,1729.985,1393.08z"/>
	<path fill="#C2AF8C" d="M1727.813,1637.248c0.402,0.428,0.819,0.857,1.234,1.287
		C1728.632,1638.105,1728.215,1637.676,1727.813,1637.248z"/>
	<path fill="#C89E95" d="M1723.923,1392.17c-1.996-0.282-3.994-0.564-5.994-0.817
		C1719.929,1391.605,1721.927,1391.874,1723.923,1392.17z"/>
	<path fill="#FFFFFF" d="M1718.708,1522.942c21.455,26.818,7.362,57.77-5.712,65.092c-15.368-21.39-25.975-43.623-33.35-64.475
		C1686.739,1515.755,1702.71,1502.946,1718.708,1522.942z"/>
	<path fill="#FFFFFF" d="M1712.996,1588.034c-13.062,7.321-34.315-33.674-37.158-59.729c0,0,1.381-2.076,3.809-4.746
		C1687.021,1544.411,1697.627,1566.645,1712.996,1588.034z"/>
	<path fill="#C89E95" d="M1717.929,1391.353c-5.926-0.766-11.827-1.396-17.674-1.892
		C1706.102,1389.943,1712.003,1390.574,1717.929,1391.353z"/>
	<path fill="#F3FFB0" d="M1696.072,1389.126c1.314,0.095,2.642,0.2,3.957,0.321c0,0-11.426,7.858-23.173,21.779
		c0.496-1.075,1.019-2.136,1.542-3.167c0.523-1.045,1.06-2.076,1.609-3.097c0.549-1.005,1.112-1.997,1.676-2.978
		c0.536-0.911,1.073-1.81,1.623-2.696c0.04-0.068,0.08-0.119,0.121-0.188c0.295-0.469,0.589-0.938,0.898-1.393
		c2.091-3.221,4.33-6.198,6.678-8.907C1692.679,1388.898,1694.369,1389.005,1696.072,1389.126z"/>
	<path fill="#C89E95" d="M1700.029,1389.447c-1.315-0.121-2.643-0.227-3.957-0.321
		C1697.386,1389.221,1698.713,1389.326,1700.029,1389.447z"/>
	<path fill="#C2AF8C" d="M1691.003,1388.802c-2.348,2.709-4.587,5.687-6.678,8.907c-0.31,0.454-0.604,0.924-0.898,1.393
		c-0.041,0.068-0.081,0.119-0.121,0.188c-0.55,0.887-1.087,1.785-1.623,2.696c-0.576,0.98-1.127,1.973-1.676,2.978
		c-0.55,1.021-1.086,2.052-1.609,3.097c-0.523,1.031-1.046,2.092-1.542,3.167c0,0.012-0.014,0.012-0.014,0.024
		c-5.323,6.317-10.714,13.866-15.126,22.489c-5.914,11.546-10.099,25.021-10.07,40.027c0.107,51.038,8.018,86.172,30.829,131.591
		c-9.722-5.015-22.06-11.25-34.397-20.717c-26.645-20.424-86.199-143.286-86.977-144.908
		C1581.137,1397.722,1632.616,1385.465,1691.003,1388.802z"/>
	<path fill="#FA67AB" d="M665.177,1845.504c-1.314,0.214-2.051,0.401-2.051,0.401c-46.264,4.022-74.425,54.311-82.47,72.413
		c-6.517,14.657-16.991,33.27-21.804,52.633c-26.901-38.688-47.592-73.914-59.42-98.4c-35.804-74.186-20.812-111.96-19.35-115.299
		c0.027-0.066,0.067-0.161,0.107-0.24c25.599-56.98,63.656-148.124,94.03-220.244c-4.01,10.421-16.507,50.836,1.126,114.978
		C588.298,1698.918,609.003,1767.282,665.177,1845.504z"/>
	<path fill="#C2AF8C" d="M1687.542,1591.333c-0.402-0.551-0.791-1.086-1.166-1.611
		C1686.751,1590.247,1687.14,1590.782,1687.542,1591.333z"/>
	<path fill="#666666" d="M1684.191,1586.572c0.188,0.28,0.376,0.564,0.577,0.845
		C1684.567,1587.123,1684.379,1586.853,1684.191,1586.572z"/>
	<path fill="#C2AF8C" d="M1684.326,1397.709c-0.31,0.454-0.604,0.924-0.898,1.393
		C1683.722,1398.633,1684.016,1398.163,1684.326,1397.709z"/>
	<path fill="#C2AF8C" d="M1683.306,1399.289c-0.55,0.887-1.087,1.785-1.623,2.696
		C1682.219,1401.074,1682.756,1400.176,1683.306,1399.289z"/>
	<path fill="#C2AF8C" d="M1681.683,1401.985c-0.563,0.98-1.127,1.973-1.676,2.978
		C1680.556,1403.958,1681.107,1402.966,1681.683,1401.985z"/>
	<path fill="#C2AF8C" d="M1680.007,1404.963c-0.55,1.021-1.086,2.052-1.609,3.097
		C1678.921,1407.015,1679.458,1405.983,1680.007,1404.963z"/>
	<path fill="#C2AF8C" d="M1678.398,1408.06c-0.523,1.031-1.046,2.092-1.542,3.167
		C1677.352,1410.151,1677.875,1409.091,1678.398,1408.06z"/>
	<path fill="#F3FFB0" d="M1676.842,1411.251c-0.362,0.792-0.724,1.583-1.087,2.388c-0.589,1.313-1.166,2.667-1.715,4.038
		c-0.457,1.124-0.914,2.278-1.355,3.444c-0.631,1.688-1.247,3.393-1.823,5.136c-0.242,0.684-0.47,1.383-0.698,2.079
		c-1.125,3.486-2.158,7.066-3.097,10.754c-0.147,0.538-0.282,1.1-0.417,1.65c-0.308,1.22-0.602,2.467-0.87,3.715
		c-0.269,1.152-0.524,2.318-0.765,3.5c-0.121,0.604-0.242,1.205-0.361,1.81c-0.31,1.527-0.592,3.057-0.859,4.613
		c-1.06-8.797-1.623-15.863-2.078-20.638C1666.128,1425.117,1671.519,1417.568,1676.842,1411.251z"/>
	<path fill="#F3FFB0" d="M1675.755,1413.639c-0.589,1.313-1.152,2.667-1.715,4.038
		C1674.589,1416.306,1675.167,1414.952,1675.755,1413.639z"/>
	<path fill="#F3FFB0" d="M1672.685,1421.121c-0.631,1.688-1.233,3.393-1.823,5.136
		C1671.438,1424.514,1672.054,1422.81,1672.685,1421.121z"/>
	<path fill="#F3FFB0" d="M1670.862,1426.257c-0.242,0.684-0.47,1.383-0.698,2.079
		C1670.392,1427.64,1670.62,1426.94,1670.862,1426.257z"/>
	<path fill="#C2AF8C" d="M1663.755,1454.645c-0.242,1.397-0.471,2.804-0.686,4.212
		C1663.285,1457.448,1663.513,1456.042,1663.755,1454.645z"/>
	<path fill="#C2AF8C" d="M1663.003,1459.326c-0.215,1.354-0.402,2.693-0.576,4.063
		C1662.601,1462.035,1662.789,1460.68,1663.003,1459.326z"/>
	<path fill="#C2AF8C" d="M1662.279,1464.557c-0.16,1.245-0.308,2.506-0.442,3.77
		C1661.971,1467.063,1662.119,1465.802,1662.279,1464.557z"/>
	<path fill="#C2AF8C" d="M1661.797,1468.712c-0.176,1.61-0.336,3.233-0.47,4.868
		C1661.461,1471.945,1661.622,1470.322,1661.797,1468.712z"/>
	<path fill="#C2AF8C" d="M1660.938,1478.677c-0.054,1.019-0.12,2.025-0.161,3.044
		C1660.818,1480.702,1660.884,1479.682,1660.938,1478.677z"/>
	<path fill="#C2AF8C" d="M1660.684,1483.651c-0.068,1.569-0.122,3.125-0.147,4.692
		C1660.577,1486.776,1660.616,1485.207,1660.684,1483.651z"/>
	<path fill="#C2AF8C" d="M1660.537,1488.344c-0.041,1.636-0.055,3.273-0.055,4.909
		C1660.482,1491.617,1660.496,1489.979,1660.537,1488.344z"/>
	<path d="M1425.462,1604.234c5.364,16.09,18.774,45.593,0,59.001c-18.774,13.41-37.547,16.093-48.276-5.363
		c-10.728-21.455-64.367-26.819-67.049-29.5c-2.683-2.683-24.138-16.093-21.456-34.867c0,0,21.456-26.82,29.501-37.546
		c8.046-10.73-10.729-29.503,0-53.641c10.728-24.138,24.138-42.913,48.275-37.548s51.225,59.003,45.727,85.823
		S1420.098,1588.142,1425.462,1604.234z"/>
	<path fill="#0E0E0E" d="M1195.724,1782.193c10.729,10.73,21.456,59.006-29.501,77.778c-50.958,18.773-32.184,10.728-48.275,10.728
		c0,0,16.092-21.455-5.364-34.865c-21.456-13.41-42.911-26.82-10.728-48.275c32.184-21.455,42.912-32.183,59.003-5.365
		C1176.95,1809.014,1184.996,1771.469,1195.724,1782.193z"/>
	<path fill="#0E0E0E" d="M1162.642,969.559c0,26.819,13.41,37.547-8.046,40.229c-21.456,2.683-37.548-2.683-40.229-13.41
		c0,0,29.502-29.501,37.548-37.548C1159.96,950.785,1162.642,942.739,1162.642,969.559z"/>
	<path fill="#0E0E0E" d="M1063.409,1058.01c0,0,29.501,18.773,16.091,37.547c-13.409,18.774-18.773,26.82-29.501,10.729
		C1039.271,1090.193,1033.908,1060.691,1063.409,1058.01z"/>
	<path fill="#0E0E0E" d="M1056.436,460.574c0,0,7.872,17.299,5.19,46.801c-2.682,29.501-5.364,53.639-32.184,67.049
		s-48.275,40.229-80.459,77.777c-32.184,37.548-64.368,37.548-80.459,32.184c-16.091-5.363-29.501-10.728-77.777-59.003
		c-39.894-39.895-71.849-16.937-81.746-7.751c10.151-10.19,21.764-20.423,35.818-31.526
		c76.436-60.344,207.584-108.351,305.745-124.711C1052.547,461.057,1054.505,460.788,1056.436,460.574z"/>
	<path fill="#0E0E0E" d="M951.652,746.968c18.773,16.092,0,26.82-8.046,26.82s-26.538-14.121-21.456-26.82
		C927.514,733.559,932.877,730.876,951.652,746.968z"/>
	<path fill="#0E0E0E" d="M848.275,1037.975c-5.524,13.384-13.665,26.688-22.998,37.588c-1.757,2.052-4.372,4.359-7.711,6.853
		c-42.657,31.969-205.291,96.873-253.781,85.676c-52.298-12.068-76.436-60.344-68.39-76.437
		c8.046-16.092-16.092-128.733,76.437-269.538c47.805-72.748,71.984-117.215,94.727-151.531h0.014
		c-11.989,53.706,76.342,143.432,132.663,135.386s84.482,4.023,96.551,16.092s32.184,8.046,32.184,24.138
		s-12.069,32.184-28.161,72.413s-8.046,60.344-24.138,92.528C859.58,1043.326,848.275,1037.975,848.275,1037.975z"/>
	<path fill="#0E0E0E" d="M749.619,1553.327c13.41-5.363,40.229,2.979,26.82,40.38s-42.912,23.99-50.958,15.943
		C725.481,1609.65,736.208,1558.692,749.619,1553.327z"/>
	<path fill="#0E0E0E" d="M679.888,1497.006c2.682,2.683-2.682,16.093-10.728,18.775c-8.045,2.681-8.045,2.681-10.728-13.41
		c-2.682-16.093,10.728-10.728,10.728-10.728S677.206,1494.324,679.888,1497.006z"/>
	<path fill="#0E0E0E" d="M634.294,1636.47c0,0,21.456,0,18.774,16.093c-2.682,16.091-2.682,29.501-18.774,24.138
		c-16.091-5.364-16.091-21.457-16.091-26.82C618.203,1644.516,623.566,1639.152,634.294,1636.47z"/>
	<path fill="none" stroke="#000000" stroke-width="12" stroke-linecap="round" stroke-linejoin="round" stroke-miterlimit="10" d="
		M825.277,934.76c0,0,8.045,28.161,24.138,48.275c9.869,12.338,7.629,33.739-1.14,54.939c-5.524,13.384-13.665,26.688-22.998,37.588
		c-1.757,2.052-4.372,4.359-7.711,6.853c-42.657,31.969-205.291,96.873-253.781,85.676c-52.298-12.068-76.436-60.344-68.39-76.437
		c8.046-16.092-16.092-128.733,76.437-269.538c47.805-72.748,71.984-117.215,94.727-151.531
		c12.324-18.586,24.231-34.195,39.251-49.71"/>
	<path fill="none" stroke="#000000" stroke-width="12" stroke-linecap="round" stroke-linejoin="round" stroke-miterlimit="10" d="
		M848.275,1037.975c0,0,11.305,5.352,27.396-26.832c16.092-32.185,8.046-52.299,24.138-92.528s28.161-56.321,28.161-72.413
		s-20.115-12.069-32.184-24.138s-40.23-24.138-96.551-16.092s-144.652-81.68-132.663-135.386"/>
	<path fill="none" stroke="#000000" stroke-width="12" stroke-linecap="round" stroke-linejoin="round" stroke-miterlimit="10" d="
		M705.809,620.876c0.054-0.068,0.12-0.135,0.174-0.202c0.389-0.442,1.408-1.569,3.018-3.044c9.896-9.185,41.852-32.143,81.746,7.751
		c48.276,48.275,61.686,53.64,77.777,59.003c16.092,5.364,48.275,5.364,80.459-32.184c32.184-37.547,53.639-64.367,80.459-77.777
		s29.501-37.547,32.184-67.049c2.682-29.502-5.19-46.801-5.19-46.801"/>
	<path fill="none" stroke="#000000" stroke-width="12" stroke-linecap="round" stroke-linejoin="round" stroke-miterlimit="10" d="
		M1344.238,501.622c0,0-203.95,106.782-254.907,208.697c-50.958,101.915,40.23,166.283,67.049,174.328
		c26.82,8.046,9.052-5.364,52.808,29.501c43.743,34.865,73.245,34.865,108.11,32.184s32.184-5.364,83.141,10.728
		c50.958,16.093,144.827,61.687,187.738,77.778c42.912,16.09,124.268,87.605,134.997,95.652
		c10.728,8.045,24.473,50.902,118.006,37.548c18.775-2.683,42.912,26.818,93.87,29.501c50.958,2.682,32.183-10.729,64.367,0
		c32.184,10.728,26.819,8.77,42.911,0.362c16.092-8.408,32.185-0.362,40.229,2.319c8.046,2.683,16.093-21.455,88.505-32.183
		c72.413-10.729,123.785-0.428,225.5-155.77"/>
	<path fill="none" stroke="#000000" stroke-width="12" stroke-linecap="round" stroke-linejoin="round" stroke-miterlimit="10" d="
		M2736.957,1570.332c-42.91-2.681-53.639-45.593-61.685-67.048c-8.046-21.456-88.505-72.414-112.643-88.506
		c-24.138-16.093-8.046,10.728-29.501,0c-21.457-10.729-26.82,18.774-50.958,5.364s-37.548-24.138-59.728-5.364
		c-22.193,18.774-26.096,59.003-7.322,104.596c18.775,45.596-2.682,83.141-18.559,101.916
		c-15.892,18.772-57.501,48.813-57.501,48.813"/>
	<path fill="none" stroke="#000000" stroke-width="12" stroke-linecap="round" stroke-linejoin="round" stroke-miterlimit="10" d="
		M2166.476,1715.803c-9.092-13.894-17.139-27.678-24.379-41.813c-14.911-29.031-26.471-59.525-36.918-95.274"/>
	<path fill="none" stroke="#000000" stroke-width="12" stroke-linecap="round" stroke-linejoin="round" stroke-miterlimit="10" d="
		M2142.097,1673.989c0,0,42.375,12.566,63.831,12.566c21.455,0,26.819,10.298,18.772,23.924c-4.8,8.126-15.193,21.576-22.81,31.122"
		/>
	<path fill="none" stroke="#000000" stroke-width="12" stroke-linecap="round" stroke-linejoin="round" stroke-miterlimit="10" d="
		M1117.947,1870.699c0,0,16.092-21.455-5.364-34.865c-21.456-13.41-42.911-26.82-10.728-48.275
		c32.184-21.455,42.912-32.183,59.003-5.365c16.092,26.82,24.138-10.725,34.865,0c10.729,10.73,21.456,59.006-29.501,77.778
		C1115.265,1878.745,1134.039,1870.699,1117.947,1870.699z"/>
	<path fill="none" stroke="#000000" stroke-width="12" stroke-linecap="round" stroke-linejoin="round" stroke-miterlimit="10" d="
		M575.345,1534.085c22.166-52.646,40.068-94.66,45.674-104.944c16.091-29.503,152.858-280.709,160.904-294.119
		c8.046-13.41,35.644-52.606,35.644-52.606"/>
	<path fill="none" stroke="#000000" stroke-width="12" stroke-linecap="round" stroke-linejoin="round" stroke-miterlimit="10" d="
		M574.393,1536.353c0.294-0.725,0.604-1.435,0.898-2.146"/>
	<path fill="none" stroke="#000000" stroke-width="12" stroke-linecap="round" stroke-linejoin="round" stroke-miterlimit="10" d="
		M480.188,1757.012c25.599-56.98,63.656-148.124,94.03-220.244"/>
	<path fill="none" stroke="#000000" stroke-width="12" stroke-linecap="round" stroke-linejoin="round" stroke-miterlimit="10" d="
		M665.177,1845.504c-56.173-78.222-76.878-146.586-89.832-193.759c-17.634-64.142-5.136-104.557-1.126-114.978
		c0.054-0.148,0.107-0.282,0.174-0.415c0.442-1.154,0.764-1.864,0.898-2.146c0.027-0.079,0.054-0.121,0.054-0.121"/>
	<path fill="none" stroke="#000000" stroke-width="12" stroke-linecap="round" stroke-linejoin="round" stroke-miterlimit="10" d="
		M713.895,1905.31c-2.32-2.533-4.586-5.055-6.813-7.563"/>
	<path fill="none" stroke="#000000" stroke-width="12" stroke-linecap="round" stroke-linejoin="round" stroke-miterlimit="10" d="
		M725.481,1609.65c0,0,10.728-50.958,24.138-56.323c13.41-5.363,40.229,2.979,26.82,40.38S733.527,1617.697,725.481,1609.65z"/>
	<path fill="none" stroke="#000000" stroke-width="12" stroke-linecap="round" stroke-linejoin="round" stroke-miterlimit="10" d="
		M634.294,1636.47c0,0,21.456,0,18.774,16.093c-2.682,16.091-2.682,29.501-18.774,24.138c-16.091-5.364-16.091-21.457-16.091-26.82
		C618.203,1644.516,623.566,1639.152,634.294,1636.47z"/>
	<path fill="none" stroke="#000000" stroke-width="12" stroke-linecap="round" stroke-linejoin="round" stroke-miterlimit="10" d="
		M669.16,1491.644c0,0-13.41-5.365-10.728,10.728c2.683,16.091,2.683,16.091,10.728,13.41c8.046-2.683,13.41-16.093,10.728-18.775
		C677.206,1494.324,669.16,1491.644,669.16,1491.644z"/>
	<path d="M981.154,1332.457c0,18.772-5.364,32.183,13.41,26.818c18.774-5.363,24.137-10.729,26.819-21.456
		S981.162,1300.794,981.154,1332.457"/>
	<path fill="none" stroke="#000000" stroke-width="12" stroke-linecap="round" stroke-linejoin="round" stroke-miterlimit="10" d="
		M1063.409,1058.01c0,0,29.501,18.773,16.091,37.547c-13.409,18.774-18.773,26.82-29.501,10.729
		C1039.271,1090.193,1033.908,1060.691,1063.409,1058.01z"/>
	<path fill="none" stroke="#000000" stroke-width="12" stroke-linecap="round" stroke-linejoin="round" stroke-miterlimit="10" d="
		M1114.367,996.378c0,0,29.502-29.501,37.548-37.548c8.045-8.045,10.728-16.091,10.728,10.729c0,26.819,13.41,37.547-8.046,40.229
		C1133.141,1012.471,1117.048,1007.105,1114.367,996.378z"/>
	<path fill="none" stroke="#000000" stroke-width="12" stroke-linecap="round" stroke-linejoin="round" stroke-miterlimit="10" d="
		M1288.682,1593.505c0,0,21.456-26.82,29.501-37.546c8.046-10.73-10.729-29.503,0-53.641c10.728-24.138,24.138-42.913,48.275-37.548
		s51.225,59.003,45.727,85.823s7.912,37.548,13.276,53.641c5.364,16.09,18.774,45.593,0,59.001
		c-18.774,13.41-37.547,16.093-48.276-5.363c-10.728-21.455-64.367-26.819-67.049-29.5
		C1307.455,1625.689,1285.999,1612.279,1288.682,1593.505z"/>
	<path fill="none" stroke="#000000" stroke-width="12" stroke-linecap="round" stroke-linejoin="round" stroke-miterlimit="10" d="
		M922.15,746.968c-5.082,12.699,13.41,26.82,21.456,26.82s26.819-10.728,8.046-26.82
		C932.877,730.876,927.514,733.559,922.15,746.968z"/>
	<path fill="none" stroke="#000000" stroke-width="12" stroke-linecap="round" stroke-linejoin="round" stroke-miterlimit="10" d="
		M2498.263,1587.321c4.022,4.023-1.342,9.388-4.024,5.365C2491.558,1588.664,2498.263,1587.321,2498.263,1587.321z"/>
	<path fill="none" stroke="#000000" stroke-width="12" stroke-linecap="round" stroke-linejoin="round" stroke-miterlimit="10" d="
		M2581.404,1590.004c-2.683-4.022,4.022-5.362,4.022-5.362C2589.45,1588.664,2584.085,1594.026,2581.404,1590.004z"/>
	<path fill="none" stroke="#000000" stroke-width="12" stroke-linecap="round" stroke-linejoin="round" stroke-miterlimit="10" d="
		M2459.374,1484.065c-2.683-4.022,4.022-5.362,4.022-5.362C2467.419,1482.726,2462.055,1488.091,2459.374,1484.065z"/>
	<path fill="none" stroke="#000000" stroke-width="12" stroke-linecap="round" stroke-linejoin="round" stroke-miterlimit="10" d="
		M2632.361,1514.911c-2.682-4.025,4.022-5.365,4.022-5.365C2640.406,1513.568,2635.042,1518.934,2632.361,1514.911z"/>
	<path fill="none" stroke="#000000" stroke-width="12" stroke-linecap="round" stroke-linejoin="round" stroke-miterlimit="10" d="
		M2473.495,1543.042c4.962-6.705,11.063,3.395,11.063,3.395C2480.374,1555.326,2468.533,1549.747,2473.495,1543.042z"/>
	<path fill="none" stroke="#000000" stroke-width="12" stroke-linecap="round" stroke-linejoin="round" stroke-miterlimit="10" d="
		M2537.862,1508.177c4.961-6.705,11.063,3.395,11.063,3.395C2544.741,1520.461,2532.9,1514.882,2537.862,1508.177z"/>
	<path fill="none" stroke="#000000" stroke-width="12" stroke-linecap="round" stroke-linejoin="round" stroke-miterlimit="10" d="
		M2591.5,1541.702c4.963-6.705,11.064,3.395,11.064,3.395C2598.38,1553.986,2586.54,1548.407,2591.5,1541.702z"/>
	<path fill="none" stroke="#000000" stroke-width="12" stroke-linecap="round" stroke-linejoin="round" stroke-miterlimit="10" d="
		M2580.773,1453.196c4.962-6.705,11.064,3.395,11.064,3.395C2587.653,1465.48,2575.812,1459.901,2580.773,1453.196z"/>
	<path fill="none" stroke="#000000" stroke-width="12" stroke-linecap="round" stroke-linejoin="round" stroke-miterlimit="10" d="
		M2507.824,1447.781c5.766-7.792,12.846,3.94,12.846,3.94C2515.816,1462.035,2502.057,1455.557,2507.824,1447.781z"/>
	<path fill="none" stroke="#000000" stroke-width="12" stroke-linecap="round" stroke-linejoin="round" stroke-miterlimit="10" d="
		M2456.49,1430.443c5.768-7.794,12.847,3.928,12.847,3.928C2464.483,1444.695,2450.737,1438.219,2456.49,1430.443z"/>
	<path fill="none" stroke="#000000" stroke-width="12" stroke-linecap="round" stroke-linejoin="round" stroke-miterlimit="10" d="
		M1784.228,1404.694c0.322,1.34,21.777,91.135,146.396,179.947c11.33,8.074,23.507,16.146,36.607,24.138"/>
	<path fill="none" stroke="#000000" stroke-width="12" stroke-linecap="round" stroke-linejoin="round" stroke-miterlimit="10" d="
		M2338.471,1963.402c21.964,16.291,42.079,31.982,57.876,45.875c34.062,29.97,62.33,53.72,85.662,74.384
		c22.596,20.036,40.565,37.199,54.657,54.351"/>
	<path fill="none" stroke="#000000" stroke-width="12" stroke-linecap="round" stroke-linejoin="round" stroke-miterlimit="10" d="
		M1930.625,1584.642c0,0-6.304,21.455,36.607,64.366c42.912,42.912,147.509,145.322,182.373,177.708
		c22.195,20.598,88.921,65.038,151.801,109.826"/>
	<path fill="none" stroke="#000000" stroke-width="12" stroke-linecap="round" stroke-linejoin="round" stroke-miterlimit="10" d="
		M2704.413,1710.479c0,0,24.499-54.324,27.181-73.097c2.682-18.775,16.092-37.548,5.363-67.051
		c-10.728-29.5-21.455-29.5-13.409-61.686c8.046-32.183,25.197-56.32-0.818-96.549c-26.001-40.23-68.912-56.323-42.093-96.551
		c26.818-40.23,56.32-42.913,72.413-50.958c16.093-8.048,35.388-15.811,52.565-40.083"/>
	<path fill="none" stroke="#000000" stroke-width="12" stroke-linecap="round" stroke-linejoin="round" stroke-miterlimit="10" d="
		M705.983,620.674c1.006-1.019,1.999-2.025,3.018-3.044c10.151-10.19,21.764-20.423,35.818-31.526
		c76.436-60.344,207.584-108.351,305.745-124.711c1.984-0.335,3.942-0.604,5.873-0.818c45.338-5.283,79.426,17.246,98.723,24.956
		c20.115,8.046,189.079,16.092,189.079,16.092s122.029-56.321,178.351-48.275c56.321,8.045,128.735,0,229.31,40.229
		c100.573,40.229,108.619,56.321,217.238,76.436c108.62,20.115,172.987,132.757,189.078,181.033
		c16.093,48.275,113.932,197.205,223.06,249.865c5.981,2.897,10.594,6.692,15.288,11.358c15.649,15.516,32.33,40.579,104.503,73.581
		c93.868,42.91,139.462,75.094,179.691,91.186c14.858,5.94,65.227,24.701,124.858,47.471
		c67.561,25.802,147.014,56.764,200.236,80.11"/>
	<path fill="none" stroke="#000000" stroke-width="12" stroke-linecap="round" stroke-linejoin="round" stroke-miterlimit="10" d="
		M3005.866,1304.616c0,0,0,0-0.015,0c-1.192,0.04-76.905,3.07-106.179,27.021c-29.502,24.138-69.732,61.686-21.455,118.007
		c48.275,56.322,91.694,80.714,127.648,91.307"/>
	<path fill="none" stroke="#000000" stroke-width="12" stroke-linecap="round" stroke-linejoin="round" stroke-miterlimit="10" d="
		M1679.646,1523.56c-9.535-26.889-13.705-51.507-15.852-69.169"/>
	<path fill="none" stroke="#000000" stroke-width="12" stroke-linecap="round" stroke-linejoin="round" stroke-miterlimit="10" d="
		M1736.101,1615.511c-8.718-8.878-16.375-18.09-23.105-27.477"/>
	<path fill="none" stroke="#000000" stroke-width="12" stroke-linecap="round" stroke-linejoin="round" stroke-miterlimit="10" d="
		M1826.832,1709.245c-0.59-0.496-1.181-0.979-1.743-1.448c-26.819-22.152-14.831-32.238-64.367-70.428
		c-9.011-6.947-17.192-14.27-24.607-21.832"/>
	<path fill="none" stroke="#000000" stroke-width="12" stroke-linecap="round" stroke-linejoin="round" stroke-miterlimit="10" d="
		M1967.232,1850.801c-4.479-3.018-9.226-6.212-14.309-9.602c-25.275-16.857-27.396-22.128-31.028-34.008"/>
	<path fill="none" stroke="#000000" stroke-width="12" stroke-linecap="round" stroke-linejoin="round" stroke-miterlimit="10" d="
		M1928.908,1466.435c0,0,2.574,95.839,112.534,165.57c42.765,27.115,86.333,56.268,125.034,83.798
		c12.364,8.81,24.231,17.445,35.415,25.799c43.851,32.748,77.228,61.164,88.975,78.143c14.39,20.783,22.1,40.441,38.485,58.947
		c11.104,12.538,26.191,24.539,50.02,36.019c59.003,28.403,78.286-1.1,114.239,33.768c35.951,34.865,34.447,88.504,55.314,109.959
		c20.865,21.458,43.126,50.958,30.654,83.142c-12.47,32.185,3.621,59.005-23.199,67.05c-23.761,7.133-33.243,26.887-75.939,3.311"/>
	<path fill="none" stroke="#000000" stroke-width="12" stroke-linecap="round" stroke-linejoin="round" stroke-miterlimit="10" d="
		M1561.088,1439.723c0,0,0,0,0.013,0.011c0.778,1.622,60.332,124.484,86.977,144.908c12.337,9.467,24.675,15.702,34.397,20.717
		c11.425,5.916,19.243,10.137,19.243,15.932c0,10.728,40.229,34.865,40.229,40.23c0,5.362,2.682,18.772,5.364,26.818
		c2.683,8.047,28.241,3.97,36.917,27.464s14.041,42.013,35.496,48.839c21.455,6.84,37.548,28.295,42.912,52.433
		c5.363,24.138,21.455,26.818,37.547,32.184c16.092,5.362,45.594,26.82,48.275,34.865s5.363,16.093,24.138,18.772
		c14.375,2.053,28.752-0.604,35.897,6.449c2.187,2.174,3.702,5.244,4.331,9.644c2.683,18.772-8.045,29.503,0,61.686
		c8.047,32.183,6.25,37.158,0.444,58.801"/>
	<path fill="none" stroke="#000000" stroke-width="12" stroke-linecap="round" stroke-linejoin="round" stroke-miterlimit="10" d="
		M1700.029,1389.447c0,0-11.426,7.858-23.173,21.779c0,0.012-0.014,0.012-0.014,0.024c-5.323,6.317-10.714,13.866-15.126,22.489
		c-5.914,11.546-10.099,25.021-10.07,40.027c0.107,51.038,8.018,86.172,30.829,131.591"/>
	<path fill="none" stroke="#000000" stroke-width="12" stroke-linecap="round" stroke-linejoin="round" stroke-miterlimit="10" d="
		M1967.232,1850.801c0,0,50.958-22.477,59.004-24.085c8.046-1.609,26.819-1.609,26.819,38.621c0,30.561,1.543,48.743-5.94,51.009
		c-2.373,0.712-5.645-0.161-10.152-2.735c-12.027-6.877-35.066-19.068-51.466-34.409
		C1976.285,1870.592,1969.164,1861.004,1967.232,1850.801z"/>
	<path fill="none" stroke="#000000" stroke-width="12" stroke-linecap="round" stroke-linejoin="round" stroke-miterlimit="10" d="
		M1921.895,1807.191c-2.615,1.487-6.746,0.775-13.666-3.54c-21.455-13.41-59.003-54.419-61.685-72.804c0,0,2.588-0.039,6.853-0.066
		c10.137-0.095,29.796-0.2,46.786,0.066c24.138,0.391,32.331-9.709,38.956,8.744c6.638,18.464-2.87,29.194-8.85,42.602
		C1926.238,1791.286,1927.404,1804.065,1921.895,1807.191z"/>
	<path fill="none" stroke="#000000" stroke-width="12" stroke-linecap="round" stroke-linejoin="round" stroke-miterlimit="10" d="
		M1712.996,1588.034c-13.062,7.321-34.315-33.674-37.158-59.729c0,0,1.381-2.076,3.809-4.746
		c7.093-7.805,23.064-20.613,39.062-0.617C1740.163,1549.761,1726.07,1580.712,1712.996,1588.034z"/>
	<path fill="none" stroke="#000000" stroke-width="12" stroke-linecap="round" stroke-linejoin="round" stroke-miterlimit="10" d="
		M1826.832,1709.245c-3.553-0.924-7.818-3.659-14.256-9.293c-21.455-18.772-34.865-26.82-48.275-42.91
		c-13.408-16.093-26.873-18.667-28.187-41.505"/>
	<path fill="none" stroke="#000000" stroke-width="12" stroke-linecap="round" stroke-linejoin="round" stroke-miterlimit="10" d="
		M1736.101,1615.511c-0.296-0.657-8.932-19.994,14.791-21.402c24.136-1.435,24.136,14.682,42.911,14.671
		c18.772-0.014,26.819-18.788,37.547-8.061c10.729,10.729,10.729,26.029,26.82,46.547c16.091,20.504,26.82,47.324,0,52.687
		c-18.746,3.754-23.079,11.439-31.312,9.306"/>
	<path fill="none" stroke="#000000" stroke-width="12" stroke-linecap="round" stroke-linejoin="round" stroke-miterlimit="10" d="
		M1736.114,1615.537c-0.013,0-0.026-0.013-0.013-0.026"/>
	<g id="XMLID_1_">
		<g>
			<path d="M2077.358,795.903c27.021,53.41,15.03,126.35,15.03,126.35s-29.87,12.44-101.3-23.14l0.01-0.01
				C1948.578,776.963,2077.358,795.903,2077.358,795.903z"/>
		</g>
		<g>
			
				<path fill="none" stroke="#000000" stroke-width="12" stroke-linecap="round" stroke-linejoin="round" stroke-miterlimit="10" d="
				M2077.358,795.903c27.021,53.41,15.03,126.35,15.03,126.35s-29.87,12.44-101.3-23.14c-2.721-1.37-5.511-2.79-8.351-4.29
				c-80.75-42.55-83.45-93.26-83.45-93.26s91.181-85.83,150.19-40.23C2061.648,770.743,2070.688,782.733,2077.358,795.903z"/>
			
				<path fill="none" stroke="#000000" stroke-width="12" stroke-linecap="round" stroke-linejoin="round" stroke-miterlimit="10" d="
				M2077.358,795.903c0,0-128.78-18.94-86.26,103.2"/>
		</g>
	</g>
	<path fill="#0E0E0E" d="M1594.438,2065.168c-5.364-9.372-18.773,9.361-26.819-17.459c-4.976-16.6-8.931-19.846-16.24-22.286
		c-4.492-1.49-10.258-2.683-18.317-6.491c-21.147-9.989-32.492-6.088-43.22,12.688c-10.728,18.772-26.82,21.455-64.368,26.817
		c-37.547,5.365-18.773,24.138-10.728,31.354c5.646,5.054,32.372,16.277,47.82,22.54c6.571,2.655,11.103,4.412,11.103,4.412
		c47.498-4.975,96.657-15.997,125.529-23.186v-0.013C1598.595,2080.391,1599.803,2074.529,1594.438,2065.168z"/>
	<path fill="#0E0E0E" d="M1458.222,2195.218c13.986-69.73,79.896-26.82,74.532-10.728c-5.364,16.093-13.41,26.82-13.41,40.23
		c0,13.408,2.683,26.818-3.646,34.865c-6.331,8.045-36.583,19.512-36.583,19.512c-12.069-1.462-21.268-14.148-2.682-40.969
		C1482.682,2229.104,1454.734,2212.65,1458.222,2195.218z"/>
	<path fill="#070707" d="M1200.632,2110.308c3.473,0.522,6.625,1.287,9.48,2.266c-12.873-1.021-26.014-2.213-39.331-3.58
		C1177.982,2108.067,1187.598,2108.35,1200.632,2110.308z"/>
	<path fill="#070707" d="M1194.115,2276.468c-0.068,0.056-0.121,0.079-0.188,0.121c-18.774,10.728-39.331,8.046-58.105,2.683
		c-4.158-1.194-7.013-3.809-8.931-7.282c12.82,0.952,23.199,1.569,30.507,1.97
		C1168.663,2274.59,1180.973,2275.798,1194.115,2276.468z"/>
	<path fill="#070707" d="M1057.066,2088.557c-0.066,1.192-0.147,2.453-0.268,3.809c-2.105-0.403-4.21-0.82-6.316-1.234
		C1052.735,2090.139,1054.934,2089.281,1057.066,2088.557z"/>
	<path fill="#CBA000" d="M1047.452,2263.875l-4.304,47.754C1040.974,2285.882,1047.452,2263.875,1047.452,2263.875z"/>
	<path fill="#070707" d="M1047.452,2263.875c0,0-6.478,22.007-4.304,47.754c-6.759-2.549-13.853-4.439-21.229-5.619
		c-1.515-0.242-3.044-0.456-4.559-0.63v-37.951c8.005,0.484,15.139-0.897,18.236-5.136
		C1039.606,2262.844,1043.563,2263.382,1047.452,2263.875z"/>
	<path fill="#0E0E0E" d="M1030.34,1999.436c11.761,7.052,13.478,12.817,13.598,65.276c-20.208-9.319-76.262-30.936-124.457-44.707
		c-37.387-10.675-46.412-0.095-50.596,11.371c-22.126-11.438-42.67-24.391-61.042-39.022c-37.077-29.542-68.014-58.71-93.949-87.044
		c0,0,61.658-5.107,83.114-58.748c21.456-53.638,64.368-21.455,83.142,8.046c18.773,29.502,50.957,42.912,75.095,42.912
		s48.276,42.911,45.593,77.778C1000.838,1975.298,1016.931,1991.389,1030.34,1999.436z"/>
	<path fill="#070707" d="M1017.36,2259.639c6.182,0.939,12.27,1.823,18.236,2.654c-3.097,4.238-10.231,5.62-18.236,5.136V2259.639z"
		/>
	<path fill="#CBA000" d="M1017.36,2267.429v37.951c0,0-2.736-22.26-1.248-38.044
		C1016.528,2267.376,1016.944,2267.404,1017.36,2267.429z"/>
	<path fill="#070707" d="M1017.36,2259.639v7.79c-0.416-0.024-0.832-0.053-1.248-0.093
		C1016.381,2264.506,1016.783,2261.892,1017.36,2259.639z"/>
	<path fill="#070707" d="M1017.36,2259.639c-0.578,2.253-0.979,4.867-1.248,7.697c-5.954-0.496-12.284-1.983-17.729-4.075
		c2.603-1.73,4.922-3.661,6.961-5.526C1009.395,2258.392,1013.404,2259.021,1017.36,2259.639z"/>
	<path fill="#FA67AB" d="M868.886,2031.376c-2.132,5.806-3.017,11.841-5.726,15.449c-8.046,10.728-42.912,152.872-42.912,152.872
		s-1.234,3.714-1.448,8.554c-7.965-3.258-15.811-6.691-23.467-10.284c-69.074-32.426-136.915-99.179-191.184-166.522
		c6.651-8.208,10.607-21.471,12.713-24.62c4.022-6.037,28.16-52.301,36.206-74.426c8.046-22.125,30.025-34.195,44.253-34.195
		c3.781,0,7.04-0.121,9.762-0.456c2.226,2.508,4.493,5.029,6.813,7.563c25.935,28.334,56.872,57.502,93.949,87.044
		C826.215,2006.985,846.759,2019.938,868.886,2031.376z"/>
	<path fill="#070707" d="M709.39,1866.021c-11.935-23.883-36.904-21.725-44.213-20.517c-1.314,0.214-2.051,0.401-2.051,0.401
		c-46.264,4.022-74.425,54.311-82.47,72.413c-6.517,14.657-16.991,33.27-21.804,52.633c-1.127,4.561-1.945,9.146-2.334,13.745
		c-2.012,24.138-0.296,20.115,21.818,44.857c11.317,12.672,19.698,9.398,25.813,1.891c6.651-8.208,10.607-21.471,12.713-24.62
		c4.022-6.037,28.16-52.301,36.206-74.426c8.046-22.125,30.025-34.195,44.253-34.195c3.781,0,7.04-0.121,9.762-0.456
		C720.292,1896.125,721.056,1889.366,709.39,1866.021z"/>
	<path fill="#0E0E0E" d="M551.166,2119.347c0,15.313-29.501,35.644-29.501,35.644c-18.774,2.68-8.046,2.68-21.456-13.412
		c-13.41-16.091-26.82-21.456-24.486-32.184s21.804-16.093,45.942-21.455C545.802,2082.574,551.166,2104.032,551.166,2119.347z"/>
	<path fill="none" stroke="#000000" stroke-width="12" stroke-linecap="round" stroke-linejoin="round" stroke-miterlimit="10" d="
		M551.166,2119.347c0-15.314-5.364-36.772-29.501-31.407c-24.138,5.362-43.608,10.728-45.942,21.455s11.077,16.093,24.486,32.184
		c13.41,16.092,2.682,16.092,21.456,13.412C521.665,2154.99,551.166,2134.659,551.166,2119.347z"/>
	<path fill="none" stroke="#000000" stroke-width="12" stroke-linecap="round" stroke-linejoin="round" stroke-miterlimit="10" d="
		M1458.222,2195.218c-3.487,17.433,24.46,33.887,18.21,42.911c-18.586,26.82-9.387,39.507,2.682,40.969
		c0,0,30.251-11.467,36.583-19.512c6.329-8.047,3.646-21.457,3.646-34.865c0-13.41,8.046-24.138,13.41-40.23
		C1538.117,2168.397,1472.208,2125.487,1458.222,2195.218z"/>
	<path fill="none" stroke="#000000" stroke-width="12" stroke-linecap="round" stroke-linejoin="round" stroke-miterlimit="10" d="
		M1551.379,2025.423c18.694-18.425,30.36-29.999,30.36-29.999"/>
	<path fill="none" stroke="#000000" stroke-width="12" stroke-linecap="round" stroke-linejoin="round" stroke-miterlimit="10" d="
		M1194.115,2276.468c43.206,2.279,95.25-1.045,147.441-49.001c32.572-29.93,74.88-70.414,114.882-109.181
		c2.051-1.999,4.09-3.97,6.128-5.955"/>
	<path fill="none" stroke="#000000" stroke-width="12" stroke-linecap="round" stroke-linejoin="round" stroke-miterlimit="10" d="
		M1035.597,2262.293c4.01,0.551,7.966,1.089,11.855,1.582c31.097,4.052,58.521,6.547,79.439,8.114"/>
	<path fill="none" stroke="#000000" stroke-width="12" stroke-linecap="round" stroke-linejoin="round" stroke-miterlimit="10" d="
		M604.149,2031.444c54.27,67.344,122.11,134.097,191.184,166.522c7.656,3.593,15.502,7.026,23.467,10.284"/>
	<path fill="none" stroke="#000000" stroke-width="12" stroke-linecap="round" stroke-linejoin="round" stroke-miterlimit="10" d="
		M480.188,1757.012c-0.041,0.079-0.081,0.174-0.107,0.24c-1.461,3.339-16.454,41.113,19.35,115.299
		c11.828,24.486,32.519,59.713,59.42,98.4"/>
	<path fill="none" stroke="#000000" stroke-width="12" stroke-linecap="round" stroke-linejoin="round" stroke-miterlimit="10" d="
		M1170.782,2108.993c-25.237-2.614-51.132-5.913-77.12-10.099"/>
	<path fill="none" stroke="#000000" stroke-width="12" stroke-linecap="round" stroke-linejoin="round" stroke-miterlimit="10" d="
		M1473.67,2116.743c-5.78,0.604-11.533,1.126-17.231,1.543c-11.546,0.817-22.837,1.206-33.525,1.005
		c-34.396-0.644-116.37,0.926-212.801-6.718"/>
	<path fill="none" stroke="#000000" stroke-width="12" stroke-linecap="round" stroke-linejoin="round" stroke-miterlimit="10" d="
		M1624.798,2086.813c0,0-9.749,2.79-25.599,6.744"/>
	<path fill="none" stroke="#000000" stroke-width="12" stroke-linecap="round" stroke-linejoin="round" stroke-miterlimit="10" d="
		M1047.452,2263.875c0,0-6.478,22.007-4.304,47.754"/>
	<path fill="none" stroke="#000000" stroke-width="12" stroke-linecap="round" stroke-linejoin="round" stroke-miterlimit="10" d="
		M1017.36,2305.38c0,0-2.736-22.26-1.248-38.044"/>
	<path fill="none" stroke="#000000" stroke-width="12" stroke-linecap="round" stroke-linejoin="round" stroke-miterlimit="10" d="
		M1043.938,2064.712c-0.12-52.459-1.837-58.225-13.598-65.276c-13.41-8.047-29.502-24.138-29.502-24.138
		c2.683-34.867-21.455-77.778-45.593-77.778s-56.321-13.41-75.095-42.912c-18.774-29.501-61.686-61.684-83.142-8.046
		c-21.456,53.641-83.114,58.748-83.114,58.748c25.935,28.334,56.872,57.502,93.949,87.044
		c18.372,14.632,38.916,27.585,61.042,39.022"/>
	<path fill="none" stroke="#000000" stroke-width="12" stroke-linecap="round" stroke-linejoin="round" stroke-miterlimit="10" d="
		M1599.199,2093.558v-0.013c-0.604-13.154,0.604-19.016-4.761-28.377c-5.364-9.372-18.773,9.361-26.819-17.459
		c-4.976-16.6-8.931-19.846-16.24-22.286c-4.492-1.49-10.258-2.683-18.317-6.491c-21.147-9.989-32.492-6.088-43.22,12.688
		c-10.728,18.772-26.82,21.455-64.368,26.817c-37.547,5.365-18.773,24.138-10.728,31.354c5.646,5.054,32.372,16.277,47.82,22.54
		c6.571,2.655,11.103,4.412,11.103,4.412C1521.168,2111.769,1570.327,2100.746,1599.199,2093.558z"/>
	<path fill="#C2AF8C" d="M2281.908,2095.104c-21.46-2.69-24.14-8.051-32.18-16.101c-8.05-8.04-5.41-8.899-21.47-13.84
		c-7.771-2.38-10.32,1.19-11.7,3.76c0,0-29.91-38.189-57.38-38.189c-6.07,0-11.2-1.57-15.54-4.08c-1.771-1.51-3.54-3.061-5.311-4.61
		c-0.89-0.779-1.77-1.56-2.649-2.35c-0.9-0.78-1.79-1.58-2.67-2.37c-7.78-9.51-11.67-21.11-14.7-24.14
		c-0.59-0.591-1.271-1.53-2.05-2.75c0,0,95.029-17.82,132.58,6.319c2.199,1.41,4.47,2.91,6.81,4.49
		c-13.02,15.76-22.16,25.01-22.16,25.01c43.15,51.95,84.601,37.36,93.88,33.141c13.141,13.1,22.38,24.909,23.391,32.47
		c2.27,17.12,19.95,26.979,38.34,39.58C2333.238,2127.283,2303.358,2097.783,2281.908,2095.104z"/>
	<path fill="#666666" d="M2204.988,2073.613c4.01-5.17,6.3-8.45,6.3-8.45c3.7,8.11,3.811,6.51,5.271,3.76
		c1.38-2.569,3.93-6.14,11.7-3.76c16.06,4.94,13.42,5.8,21.47,13.84c8.04,8.05,10.72,13.41,32.18,16.101
		c21.45,2.68,51.33,32.18,107.19,36.34c3.31,2.26,6.649,4.62,9.93,7.13c19.83,15.18,53.32,46.51,62.54,61.58
		c0.76,1.22,1.351,2.34,1.76,3.34c-11.02-3.47-23.92-5.89-32.109-9.16c-13.41-5.359-26.82-5.359-37.55-2.68
		c-10.73,2.68-37.551,10.729-45.601,5.36c-8.04-5.36,0,0-32.18-10.73c-32.18-10.72-37.55-8.04-45.59-21.45
		c-8.051-13.41-16.09-13.41-21.46-10.729c-5.36,2.68-24.141-2.681-37.551-11.57c-13.189-8.75-50.85-0.28-52.079,0
		c-21.28-13.32-43.03-27.75-65.131-43.21c0.45-0.12,22.811-6.41,41.74,0.01c19.15,6.49,24.521,22.59,43.29,3.811
		C2190.128,2092.123,2199.298,2080.953,2204.988,2073.613z"/>
	<g>
		<path fill="none" stroke="#000000" stroke-width="12" stroke-linecap="round" stroke-linejoin="round" stroke-miterlimit="10" d="
			M2133.008,2017.323c-7.78-9.51-11.67-21.11-14.7-24.14c-0.59-0.591-1.271-1.53-2.05-2.75c-6.34-9.92-19.07-38.36-38.181-45.521
			c-11.64-4.36-21.43-16.36-30.96-28.57"/>
		<path fill="none" stroke="#000000" stroke-width="12" stroke-linecap="round" stroke-linejoin="round" stroke-miterlimit="10" d="
			M2216.558,2068.923c0,0-29.91-38.189-57.38-38.189c-6.07,0-11.2-1.57-15.54-4.08"/>
		<path fill="none" stroke="#000000" stroke-width="12" stroke-linecap="round" stroke-linejoin="round" stroke-miterlimit="10" d="
			M2389.098,2131.443c-55.86-4.16-85.74-33.66-107.19-36.34c-21.46-2.69-24.14-8.051-32.18-16.101
			c-8.05-8.04-5.41-8.899-21.47-13.84c-7.771-2.38-10.32,1.19-11.7,3.76c-1.46,2.75-1.57,4.351-5.271-3.76c0,0-2.29,3.28-6.3,8.45
			c-5.689,7.34-14.859,18.51-25.88,29.53c-18.77,18.779-24.14,2.68-43.29-3.811c-18.93-6.42-41.29-0.13-41.74-0.01
			c-0.02,0.01-0.02,0.01-0.02,0.01"/>
		<path fill="none" stroke="#000000" stroke-width="12" stroke-linecap="round" stroke-linejoin="round" stroke-miterlimit="10" d="
			M2204.988,2073.613c-3.77-2.561-7.55-5.19-11.34-7.88c-1.26-0.9-2.54-1.8-3.8-2.71c-1.271-0.91-2.55-1.84-3.811-2.76
			c-1.27-0.931-2.55-1.87-3.819-2.82c-2.471-1.82-4.94-3.67-7.41-5.561c-1.36-1.04-2.73-2.08-4.08-3.14c-1.29-0.99-2.58-2-3.85-3
			c-7.71-6.05-15.46-12.41-23.24-19.09c-1.771-1.51-3.54-3.061-5.311-4.61c-0.89-0.779-1.77-1.56-2.649-2.35
			c-0.9-0.78-1.79-1.58-2.67-2.37c-0.12-0.09-0.261-0.21-0.38-0.32c-1.101-0.979-2.2-1.96-3.301-2.95
			c-1.449-1.3-2.89-2.6-4.369-3.92c-28.95-25.96-63.11-56.76-99.421-89.83c-1.409-1.3-2.829-2.59-4.25-3.88
			c-1.42-1.3-2.84-2.6-4.27-3.88c-1.42-1.319-2.85-2.62-4.29-3.92c-0.64-0.6-1.3-1.189-1.94-1.78
			c-9.09-8.31-18.279-16.71-27.529-25.199c-4.681-4.29-9.391-8.61-14.09-12.94c-2.94-2.71-5.881-5.41-8.83-8.11
			c-6.851-6.319-13.721-12.659-20.57-19.01c-1.98-1.83-3.95-3.66-5.93-5.479c-7.79-7.23-15.57-14.44-23.29-21.65
			c-4.101-3.82-8.19-7.64-12.261-11.43c-1.31-1.24-2.619-2.46-3.92-3.681c-2.899-2.71-5.779-5.409-8.67-8.109
			c-7.2-6.74-14.33-13.46-21.37-20.101c-2.83-2.68-5.64-5.34-8.42-7.97c-4.479-4.25-8.92-8.46-13.31-12.63
			c-2.45-2.33-4.89-4.67-7.32-6.97c-16.59-15.84-32.46-31.15-47.319-45.7c-0.99-0.97-1.971-1.93-2.95-2.89
			c-21.141-20.74-40.12-39.841-55.96-56.44c-0.42-0.43-0.83-0.86-1.24-1.29c-18.16-19.09-32.08-34.82-40.27-45.91
			c-0.4-0.55-0.79-1.09-1.16-1.609c-0.58-0.79-1.11-1.57-1.61-2.311c-0.2-0.29-0.39-0.56-0.58-0.84c-0.44-0.67-0.84-1.32-1.23-1.93
			c-15.46-24.99-22.48-58.41-22.48-91.391c0-1.64,0.02-3.27,0.06-4.91c0.02-1.569,0.08-3.119,0.15-4.689
			c0.02-0.65,0.05-1.29,0.09-1.93c0.04-1.021,0.11-2.03,0.16-3.051c0.12-1.699,0.24-3.399,0.39-5.09c0.13-1.64,0.29-3.26,0.47-4.87
			c0.01-0.13,0.03-0.27,0.04-0.39c0.13-1.26,0.28-2.521,0.44-3.771c0.04-0.399,0.1-0.77,0.15-1.159c0.17-1.37,0.36-2.71,0.58-4.07
			c0.01-0.14,0.04-0.31,0.06-0.47c0.22-1.4,0.45-2.811,0.69-4.21c0.01-0.08,0.02-0.17,0.04-0.25v-0.021
			c0.26-1.55,0.55-3.08,0.86-4.609c0.11-0.601,0.24-1.2,0.36-1.811c0.24-1.18,0.49-2.35,0.76-3.5c0.27-1.25,0.56-2.49,0.87-3.71
			c0.14-0.55,0.27-1.12,0.42-1.65c0.94-3.689,1.97-7.27,3.1-10.76c0.22-0.689,0.45-1.39,0.69-2.08c0.59-1.739,1.2-3.439,1.83-5.13
			c0.44-1.17,0.9-2.32,1.35-3.45c0.56-1.37,1.13-2.72,1.72-4.029c0.36-0.811,0.72-1.601,1.08-2.391"/>
		<path fill="none" stroke="#000000" stroke-width="12" stroke-linecap="round" stroke-linejoin="round" stroke-miterlimit="10" d="
			M2159.178,2142.533c0,0,0.02,0,0.03,0c1.229-0.28,38.89-8.75,52.079,0c13.41,8.89,32.19,14.25,37.551,11.57
			c5.37-2.681,13.409-2.681,21.46,10.729c8.04,13.41,13.41,10.73,45.59,21.45c32.18,10.73,24.14,5.37,32.18,10.73
			c8.05,5.369,34.87-2.681,45.601-5.36c10.729-2.68,24.14-2.68,37.55,2.68c8.189,3.271,21.09,5.69,32.109,9.16
			c2.521,0.79,4.94,1.63,7.181,2.56c0.01,0,0.02,0.011,0.04,0.011c4.01,1.67,7.449,3.58,9.89,5.88
			c-17.38,26.53-41.06,38.76-41.06,38.76"/>
		<path fill="none" stroke="#000000" stroke-width="12" stroke-linecap="round" stroke-linejoin="round" stroke-miterlimit="10" d="
			M2327.368,2059.394c13.141,13.1,22.38,24.909,23.391,32.47c2.27,17.12,19.95,26.979,38.34,39.58c3.31,2.26,6.649,4.62,9.93,7.13
			c19.83,15.18,53.32,46.51,62.54,61.58c0.76,1.22,1.351,2.34,1.76,3.34"/>
		<path fill="none" stroke="#000000" stroke-width="12" stroke-linecap="round" stroke-linejoin="round" stroke-miterlimit="10" d="
			M2116.258,1990.434c0,0,95.029-17.82,132.58,6.319c2.199,1.41,4.47,2.91,6.81,4.49"/>
		<path fill="none" stroke="#000000" stroke-width="12" stroke-linecap="round" stroke-linejoin="round" stroke-miterlimit="10" d="
			M2327.368,2059.394c-9.279,4.22-50.729,18.81-93.88-33.141c0,0,9.141-9.25,22.16-25.01c13.13-15.89,30.19-38.39,45.76-64.7
			c7.601-12.84,14.84-26.58,21.09-40.899c2.431-5.551,4.711-11.19,6.801-16.9c0,0,1.84,11.01,3.939,27.8
			c1.931,15.44,4.08,35.75,5.23,56.86c1.96,36.21,0.97,74.75-9.17,95.03C2329.298,2058.434,2328.628,2058.823,2327.368,2059.394z"/>
		<path fill="none" stroke="#000000" stroke-width="12" stroke-linecap="round" stroke-linejoin="round" stroke-miterlimit="10" d="
			M3005.868,1304.613c26.96,11.83,47.2,21.7,55.73,27.96c40.229,29.51,53.64,74.2-16.09,157.34
			c-14.07,16.78-26.84,33.98-39.641,51.04c-50.71,67.46-102.27,132.46-239.29,158.16l-62.17,11.37l-104.109,19.02
			c0,0-18.771,5.37-56.32-5.359c-14.41-4.13-103.89-23.641-204.92-54.04c-44.5-13.391-91.24-28.87-134.79-46.09
			c-35.67-14.11-67.88-28.841-99.09-45.301c-27.681-14.59-54.58-30.54-82.391-48.58c-29.31-19.029-58.63-41.92-93.88-63.699
			c-15.38-9.521-31.899-18.811-50.06-27.48c-2.271-1.08-4.59-2.16-6.96-3.24c-1.58-0.729-3.19-1.449-4.811-2.16
			c-0.819-0.359-1.64-0.71-2.46-1.069c-0.83-0.37-1.649-0.73-2.489-1.08c-2.511-1.07-5.07-2.14-7.67-3.2
			c-1.73-0.71-3.49-1.42-5.261-2.12c-2.67-1.05-5.359-2.09-8.109-3.14c-0.87-0.33-1.75-0.66-2.63-0.99
			c-0.24-0.08-0.5-0.17-0.74-0.27c-1.65-0.601-3.3-1.221-4.971-1.811c-0.119-0.04-0.239-0.09-0.359-0.13
			c-1.76-0.63-3.53-1.26-5.32-1.88c-2.06-0.72-4.149-1.44-6.24-2.15c-1.64-0.55-3.29-1.1-4.949-1.63
			c-5.04-1.649-10.17-3.26-15.37-4.8c-1.011-0.3-2.011-0.61-3.03-0.89c-1.02-0.311-2.03-0.601-3.06-0.88
			c-3.36-0.98-6.771-1.921-10.19-2.82c0-0.01,0-0.01,0-0.01c-0.04-0.021-0.08-0.021-0.12-0.03c-0.189-0.05-0.39-0.11-0.59-0.15
			c-1.21-0.33-2.43-0.649-3.65-0.96c-0.29-0.08-0.59-0.149-0.88-0.229c-0.96-0.24-1.89-0.48-2.85-0.721
			c-3.21-0.819-6.43-1.6-9.66-2.35c-0.74-0.18-1.48-0.35-2.22-0.51c-3.5-0.811-7.011-1.58-10.521-2.311
			c-3.88-0.8-7.77-1.569-11.66-2.279c-2.01-0.37-4.029-0.721-6.05-1.07c-1.46-0.25-2.92-0.5-4.37-0.72
			c-0.55-0.101-1.109-0.19-1.67-0.271c-2.01-0.31-4.01-0.62-6.01-0.91c-0.03,0-0.04,0-0.05,0c-2-0.29-4-0.569-6-0.819
			c-1.49-0.19-2.96-0.38-4.44-0.551c-4.44-0.52-8.85-0.97-13.23-1.34c-0.07-0.02-0.15-0.02-0.23-0.02
			c-1.31-0.12-2.64-0.22-3.96-0.32c-1.7-0.12-3.39-0.22-5.06-0.32c-58.39-3.34-109.87,8.921-129.91,50.931
			c-13.24,27.729-12.79,68.43,8.44,126.16c0,0-13.41,43.81,230.65,285.189c71.08,70.311,143.17,133.8,213.08,188.391
			c27.33,21.369,54.32,41.34,80.81,59.85c22.101,15.46,43.851,29.89,65.131,43.21c111.77,70,210.479,109.52,280.17,108.17
			c0,0-171.65,78.68-393.351-25.93c-138.64-65.431-285.29-181.45-417.19-219.29c-2.54-0.73-5.06-1.42-7.58-2.09h-0.01
			c-13.35-3.54-26.51-6.24-39.51-7.971c-45.35-6.06-88.49-0.35-128.42,22.841"/>
	</g>
	<path fill="none" stroke="#000000" stroke-width="12" stroke-linecap="round" stroke-linejoin="round" stroke-miterlimit="10" d="
		M558.851,1970.951c4.813-19.363,15.287-37.976,21.804-52.633c8.045-18.103,36.207-68.391,82.47-72.413c0,0,0.737-0.188,2.051-0.401
		c7.309-1.208,32.278-3.366,44.213,20.517c11.667,23.346,10.902,30.104-2.307,31.727c-2.722,0.335-5.98,0.456-9.762,0.456
		c-14.228,0-36.207,12.07-44.253,34.195c-8.046,22.125-32.184,68.389-36.206,74.426c-2.105,3.149-6.062,16.412-12.713,24.62
		c-6.115,7.508-14.496,10.781-25.813-1.891c-22.114-24.742-23.83-20.72-21.818-44.857
		C556.906,1980.097,557.724,1975.512,558.851,1970.951z"/>
	<path fill="#070707" d="M1127.253,2228.554c2.682-10.728-24.688-16.602-32.559-19.013c-17.433-5.365-30.843-10.73-41.852-1.517
		c-17.151,14.362-10.889,39.062-16.253,52.472c-0.254,0.645-0.589,1.248-0.993,1.797c-3.097,4.238-10.231,5.62-18.236,5.136
		c-0.416-0.024-0.832-0.053-1.248-0.093c-5.954-0.496-12.284-1.983-17.729-4.075c2.603-1.73,4.922-3.661,6.961-5.526
		c3.071-2.788,5.471-5.444,7.106-7.079c5.364-5.365,21.456-38.435,34.865-102.803c5.552-26.67,8.502-43.981,9.481-55.487
		c0.121-1.355,0.202-2.616,0.268-3.809c5.485-1.852,10.527-2.777,14.832-2.387c13.074,1.179,19.216,6.597,21.764,12.725
		c3.206,7.699,0.737,16.521-0.751,19.484c-2.682,5.338,0,34.839,26.82,29.474c26.82-5.362,21.456-5.362,26.82-18.772
		c3.741-9.359,7.577-17.955,24.231-20.087c7.201-0.926,16.816-0.644,29.85,1.314c3.473,0.522,6.625,1.287,9.48,2.266
		c19.244,6.516,25.036,22.26,22.704,33.939c-2.669,13.37-19.995,118.652-38.701,129.955c-0.068,0.056-0.121,0.079-0.188,0.121
		c-18.774,10.728-39.331,8.046-58.105,2.683c-4.158-1.194-7.013-3.809-8.931-7.282
		C1120.146,2259.76,1125.162,2236.91,1127.253,2228.554z"/>
	<path fill="#070707" d="M1050.898,2068.28c4.318,2.884,6.839,7.054,6.168,20.276c-0.066,1.192-0.147,2.453-0.268,3.809
		c-0.979,11.506-3.929,28.817-9.481,55.487c-13.409,64.368-29.501,97.438-34.865,102.803c-1.636,1.635-4.036,4.291-7.106,7.079
		c-2.039,1.865-4.358,3.796-6.961,5.526c-6.315,4.263-14.254,7.48-23.48,6.167c-18.774-2.683-119.79-34.865-141.247-40.229
		c-13.034-3.26-15.179-13.451-14.857-20.948c0.214-4.84,1.448-8.554,1.448-8.554s34.866-142.145,42.912-152.872
		c2.709-3.608,3.594-9.644,5.726-15.449c4.184-11.466,13.209-22.046,50.596-11.371c48.194,13.771,104.248,35.388,124.457,44.707
		C1047.344,2066.281,1049.73,2067.502,1050.898,2068.28z"/>
	<path fill="none" stroke="#000000" stroke-width="12" stroke-linecap="round" stroke-linejoin="round" stroke-miterlimit="10" d="
		M1057.066,2088.557c5.485-1.852,10.527-2.777,14.832-2.387c13.074,1.179,19.216,6.597,21.764,12.725
		c3.206,7.699,0.737,16.521-0.751,19.484c-2.682,5.338,0,34.839,26.82,29.474c26.82-5.362,21.456-5.362,26.82-18.772
		c3.741-9.359,7.577-17.955,24.231-20.087c7.201-0.926,16.816-0.644,29.85,1.314c3.473,0.522,6.625,1.287,9.48,2.266
		c19.244,6.516,25.036,22.26,22.704,33.939c-2.669,13.37-19.995,118.652-38.701,129.955c-0.068,0.056-0.121,0.079-0.188,0.121
		c-18.774,10.728-39.331,8.046-58.105,2.683c-4.158-1.194-7.013-3.809-8.931-7.282c-6.745-12.229-1.729-35.079,0.362-43.436
		c2.682-10.728-24.688-16.602-32.559-19.013c-17.433-5.365-30.843-10.73-41.852-1.517c-17.151,14.362-10.889,39.062-16.253,52.472
		c-0.254,0.645-0.589,1.248-0.993,1.797c-3.097,4.238-10.231,5.62-18.236,5.136c-0.416-0.024-0.832-0.053-1.248-0.093
		c-5.954-0.496-12.284-1.983-17.729-4.075"/>
	<path fill="none" stroke="#000000" stroke-width="12" stroke-linecap="round" stroke-linejoin="round" stroke-miterlimit="10" d="
		M998.384,2263.261c-6.315,4.263-14.254,7.48-23.48,6.167c-18.774-2.683-119.79-34.865-141.247-40.229
		c-13.034-3.26-15.179-13.451-14.857-20.948c0.214-4.84,1.448-8.554,1.448-8.554s34.866-142.145,42.912-152.872
		c2.709-3.608,3.594-9.644,5.726-15.449c4.184-11.466,13.209-22.046,50.596-11.371c48.194,13.771,104.248,35.388,124.457,44.707
		c3.406,1.569,5.792,2.79,6.96,3.568c4.318,2.884,6.839,7.054,6.168,20.276c-0.066,1.192-0.147,2.453-0.268,3.809
		c-0.979,11.506-3.929,28.817-9.481,55.487c-13.409,64.368-29.501,97.438-34.865,102.803c-1.636,1.635-4.036,4.291-7.106,7.079
		C1003.307,2259.6,1000.987,2261.53,998.384,2263.261z"/>
</g>
<g id="Layer_6">
	<path fill="#F7CA18" d="M1048.118,2303.329c77.082,20.255,131.93,96.583,127.063,184.298
		c-5.521,99.415-85.59,175.79-178.855,170.639c-93.255-5.196-164.431-89.949-158.91-189.35
		c5.372-96.993,81.751-172.071,172.09-170.828c2.246,0.021,4.512,0.097,6.756,0.235
		C1027.219,2298.934,1037.86,2300.625,1048.118,2303.329z"/>
	<path fill="none" stroke="#000000" stroke-width="12" stroke-linecap="round" stroke-linejoin="round" stroke-miterlimit="10" d="
		M1048.118,2303.329c77.082,20.255,131.93,96.583,127.063,184.298c-5.521,99.415-85.59,175.79-178.855,170.639
		c-93.255-5.196-164.431-89.949-158.91-189.35c5.372-96.993,81.751-172.071,172.09-170.828c2.246,0.021,4.512,0.097,6.756,0.235
		C1027.219,2298.934,1037.86,2300.625,1048.118,2303.329z"/>
	<g>
		<path d="M859.628,2471.639l10.294,0.612c-0.371,5.528,0.145,9.97,1.548,13.323c1.403,3.354,3.725,6.249,6.968,8.687
			c3.242,2.438,7.089,4.027,11.539,4.771c6.382,1.068,11.598,0.339,15.649-2.188c4.049-2.526,6.491-6.28,7.324-11.259
			c0.488-2.915,0.273-5.567-0.644-7.956c-0.917-2.392-2.552-4.498-4.903-6.32c-2.353-1.824-7.608-4.724-15.769-8.7
			c-7.262-3.547-12.318-6.737-15.171-9.571s-4.884-6.164-6.091-9.994c-1.208-3.829-1.439-7.969-0.695-12.419
			c1.338-8,5.017-14.108,11.036-18.323c6.018-4.214,13.41-5.588,22.175-4.122c6.023,1.008,11.094,3.081,15.213,6.218
			c4.119,3.139,7.054,7.141,8.804,12.008c1.75,4.868,2.211,10.328,1.384,16.381l-10.474-0.782
			c0.536-6.517-0.589-11.604-3.374-15.257c-2.785-3.654-7.167-5.981-13.145-6.981c-6.068-1.015-10.925-0.431-14.571,1.756
			c-3.647,2.185-5.83,5.435-6.552,9.749c-0.669,4.001-0.02,7.297,1.951,9.89c1.968,2.594,6.854,5.702,14.653,9.327
			c7.625,3.552,12.921,6.41,15.884,8.575c4.519,3.355,7.696,7.299,9.531,11.829c1.835,4.53,2.277,9.646,1.323,15.349
			c-0.946,5.657-3.134,10.589-6.563,14.791c-3.43,4.203-7.629,7.136-12.596,8.798c-4.968,1.661-10.666,1.954-17.093,0.879
			c-10.024-1.677-17.51-6.023-22.458-13.045C859.856,2490.644,858.131,2481.969,859.628,2471.639z"/>
		<path d="M927.454,2543.907l16.568-99.045l9.169,1.534l-1.557,9.305c2.89-3.49,5.847-5.859,8.87-7.111
			c3.023-1.25,6.307-1.579,9.853-0.985c4.623,0.773,8.566,2.843,11.833,6.208c3.265,3.364,5.563,8.034,6.894,14.01
			c1.33,5.975,1.337,12.896,0.021,20.762c-2.038,12.181-6.159,21.138-12.361,26.868c-6.204,5.732-12.744,8.022-19.621,6.872
			c-3.057-0.511-5.78-1.775-8.168-3.792c-2.389-2.017-4.31-4.625-5.76-7.825l-5.831,34.858L927.454,2543.907z M947.012,2482.582
			c-1.549,9.26-1.144,16.339,1.217,21.238c2.36,4.9,5.737,7.719,10.132,8.453c4.214,0.705,8.292-0.945,12.235-4.953
			c3.944-4.008,6.708-10.753,8.294-20.237c1.564-9.349,1.175-16.53-1.166-21.543c-2.343-5.012-5.733-7.89-10.171-8.632
			c-3.991-0.668-8.027,1.142-12.108,5.425C951.364,2466.618,948.553,2473.367,947.012,2482.582z"/>
		<path d="M997.23,2490.566c2.068-12.36,6.224-21.252,12.468-26.678c6.245-5.424,13.345-7.471,21.3-6.141
			c7.821,1.309,13.835,5.55,18.041,12.722c4.207,7.174,5.317,16.691,3.333,28.559c-2.151,12.855-6.338,21.997-12.559,27.425
			c-6.223,5.43-13.333,7.474-21.334,6.135c-7.866-1.315-13.89-5.568-18.069-12.76C996.229,2512.637,995.17,2502.883,997.23,2490.566
			z M1007.417,2492.236c-1.551,9.271-1.019,16.45,1.596,21.535c2.615,5.089,6.417,8.049,11.406,8.883
			c4.674,0.782,9.068-0.831,13.181-4.839c4.112-4.007,6.937-10.602,8.473-19.782c1.543-9.226,1.008-16.381-1.607-21.469
			c-2.614-5.087-6.417-8.048-11.406-8.883c-4.72-0.789-9.123,0.811-13.209,4.8
			C1011.763,2476.471,1008.952,2483.056,1007.417,2492.236z"/>
		<path d="M1081.92,2530.378l-0.445,10.946c-2.862,0.26-5.395,0.206-7.597-0.162c-3.462-0.579-6.134-1.731-8.017-3.454
			c-1.883-1.725-3.02-3.844-3.407-6.357c-0.389-2.514,0.012-7.321,1.2-14.425l6.891-41.195l-7.282-1.218l1.579-9.439l7.282,1.218
			l2.966-17.73l11.129-5.625l-4.184,25.014l10.046,1.681l-1.579,9.439l-10.046-1.681l-7.004,41.87
			c-0.647,3.866-0.772,6.409-0.375,7.63c0.583,1.762,2.043,2.838,4.381,3.229C1078.582,2530.306,1080.069,2530.393,1081.92,2530.378
			z"/>
		<path d="M1113.407,2535.646l-0.445,10.946c-2.862,0.26-5.395,0.205-7.597-0.163c-3.462-0.579-6.133-1.73-8.017-3.454
			c-1.884-1.725-3.02-3.843-3.407-6.357c-0.388-2.514,0.012-7.321,1.2-14.424l6.891-41.195l-7.282-1.218l1.579-9.439l7.282,1.218
			l2.966-17.731l11.129-5.624l-4.184,25.014l10.046,1.681l-1.579,9.439l-10.046-1.681l-7.004,41.87
			c-0.647,3.866-0.772,6.409-0.375,7.63c0.583,1.761,2.043,2.838,4.381,3.229C1110.068,2535.572,1111.556,2535.66,1113.407,2535.646
			z"/>
		<path d="M1120.963,2548.068l11.978-71.604l9.911,1.658l-11.978,71.604L1120.963,2548.068z M1135.163,2463.183l2.335-13.956
			l9.911,1.658l-2.335,13.956L1135.163,2463.183z"/>
	</g>
</g>
</svg>
